<svg width="48" height="48" viewBox="0 0 48 48" fill="none" xmlns="http://www.w3.org/2000/svg">
<mask id="path-1-inside-1" fill="white">
<path d="M39.2727 30.5109C37.7197 30.5184 36.1976 30.9435 34.8676 31.7412L31.4902 28.3822C32.4548 26.7997 32.8736 24.9474 32.683 23.1066C32.4924 21.2659 31.7028 19.5373 30.4342 18.1836L32.4698 13.1233C32.5571 13.1233 32.64 13.1494 32.7273 13.1494C34.2773 13.1645 35.7834 12.6375 36.9823 11.6603C38.1813 10.6832 38.9969 9.31815 39.2866 7.80368C39.5763 6.2892 39.3217 4.72164 38.5673 3.37491C37.8129 2.02817 36.6066 0.987919 35.1593 0.435921C33.712 -0.116077 32.1156 -0.144715 30.6492 0.355013C29.1828 0.85474 27.9396 1.85105 27.1369 3.16985C26.3341 4.48865 26.0228 6.04606 26.2574 7.56994C26.492 9.09382 27.2576 10.4873 28.4204 11.5067L26.6989 15.788C25.5328 15.3787 24.2894 15.2347 23.0599 15.3665C21.8305 15.4984 20.6465 15.9026 19.5949 16.5496L12.4516 9.44749L12.4364 9.43447C12.8636 8.56461 13.0874 7.60988 13.0909 6.64179C13.0909 5.35429 12.707 4.0957 11.9878 3.02517C11.2686 1.95465 10.2463 1.12028 9.05029 0.627573C7.85427 0.134866 6.5382 0.00595099 5.2685 0.257131C3.99881 0.508311 2.83252 1.1283 1.91712 2.03871C1.00172 2.94911 0.37833 4.10904 0.125772 5.37181C-0.126786 6.63457 0.00283608 7.94346 0.498246 9.13297C0.993656 10.3225 1.8326 11.3391 2.909 12.0544C3.98539 12.7697 5.25089 13.1515 6.54546 13.1515C7.51882 13.1478 8.47874 12.9252 9.35346 12.5006L9.36655 12.5201L16.5098 19.6201C15.5575 21.181 15.1372 23.0059 15.3113 24.8234C15.4855 26.6409 16.2448 28.354 17.4764 29.708L11.28 37.2376C10.805 37.0989 10.3132 37.0259 9.81818 37.0206C8.61141 37.0064 7.43321 37.3859 6.46395 38.101C5.49469 38.8161 4.78779 39.8275 4.45146 40.9802C4.11514 42.1329 4.16793 43.3635 4.60175 44.4835C5.03557 45.6036 5.82652 46.5514 6.85351 47.1818C7.88049 47.8122 9.08691 48.0905 10.2881 47.9741C11.4892 47.8577 12.619 47.353 13.5043 46.5373C14.3896 45.7216 14.9817 44.6398 15.19 43.4575C15.3982 42.2753 15.2112 41.0577 14.6575 39.9912L21.1047 32.1513C22.2947 32.5959 23.5713 32.7639 24.8366 32.6424C26.1019 32.521 27.3226 32.1132 28.4051 31.4504L31.7825 34.8095C30.9805 36.1322 30.5531 37.6459 30.5455 39.1905C30.5455 40.9072 31.0573 42.5853 32.0163 44.0127C32.9752 45.44 34.3382 46.5525 35.9329 47.2095C37.5276 47.8664 39.2824 48.0383 40.9753 47.7034C42.6683 47.3685 44.2233 46.5418 45.4438 45.328C46.6644 44.1141 47.4956 42.5675 47.8323 40.8838C48.169 39.2001 47.9962 37.455 47.3357 35.869C46.6751 34.283 45.5565 32.9274 44.1213 31.9736C42.6861 31.0199 40.9988 30.5109 39.2727 30.5109ZM6.54546 8.81171C6.11393 8.81171 5.6921 8.68444 5.3333 8.44601C4.97451 8.20758 4.69486 7.86868 4.52972 7.47218C4.36458 7.07568 4.32138 6.63939 4.40556 6.21846C4.48975 5.79754 4.69755 5.4109 5.00268 5.10743C5.30781 4.80396 5.69657 4.5973 6.1198 4.51357C6.54304 4.42985 6.98173 4.47282 7.3804 4.63705C7.77908 4.80129 8.11983 5.07941 8.35957 5.43625C8.59931 5.79309 8.72727 6.21263 8.72727 6.64179C8.72727 7.21729 8.4974 7.76922 8.08823 8.17616C7.67906 8.58309 7.12411 8.81171 6.54546 8.81171ZM19.6364 24.0011C19.6364 23.1428 19.8923 22.3037 20.3718 21.59C20.8512 20.8764 21.5328 20.3201 22.3301 19.9916C23.1275 19.6632 24.0048 19.5772 24.8513 19.7447C25.6978 19.9121 26.4753 20.3255 27.0856 20.9324C27.6958 21.5393 28.1114 22.3126 28.2798 23.1545C28.4482 23.9963 28.3617 24.8689 28.0315 25.6619C27.7012 26.4549 27.1419 27.1327 26.4243 27.6096C25.7067 28.0864 24.863 28.3409 24 28.3409C22.8427 28.3409 21.7328 27.8837 20.9144 27.0698C20.0961 26.256 19.6364 25.1521 19.6364 24.0011ZM39.2727 43.5304C38.4097 43.5304 37.566 43.2758 36.8484 42.799C36.1308 42.3221 35.5715 41.6443 35.2412 40.8513C34.911 40.0583 34.8246 39.1857 34.9929 38.3439C35.1613 37.502 35.5769 36.7287 36.1872 36.1218C36.7974 35.5149 37.575 35.1015 38.4214 34.9341C39.2679 34.7666 40.1453 34.8526 40.9426 35.181C41.74 35.5095 42.4215 36.0658 42.901 36.7794C43.3804 37.4931 43.6364 38.3322 43.6364 39.1905C43.6364 40.3415 43.1766 41.4454 42.3583 42.2592C41.5399 43.0731 40.43 43.5304 39.2727 43.5304ZM41.4545 19.6613C42.3176 19.6613 43.1613 19.9158 43.8788 20.3927C44.5964 20.8695 45.1557 21.5473 45.486 22.3403C45.8163 23.1333 45.9027 24.0059 45.7343 24.8478C45.566 25.6896 45.1504 26.4629 44.5401 27.0698C43.9298 27.6768 43.1523 28.0901 42.3058 28.2576C41.4594 28.425 40.582 28.3391 39.7846 28.0106C38.9873 27.6821 38.3058 27.1259 37.8263 26.4122C37.3468 25.6985 37.0909 24.8595 37.0909 24.0011C37.0909 22.8501 37.5506 21.7463 38.369 20.9324C39.1873 20.1185 40.2972 19.6613 41.4545 19.6613ZM6.54546 26.171C5.68241 26.171 4.83875 25.9165 4.12115 25.4396C3.40355 24.9628 2.84426 24.285 2.51398 23.492C2.18371 22.699 2.0973 21.8264 2.26567 20.9845C2.43404 20.1427 2.84963 19.3694 3.4599 18.7625C4.07017 18.1555 4.84769 17.7422 5.69415 17.5748C6.54062 17.4073 7.418 17.4932 8.21535 17.8217C9.0127 18.1502 9.6942 18.7064 10.1737 19.4201C10.6532 20.1338 10.9091 20.9729 10.9091 21.8312C10.9091 22.9822 10.4494 24.086 9.63101 24.8999C8.81267 25.7138 7.70276 26.171 6.54546 26.171ZM48 13.1515C48 13.5807 47.872 14.0002 47.6323 14.3571C47.3926 14.7139 47.0518 14.992 46.6531 15.1563C46.2544 15.3205 45.8158 15.3635 45.3925 15.2798C44.9693 15.196 44.5805 14.9894 44.2754 14.6859C43.9703 14.3824 43.7625 13.9958 43.6783 13.5749C43.5941 13.1539 43.6373 12.7176 43.8024 12.3211C43.9676 11.9246 44.2472 11.5858 44.606 11.3473C44.9648 11.1089 45.3867 10.9816 45.8182 10.9816C46.3968 10.9816 46.9518 11.2102 47.361 11.6172C47.7701 12.0241 48 12.576 48 13.1515ZM2.18182 30.5109C2.61334 30.5109 3.03518 30.6381 3.39397 30.8766C3.75277 31.115 4.03242 31.4539 4.19756 31.8504C4.36269 32.2469 4.4059 32.6832 4.32172 33.1041C4.23753 33.525 4.02973 33.9117 3.7246 34.2151C3.41947 34.5186 3.0307 34.7253 2.60747 34.809C2.18424 34.8927 1.74555 34.8498 1.34688 34.6855C0.9482 34.5213 0.607447 34.2432 0.367706 33.8863C0.127964 33.5295 3.00995e-06 33.1099 3.00995e-06 32.6808C3.00995e-06 32.1053 0.229872 31.5534 0.639042 31.1464C1.04821 30.7395 1.60317 30.5109 2.18182 30.5109Z"/>
</mask>
<path d="M39.2727 30.5109C37.7197 30.5184 36.1976 30.9435 34.8676 31.7412L31.4902 28.3822C32.4548 26.7997 32.8736 24.9474 32.683 23.1066C32.4924 21.2659 31.7028 19.5373 30.4342 18.1836L32.4698 13.1233C32.5571 13.1233 32.64 13.1494 32.7273 13.1494C34.2773 13.1645 35.7834 12.6375 36.9823 11.6603C38.1813 10.6832 38.9969 9.31815 39.2866 7.80368C39.5763 6.2892 39.3217 4.72164 38.5673 3.37491C37.8129 2.02817 36.6066 0.987919 35.1593 0.435921C33.712 -0.116077 32.1156 -0.144715 30.6492 0.355013C29.1828 0.85474 27.9396 1.85105 27.1369 3.16985C26.3341 4.48865 26.0228 6.04606 26.2574 7.56994C26.492 9.09382 27.2576 10.4873 28.4204 11.5067L26.6989 15.788C25.5328 15.3787 24.2894 15.2347 23.0599 15.3665C21.8305 15.4984 20.6465 15.9026 19.5949 16.5496L12.4516 9.44749L12.4364 9.43447C12.8636 8.56461 13.0874 7.60988 13.0909 6.64179C13.0909 5.35429 12.707 4.0957 11.9878 3.02517C11.2686 1.95465 10.2463 1.12028 9.05029 0.627573C7.85427 0.134866 6.5382 0.00595099 5.2685 0.257131C3.99881 0.508311 2.83252 1.1283 1.91712 2.03871C1.00172 2.94911 0.37833 4.10904 0.125772 5.37181C-0.126786 6.63457 0.00283608 7.94346 0.498246 9.13297C0.993656 10.3225 1.8326 11.3391 2.909 12.0544C3.98539 12.7697 5.25089 13.1515 6.54546 13.1515C7.51882 13.1478 8.47874 12.9252 9.35346 12.5006L9.36655 12.5201L16.5098 19.6201C15.5575 21.181 15.1372 23.0059 15.3113 24.8234C15.4855 26.6409 16.2448 28.354 17.4764 29.708L11.28 37.2376C10.805 37.0989 10.3132 37.0259 9.81818 37.0206C8.61141 37.0064 7.43321 37.3859 6.46395 38.101C5.49469 38.8161 4.78779 39.8275 4.45146 40.9802C4.11514 42.1329 4.16793 43.3635 4.60175 44.4835C5.03557 45.6036 5.82652 46.5514 6.85351 47.1818C7.88049 47.8122 9.08691 48.0905 10.2881 47.9741C11.4892 47.8577 12.619 47.353 13.5043 46.5373C14.3896 45.7216 14.9817 44.6398 15.19 43.4575C15.3982 42.2753 15.2112 41.0577 14.6575 39.9912L21.1047 32.1513C22.2947 32.5959 23.5713 32.7639 24.8366 32.6424C26.1019 32.521 27.3226 32.1132 28.4051 31.4504L31.7825 34.8095C30.9805 36.1322 30.5531 37.6459 30.5455 39.1905C30.5455 40.9072 31.0573 42.5853 32.0163 44.0127C32.9752 45.44 34.3382 46.5525 35.9329 47.2095C37.5276 47.8664 39.2824 48.0383 40.9753 47.7034C42.6683 47.3685 44.2233 46.5418 45.4438 45.328C46.6644 44.1141 47.4956 42.5675 47.8323 40.8838C48.169 39.2001 47.9962 37.455 47.3357 35.869C46.6751 34.283 45.5565 32.9274 44.1213 31.9736C42.6861 31.0199 40.9988 30.5109 39.2727 30.5109ZM6.54546 8.81171C6.11393 8.81171 5.6921 8.68444 5.3333 8.44601C4.97451 8.20758 4.69486 7.86868 4.52972 7.47218C4.36458 7.07568 4.32138 6.63939 4.40556 6.21846C4.48975 5.79754 4.69755 5.4109 5.00268 5.10743C5.30781 4.80396 5.69657 4.5973 6.1198 4.51357C6.54304 4.42985 6.98173 4.47282 7.3804 4.63705C7.77908 4.80129 8.11983 5.07941 8.35957 5.43625C8.59931 5.79309 8.72727 6.21263 8.72727 6.64179C8.72727 7.21729 8.4974 7.76922 8.08823 8.17616C7.67906 8.58309 7.12411 8.81171 6.54546 8.81171ZM19.6364 24.0011C19.6364 23.1428 19.8923 22.3037 20.3718 21.59C20.8512 20.8764 21.5328 20.3201 22.3301 19.9916C23.1275 19.6632 24.0048 19.5772 24.8513 19.7447C25.6978 19.9121 26.4753 20.3255 27.0856 20.9324C27.6958 21.5393 28.1114 22.3126 28.2798 23.1545C28.4482 23.9963 28.3617 24.8689 28.0315 25.6619C27.7012 26.4549 27.1419 27.1327 26.4243 27.6096C25.7067 28.0864 24.863 28.3409 24 28.3409C22.8427 28.3409 21.7328 27.8837 20.9144 27.0698C20.0961 26.256 19.6364 25.1521 19.6364 24.0011ZM39.2727 43.5304C38.4097 43.5304 37.566 43.2758 36.8484 42.799C36.1308 42.3221 35.5715 41.6443 35.2412 40.8513C34.911 40.0583 34.8246 39.1857 34.9929 38.3439C35.1613 37.502 35.5769 36.7287 36.1872 36.1218C36.7974 35.5149 37.575 35.1015 38.4214 34.9341C39.2679 34.7666 40.1453 34.8526 40.9426 35.181C41.74 35.5095 42.4215 36.0658 42.901 36.7794C43.3804 37.4931 43.6364 38.3322 43.6364 39.1905C43.6364 40.3415 43.1766 41.4454 42.3583 42.2592C41.5399 43.0731 40.43 43.5304 39.2727 43.5304ZM41.4545 19.6613C42.3176 19.6613 43.1613 19.9158 43.8788 20.3927C44.5964 20.8695 45.1557 21.5473 45.486 22.3403C45.8163 23.1333 45.9027 24.0059 45.7343 24.8478C45.566 25.6896 45.1504 26.4629 44.5401 27.0698C43.9298 27.6768 43.1523 28.0901 42.3058 28.2576C41.4594 28.425 40.582 28.3391 39.7846 28.0106C38.9873 27.6821 38.3058 27.1259 37.8263 26.4122C37.3468 25.6985 37.0909 24.8595 37.0909 24.0011C37.0909 22.8501 37.5506 21.7463 38.369 20.9324C39.1873 20.1185 40.2972 19.6613 41.4545 19.6613ZM6.54546 26.171C5.68241 26.171 4.83875 25.9165 4.12115 25.4396C3.40355 24.9628 2.84426 24.285 2.51398 23.492C2.18371 22.699 2.0973 21.8264 2.26567 20.9845C2.43404 20.1427 2.84963 19.3694 3.4599 18.7625C4.07017 18.1555 4.84769 17.7422 5.69415 17.5748C6.54062 17.4073 7.418 17.4932 8.21535 17.8217C9.0127 18.1502 9.6942 18.7064 10.1737 19.4201C10.6532 20.1338 10.9091 20.9729 10.9091 21.8312C10.9091 22.9822 10.4494 24.086 9.63101 24.8999C8.81267 25.7138 7.70276 26.171 6.54546 26.171ZM48 13.1515C48 13.5807 47.872 14.0002 47.6323 14.3571C47.3926 14.7139 47.0518 14.992 46.6531 15.1563C46.2544 15.3205 45.8158 15.3635 45.3925 15.2798C44.9693 15.196 44.5805 14.9894 44.2754 14.6859C43.9703 14.3824 43.7625 13.9958 43.6783 13.5749C43.5941 13.1539 43.6373 12.7176 43.8024 12.3211C43.9676 11.9246 44.2472 11.5858 44.606 11.3473C44.9648 11.1089 45.3867 10.9816 45.8182 10.9816C46.3968 10.9816 46.9518 11.2102 47.361 11.6172C47.7701 12.0241 48 12.576 48 13.1515ZM2.18182 30.5109C2.61334 30.5109 3.03518 30.6381 3.39397 30.8766C3.75277 31.115 4.03242 31.4539 4.19756 31.8504C4.36269 32.2469 4.4059 32.6832 4.32172 33.1041C4.23753 33.525 4.02973 33.9117 3.7246 34.2151C3.41947 34.5186 3.0307 34.7253 2.60747 34.809C2.18424 34.8927 1.74555 34.8498 1.34688 34.6855C0.9482 34.5213 0.607447 34.2432 0.367706 33.8863C0.127964 33.5295 3.00995e-06 33.1099 3.00995e-06 32.6808C3.00995e-06 32.1053 0.229872 31.5534 0.639042 31.1464C1.04821 30.7395 1.60317 30.5109 2.18182 30.5109Z" fill="#2CA1C7" stroke="#F4F4F4" stroke-width="2" mask="url(#path-1-inside-1)"/>
</svg>
