<svg width="48" height="48" viewBox="0 0 48 48" fill="none" xmlns="http://www.w3.org/2000/svg">
<path d="M43.1364 43.6363V44.1363H43.6364H45.8182C46.2642 44.1363 46.692 44.3135 47.0074 44.6289C47.3228 44.9443 47.5 45.3721 47.5 45.8182C47.5 46.2642 47.3228 46.692 47.0074 47.0074C46.692 47.3228 46.2642 47.5 45.8182 47.5H2.18182C1.73577 47.5 1.308 47.3228 0.992596 47.0074C0.677192 46.692 0.5 46.2642 0.5 45.8182C0.5 45.3721 0.677192 44.9443 0.992595 44.6289C1.308 44.3135 1.73577 44.1363 2.18182 44.1363H4.36364H4.86364V43.6363V28.3634C4.86364 26.7601 5.50057 25.2224 6.63431 24.0886C7.76805 22.9549 9.30574 22.3179 10.9091 22.3179H11.4091V21.8179V17.0528V16.6992L11.0758 16.5814C9.73122 16.106 8.59802 15.1706 7.87644 13.9405C7.15486 12.7105 6.89136 11.2649 7.13252 9.85931C7.37367 8.45373 8.10396 7.17866 9.19429 6.25946C10.2846 5.34025 11.6648 4.8361 13.0909 4.8361C14.517 4.8361 15.8972 5.34025 16.9875 6.25946C18.0779 7.17866 18.8081 8.45373 19.0493 9.85931C19.2905 11.2649 19.027 12.7105 18.3054 13.9405C17.5838 15.1706 16.4506 16.106 15.1061 16.5814L14.7727 16.6992V17.0528V21.8179V22.3179H15.2727H24.3753H24.8753V21.8179V11.044V10.9777L24.858 10.9136C24.6319 10.0766 24.5117 9.2146 24.5 8.3477C24.497 6.98165 24.7647 5.62853 25.2877 4.36655C25.8111 3.10373 26.5796 1.95722 27.5489 0.993362L27.5499 0.992418C27.8653 0.677122 28.293 0.5 28.7389 0.5C29.1849 0.5 29.6126 0.677122 29.928 0.992418L42.2682 13.335C42.5835 13.6504 42.7606 14.0781 42.7606 14.524C42.7606 14.97 42.5835 15.3977 42.2682 15.7131L42.2679 15.7134C40.551 17.4336 38.2849 18.4969 35.8646 18.7179C33.4442 18.9389 31.0231 18.3036 29.023 16.9228L28.2389 16.3815V17.3342V21.8179V22.3179H28.7389H37.0909C38.6943 22.3179 40.2319 22.9549 41.3657 24.0886C42.4994 25.2224 43.1364 26.7601 43.1364 28.3634V43.6363ZM38.0816 13.9021L29.3893 5.20976L28.9237 4.51154L28.545 5.30676C27.9183 6.62248 27.7143 8.09998 27.9611 9.53629C28.2079 10.9726 28.8934 12.2973 29.9234 13.3283L29.9233 13.3283L29.9288 13.3336C30.969 14.3439 32.2904 15.0159 33.7196 15.2616C35.1487 15.5072 36.6187 15.315 37.9366 14.7101L38.5897 14.4103L38.0816 13.9021ZM24 44.1363H24.5V43.6363V39.2726C24.5 38.272 24.1025 37.3124 23.395 36.6049C22.6875 35.8974 21.7279 35.4999 20.7273 35.4999C19.7267 35.4999 18.7671 35.8974 18.0596 36.6049C17.352 37.3124 16.9545 38.272 16.9545 39.2726V43.6363V44.1363H17.4545H24ZM39.2727 31.0453H39.7727V30.5453V28.3634C39.7727 27.6522 39.4902 26.97 38.9872 26.4671C38.4843 25.9642 37.8022 25.6816 37.0909 25.6816H10.9091C10.1978 25.6816 9.5157 25.9642 9.01276 26.4671C8.50982 26.97 8.22727 27.6522 8.22727 28.3634V43.6363V44.1363H8.72727H13.0909H13.5909V43.6363V39.2726C13.5909 37.3799 14.3428 35.5648 15.6811 34.2264C17.0194 32.8881 18.8346 32.1362 20.7273 32.1362C22.62 32.1362 24.4351 32.8881 25.7734 34.2264C27.1118 35.5648 27.8636 37.3799 27.8636 39.2726V43.6363V44.1363H28.3636H39.2727H39.7727V43.6363V34.909V34.409H39.2727H32.7273C32.2812 34.409 31.8535 34.2318 31.5381 33.9164C31.2226 33.601 31.0455 33.1732 31.0455 32.7271C31.0455 32.2811 31.2226 31.8533 31.5381 31.5379C31.8535 31.2225 32.2812 31.0453 32.7273 31.0453H39.2727ZM14.5808 8.67886C14.1398 8.38418 13.6213 8.22689 13.0909 8.22689C12.3796 8.22689 11.6975 8.50944 11.1946 9.01239C10.6916 9.51533 10.4091 10.1975 10.4091 10.9087C10.4091 11.4391 10.5664 11.9577 10.8611 12.3987C11.1557 12.8397 11.5746 13.1834 12.0646 13.3864C12.5547 13.5894 13.0939 13.6425 13.6141 13.539C14.1343 13.4356 14.6122 13.1801 14.9872 12.8051C15.3623 12.43 15.6177 11.9522 15.7212 11.4319C15.8247 10.9117 15.7716 10.3725 15.5686 9.88244C15.3656 9.3924 15.0219 8.97355 14.5808 8.67886Z" fill="#2CA1C7" stroke="#F4F4F4"/>
</svg>
