<svg width="43" height="48" viewBox="0 0 43 48" fill="none" xmlns="http://www.w3.org/2000/svg">
<path d="M14.6178 6.48433L14.8982 6.38695L14.947 6.09414C15.2069 4.53337 16.0081 3.11578 17.2081 2.09212C18.408 1.06857 19.9292 0.504773 21.5026 0.500008C22.6675 0.498232 23.8125 0.803849 24.8231 1.38644C25.8338 1.9691 26.6747 2.80842 27.2614 3.8206C27.8481 4.8328 28.1599 5.98224 28.1654 7.15382C28.171 8.32541 27.8701 9.47778 27.293 10.4955C26.7159 11.5133 25.8829 12.3606 24.8778 12.9529C23.8726 13.5452 22.7304 13.8617 21.5655 13.871C20.4005 13.8803 19.2535 13.582 18.2391 13.0058C17.2247 12.4296 16.3785 11.5957 15.7854 10.5873L15.569 10.2193L15.1716 10.3754C11.618 11.7715 8.63041 14.3189 6.68183 17.6133C4.73327 20.9078 3.93505 24.761 4.4134 28.5624C4.47603 29.0629 4.33819 29.5676 4.03073 29.9655C3.72329 30.3635 3.27159 30.6219 2.77531 30.6848L2.77531 30.6847L2.7708 30.6854C2.69465 30.6957 2.61787 30.7006 2.54105 30.7L2.53774 30.7C2.07866 30.6995 1.63518 30.5308 1.29046 30.225C0.945678 29.9192 0.72333 29.4972 0.665717 29.0378L0.665689 29.0376C0.0618862 24.2401 1.11923 19.3802 3.65994 15.2736C6.20063 11.167 10.0698 8.0638 14.6178 6.48433ZM7.16668 47.5H7.16647C5.82539 47.5018 4.51494 47.096 3.40734 46.3356C2.29971 45.5752 1.44665 44.4957 0.960662 43.2386C0.474663 41.9816 0.378604 40.6061 0.685181 39.2931C0.991755 37.9801 1.68652 36.7913 2.67779 35.8829C3.66903 34.9744 4.91038 34.3888 6.23861 34.2025C7.56683 34.0163 8.92015 34.238 10.1208 34.8388C11.3215 35.4397 12.3135 36.3916 12.9662 37.5698C13.6188 38.748 13.9015 40.0973 13.7767 41.4402L13.7448 41.7837L14.0546 41.9354C17.8609 43.7999 22.2186 44.1867 26.2915 43.0215C30.3643 41.8563 33.8648 39.2213 36.1216 35.623C38.3784 32.0247 39.2328 27.7162 38.5212 23.5243C37.8099 19.3339 35.5838 15.5543 32.2691 12.9105C31.8877 12.5933 31.6449 12.138 31.5938 11.6421C31.5425 11.1448 31.6883 10.6474 31.9989 10.2577C32.3095 9.868 32.7599 9.61736 33.2522 9.55914C33.7435 9.50105 34.2381 9.63908 34.6295 9.94397C38.6482 13.1729 41.3448 17.7743 42.205 22.8722C43.0655 27.9712 42.0284 33.2099 39.2918 37.59C36.5552 41.97 32.3107 45.1851 27.3672 46.6232C22.4238 48.0613 17.1265 47.6222 12.4845 45.3894L12.1603 45.2334L11.9094 45.4914C11.2915 46.1266 10.5537 46.6314 9.7393 46.9763C8.92493 47.3211 8.0503 47.4992 7.16668 47.5ZM4.7644 42.4103L5.18072 42.1334L4.7644 42.4103C5.08158 42.8871 5.53264 43.2592 6.0608 43.4789C6.58899 43.6987 7.17033 43.7563 7.7312 43.6442C8.29206 43.5321 8.80693 43.2555 9.21082 42.8498C9.61469 42.4441 9.88947 41.9274 10.0008 41.3653C10.1121 40.8032 10.055 40.2206 9.83659 39.691C9.61821 39.1613 9.24823 38.7083 8.7731 38.3893C8.29794 38.0704 7.73906 37.9 7.16715 37.9C6.40018 37.9 5.66509 38.2061 5.12347 38.7502C4.58192 39.2942 4.27809 40.0316 4.27809 40.8C4.27809 41.3731 4.44724 41.9334 4.7644 42.4103ZM19.8955 9.61068C20.3707 9.92963 20.9296 10.1 21.5015 10.1C22.2684 10.1 23.0035 9.79391 23.5452 9.24981C24.0867 8.70578 24.3905 7.9684 24.3905 7.20001C24.3905 6.62695 24.2214 6.06657 23.9042 5.58973C23.587 5.11286 23.136 4.74084 22.6078 4.52107C22.0796 4.30128 21.4983 4.24374 20.9374 4.35582C20.3766 4.46789 19.8617 4.74446 19.4578 5.15021C19.0539 5.55593 18.7792 6.07257 18.6679 6.63467C18.5566 7.19677 18.6137 7.77942 18.832 8.30904C19.0504 8.83869 19.4204 9.29175 19.8955 9.61068ZM13.9721 31.4566C12.9767 29.96 12.4453 28.2003 12.4453 26.4C12.4453 23.9858 13.3999 21.6709 15.0986 19.9645C16.7971 18.2582 19.1004 17.3 21.5015 17.3C23.2921 17.3 25.0427 17.8334 26.532 18.833C28.0212 19.8327 29.1823 21.2538 29.868 22.9168C30.5538 24.5799 30.7332 26.4101 30.3836 28.1758C30.034 29.9414 29.1711 31.563 27.9044 32.8355C26.6377 34.108 25.0241 34.9743 23.2678 35.3252C21.5115 35.6762 19.6911 35.4961 18.0366 34.8076C16.382 34.1191 14.9675 32.9531 13.9721 31.4566ZM25.8907 29.3436C26.4703 28.4721 26.7796 27.4477 26.7796 26.4C26.7796 24.9951 26.2241 23.6473 25.2345 22.6531C24.2448 21.659 22.9021 21.1 21.5015 21.1C20.4571 21.1 19.4363 21.4111 18.5682 21.9938C17.7002 22.5764 17.024 23.4043 16.6248 24.3725C16.2256 25.3407 16.1212 26.4059 16.3247 27.4336C16.5282 28.4612 17.0305 29.4055 17.7685 30.1469C18.5065 30.8882 19.447 31.3934 20.4713 31.5981C21.4956 31.8028 22.5573 31.6977 23.5221 31.2963C24.4868 30.8948 25.311 30.2152 25.8907 29.3436Z" fill="#2CA1C7" stroke="#F4F4F4"/>
</svg>
