<svg width="48" height="48" viewBox="0 0 48 48" fill="none" xmlns="http://www.w3.org/2000/svg">
<path d="M42.3508 23.2434L43.0574 22.6653L46.8088 19.596C47.2391 19.243 47.5174 18.6228 47.4982 17.9358L47.4982 17.9352C47.4798 17.2466 47.1687 16.654 46.728 16.3417L46.7279 16.3417L24.7279 0.741848L24.7276 0.741619C24.274 0.41946 23.7251 0.41946 23.2715 0.741619L23.2712 0.741848L1.2713 16.3416C0.829505 16.655 0.519272 17.2477 0.500856 17.9352C0.482444 18.6231 0.760287 19.2433 1.19023 19.596L8.31669 25.4274L8.50005 25.5774V25.8143V40.8001C8.50005 44.5835 11.0486 47.5 14 47.5H34C36.9514 47.5 39.5 44.5835 39.5 40.8001V26.9247V26.235L40.1555 26.4495L44.1555 27.7584L44.5 27.8712V28.2336V39.6001C44.5 40.738 45.2536 41.5001 46 41.5001C46.7464 41.5001 47.5 40.738 47.5 39.6001V26.4003C47.5 25.4823 46.99 24.7626 46.3703 24.5593L42.3508 23.2434ZM42.3508 23.2434L43.2185 23.5274L46.3701 24.5592L42.3508 23.2434ZM24.2893 4.77997L24 4.57487L23.7108 4.77996L5.43789 17.7372L4.90279 18.1167L5.41048 18.5321L10.7684 22.916L10.777 22.923L10.7859 22.9297C10.7949 22.9364 10.807 22.9462 10.8228 22.9599L10.8227 22.96L10.8333 22.9688L23.6834 33.4815L24.0001 33.7406L24.3167 33.4815L34.2747 25.3323L34.9813 24.7541L34.1135 24.4702L23.629 21.0397C22.868 20.7901 22.3105 19.77 22.5573 18.6789C22.8033 17.6024 23.6597 17.1285 24.3714 17.3597L38.1468 21.8675L38.4069 21.9527L38.6188 21.7793L42.5886 18.5321L43.0964 18.1167L42.5612 17.7372L24.2893 4.77997ZM12.3167 28.6998L11.5 28.0317V29.0868V40.8001C11.5 42.31 12.5393 43.7001 14 43.7001H34C35.4607 43.7001 36.5 42.31 36.5 40.8001V29.0868V28.0317L35.6834 28.6998L24.8104 37.5954L24.8102 37.5955C24.5551 37.8044 24.2728 37.9001 24 37.9001C23.7273 37.9001 23.4449 37.8044 23.1899 37.5955L23.1897 37.5954L12.3167 28.6998Z" fill="#2CA1C7" stroke="#F4F4F4"/>
</svg>
