<svg width="48" height="48" viewBox="0 0 48 48" fill="none" xmlns="http://www.w3.org/2000/svg">
<mask id="path-1-inside-1" fill="white">
<path d="M47.9979 6.54695C48.0009 5.00492 47.4579 3.51161 46.4653 2.33151C45.4727 1.15142 44.0945 0.360694 42.5748 0.0993909C41.0551 -0.161912 39.4919 0.123071 38.1621 0.903864C36.8324 1.68466 35.8219 2.91087 35.3096 4.36532H30.1435C29.6992 3.09006 28.8691 1.98467 27.7682 1.20246C26.6674 0.420249 25.3504 0 24 0C22.6496 0 21.3326 0.420249 20.2318 1.20246C19.1309 1.98467 18.3008 3.09006 17.8565 4.36532H12.6904C12.3244 3.32369 11.7002 2.39188 10.8762 1.65701C10.0523 0.92213 9.0554 0.408186 7.97885 0.16322C6.90229 -0.0817453 5.7812 -0.0497325 4.72038 0.256266C3.65956 0.562264 2.69365 1.13226 1.91295 1.91295C1.13226 2.69365 0.562264 3.65956 0.256266 4.72038C-0.0497325 5.7812 -0.0817453 6.90229 0.16322 7.97885C0.408186 9.0554 0.92213 10.0523 1.65701 10.8762C2.39188 11.7002 3.32369 12.3244 4.36532 12.6904V17.8565C3.09006 18.3008 1.98467 19.1309 1.20246 20.2318C0.420249 21.3326 0 22.6496 0 24C0 25.3504 0.420249 26.6674 1.20246 27.7682C1.98467 28.8691 3.09006 29.6992 4.36532 30.1435V35.3096C3.32369 35.6756 2.39188 36.2998 1.65701 37.1238C0.92213 37.9477 0.408186 38.9446 0.16322 40.0212C-0.0817453 41.0977 -0.0497325 42.2188 0.256266 43.2796C0.562264 44.3404 1.13226 45.3064 1.91295 46.087C2.69365 46.8677 3.65956 47.4377 4.72038 47.7437C5.7812 48.0497 6.90229 48.0817 7.97885 47.8368C9.0554 47.5918 10.0523 47.0779 10.8762 46.343C11.7002 45.6081 12.3244 44.6763 12.6904 43.6347H17.8565C18.3008 44.9099 19.1309 46.0153 20.2318 46.7975C21.3326 47.5798 22.6496 48 24 48C25.3504 48 26.6674 47.5798 27.7682 46.7975C28.8691 46.0153 29.6992 44.9099 30.1435 43.6347H35.3096C35.6756 44.6763 36.2998 45.6081 37.1238 46.343C37.9477 47.0779 38.9446 47.5918 40.0212 47.8368C41.0977 48.0817 42.2188 48.0497 43.2796 47.7437C44.3404 47.4377 45.3064 46.8677 46.087 46.087C46.8677 45.3064 47.4377 44.3404 47.7437 43.2796C48.0497 42.2188 48.0817 41.0977 47.8368 40.0212C47.5918 38.9446 47.0779 37.9477 46.343 37.1238C45.6081 36.2998 44.6763 35.6756 43.6347 35.3096V30.1435C44.9099 29.6992 46.0153 28.8691 46.7975 27.7682C47.5798 26.6674 48 25.3504 48 24C48 22.6496 47.5798 21.3326 46.7975 20.2318C46.0153 19.1309 44.9099 18.3008 43.6347 17.8565V12.6904C44.9064 12.2408 46.0081 11.4093 46.7891 10.3096C47.5702 9.20992 47.9923 7.89577 47.9979 6.54695ZM41.453 4.36532C41.8845 4.36532 42.3063 4.49327 42.6651 4.733C43.0239 4.97272 43.3035 5.31344 43.4686 5.71208C43.6337 6.11072 43.6769 6.54937 43.5928 6.97257C43.5086 7.39576 43.3008 7.78449 42.9957 8.0896C42.6906 8.39471 42.3019 8.60249 41.8787 8.68667C41.4555 8.77084 41.0168 8.72764 40.6182 8.56252C40.2195 8.3974 39.8788 8.11777 39.6391 7.759C39.3994 7.40024 39.2714 6.97844 39.2714 6.54695C39.2714 5.96835 39.5013 5.41344 39.9104 5.00431C40.3195 4.59517 40.8744 4.36532 41.453 4.36532ZM34.9082 24C34.9137 25.3488 35.3359 26.663 36.117 27.7627C36.898 28.8623 37.9997 29.6939 39.2714 30.1435V35.3096C38.359 35.6355 37.5302 36.16 36.8451 36.8451C36.16 37.5302 35.6355 38.359 35.3096 39.2714H30.1435C29.6992 37.9962 28.8691 36.8908 27.7682 36.1085C26.6674 35.3263 25.3504 34.9061 24 34.9061C22.6496 34.9061 21.3326 35.3263 20.2318 36.1085C19.1309 36.8908 18.3008 37.9962 17.8565 39.2714H12.6904C12.3645 38.359 11.84 37.5302 11.1549 36.8451C10.4698 36.16 9.64105 35.6355 8.72859 35.3096V30.1435C10.0038 29.6992 11.1092 28.8691 11.8915 27.7682C12.6737 26.6674 13.0939 25.3504 13.0939 24C13.0939 22.6496 12.6737 21.3326 11.8915 20.2318C11.1092 19.1309 10.0038 18.3008 8.72859 17.8565V12.6904C9.64105 12.3645 10.4698 11.84 11.1549 11.1549C11.84 10.4698 12.3645 9.64105 12.6904 8.72859H17.8565C18.3008 10.0038 19.1309 11.1092 20.2318 11.8915C21.3326 12.6737 22.6496 13.0939 24 13.0939C25.3504 13.0939 26.6674 12.6737 27.7682 11.8915C28.8691 11.1092 29.6992 10.0038 30.1435 8.72859H35.3096C35.6355 9.64105 36.16 10.4698 36.8451 11.1549C37.5302 11.84 38.359 12.3645 39.2714 12.6904V17.8565C37.9997 18.3061 36.898 19.1376 36.117 20.2373C35.3359 21.337 34.9137 22.6512 34.9082 24ZM24 4.36532C24.4315 4.36532 24.8533 4.49327 25.212 4.733C25.5708 4.97272 25.8504 5.31344 26.0156 5.71208C26.1807 6.11072 26.2239 6.54937 26.1397 6.97257C26.0555 7.39576 25.8477 7.78449 25.5426 8.0896C25.2375 8.39471 24.8488 8.60249 24.4256 8.68667C24.0024 8.77084 23.5638 8.72764 23.1651 8.56252C22.7665 8.3974 22.4258 8.11777 22.186 7.759C21.9463 7.40024 21.8184 6.97844 21.8184 6.54695C21.8184 5.96835 22.0482 5.41344 22.4574 5.00431C22.8665 4.59517 23.4214 4.36532 24 4.36532ZM6.54695 4.36532C6.97844 4.36532 7.40024 4.49327 7.759 4.733C8.11777 4.97272 8.3974 5.31344 8.56252 5.71208C8.72764 6.11072 8.77084 6.54937 8.68667 6.97257C8.60249 7.39576 8.39471 7.78449 8.0896 8.0896C7.78449 8.39471 7.39576 8.60249 6.97257 8.68667C6.54937 8.77084 6.11072 8.72764 5.71208 8.56252C5.31344 8.3974 4.97272 8.11777 4.733 7.759C4.49327 7.40024 4.36532 6.97844 4.36532 6.54695C4.36532 5.96835 4.59517 5.41344 5.00431 5.00431C5.41344 4.59517 5.96835 4.36532 6.54695 4.36532ZM6.54695 21.8184C6.97844 21.8184 7.40024 21.9463 7.759 22.186C8.11777 22.4258 8.3974 22.7665 8.56252 23.1651C8.72764 23.5638 8.77084 24.0024 8.68667 24.4256C8.60249 24.8488 8.39471 25.2375 8.0896 25.5426C7.78449 25.8477 7.39576 26.0555 6.97257 26.1397C6.54937 26.2239 6.11072 26.1807 5.71208 26.0156C5.31344 25.8504 4.97272 25.5708 4.733 25.212C4.49327 24.8533 4.36532 24.4315 4.36532 24C4.36532 23.4214 4.59517 22.8665 5.00431 22.4574C5.41344 22.0482 5.96835 21.8184 6.54695 21.8184ZM6.54695 43.6347C6.11547 43.6347 5.69367 43.5067 5.33491 43.267C4.97614 43.0273 4.69651 42.6866 4.53139 42.2879C4.36627 41.8893 4.32306 41.4506 4.40724 41.0274C4.49142 40.6042 4.6992 40.2155 5.00431 39.9104C5.30941 39.6053 5.69814 39.3975 6.12134 39.3133C6.54453 39.2292 6.98319 39.2724 7.38183 39.4375C7.78047 39.6026 8.12119 39.8822 8.36091 40.241C8.60063 40.5998 8.72859 41.0216 8.72859 41.453C8.72859 42.0317 8.49874 42.5866 8.0896 42.9957C7.68047 43.4048 7.12556 43.6347 6.54695 43.6347ZM24 43.6347C23.5685 43.6347 23.1467 43.5067 22.7879 43.267C22.4292 43.0273 22.1496 42.6866 21.9844 42.2879C21.8193 41.8893 21.7761 41.4506 21.8603 41.0274C21.9445 40.6042 22.1522 40.2155 22.4574 39.9104C22.7625 39.6053 23.1512 39.3975 23.5744 39.3133C23.9976 39.2292 24.4362 39.2724 24.8349 39.4375C25.2335 39.6026 25.5742 39.8822 25.814 40.241C26.0537 40.5998 26.1816 41.0216 26.1816 41.453C26.1816 42.0317 25.9518 42.5866 25.5426 42.9957C25.1335 43.4048 24.5786 43.6347 24 43.6347ZM41.453 43.6347C41.0216 43.6347 40.5998 43.5067 40.241 43.267C39.8822 43.0273 39.6026 42.6866 39.4375 42.2879C39.2724 41.8893 39.2292 41.4506 39.3133 41.0274C39.3975 40.6042 39.6053 40.2155 39.9104 39.9104C40.2155 39.6053 40.6042 39.3975 41.0274 39.3133C41.4506 39.2292 41.8893 39.2724 42.2879 39.4375C42.6866 39.6026 43.0273 39.8822 43.267 40.241C43.5067 40.5998 43.6347 41.0216 43.6347 41.453C43.6347 42.0317 43.4048 42.5866 42.9957 42.9957C42.5866 43.4048 42.0317 43.6347 41.453 43.6347ZM41.453 26.1816C41.0216 26.1816 40.5998 26.0537 40.241 25.814C39.8822 25.5742 39.6026 25.2335 39.4375 24.8349C39.2724 24.4362 39.2292 23.9976 39.3133 23.5744C39.3975 23.1512 39.6053 22.7625 39.9104 22.4574C40.2155 22.1522 40.6042 21.9445 41.0274 21.8603C41.4506 21.7761 41.8893 21.8193 42.2879 21.9844C42.6866 22.1496 43.0273 22.4292 43.267 22.7879C43.5067 23.1467 43.6347 23.5685 43.6347 24C43.6347 24.5786 43.4048 25.1335 42.9957 25.5426C42.5866 25.9518 42.0317 26.1816 41.453 26.1816ZM28.3633 24C28.3633 24.863 28.1074 25.7066 27.6279 26.4241C27.1485 27.1416 26.467 27.7009 25.6697 28.0311C24.8725 28.3614 23.9952 28.4478 23.1488 28.2794C22.3024 28.1111 21.5249 27.6955 20.9147 27.0853C20.3045 26.4751 19.8889 25.6976 19.7206 24.8512C19.5522 24.0048 19.6386 23.1275 19.9689 22.3303C20.2991 21.533 20.8584 20.8515 21.5759 20.3721C22.2934 19.8926 23.137 19.6367 24 19.6367C25.1572 19.6367 26.267 20.0964 27.0853 20.9147C27.9036 21.733 28.3633 22.8428 28.3633 24Z"/>
</mask>
<path d="M47.9979 6.54695C48.0009 5.00492 47.4579 3.51161 46.4653 2.33151C45.4727 1.15142 44.0945 0.360694 42.5748 0.0993909C41.0551 -0.161912 39.4919 0.123071 38.1621 0.903864C36.8324 1.68466 35.8219 2.91087 35.3096 4.36532H30.1435C29.6992 3.09006 28.8691 1.98467 27.7682 1.20246C26.6674 0.420249 25.3504 0 24 0C22.6496 0 21.3326 0.420249 20.2318 1.20246C19.1309 1.98467 18.3008 3.09006 17.8565 4.36532H12.6904C12.3244 3.32369 11.7002 2.39188 10.8762 1.65701C10.0523 0.92213 9.0554 0.408186 7.97885 0.16322C6.90229 -0.0817453 5.7812 -0.0497325 4.72038 0.256266C3.65956 0.562264 2.69365 1.13226 1.91295 1.91295C1.13226 2.69365 0.562264 3.65956 0.256266 4.72038C-0.0497325 5.7812 -0.0817453 6.90229 0.16322 7.97885C0.408186 9.0554 0.92213 10.0523 1.65701 10.8762C2.39188 11.7002 3.32369 12.3244 4.36532 12.6904V17.8565C3.09006 18.3008 1.98467 19.1309 1.20246 20.2318C0.420249 21.3326 0 22.6496 0 24C0 25.3504 0.420249 26.6674 1.20246 27.7682C1.98467 28.8691 3.09006 29.6992 4.36532 30.1435V35.3096C3.32369 35.6756 2.39188 36.2998 1.65701 37.1238C0.92213 37.9477 0.408186 38.9446 0.16322 40.0212C-0.0817453 41.0977 -0.0497325 42.2188 0.256266 43.2796C0.562264 44.3404 1.13226 45.3064 1.91295 46.087C2.69365 46.8677 3.65956 47.4377 4.72038 47.7437C5.7812 48.0497 6.90229 48.0817 7.97885 47.8368C9.0554 47.5918 10.0523 47.0779 10.8762 46.343C11.7002 45.6081 12.3244 44.6763 12.6904 43.6347H17.8565C18.3008 44.9099 19.1309 46.0153 20.2318 46.7975C21.3326 47.5798 22.6496 48 24 48C25.3504 48 26.6674 47.5798 27.7682 46.7975C28.8691 46.0153 29.6992 44.9099 30.1435 43.6347H35.3096C35.6756 44.6763 36.2998 45.6081 37.1238 46.343C37.9477 47.0779 38.9446 47.5918 40.0212 47.8368C41.0977 48.0817 42.2188 48.0497 43.2796 47.7437C44.3404 47.4377 45.3064 46.8677 46.087 46.087C46.8677 45.3064 47.4377 44.3404 47.7437 43.2796C48.0497 42.2188 48.0817 41.0977 47.8368 40.0212C47.5918 38.9446 47.0779 37.9477 46.343 37.1238C45.6081 36.2998 44.6763 35.6756 43.6347 35.3096V30.1435C44.9099 29.6992 46.0153 28.8691 46.7975 27.7682C47.5798 26.6674 48 25.3504 48 24C48 22.6496 47.5798 21.3326 46.7975 20.2318C46.0153 19.1309 44.9099 18.3008 43.6347 17.8565V12.6904C44.9064 12.2408 46.0081 11.4093 46.7891 10.3096C47.5702 9.20992 47.9923 7.89577 47.9979 6.54695ZM41.453 4.36532C41.8845 4.36532 42.3063 4.49327 42.6651 4.733C43.0239 4.97272 43.3035 5.31344 43.4686 5.71208C43.6337 6.11072 43.6769 6.54937 43.5928 6.97257C43.5086 7.39576 43.3008 7.78449 42.9957 8.0896C42.6906 8.39471 42.3019 8.60249 41.8787 8.68667C41.4555 8.77084 41.0168 8.72764 40.6182 8.56252C40.2195 8.3974 39.8788 8.11777 39.6391 7.759C39.3994 7.40024 39.2714 6.97844 39.2714 6.54695C39.2714 5.96835 39.5013 5.41344 39.9104 5.00431C40.3195 4.59517 40.8744 4.36532 41.453 4.36532ZM34.9082 24C34.9137 25.3488 35.3359 26.663 36.117 27.7627C36.898 28.8623 37.9997 29.6939 39.2714 30.1435V35.3096C38.359 35.6355 37.5302 36.16 36.8451 36.8451C36.16 37.5302 35.6355 38.359 35.3096 39.2714H30.1435C29.6992 37.9962 28.8691 36.8908 27.7682 36.1085C26.6674 35.3263 25.3504 34.9061 24 34.9061C22.6496 34.9061 21.3326 35.3263 20.2318 36.1085C19.1309 36.8908 18.3008 37.9962 17.8565 39.2714H12.6904C12.3645 38.359 11.84 37.5302 11.1549 36.8451C10.4698 36.16 9.64105 35.6355 8.72859 35.3096V30.1435C10.0038 29.6992 11.1092 28.8691 11.8915 27.7682C12.6737 26.6674 13.0939 25.3504 13.0939 24C13.0939 22.6496 12.6737 21.3326 11.8915 20.2318C11.1092 19.1309 10.0038 18.3008 8.72859 17.8565V12.6904C9.64105 12.3645 10.4698 11.84 11.1549 11.1549C11.84 10.4698 12.3645 9.64105 12.6904 8.72859H17.8565C18.3008 10.0038 19.1309 11.1092 20.2318 11.8915C21.3326 12.6737 22.6496 13.0939 24 13.0939C25.3504 13.0939 26.6674 12.6737 27.7682 11.8915C28.8691 11.1092 29.6992 10.0038 30.1435 8.72859H35.3096C35.6355 9.64105 36.16 10.4698 36.8451 11.1549C37.5302 11.84 38.359 12.3645 39.2714 12.6904V17.8565C37.9997 18.3061 36.898 19.1376 36.117 20.2373C35.3359 21.337 34.9137 22.6512 34.9082 24ZM24 4.36532C24.4315 4.36532 24.8533 4.49327 25.212 4.733C25.5708 4.97272 25.8504 5.31344 26.0156 5.71208C26.1807 6.11072 26.2239 6.54937 26.1397 6.97257C26.0555 7.39576 25.8477 7.78449 25.5426 8.0896C25.2375 8.39471 24.8488 8.60249 24.4256 8.68667C24.0024 8.77084 23.5638 8.72764 23.1651 8.56252C22.7665 8.3974 22.4258 8.11777 22.186 7.759C21.9463 7.40024 21.8184 6.97844 21.8184 6.54695C21.8184 5.96835 22.0482 5.41344 22.4574 5.00431C22.8665 4.59517 23.4214 4.36532 24 4.36532ZM6.54695 4.36532C6.97844 4.36532 7.40024 4.49327 7.759 4.733C8.11777 4.97272 8.3974 5.31344 8.56252 5.71208C8.72764 6.11072 8.77084 6.54937 8.68667 6.97257C8.60249 7.39576 8.39471 7.78449 8.0896 8.0896C7.78449 8.39471 7.39576 8.60249 6.97257 8.68667C6.54937 8.77084 6.11072 8.72764 5.71208 8.56252C5.31344 8.3974 4.97272 8.11777 4.733 7.759C4.49327 7.40024 4.36532 6.97844 4.36532 6.54695C4.36532 5.96835 4.59517 5.41344 5.00431 5.00431C5.41344 4.59517 5.96835 4.36532 6.54695 4.36532ZM6.54695 21.8184C6.97844 21.8184 7.40024 21.9463 7.759 22.186C8.11777 22.4258 8.3974 22.7665 8.56252 23.1651C8.72764 23.5638 8.77084 24.0024 8.68667 24.4256C8.60249 24.8488 8.39471 25.2375 8.0896 25.5426C7.78449 25.8477 7.39576 26.0555 6.97257 26.1397C6.54937 26.2239 6.11072 26.1807 5.71208 26.0156C5.31344 25.8504 4.97272 25.5708 4.733 25.212C4.49327 24.8533 4.36532 24.4315 4.36532 24C4.36532 23.4214 4.59517 22.8665 5.00431 22.4574C5.41344 22.0482 5.96835 21.8184 6.54695 21.8184ZM6.54695 43.6347C6.11547 43.6347 5.69367 43.5067 5.33491 43.267C4.97614 43.0273 4.69651 42.6866 4.53139 42.2879C4.36627 41.8893 4.32306 41.4506 4.40724 41.0274C4.49142 40.6042 4.6992 40.2155 5.00431 39.9104C5.30941 39.6053 5.69814 39.3975 6.12134 39.3133C6.54453 39.2292 6.98319 39.2724 7.38183 39.4375C7.78047 39.6026 8.12119 39.8822 8.36091 40.241C8.60063 40.5998 8.72859 41.0216 8.72859 41.453C8.72859 42.0317 8.49874 42.5866 8.0896 42.9957C7.68047 43.4048 7.12556 43.6347 6.54695 43.6347ZM24 43.6347C23.5685 43.6347 23.1467 43.5067 22.7879 43.267C22.4292 43.0273 22.1496 42.6866 21.9844 42.2879C21.8193 41.8893 21.7761 41.4506 21.8603 41.0274C21.9445 40.6042 22.1522 40.2155 22.4574 39.9104C22.7625 39.6053 23.1512 39.3975 23.5744 39.3133C23.9976 39.2292 24.4362 39.2724 24.8349 39.4375C25.2335 39.6026 25.5742 39.8822 25.814 40.241C26.0537 40.5998 26.1816 41.0216 26.1816 41.453C26.1816 42.0317 25.9518 42.5866 25.5426 42.9957C25.1335 43.4048 24.5786 43.6347 24 43.6347ZM41.453 43.6347C41.0216 43.6347 40.5998 43.5067 40.241 43.267C39.8822 43.0273 39.6026 42.6866 39.4375 42.2879C39.2724 41.8893 39.2292 41.4506 39.3133 41.0274C39.3975 40.6042 39.6053 40.2155 39.9104 39.9104C40.2155 39.6053 40.6042 39.3975 41.0274 39.3133C41.4506 39.2292 41.8893 39.2724 42.2879 39.4375C42.6866 39.6026 43.0273 39.8822 43.267 40.241C43.5067 40.5998 43.6347 41.0216 43.6347 41.453C43.6347 42.0317 43.4048 42.5866 42.9957 42.9957C42.5866 43.4048 42.0317 43.6347 41.453 43.6347ZM41.453 26.1816C41.0216 26.1816 40.5998 26.0537 40.241 25.814C39.8822 25.5742 39.6026 25.2335 39.4375 24.8349C39.2724 24.4362 39.2292 23.9976 39.3133 23.5744C39.3975 23.1512 39.6053 22.7625 39.9104 22.4574C40.2155 22.1522 40.6042 21.9445 41.0274 21.8603C41.4506 21.7761 41.8893 21.8193 42.2879 21.9844C42.6866 22.1496 43.0273 22.4292 43.267 22.7879C43.5067 23.1467 43.6347 23.5685 43.6347 24C43.6347 24.5786 43.4048 25.1335 42.9957 25.5426C42.5866 25.9518 42.0317 26.1816 41.453 26.1816ZM28.3633 24C28.3633 24.863 28.1074 25.7066 27.6279 26.4241C27.1485 27.1416 26.467 27.7009 25.6697 28.0311C24.8725 28.3614 23.9952 28.4478 23.1488 28.2794C22.3024 28.1111 21.5249 27.6955 20.9147 27.0853C20.3045 26.4751 19.8889 25.6976 19.7206 24.8512C19.5522 24.0048 19.6386 23.1275 19.9689 22.3303C20.2991 21.533 20.8584 20.8515 21.5759 20.3721C22.2934 19.8926 23.137 19.6367 24 19.6367C25.1572 19.6367 26.267 20.0964 27.0853 20.9147C27.9036 21.733 28.3633 22.8428 28.3633 24Z" fill="#2CA1C7" stroke="#F4F4F4" stroke-width="2" mask="url(#path-1-inside-1)"/>
</svg>
