<svg width="48" height="48" viewBox="0 0 48 48" fill="none" xmlns="http://www.w3.org/2000/svg">
<path d="M43.2468 29.8755L43.0037 29.9597C41.5511 30.4632 40.1379 31.0739 38.7759 31.787L38.7649 31.7927L38.7649 31.7926L38.7507 31.7995C37.901 32.2179 36.8705 32.7253 35.952 33.079C35.4907 33.2567 35.0384 33.4033 34.6388 33.4784C34.2652 33.5486 33.8316 33.5784 33.4815 33.4048C33.2081 33.2716 32.9441 33.1199 32.6914 32.9508L32.4113 32.7634L32.4799 32.4335C32.6046 31.8339 32.7873 31.2479 33.0254 30.6837C33.9093 28.5635 34.3789 26.2937 34.4091 23.9968C34.4083 21.6682 33.5053 20.4758 32.4426 19.8096C31.3328 19.1139 29.9877 18.9509 29.0263 18.8392L43.2468 29.8755ZM43.2468 29.8755L43.3196 29.6287C44.4828 25.6842 44.4021 21.4771 43.0883 17.5801C41.7745 13.6832 39.2915 10.2859 35.9775 7.85089L35.7769 7.70351L35.5384 7.77471C33.55 8.36827 31.1258 9.24995 29.1886 10.4478C27.2806 11.6276 25.6818 13.2177 25.6818 15.2727C25.6818 15.9674 25.7201 16.5309 25.8271 16.9836C25.9363 17.4457 26.1242 17.8226 26.4422 18.1067C26.7528 18.3841 27.1386 18.5285 27.5543 18.6234C27.9609 18.7162 28.4516 18.7729 29.0048 18.8368L29.026 18.8392L43.2468 29.8755ZM16.0972 6.30373L16.1382 5.46803L15.3828 5.82788C13.6329 6.66148 12.0122 7.74271 10.5705 9.03829L10.0589 9.4981L10.6542 9.84286C11.7889 10.5 12.8142 11.0657 13.685 11.5077L14.0649 11.7005L14.3156 11.356C15.3888 9.88136 16.008 8.1254 16.0972 6.30373ZM10.9854 39.338L11.3871 39.678L11.706 39.2594C11.841 39.0824 11.9705 38.909 12.0982 38.738C12.2738 38.5028 12.446 38.2723 12.6238 38.0437L12.6252 38.0419L12.6366 38.0271C13.3755 37.0678 14.3124 35.8517 15.0533 34.7564C15.4252 34.2067 15.7563 33.6749 15.9898 33.2131C16.1066 32.9823 16.2044 32.7584 16.27 32.5511C16.3332 32.3518 16.3801 32.1271 16.3568 31.9101L16.3348 31.7057L16.1754 31.5759C15.7689 31.2449 15.4659 30.8041 15.3024 30.3061C15.1406 29.8134 15.1221 29.2851 15.2486 28.7825C15.4924 28.0632 15.9265 27.4232 16.5048 26.9307C17.0821 26.4484 17.5252 25.8252 17.7913 25.1216L18.0473 24.4447H17.3236C15.9304 24.4447 12.5073 24.8703 4.61966 27.5476L4.19956 27.6902L4.29114 28.1243C5.21477 32.5021 7.57011 36.4476 10.9854 39.338ZM24 44.1364H24.0005C27.1676 44.133 30.289 43.3816 33.1106 41.9434C35.9322 40.5051 38.3742 38.4208 40.2377 35.86L39.5828 35.1332C37.8862 36.1159 35.9954 36.7162 34.0427 36.8922C33.3254 36.8961 32.6171 36.7324 31.9742 36.4139C29.9266 35.3897 29.27 34.1767 29.1468 33.0373C29.0172 31.8386 29.46 30.6204 29.8623 29.5418C30.6077 27.7907 31.0093 25.9124 31.0454 24.0095L31.0455 24.0095V24C31.0455 23.9881 31.0455 23.9761 31.0455 23.9642C31.0456 23.7224 31.0457 23.4745 31.0055 23.2687C30.9559 23.0141 30.837 22.7737 30.5793 22.6002C30.3631 22.4546 30.088 22.3857 29.8049 22.3351C29.5138 22.2832 29.1334 22.2388 28.6573 22.1832L28.6398 22.1812L28.6396 22.1812C27.4439 22.042 25.8798 21.8518 24.6031 20.9467C23.3679 20.0709 22.3182 18.4583 22.3182 15.2727C22.3182 13.9035 22.7011 12.314 23.9206 10.703C25.1445 9.08613 27.2316 7.42101 30.6829 5.9471L31.8593 5.44472L30.6541 5.01617C27.218 3.79435 23.5126 3.53814 19.9411 4.27541L19.5452 4.35714L19.5422 4.76139C19.5284 6.63147 19.2125 8.63557 18.6071 10.3716C17.9978 12.1187 17.1171 13.533 16.018 14.3024L16.0179 14.3023L16.01 14.3081C15.4854 14.6909 14.865 14.9208 14.2176 14.972C13.5703 15.0233 12.9214 14.8939 12.3432 14.5984L12.3432 14.5984L12.3393 14.5964C11.1882 14.0209 9.80051 13.2526 8.19615 12.3048L7.79888 12.0701L7.5331 12.4473C5.24219 15.6986 3.9723 19.5589 3.88558 23.5353L3.87013 24.2438L4.54279 24.0208C11.0488 21.8641 14.7636 21.1624 16.957 21.0752C18.0486 21.0319 18.7449 21.1416 19.2126 21.2883C19.6723 21.4324 19.937 21.6192 20.1792 21.7902L20.1808 21.7914C20.5348 22.0393 20.8233 22.3695 21.0214 22.7536C21.2195 23.1377 21.3214 23.5641 21.3182 23.9963H21.3182L21.3182 24.0027C21.3234 24.9655 21.1263 25.9187 20.7399 26.8006C20.3534 27.6825 19.7861 28.4734 19.0747 29.1222L18.7446 29.4232L19.0068 29.785C19.9881 31.1394 19.8614 32.6945 19.0494 34.4762C18.2316 36.2706 16.7736 38.1671 15.2869 40.0954L15.2865 40.096C15.1416 40.2845 14.9895 40.4886 14.8396 40.6898C14.7355 40.8295 14.6324 40.9677 14.5336 41.0983L14.1779 41.5685L14.6999 41.8426C17.5683 43.3493 20.7599 44.1364 24 44.1364ZM10.9441 4.46046C14.8086 1.8783 19.352 0.500057 23.9997 0.5C30.2301 0.50743 36.2032 2.98573 40.6087 7.39128C45.0143 11.7969 47.4926 17.7701 47.5 24.0006C47.4999 28.6482 46.1216 33.1915 43.5395 37.0559C40.9573 40.9204 37.2871 43.9325 32.9931 45.7112C28.699 47.4898 23.9739 47.9552 19.4154 47.0484C14.8568 46.1417 10.6695 43.9035 7.383 40.617C4.09647 37.3305 1.85831 33.1432 0.951557 28.5846C0.0448041 24.0261 0.510182 19.301 2.28884 15.0069C4.0675 10.7129 7.07955 7.04268 10.9441 4.46046Z" fill="#2CA1C7" stroke="#F4F4F4"/>
</svg>
