<svg width="41" height="41" viewBox="0 0 41 41" fill="none" xmlns="http://www.w3.org/2000/svg">
<path d="M40.1604 19.5L37.5 19L40 17C40.4826 16.6041 41.0179 16.0094 40.9983 15.3082C40.9796 14.6066 40.6626 13.966 40.1604 13.6101L21.3688 0.285275C20.8333 -0.0950916 20.166 -0.0950916 19.6304 0.285275L0.838784 13.6101C0.335794 13.967 0.0196523 14.6076 0.000884029 15.3082C-0.0178843 16.0094 0.263223 16.6726 0.745777 17.0684L6.83337 22.0497V34.8501C6.83337 38.2413 9.13186 41 11.9584 41H29.0417C31.8682 41 34 38.2318 34 34.8405V22.3852L36 20.5L39 21V33.8251C39 34.9567 39.057 36 40 36C40.943 36 41 34.9567 41 33.8251V22.3852C41 21.4603 41 19.9534 40.1604 19.5ZM20.5 2L39 15.3082L35.5 18.5L21.5 15.5C20.5879 15.2037 20.1264 15.4423 20 16C19.7527 17.0916 20.5904 17.2017 21.5 17.5L33.5 19.9534L20.5 30.5L2 15.3082L20.5 2ZM29.2154 39H11.7878C10.3294 38.5 9 36.7976 9 35.7976V24L19.5374 32.4433C19.8277 32.681 20.1634 32.8001 20.5 32.8001C20.8366 32.8001 21.1723 32.681 21.4626 32.4433L32 24.1162V35.8973C32 37.0274 30.1576 39 29.2154 39Z" fill="#2CA1C7"/>
</svg>
