<svg width="30" height="38" viewBox="0 0 30 38" fill="none" xmlns="http://www.w3.org/2000/svg">
<path d="M2.48342 37.0262C1.74717 37.0262 1.14551 36.4245 1.14551 35.6883V0.395752H17.5647C18.5543 0.395752 19.3618 1.20325 19.3618 2.19284V3.46742C19.3618 3.68909 19.5359 3.86325 19.7576 3.86325H27.3497C28.5372 3.86325 29.503 4.82909 29.503 6.01659V21.6441C29.503 22.6733 28.6638 23.5124 27.6347 23.5124H18.6493C17.6597 23.5124 16.8522 22.7049 16.8522 21.7153V20.4408C16.8522 20.2191 16.678 20.0449 16.4563 20.0449H4.21717C3.99551 20.0449 3.82134 20.2191 3.82134 20.4408V35.6803C3.82134 36.4245 3.21967 37.0262 2.48342 37.0262ZM4.21717 3.07159C3.99551 3.07159 3.82134 3.24575 3.82134 3.46742V16.9733C3.82134 17.1949 3.99551 17.3691 4.21717 17.3691H16.5751C18.1109 17.3691 19.3538 18.6199 19.3538 20.1478V20.4408C19.3538 20.6624 19.528 20.8366 19.7497 20.8366H26.4234C26.6451 20.8366 26.8193 20.6624 26.8193 20.4408V6.93492C26.8193 6.71325 26.6451 6.53909 26.4234 6.53909H19.623C18.0872 6.53909 16.8443 5.28825 16.8443 3.76034V3.46742C16.8443 3.24575 16.6701 3.07159 16.4484 3.07159H4.21717Z" fill="#2CA1C7"/>
<path d="M17.565 0.791667C18.3329 0.791667 18.9663 1.41708 18.9663 2.19292V3.4675C18.9663 3.90292 19.3225 4.25917 19.7579 4.25917H26.4317H27.35C28.3237 4.25917 29.1075 5.05083 29.1075 6.01667V6.935V20.4408V21.6442C29.1075 22.4596 28.4425 23.1167 27.635 23.1167H26.4317H19.7579H18.6496C17.8817 23.1167 17.2483 22.4912 17.2483 21.7154V20.4408C17.2483 20.0054 16.8921 19.6492 16.4567 19.6492H4.2175C3.78208 19.6492 3.42583 20.0054 3.42583 20.4408V35.6804C3.42583 36.2029 3.00625 36.6225 2.48375 36.6225C1.96125 36.6225 1.54167 36.2029 1.54167 35.6883V20.4408V16.9733V3.4675V0.791667H4.2175H17.565ZM4.2175 17.765H16.5754C17.8896 17.765 18.9583 18.8337 18.9583 20.1479V20.4408C18.9583 20.8762 19.3146 21.2325 19.75 21.2325H26.4238C26.8592 21.2325 27.2154 20.8762 27.2154 20.4408V6.935C27.2154 6.49958 26.8592 6.14333 26.4238 6.14333H19.75H19.6313C18.3171 6.14333 17.2483 5.07458 17.2483 3.76042V3.4675C17.2483 3.03208 16.8921 2.67583 16.4567 2.67583H4.2175C3.78208 2.67583 3.42583 3.03208 3.42583 3.4675V16.9733C3.42583 17.4167 3.78208 17.765 4.2175 17.765ZM17.565 0H4.2175H0.75V3.4675V16.9733V20.4408V35.6804C0.75 36.6383 1.52583 37.4142 2.48375 37.4142C3.44167 37.4142 4.2175 36.6383 4.2175 35.6804V20.4408H16.4567V21.7154C16.4567 22.9267 17.4383 23.9083 18.6496 23.9083H19.7579H26.4317H27.635C28.8858 23.9083 29.8992 22.895 29.8992 21.6442V20.4408V6.935V6.01667C29.8992 4.6075 28.7592 3.4675 27.35 3.4675H26.4317H19.7579V2.19292C19.7579 0.981667 18.7763 0 17.565 0ZM4.2175 16.9733V3.4675H16.4567V3.76042C16.4567 5.51792 17.8817 6.935 19.6313 6.935H19.75H26.4238V20.4408H19.75V20.1479C19.75 18.3904 18.325 16.9733 16.5754 16.9733H4.2175Z" fill="#F4F4F4"/>
</svg>
