<svg width="36" height="36" viewBox="0 0 36 36" fill="none" xmlns="http://www.w3.org/2000/svg">
<path d="M18.6399 18.7424C17.3274 18.7424 16.2549 17.6699 16.2549 16.3574V9.83244C16.2549 9.13494 16.8249 8.56494 17.5224 8.56494C18.2199 8.56494 18.7899 9.13494 18.7899 9.83244V16.2074H22.7724C23.4699 16.2074 24.0399 16.7774 24.0399 17.4749C24.0399 18.1724 23.4699 18.7424 22.7724 18.7424H18.6399Z" fill="#2CA1C7"/>
<path d="M17.5224 8.93994C18.0174 8.93994 18.4149 9.33744 18.4149 9.83244V15.8324V16.5824H19.1649H22.7724C23.2674 16.5824 23.6649 16.9799 23.6649 17.4749C23.6649 17.9699 23.2674 18.3674 22.7724 18.3674H18.6399C17.5299 18.3674 16.6299 17.4674 16.6299 16.3574V9.83244C16.6299 9.34494 17.0274 8.93994 17.5224 8.93994ZM17.5224 8.18994C16.6149 8.18994 15.8799 8.92494 15.8799 9.83244V16.3574C15.8799 17.8799 17.1174 19.1174 18.6399 19.1174H22.7724C23.6799 19.1174 24.4149 18.3824 24.4149 17.4749C24.4149 16.5674 23.6799 15.8324 22.7724 15.8324H19.1649V9.83244C19.1649 8.92494 18.4299 8.18994 17.5224 8.18994Z" fill="#F4F4F4"/>
<path d="M17.5146 7.51506C16.8171 7.51506 16.2471 6.94506 16.2471 6.24756V5.26506C16.2471 4.56756 16.8171 3.99756 17.5146 3.99756C18.2121 3.99756 18.7821 4.56756 18.7821 5.26506V6.24756C18.7821 6.94506 18.2196 7.51506 17.5146 7.51506Z" fill="#2CA1C7"/>
<path d="M17.5146 4.37256C18.0096 4.37256 18.4071 4.77006 18.4071 5.26506V6.24756C18.4071 6.74256 18.0096 7.14006 17.5146 7.14006C17.0196 7.14006 16.6221 6.74256 16.6221 6.24756V5.26506C16.6221 4.77006 17.0271 4.37256 17.5146 4.37256ZM17.5146 3.62256C16.6071 3.62256 15.8721 4.35756 15.8721 5.26506V6.24756C15.8721 7.15506 16.6071 7.89006 17.5146 7.89006C18.4221 7.89006 19.1571 7.15506 19.1571 6.24756V5.26506C19.1571 4.35756 18.4221 3.62256 17.5146 3.62256Z" fill="#F4F4F4"/>
<path d="M17.5146 30.9599C16.8171 30.9599 16.2471 30.3899 16.2471 29.6924V28.7099C16.2471 28.0124 16.8171 27.4424 17.5146 27.4424C18.2121 27.4424 18.7821 28.0124 18.7821 28.7099V29.6924C18.7821 30.3899 18.2196 30.9599 17.5146 30.9599Z" fill="#2CA1C7"/>
<path d="M17.5146 27.8174C18.0096 27.8174 18.4071 28.2149 18.4071 28.7099V29.6924C18.4071 30.1874 18.0096 30.5849 17.5146 30.5849C17.0196 30.5849 16.6221 30.1874 16.6221 29.6924V28.7099C16.6221 28.2149 17.0271 27.8174 17.5146 27.8174ZM17.5146 27.0674C16.6071 27.0674 15.8721 27.8024 15.8721 28.7099V29.6924C15.8721 30.5999 16.6071 31.3349 17.5146 31.3349C18.4221 31.3349 19.1571 30.5999 19.1571 29.6924V28.7099C19.1571 27.8024 18.4221 27.0674 17.5146 27.0674Z" fill="#F4F4F4"/>
<path d="M28.8622 18.7425C28.1647 18.7425 27.5947 18.1725 27.5947 17.475C27.5947 16.7775 28.1647 16.2075 28.8622 16.2075H29.8447C30.5422 16.2075 31.1122 16.7775 31.1122 17.475C31.1122 18.1725 30.5422 18.7425 29.8447 18.7425H28.8622Z" fill="#2CA1C7"/>
<path d="M29.8447 16.5825C30.3397 16.5825 30.7372 16.98 30.7372 17.475C30.7372 17.97 30.3397 18.3675 29.8447 18.3675H28.8622C28.3672 18.3675 27.9697 17.97 27.9697 17.475C27.9697 16.98 28.3672 16.5825 28.8622 16.5825H29.8447ZM29.8447 15.8325H28.8622C27.9547 15.8325 27.2197 16.5675 27.2197 17.475C27.2197 18.3825 27.9547 19.1175 28.8622 19.1175H29.8447C30.7522 19.1175 31.4872 18.3825 31.4872 17.475C31.4872 16.5675 30.7522 15.8325 29.8447 15.8325Z" fill="#F4F4F4"/>
<path d="M5.41691 18.7425C4.71941 18.7425 4.14941 18.1725 4.14941 17.475C4.14941 16.7775 4.71941 16.2075 5.41691 16.2075H6.39941C7.09691 16.2075 7.66691 16.7775 7.66691 17.475C7.66691 18.1725 7.09691 18.7425 6.39941 18.7425H5.41691Z" fill="#2CA1C7"/>
<path d="M6.39191 16.5825C6.88691 16.5825 7.28441 16.98 7.28441 17.475C7.28441 17.97 6.88691 18.3675 6.39191 18.3675H5.41691C4.92191 18.3675 4.52441 17.97 4.52441 17.475C4.52441 16.98 4.92191 16.5825 5.41691 16.5825H6.39191ZM6.39191 15.8325H5.41691C4.50941 15.8325 3.77441 16.5675 3.77441 17.475C3.77441 18.3825 4.50941 19.1175 5.41691 19.1175H6.39941C7.30691 19.1175 8.04191 18.3825 8.04191 17.475C8.04191 16.5675 7.29941 15.8325 6.39191 15.8325Z" fill="#F4F4F4"/>
<path d="M30.0772 5.1675C26.7772 1.8675 22.2997 0.0075 17.6272 0C14.1397 0 10.7272 1.035 7.83222 2.97C4.93722 4.905 2.67222 7.6575 1.33722 10.8825C0.00972274 14.1 -0.342777 17.6475 0.339723 21.0675C1.01472 24.48 2.69472 27.6225 5.16222 30.09C7.62972 32.5575 10.7647 34.23 14.1847 34.9125C17.6047 35.595 21.1447 35.2425 24.3697 33.9075C27.5872 32.5725 30.3397 30.315 32.2822 27.42C34.2172 24.5175 35.2522 21.1125 35.2522 17.625C35.2447 12.9525 33.3847 8.475 30.0772 5.1675ZM32.7022 18.405C32.6947 18.585 32.6797 18.7575 32.6647 18.9375C32.6422 19.2075 32.6122 19.4775 32.5747 19.7475C32.5522 19.9275 32.5222 20.1 32.4847 20.28C31.4422 26.205 26.9422 30.9375 21.1372 32.31C20.2897 32.52 19.4122 32.655 18.5122 32.7C18.2197 32.7225 17.9272 32.73 17.6272 32.73C17.3047 32.73 16.9822 32.7225 16.6672 32.6925C16.3822 32.685 16.0897 32.655 15.8122 32.6175C15.5122 32.5875 15.2122 32.5425 14.9197 32.4825C14.6347 32.4375 14.3572 32.3775 14.0797 32.3025C14.0572 32.3025 14.0347 32.3025 14.0122 32.2875C12.6772 31.965 11.4172 31.4625 10.2547 30.8025C7.21722 29.1075 4.82472 26.3925 3.55722 23.115C3.24972 22.3425 3.00972 21.5475 2.84472 20.7225C2.81472 20.61 2.79222 20.505 2.77722 20.3925C2.61972 19.5525 2.53722 18.69 2.52972 17.8125C2.52222 17.7525 2.52222 17.685 2.52222 17.625C2.52222 10.4325 7.54722 4.41 14.2822 2.895C14.3047 2.8875 14.3347 2.88 14.3647 2.88C15.1672 2.6925 15.9997 2.58 16.8472 2.5425C17.1097 2.5275 17.3647 2.52 17.6272 2.52C19.7047 2.52 21.6847 2.94 23.4847 3.6975C23.4997 3.705 23.5072 3.7125 23.5222 3.7125C25.8847 4.7175 27.9322 6.3075 29.4922 8.295C29.6197 8.445 29.7322 8.595 29.8372 8.7525C30.0697 9.06 30.2797 9.375 30.4747 9.6975C30.5797 9.8625 30.6772 10.0275 30.7672 10.1925C30.8497 10.3275 30.9247 10.47 30.9997 10.6125C31.0297 10.665 31.0597 10.725 31.0897 10.785C31.1647 10.92 31.2322 11.0625 31.2922 11.205C31.4572 11.55 31.6072 11.9025 31.7422 12.2625C31.8172 12.4425 31.8772 12.63 31.9372 12.81C32.0047 12.99 32.0647 13.1775 32.1172 13.365C32.1247 13.395 32.1322 13.4325 32.1472 13.47C32.1922 13.635 32.2372 13.8075 32.2822 13.9875C32.4322 14.5725 32.5372 15.18 32.6122 15.795C32.6347 15.9825 32.6572 16.1775 32.6722 16.365C32.7097 16.7775 32.7247 17.1975 32.7247 17.625C32.7247 17.6325 32.7247 17.6325 32.7247 17.64C32.7247 17.895 32.7172 18.15 32.7022 18.405Z" fill="#2CA1C7" stroke="#F4F4F4" stroke-width="0.5"/>
</svg>
