<svg width="49" height="49" viewBox="0 0 49 49" fill="none" xmlns="http://www.w3.org/2000/svg">
<path d="M29.5695 13.3028C31.72 11.4924 37.0311 6.75141 37.3011 3.67076C37.3811 2.98061 37.1711 2.30047 36.721 1.77036C36.3009 1.30026 35.7208 1.11022 35.0407 1.11022C33.0402 1.11022 30.2196 2.77057 28.3993 3.99083C27.279 2.40049 25.6287 0.460083 24.2184 0.460083C22.8081 0.460083 21.1577 2.40049 20.0375 3.99083C18.2271 2.77057 15.3965 1.11022 13.3961 1.11022C12.716 1.11022 12.1258 1.30026 11.7157 1.77036C11.2456 2.30047 11.0356 2.99062 11.1056 3.67076C11.3757 6.7414 16.6868 11.5024 18.8372 13.3028C15.7766 16.5635 5.56445 27.7658 5.56445 32.8269C5.56445 40.9386 13.9262 47.54 24.1984 47.54C34.4705 47.54 42.8323 40.9386 42.8323 32.8269C42.8423 27.7658 32.6301 16.5535 29.5695 13.3028ZM15.3965 5.12106C16.1267 5.48114 17.0569 6.00125 18.1571 6.75141L20.8577 8.58179L22.7381 5.91123C23.3682 5.01104 23.8583 4.46092 24.1984 4.13086C24.5384 4.46092 25.0285 5.00104 25.6587 5.91123L27.5291 8.57179L30.2296 6.75141C31.3399 6.00125 32.2601 5.48114 33.0002 5.12106C31.87 6.64138 29.8196 8.76183 27.289 10.8623H21.1077C18.5972 8.80184 16.5468 6.65139 15.3965 5.12106ZM24.2084 44.2193C15.7666 44.2193 8.89515 39.1082 8.89515 32.8369C8.89515 30.4664 14.3863 22.8248 21.2778 15.5633H27.119C34.0104 22.8248 39.5016 30.4564 39.5016 32.8369C39.5116 39.1082 32.6502 44.2193 24.2084 44.2193Z" fill="#2CA1C7"/>
<path d="M24.2085 48.0101C13.6763 48.0101 5.10449 41.1987 5.10449 32.8269C5.10449 27.8759 13.9764 17.8137 18.1672 13.3428C15.3066 10.9023 10.9057 6.69141 10.6457 3.71078C10.5556 2.91061 10.8157 2.09044 11.3458 1.47031C11.8259 0.920194 12.5161 0.640135 13.3762 0.640135C15.3266 0.640135 17.9372 2.06043 19.8976 3.3507C21.5379 1.13024 22.9883 0 24.2085 0C25.4288 0 26.8691 1.13024 28.5094 3.36071C30.4798 2.07044 33.0904 0.650137 35.0308 0.650137C35.901 0.650137 36.5811 0.930196 37.0612 1.47031C37.6013 2.09044 37.8514 2.91061 37.7614 3.73078C37.5013 6.69141 33.1104 10.9023 30.2498 13.3428C34.4407 17.8137 43.3125 27.8859 43.3125 32.8369C43.3025 41.1987 34.7407 48.0101 24.2085 48.0101ZM13.3862 1.58033C12.7861 1.58033 12.356 1.75037 12.056 2.09044C11.6859 2.50053 11.5058 3.06064 11.5759 3.62076C11.8359 6.59139 17.4371 11.5124 19.1474 12.9527C19.2475 13.0327 19.3075 13.1528 19.3175 13.2828C19.3275 13.4128 19.2775 13.5328 19.1875 13.6229C12.8261 20.3643 6.03469 28.9461 6.03469 32.8269C6.03469 40.6786 14.1864 47.0699 24.2085 47.0699C34.2306 47.0699 42.3823 40.6786 42.3823 32.8269C42.3823 28.9461 35.5909 20.3543 29.2296 13.6129C29.1395 13.5228 29.0995 13.3928 29.0995 13.2728C29.1095 13.1428 29.1696 13.0227 29.2696 12.9427C30.9799 11.5024 36.5811 6.59139 36.8312 3.63076C36.9012 3.06064 36.7211 2.50053 36.3611 2.08044C35.3509 0.930196 32.4602 1.82038 28.6494 4.38092C28.4394 4.52095 28.1593 4.47094 28.0093 4.2609C26.519 2.14045 25.1287 0.930196 24.2085 0.930196C23.2883 0.930196 21.898 2.14045 20.4077 4.2609C20.2577 4.47094 19.9776 4.52095 19.7676 4.38092C17.087 2.57054 14.8165 1.58033 13.3862 1.58033ZM24.2085 44.6794C15.5067 44.6794 8.43519 39.3683 8.43519 32.8269C8.43519 29.9663 14.8865 21.6245 20.9478 15.2332C21.0378 15.1432 21.1579 15.0932 21.2879 15.0932H27.1291C27.2592 15.0932 27.3792 15.1432 27.4692 15.2332C33.5405 21.6245 39.9818 29.9563 39.9818 32.8269C39.9818 39.3683 32.9003 44.6794 24.2085 44.6794ZM21.4779 16.0234C13.9864 23.945 9.35539 30.8965 9.35539 32.8269C9.35539 38.8482 16.0168 43.7492 24.1985 43.7492C32.3802 43.7492 39.0416 38.8482 39.0416 32.8269C39.0416 30.8965 34.4107 23.935 26.9191 16.0234H21.4779ZM27.2992 11.3324H21.1079C20.9978 11.3324 20.8978 11.2924 20.8078 11.2224C18.4673 9.29195 16.3068 7.1115 15.0266 5.40114C14.8966 5.2311 14.9066 4.99105 15.0466 4.83102C15.1866 4.66098 15.4167 4.62097 15.6067 4.71099C16.4569 5.13108 17.4071 5.68119 18.4273 6.37134L20.7578 7.94167L22.3781 5.64119C22.9182 4.87102 23.4283 4.25089 23.8984 3.8008C24.0785 3.63076 24.3685 3.62076 24.5486 3.8008C25.0087 4.25089 25.5188 4.87102 26.0689 5.64119L27.6792 7.93167L29.9997 6.37134C31.0199 5.68119 31.9701 5.13108 32.8203 4.71099C33.0104 4.62097 33.2404 4.67098 33.3804 4.83102C33.5205 5.00105 33.5205 5.2311 33.3904 5.40114C32.1302 7.09149 29.9597 9.27195 27.5992 11.2224C27.5092 11.2924 27.3992 11.3324 27.2992 11.3324ZM21.2779 10.4022H27.1291C28.5194 9.24194 29.8297 8.01169 30.9199 6.86144C30.7799 6.95146 30.6399 7.04148 30.4998 7.1415L27.7993 8.96189C27.5892 9.10191 27.3092 9.0519 27.1591 8.84186L25.2887 6.1813C24.8486 5.56117 24.4886 5.11107 24.2085 4.81101C23.9285 5.12108 23.5684 5.56117 23.1283 6.1813L21.2479 8.85186C21.0979 9.06191 20.8178 9.11192 20.6078 8.97189L17.9072 7.1415C17.7672 7.05148 17.6371 6.96146 17.4971 6.87145C18.5773 8.02169 19.8976 9.25195 21.2779 10.4022Z" fill="#F4F4F4"/>
<path d="M31.0693 34.0072C31.0693 31.4367 29.2589 29.7063 25.5682 28.7961V23.205C27.0785 23.575 28.2187 24.5152 28.3087 25.6255C28.3688 26.3856 29.0389 26.9457 29.7991 26.8857C30.5592 26.8257 31.1193 26.1556 31.0593 25.3954C30.5192 22.6348 28.2587 20.6344 25.5682 20.3143V18.914C25.5682 18.1539 24.958 17.5438 24.1979 17.5438C23.4377 17.5438 22.8276 18.1539 22.8276 18.914V20.3143C20.027 20.6644 17.7065 22.8549 17.3364 25.7755C17.3364 28.346 19.1368 30.0764 22.8276 30.9866V36.5778C21.3173 36.2077 20.177 35.2675 20.087 34.1573C20.027 33.3971 19.3569 32.837 18.5967 32.897C17.8365 32.957 17.2764 33.6271 17.3364 34.3873C17.8765 37.1479 20.137 39.1483 22.8276 39.4684V40.8687C22.8276 41.6288 23.4377 42.239 24.1979 42.239C24.958 42.239 25.5682 41.6288 25.5682 40.8687V39.4684C28.3788 39.1283 30.6992 36.9278 31.0693 34.0072ZM20.087 25.7755C20.087 24.6052 21.2573 23.595 22.8276 23.205V28.176C20.9772 27.6359 20.087 26.8657 20.087 25.7755ZM25.5682 36.5778V31.6067C27.4186 32.1368 28.3087 32.907 28.3087 34.0072C28.3187 35.1775 27.1485 36.1877 25.5682 36.5778Z" fill="#2CA1C7"/>
<path d="M24.1979 42.7892C23.1377 42.7892 22.2675 41.929 22.2675 40.8588V39.9386C19.5069 39.4085 17.3365 37.278 16.7864 34.4874C16.7364 33.9173 16.8964 33.4172 17.2265 33.0171C17.5565 32.627 18.0266 32.387 18.5367 32.337C19.0468 32.297 19.547 32.457 19.947 32.7871C20.3371 33.1172 20.5772 33.5873 20.6272 34.0974C20.6872 34.7775 21.3173 35.4176 22.2675 35.8077V31.4068C18.6268 30.4066 16.7764 28.5162 16.7764 25.7656C17.1564 22.745 19.3769 20.3945 22.2675 19.8344V18.9042C22.2675 17.8439 23.1277 16.9738 24.1979 16.9738C25.2582 16.9738 26.1283 17.8339 26.1283 18.9042V19.8244C28.8889 20.3545 31.0594 22.4849 31.6095 25.2755C31.7095 26.3957 30.9193 27.3259 29.8591 27.416C29.349 27.456 28.8489 27.2959 28.4488 26.9659C28.0587 26.6358 27.8187 26.1657 27.7687 25.6556C27.7087 24.9754 27.0785 24.3253 26.1283 23.9452V28.3562C29.7791 29.3564 31.6295 31.2568 31.6295 33.9973C31.6295 34.0173 31.6295 34.0473 31.6295 34.0674C31.2494 37.018 29.0289 39.3685 26.1383 39.9286V40.8588C26.1283 41.929 25.2582 42.7892 24.1979 42.7892ZM18.7168 33.4472C18.6968 33.4472 18.6668 33.4472 18.6468 33.4472C18.4267 33.4672 18.2267 33.5672 18.0866 33.7373C17.9466 33.9073 17.8766 34.1174 17.8966 34.3374C18.3667 36.7579 20.3871 38.6183 22.8977 38.9184C23.1777 38.9484 23.3878 39.1884 23.3878 39.4685V40.8688C23.3878 41.3189 23.7578 41.689 24.2079 41.689C24.658 41.689 25.0281 41.3189 25.0281 40.8688V39.4685C25.0281 39.1884 25.2381 38.9484 25.5182 38.9184C28.1288 38.5983 30.1792 36.5679 30.5293 33.9773C30.5093 31.6969 28.8489 30.1765 25.4482 29.3364C25.1981 29.2763 25.0281 29.0563 25.0281 28.7962V23.2051C25.0281 23.035 25.1081 22.875 25.2381 22.765C25.3682 22.665 25.5382 22.6249 25.7082 22.665C27.5286 23.105 28.7689 24.2553 28.8689 25.5856C28.8889 25.8056 28.9889 26.0057 29.159 26.1457C29.329 26.2857 29.5491 26.3557 29.7591 26.3357C29.9791 26.3157 30.1792 26.2157 30.3192 26.0457C30.4592 25.8756 30.5293 25.6656 30.5093 25.4455C30.0392 23.025 28.0187 21.1646 25.5082 20.8646C25.2281 20.8346 25.0181 20.5945 25.0181 20.3145V18.9142C25.0181 18.4641 24.648 18.094 24.1979 18.094C23.7478 18.094 23.3778 18.4641 23.3778 18.9142V20.3145C23.3778 20.5945 23.1677 20.8346 22.8877 20.8646C20.2671 21.1846 18.2167 23.2351 17.8766 25.8456C17.8766 28.0761 19.5369 29.6064 22.9477 30.4466C23.1977 30.5066 23.3678 30.7267 23.3678 30.9867V36.5779C23.3678 36.7479 23.2877 36.9079 23.1577 37.018C23.0277 37.128 22.8476 37.158 22.6876 37.118C20.8772 36.6779 19.637 35.5277 19.5269 34.1974C19.5069 33.9773 19.4069 33.7773 19.2369 33.6373C19.0969 33.5172 18.9068 33.4472 18.7168 33.4472ZM31.0694 34.0073H31.0794H31.0694ZM25.5682 37.128C25.4482 37.128 25.3282 37.088 25.2281 37.008C25.0981 36.908 25.0181 36.7379 25.0181 36.5679V31.6068C25.0181 31.4368 25.0981 31.2668 25.2381 31.1667C25.3782 31.0667 25.5582 31.0267 25.7283 31.0767C26.5084 31.2968 28.8689 31.9769 28.8689 34.0073C28.8689 35.3976 27.5986 36.6479 25.6982 37.118C25.6582 37.128 25.6182 37.128 25.5682 37.128ZM26.1283 32.377V35.8177C27.1185 35.4076 27.7687 34.7175 27.7687 34.0073C27.7587 33.5572 27.5786 32.9271 26.1283 32.377ZM22.8276 28.7262C22.7776 28.7262 22.7276 28.7162 22.6776 28.7062C21.8974 28.4862 19.5369 27.806 19.5369 25.7756C19.5369 24.3853 20.8072 23.1351 22.7076 22.665C22.8676 22.6249 23.0477 22.665 23.1777 22.765C23.3077 22.865 23.3878 23.035 23.3878 23.2051V28.1761C23.3878 28.3461 23.3077 28.5162 23.1677 28.6162C23.0677 28.6862 22.9477 28.7262 22.8276 28.7262ZM22.2775 23.9652C21.2873 24.3753 20.6372 25.0655 20.6372 25.7756C20.6372 26.2257 20.8272 26.8558 22.2775 27.406V23.9652Z" fill="#F4F4F4"/>
</svg>
