<svg width="43" height="41" viewBox="0 0 43 41" fill="none" xmlns="http://www.w3.org/2000/svg">
<path d="M2.8259 22.1644C2.02425 22.1644 1.36914 21.5093 1.36914 20.7076C1.36914 19.906 2.02425 19.2509 2.8259 19.2509H6.54106C7.3427 19.2509 7.99782 19.906 7.99782 20.7076C7.99782 21.5093 7.3427 22.1644 6.54106 22.1644H2.8259Z" fill="#2CA1C7"/>
<path d="M6.54041 19.6822C7.10932 19.6822 7.56618 20.139 7.56618 20.7079C7.56618 21.2769 7.10932 21.7337 6.54041 21.7337H2.82525C2.25634 21.7337 1.79949 21.2769 1.79949 20.7079C1.79949 20.139 2.25634 19.6822 2.82525 19.6822H6.54041ZM6.54041 18.8202H2.82525C1.78225 18.8202 0.9375 19.6649 0.9375 20.7079C0.9375 21.7509 1.78225 22.5957 2.82525 22.5957H6.54041C7.58341 22.5957 8.42816 21.7509 8.42816 20.7079C8.42816 19.6649 7.58341 18.8202 6.54041 18.8202Z" fill="#F4F4F4"/>
<path d="M11.315 36.1195C10.9271 36.1195 10.5564 35.9644 10.2806 35.6885C10.0048 35.4127 9.84961 35.0507 9.84961 34.6628C9.84961 34.2749 10.0048 33.9042 10.2806 33.6284L38.0969 5.8121C38.3727 5.53626 38.7348 5.3811 39.1313 5.3811C39.5278 5.3811 39.8898 5.53626 40.157 5.8121C40.4243 6.08793 40.588 6.44997 40.588 6.83786C40.588 7.22575 40.4329 7.59641 40.157 7.87224L12.3407 35.6885C12.0735 35.9644 11.7029 36.1195 11.315 36.1195Z" fill="#2CA1C7"/>
<path d="M39.1312 5.82115C39.407 5.82115 39.6656 5.92459 39.8553 6.12285C40.0449 6.31249 40.157 6.57108 40.157 6.84692C40.157 7.12275 40.0535 7.38135 39.8553 7.57099L12.039 35.3873C11.8493 35.5769 11.5907 35.689 11.3149 35.689C11.0391 35.689 10.7805 35.5855 10.5908 35.3873C10.1943 34.9908 10.1943 34.3357 10.5908 33.9391L38.4071 6.12285C38.6054 5.92459 38.864 5.82115 39.1312 5.82115ZM39.1312 4.95917C38.6485 4.95917 38.1658 5.14018 37.7951 5.51084L9.97883 33.3271C9.23752 34.0684 9.23752 35.258 9.97883 35.9993C10.3495 36.3699 10.8322 36.551 11.3149 36.551C11.7976 36.551 12.2803 36.3699 12.651 35.9993L40.4673 8.183C41.2086 7.44169 41.2086 6.25215 40.4673 5.51084C40.0966 5.14018 39.6139 4.95917 39.1312 4.95917Z" fill="#F4F4F4"/>
<path d="M18.2463 20.4496C12.9882 20.4496 8.7041 16.1656 8.7041 10.8988C8.7041 5.63209 12.9882 1.34802 18.2463 1.34802C23.513 1.34802 27.7971 5.63209 27.7971 10.8988C27.7971 16.1656 23.5044 20.4496 18.2463 20.4496ZM18.2463 4.40807C14.669 4.40807 11.7555 7.32159 11.7555 10.8988C11.7555 14.4761 14.669 17.3896 18.2463 17.3896C21.8235 17.3896 24.737 14.4761 24.737 10.8988C24.737 7.32159 21.8235 4.40807 18.2463 4.40807Z" fill="#2CA1C7"/>
<path d="M18.2466 1.77867C23.272 1.77867 27.3664 5.87311 27.3664 10.8985C27.3664 15.9239 23.272 20.0183 18.2466 20.0183C13.2212 20.0183 9.13542 15.9239 9.13542 10.8985C9.13542 5.87311 13.2212 1.77867 18.2466 1.77867ZM18.2466 17.8202C22.0652 17.8202 25.1684 14.7171 25.1684 10.8985C25.1684 7.07989 22.0652 3.97674 18.2466 3.97674C14.428 3.97674 11.3249 7.07989 11.3249 10.8985C11.3249 14.7171 14.428 17.8202 18.2466 17.8202ZM18.2466 0.916687C12.7385 0.916687 8.27344 5.3904 8.27344 10.8985C8.27344 16.4066 12.7385 20.8803 18.2466 20.8803C23.7633 20.8803 28.2284 16.4066 28.2284 10.8985C28.2284 5.3904 23.7633 0.916687 18.2466 0.916687ZM18.2466 16.9583C14.9021 16.9583 12.1869 14.243 12.1869 10.8985C12.1869 7.55398 14.9021 4.83872 18.2466 4.83872C21.5997 4.83872 24.3064 7.55398 24.3064 10.8985C24.3064 14.243 21.5997 16.9583 18.2466 16.9583Z" fill="#F4F4F4"/>
<path d="M32.0813 40.2312C26.8231 40.2312 22.5391 35.9472 22.5391 30.6891C22.5391 25.4223 26.8231 21.1382 32.0813 21.1382C37.348 21.1382 41.6321 25.4223 41.6321 30.6891C41.6321 35.9558 37.3394 40.2312 32.0813 40.2312ZM32.0813 24.1983C28.504 24.1983 25.5905 27.1118 25.5905 30.6891C25.5905 34.2663 28.504 37.1798 32.0813 37.1798C35.6585 37.1798 38.572 34.2663 38.572 30.6891C38.572 27.1118 35.6585 24.1983 32.0813 24.1983Z" fill="#2CA1C7"/>
<path d="M32.0816 21.5696C37.107 21.5696 41.2014 25.6641 41.2014 30.6894C41.2014 35.7148 37.107 39.8006 32.0816 39.8006C27.0562 39.8006 22.9704 35.7148 22.9704 30.6894C22.9704 25.6641 27.0562 21.5696 32.0816 21.5696ZM32.0816 37.6112C35.9002 37.6112 39.0033 34.508 39.0033 30.6894C39.0033 26.8708 35.9002 23.7677 32.0816 23.7677C28.263 23.7677 25.1598 26.8708 25.1598 30.6894C25.1598 34.508 28.263 37.6112 32.0816 37.6112ZM32.0816 20.7076C26.5735 20.7076 22.1084 25.1727 22.1084 30.6894C22.1084 36.1975 26.5735 40.6626 32.0816 40.6626C37.5983 40.6626 42.0634 36.1975 42.0634 30.6894C42.0634 25.1727 37.5983 20.7076 32.0816 20.7076ZM32.0816 36.7492C28.7371 36.7492 26.0218 34.0339 26.0218 30.6894C26.0218 27.3363 28.7371 24.6297 32.0816 24.6297C35.4347 24.6297 38.1413 27.3363 38.1413 30.6894C38.1413 34.0339 35.4347 36.7492 32.0816 36.7492Z" fill="#F4F4F4"/>
</svg>
