<svg width="42" height="42" viewBox="0 0 42 42" fill="none" xmlns="http://www.w3.org/2000/svg">
<path d="M31.2238 25.099L21.7168 32.883C21.4894 33.0667 21.2445 33.1454 21.0084 33.1454H20.9996V33.574C21.3495 33.5827 21.6993 33.4603 21.9879 33.2241L31.5037 25.4401V35.6818C31.5037 36.6964 30.8303 37.7809 29.7545 37.7809H13.9328V38.2182H29.7545C31.0314 38.2182 31.941 37.0025 31.941 35.6818V24.513L31.2238 25.099ZM37.2412 15.5132L21.262 4.17828L21.0084 4.00335L20.7547 4.17828L4.77557 15.5132L4.30328 15.8456L4.74933 16.2042L5.73764 17.0176L6.20118 16.8339L5.0292 15.8718L21.0084 4.53687L36.9875 15.8718L33.5153 18.7056L21.4632 14.7698C21.0609 14.6386 20.6323 14.6824 20.2475 14.901C19.7839 15.1634 19.4603 15.6357 19.3204 16.2392C19.0667 17.3587 19.6177 18.5132 20.5448 18.8193L29.7195 21.8192L21.0084 28.9473V29.507L21.2795 29.2796L29.9906 22.1516L30.6116 21.653L29.8507 21.3994L20.6848 18.3995C20.0201 18.1808 19.5303 17.2887 19.7489 16.3354C19.9588 15.3908 20.711 14.9797 21.332 15.1809L33.3841 19.1254L33.6115 19.2041L33.7952 19.0467L37.2674 16.2042L37.7047 15.8456L37.2412 15.5132ZM40.5734 21.4781L37.0575 20.3324L37.6785 19.8251L40.9583 17.14C41.3344 16.8339 41.5793 16.2917 41.5618 15.6882C41.5443 15.0847 41.2731 14.5687 40.8883 14.2888L21.6468 0.644843C21.4457 0.504905 21.227 0.434937 21.0084 0.434937C20.781 0.434937 20.5711 0.504905 20.3699 0.644843L1.12843 14.2888C0.743604 14.5687 0.472473 15.0847 0.454981 15.6882C0.437489 16.2917 0.682382 16.8339 1.05847 17.14L2.49283 18.312L2.95637 18.1283L5.2741 17.2013L5.73764 17.0176L6.20118 16.8339L5.0292 15.8718L21.0084 4.53687L36.9875 15.8718L33.5153 18.7056L21.4632 14.7698C21.0609 14.6386 20.6323 14.6824 20.2475 14.901C19.7839 15.1634 19.4603 15.6357 19.3204 16.2392C19.0667 17.3587 19.6177 18.5132 20.5448 18.8193L29.7195 21.8192L21.0084 28.9473V30.0755L20.9996 32.7081V33.574C21.3495 33.5827 21.6993 33.4603 21.9879 33.2241L31.5037 25.4401V35.6818C31.5037 36.6964 30.8303 37.7809 29.7545 37.7809H13.9328V41.5417H29.7545C32.3346 41.5417 34.5649 38.9966 34.5649 35.6818V22.9475L35.1334 23.1311L38.6318 24.2769L38.9379 24.3731V34.6323C38.9379 35.6293 39.5939 36.294 40.2498 36.294C40.8971 36.294 41.5618 35.6293 41.5618 34.6323V23.0874C41.5618 22.2827 41.1157 21.6618 40.5734 21.4781Z" fill="#2CA1C7"/>
<path d="M20.6835 15.6621C20.8497 15.5659 21.0333 15.5484 21.1908 15.6009L33.6977 19.6941L38.4294 15.8196L21.5144 3.81987L21.0071 3.46128L3.58482 15.8196L5.27282 17.2014L5.73636 17.0178L6.19991 16.8341L5.02793 15.872L21.0071 4.53705L36.9863 15.872L33.5141 18.7058L21.4619 14.77C21.0596 14.6388 20.631 14.6826 20.2462 14.9012C19.7826 15.1636 19.459 15.6359 19.3191 16.2394C19.0655 17.3589 19.6165 18.5134 20.5436 18.8195L29.7182 21.8194L21.0071 28.9475V30.0757L31.5024 21.487L20.8147 17.9886C20.3774 17.8399 20.0013 17.1665 20.1675 16.4318C20.2549 16.0732 20.4298 15.8021 20.6835 15.6621ZM21.4357 32.5421C21.3045 32.6558 21.147 32.7083 20.9983 32.7083V33.5742C21.3482 33.5829 21.698 33.4605 21.9867 33.2243L31.5024 25.4403V35.682C31.5024 36.6965 30.829 37.7811 29.7532 37.7811H13.9315V38.6557H29.7532C31.1963 38.6557 32.3771 37.3263 32.3771 35.682V23.5949L21.4357 32.5421ZM20.6835 15.6621C20.8497 15.5659 21.0333 15.5484 21.1908 15.6009L33.6977 19.6941L38.4294 15.8196L21.5144 3.81987L21.0071 3.46128L3.58482 15.8196L5.27282 17.2014L5.73636 17.0178L6.19991 16.8341L5.02793 15.872L21.0071 4.53705L36.9863 15.872L33.5141 18.7058L21.4619 14.77C21.0596 14.6388 20.631 14.6826 20.2462 14.9012C19.7826 15.1636 19.459 15.6359 19.3191 16.2394C19.0655 17.3589 19.6165 18.5134 20.5436 18.8195L29.7182 21.8194L21.0071 28.9475V30.0757L31.5024 21.487L20.8147 17.9886C20.3774 17.8399 20.0013 17.1665 20.1675 16.4318C20.2549 16.0732 20.4298 15.8021 20.6835 15.6621ZM21.4357 32.5421C21.3045 32.6558 21.147 32.7083 20.9983 32.7083V33.5742C21.3482 33.5829 21.698 33.4605 21.9867 33.2243L31.5024 25.4403V35.682C31.5024 36.6965 30.829 37.7811 29.7532 37.7811H13.9315V38.6557H29.7532C31.1963 38.6557 32.3771 37.3263 32.3771 35.682V23.5949L21.4357 32.5421ZM21.4357 32.5421C21.3045 32.6558 21.147 32.7083 20.9983 32.7083V33.5742C21.3482 33.5829 21.698 33.4605 21.9867 33.2243L31.5024 25.4403V35.682C31.5024 36.6965 30.829 37.7811 29.7532 37.7811H13.9315V38.6557H29.7532C31.1963 38.6557 32.3771 37.3263 32.3771 35.682V23.5949L21.4357 32.5421ZM20.6835 15.6621C20.8497 15.5659 21.0333 15.5484 21.1908 15.6009L33.6977 19.6941L38.4294 15.8196L21.5144 3.81987L21.0071 3.46128L3.58482 15.8196L5.27282 17.2014L5.73636 17.0178L6.19991 16.8341L5.02793 15.872L21.0071 4.53705L36.9863 15.872L33.5141 18.7058L21.4619 14.77C21.0596 14.6388 20.631 14.6826 20.2462 14.9012C19.7826 15.1636 19.459 15.6359 19.3191 16.2394C19.0655 17.3589 19.6165 18.5134 20.5436 18.8195L29.7182 21.8194L21.0071 28.9475V30.0757L31.5024 21.487L20.8147 17.9886C20.3774 17.8399 20.0013 17.1665 20.1675 16.4318C20.2549 16.0732 20.4298 15.8021 20.6835 15.6621ZM21.5144 3.81987L21.0071 3.46128L3.58482 15.8196L5.27282 17.2014L5.73636 17.0178L6.19991 16.8341L5.02793 15.872L21.0071 4.53705L36.9863 15.872L33.5141 18.7058L21.4619 14.77C21.0596 14.6388 20.631 14.6826 20.2462 14.9012C19.7826 15.1636 19.459 15.6359 19.3191 16.2394C19.0655 17.3589 19.6165 18.5134 20.5436 18.8195L29.7182 21.8194L21.0071 28.9475V30.0757L31.5024 21.487L20.8147 17.9886C20.3774 17.8399 20.0013 17.1665 20.1675 16.4318C20.2549 16.0732 20.4298 15.8021 20.6835 15.6621C20.8497 15.5659 21.0333 15.5484 21.1908 15.6009L33.6977 19.6941L38.4294 15.8196L21.5144 3.81987ZM20.9983 32.7083V33.5742C21.3482 33.5829 21.698 33.4605 21.9867 33.2243L31.5024 25.4403V35.682C31.5024 36.6965 30.829 37.7811 29.7532 37.7811H13.9315V38.6557H29.7532C31.1963 38.6557 32.3771 37.3263 32.3771 35.682V23.5949L21.4357 32.5421C21.3045 32.6558 21.147 32.7083 20.9983 32.7083ZM40.7034 21.0672L37.9483 20.1576L41.2281 17.4726C41.7267 17.0702 42.0153 16.3968 41.9978 15.6709C41.9715 14.9537 41.6567 14.3065 41.1407 13.9391L21.8992 0.295182C21.3482 -0.0983939 20.666 -0.0983939 20.115 0.295182L0.873518 13.9391C0.357497 14.3065 0.033891 14.9537 0.0163987 15.6709C-0.00109351 16.3968 0.278781 17.0702 0.77731 17.4813L2.01926 18.4959L2.49155 18.3122L2.9551 18.1285L1.33707 16.7991C1.04844 16.563 0.882265 16.1432 0.891011 15.6971C0.899757 15.2598 1.09217 14.8575 1.3808 14.6476L20.6223 1.00362C20.7447 0.916156 20.8759 0.872426 21.0071 0.872426C21.1383 0.872426 21.2695 0.916156 21.3919 1.00362L40.6334 14.6476C40.922 14.8575 41.1057 15.2598 41.1232 15.6971C41.1319 16.1432 40.9657 16.563 40.6771 16.7991L36.1641 20.4987L40.4322 21.8981C40.7733 22.0118 41.1232 22.4579 41.1232 23.0876V34.6325C41.1232 35.3671 40.6684 35.8569 40.2486 35.8569C39.82 35.8569 39.374 35.3671 39.374 34.6325V24.0584L34.1263 22.3442V35.682C34.1263 38.6732 32.1584 41.1046 29.7532 41.1046H13.9315V41.9792H29.7532C32.6482 41.9792 35.0009 39.1542 35.0009 35.682V23.5511L38.4993 24.6969V34.6325C38.4993 35.9269 39.4089 36.7315 40.2486 36.7315C41.0882 36.7315 41.9978 35.9269 41.9978 34.6325V23.0876C41.9978 22.143 41.4643 21.3121 40.7034 21.0672ZM21.0071 4.53705L36.9863 15.872L33.5141 18.7058L21.4619 14.77C21.0596 14.6388 20.631 14.6826 20.2462 14.9012C19.7826 15.1636 19.459 15.6359 19.3191 16.2394C19.0655 17.3589 19.6165 18.5134 20.5436 18.8195L29.7182 21.8194L21.0071 28.9475V30.0757L31.5024 21.487L20.8147 17.9886C20.3774 17.8399 20.0013 17.1665 20.1675 16.4318C20.2549 16.0732 20.4298 15.8021 20.6835 15.6621C20.8497 15.5659 21.0333 15.5484 21.1908 15.6009L33.6977 19.6941L38.4294 15.8196L21.5144 3.81987L21.0071 3.46128L3.58482 15.8196L5.27282 17.2014L5.73636 17.0178L6.19991 16.8341L5.02793 15.872L21.0071 4.53705ZM29.7532 37.7811H13.9315V38.6557H29.7532C31.1963 38.6557 32.3771 37.3263 32.3771 35.682V23.5949L21.4357 32.5421C21.3045 32.6558 21.147 32.7083 20.9983 32.7083V33.5742C21.3482 33.5829 21.698 33.4605 21.9867 33.2243L31.5024 25.4403V35.682C31.5024 36.6965 30.829 37.7811 29.7532 37.7811ZM21.4357 32.5421C21.3045 32.6558 21.147 32.7083 20.9983 32.7083V33.5742C21.3482 33.5829 21.698 33.4605 21.9867 33.2243L31.5024 25.4403V35.682C31.5024 36.6965 30.829 37.7811 29.7532 37.7811H13.9315V38.6557H29.7532C31.1963 38.6557 32.3771 37.3263 32.3771 35.682V23.5949L21.4357 32.5421ZM20.6835 15.6621C20.8497 15.5659 21.0333 15.5484 21.1908 15.6009L33.6977 19.6941L38.4294 15.8196L21.5144 3.81987L21.0071 3.46128L3.58482 15.8196L5.27282 17.2014L5.73636 17.0178L6.19991 16.8341L5.02793 15.872L21.0071 4.53705L36.9863 15.872L33.5141 18.7058L21.4619 14.77C21.0596 14.6388 20.631 14.6826 20.2462 14.9012C19.7826 15.1636 19.459 15.6359 19.3191 16.2394C19.0655 17.3589 19.6165 18.5134 20.5436 18.8195L29.7182 21.8194L21.0071 28.9475V30.0757L31.5024 21.487L20.8147 17.9886C20.3774 17.8399 20.0013 17.1665 20.1675 16.4318C20.2549 16.0732 20.4298 15.8021 20.6835 15.6621ZM20.6835 15.6621C20.8497 15.5659 21.0333 15.5484 21.1908 15.6009L33.6977 19.6941L38.4294 15.8196L21.5144 3.81987L21.0071 3.46128L3.58482 15.8196L5.27282 17.2014L5.73636 17.0178L6.19991 16.8341L5.02793 15.872L21.0071 4.53705L36.9863 15.872L33.5141 18.7058L21.4619 14.77C21.0596 14.6388 20.631 14.6826 20.2462 14.9012C19.7826 15.1636 19.459 15.6359 19.3191 16.2394C19.0655 17.3589 19.6165 18.5134 20.5436 18.8195L29.7182 21.8194L21.0071 28.9475V30.0757L31.5024 21.487L20.8147 17.9886C20.3774 17.8399 20.0013 17.1665 20.1675 16.4318C20.2549 16.0732 20.4298 15.8021 20.6835 15.6621ZM21.4357 32.5421C21.3045 32.6558 21.147 32.7083 20.9983 32.7083V33.5742C21.3482 33.5829 21.698 33.4605 21.9867 33.2243L31.5024 25.4403V35.682C31.5024 36.6965 30.829 37.7811 29.7532 37.7811H13.9315V38.6557H29.7532C31.1963 38.6557 32.3771 37.3263 32.3771 35.682V23.5949L21.4357 32.5421Z" fill="#F4F4F4"/>
<path d="M16.7677 31.3178C16.7677 28.2566 14.6337 26.1925 10.2344 25.108V18.4697C12.0361 18.907 13.3917 20.0265 13.4967 21.3559C13.5754 22.2568 14.3626 22.9215 15.2634 22.8515C16.1643 22.7728 16.829 21.9856 16.759 21.0848C16.1205 17.805 13.4355 15.4086 10.2344 15.0325V13.3795C10.2344 12.4786 9.50846 11.7527 8.60761 11.7527C7.70676 11.7527 6.98083 12.4786 6.98083 13.3795V15.0412C3.64856 15.4523 0.902277 18.0674 0.456225 21.5396C0.456225 24.6007 2.58153 26.6648 6.98083 27.7493V34.3876C5.18788 33.9503 3.83223 32.8308 3.71853 31.5102C3.63981 30.6093 2.85266 29.9446 1.95181 30.0146C1.05096 30.0933 0.386256 30.8805 0.456225 31.7813C1.09469 35.0611 3.77975 37.4575 6.98083 37.8336V39.4866C6.98083 40.3875 7.70676 41.1134 8.60761 41.1134C9.50846 41.1134 10.2344 40.3875 10.2344 39.4866V37.8336C13.5754 37.4051 16.3304 34.79 16.7677 31.3178ZM3.71853 21.5308C3.71853 20.1402 5.10042 18.9245 6.98083 18.4697V24.3821C4.77681 23.7524 3.71853 22.834 3.71853 21.5308ZM10.2431 34.3789V28.4665C12.4472 29.0962 13.5054 30.0146 13.5054 31.3178C13.4967 32.7084 12.1148 33.9241 10.2431 34.3789Z" fill="#2CA1C7"/>
<path d="M8.60618 41.5333C7.46919 41.5333 6.53335 40.6062 6.53335 39.4692V38.1923C3.25356 37.6413 0.65596 35.1399 0.0174926 31.8426C-0.0349841 31.2478 0.139939 30.7056 0.489784 30.2858C0.848375 29.866 1.3469 29.6036 1.89791 29.5598C2.44892 29.5074 2.99118 29.6823 3.41099 30.0409C3.8308 30.3995 4.09318 30.898 4.13692 31.449C4.21563 32.4111 5.15147 33.3119 6.52461 33.7842V28.073C2.19528 26.9273 0 24.732 0 21.5309C0.446052 17.9975 3.09613 15.2512 6.52461 14.6564V13.3795C6.52461 12.2425 7.45169 11.3154 8.59744 11.3154C9.74318 11.3154 10.6615 12.2425 10.6615 13.3795V14.6564C13.9413 15.2075 16.5389 17.7088 17.1774 21.0061C17.2823 22.1956 16.4252 23.2014 15.2882 23.2889C14.1425 23.3938 13.1454 22.5367 13.0492 21.3997C12.9705 20.4376 12.0347 19.5368 10.6615 19.0645V24.7757C14.9996 25.9215 17.1949 28.1255 17.1949 31.3266C17.1949 31.344 17.1949 31.3615 17.1949 31.379C16.7488 34.86 14.09 37.615 10.6703 38.1923V39.4692C10.679 40.6062 9.75193 41.5333 8.60618 41.5333ZM2.09032 30.4257C2.05534 30.4257 2.02035 30.4257 1.98537 30.4257C1.66176 30.4519 1.37314 30.6006 1.17198 30.8455C0.97082 31.0904 0.865867 31.3965 0.892105 31.7201C1.4781 34.7201 3.94451 37.0115 7.03189 37.3701C7.25054 37.3964 7.41671 37.58 7.41671 37.8074V39.4605C7.41671 40.1164 7.95023 40.6499 8.61493 40.6499C9.27089 40.6499 9.80441 40.1164 9.80441 39.4605V37.8074C9.80441 37.5888 9.97058 37.3964 10.1892 37.3701C13.3903 36.9853 15.9179 34.4839 16.3378 31.2828C16.329 28.4316 14.2999 26.5512 10.1368 25.5279C9.94434 25.4841 9.80441 25.3092 9.80441 25.0993V18.461C9.80441 18.3298 9.86562 18.1986 9.97058 18.1199C10.0755 18.0412 10.2067 18.0062 10.3467 18.0412C12.4107 18.5397 13.8189 19.8254 13.9413 21.3122C13.9938 21.9682 14.571 22.458 15.2357 22.4055C15.8917 22.353 16.3815 21.767 16.329 21.1111C15.743 18.1112 13.2766 15.8197 10.1892 15.4611C9.97058 15.4349 9.80441 15.2512 9.80441 15.0238V13.3795C9.80441 12.7236 9.27089 12.19 8.61493 12.19C7.95897 12.19 7.41671 12.7236 7.41671 13.3795V15.0413C7.41671 15.2599 7.25054 15.4523 7.03189 15.4786C3.82206 15.8722 1.29443 18.391 0.892105 21.5921C0.892105 24.4084 2.92121 26.2975 7.08436 27.3208C7.27678 27.3646 7.41671 27.5482 7.41671 27.7494V34.3877C7.41671 34.5189 7.35549 34.6501 7.25054 34.7288C7.14559 34.8163 7.00564 34.8425 6.87445 34.8075C4.81911 34.309 3.41099 33.0233 3.2798 31.5365C3.25356 31.2129 3.10487 30.9242 2.85998 30.7231C2.64133 30.5307 2.3702 30.4257 2.09032 30.4257ZM10.2417 34.8163C10.1455 34.8163 10.0493 34.7813 9.97058 34.7201C9.86562 34.6413 9.80441 34.5101 9.80441 34.379V28.4666C9.80441 28.3266 9.86563 28.2042 9.97933 28.1167C10.093 28.038 10.233 28.003 10.3642 28.0468C12.7693 28.7377 13.9413 29.8047 13.9413 31.3178C13.9413 32.8746 12.4982 34.2827 10.3467 34.8075C10.3029 34.8163 10.2767 34.8163 10.2417 34.8163ZM10.679 29.0613V33.793C12.1046 33.2944 13.0667 32.3236 13.0667 31.3178C13.058 30.6881 12.8043 29.7872 10.679 29.0613ZM6.97941 24.8194C6.93568 24.8194 6.90069 24.8107 6.85696 24.802C4.45178 24.111 3.2798 23.044 3.2798 21.5309C3.2798 19.9741 4.72291 18.566 6.87445 18.0412C7.00564 18.0062 7.14559 18.0412 7.25054 18.1199C7.35549 18.2074 7.41671 18.3298 7.41671 18.461V24.3734C7.41671 24.5133 7.35549 24.6358 7.24179 24.7232C7.16308 24.7845 7.06687 24.8194 6.97941 24.8194ZM6.5421 19.0557C5.11648 19.5543 4.15441 20.5251 4.15441 21.5309C4.15441 22.1606 4.41679 23.0527 6.5421 23.7874V19.0557Z" fill="#F4F4F4"/>
<path d="M21.0076 33.5742V28.9388C20.5441 28.9388 20.168 29.3149 20.168 29.7784V32.7259C20.168 33.1894 20.5441 33.5742 21.0076 33.5742Z" fill="#F4F4F4"/>
<path d="M13.9511 41.9789V37.772C13.4876 37.772 13.1115 38.1481 13.1115 38.6117V41.1305C13.1027 41.6028 13.4876 41.9789 13.9511 41.9789Z" fill="#F4F4F4"/>
</svg>
