<svg width="32" height="32" viewBox="0 0 32 32" fill="none" xmlns="http://www.w3.org/2000/svg">
<circle cx="16" cy="16" r="16" fill="#FF6515"/>
<g clip-path="url(#clip0)">
<path d="M25.5984 18.6791C25.5984 18.3927 25.4298 18.1534 25.1899 18.0349V13.5913C25.2443 13.5708 25.2782 13.5194 25.2776 13.462C25.2776 13.4046 25.2401 13.3538 25.1875 13.3351L16.0193 10.1013C15.9021 10.0596 15.7739 10.0596 15.6561 10.1013L6.48909 13.3357C6.43531 13.3544 6.39905 13.4052 6.39845 13.4626C6.39784 13.52 6.43229 13.5714 6.48547 13.5919L15.6398 17.155C15.7673 17.204 15.9081 17.204 16.0356 17.155L24.5578 13.8361V18.0343C24.3185 18.1522 24.1499 18.3933 24.1499 18.6779C24.1499 18.9752 24.3312 19.2333 24.5904 19.3439C24.3312 19.8557 24.1499 20.9061 24.1499 21.2058C24.1499 21.6053 24.4744 21.9292 24.8739 21.9292C25.2727 21.9292 25.5972 21.6053 25.5972 21.2058C25.5972 20.9061 25.4153 19.8557 25.1567 19.3439C25.4165 19.2345 25.5984 18.9765 25.5984 18.6791Z" fill="white"/>
<path d="M9.35254 15.3862C9.35314 16.4112 9.35375 17.6174 9.35375 17.809C9.35375 19.7174 12.2261 21.2711 15.8382 21.3684C19.4496 21.2711 22.322 19.7192 22.322 17.809C22.322 17.6186 22.322 16.4118 22.3232 15.3862L16.0346 17.8343C15.907 17.8839 15.7662 17.8839 15.6387 17.8343L9.35254 15.3862Z" fill="white"/>
</g>
<defs>
<clipPath id="clip0">
<rect width="19.2" height="19.2" fill="white" transform="translate(6.39844 6.3999)"/>
</clipPath>
</defs>
</svg>
