<svg width="19" height="19" viewBox="0 0 19 19" fill="none" xmlns="http://www.w3.org/2000/svg">
<path fill-rule="evenodd" clip-rule="evenodd" d="M11.0195 0.167969C9.49692 0.168023 8.00599 0.602564 6.72182 1.42055C5.43765 2.23853 4.41358 3.40599 3.76988 4.78579C3.12618 6.16559 2.8896 7.70043 3.08792 9.21002C3.28625 10.7196 3.91124 12.1413 4.88948 13.308L1.06948 17.118C0.976244 17.2112 0.902283 17.3219 0.851823 17.4437C0.801362 17.5655 0.775391 17.6961 0.775391 17.828C0.775391 17.9598 0.801362 18.0904 0.851823 18.2122C0.902283 18.334 0.976244 18.4447 1.06948 18.538C1.25779 18.7263 1.51318 18.8321 1.77948 18.8321C1.91134 18.8321 2.04191 18.8061 2.16373 18.7556C2.28555 18.7052 2.39624 18.6312 2.48948 18.538L6.33948 14.658C7.6939 15.6417 9.3255 16.1704 10.9995 16.168C13.1212 16.168 15.156 15.3251 16.6563 13.8248C18.1566 12.3245 18.9995 10.2897 18.9995 8.16797C18.9995 6.04624 18.1566 4.01141 16.6563 2.51111C15.156 1.01082 13.1212 0.167969 10.9995 0.167969H11.0195ZM11.0195 14.168C9.83279 14.168 8.67276 13.8161 7.68606 13.1568C6.69937 12.4975 5.93033 11.5604 5.4762 10.4641C5.02208 9.36771 4.90326 8.16131 5.13477 6.99743C5.36628 5.83354 5.93773 4.76444 6.77684 3.92533C7.61596 3.08621 8.68505 2.51477 9.84894 2.28326C11.0128 2.05175 12.2192 2.17057 13.3156 2.62469C14.4119 3.07882 15.349 3.84785 16.0083 4.83455C16.6676 5.82124 17.0195 6.98128 17.0195 8.16797C17.0195 9.75927 16.3873 11.2854 15.2621 12.4106C14.1369 13.5358 12.6108 14.168 11.0195 14.168Z" fill="#2984DF"/>
</svg>
