<svg width="387" height="101" viewBox="0 0 387 101" fill="none" xmlns="http://www.w3.org/2000/svg">
<g clip-path="url(#clip0_135_9618)">
<path d="M0.582397 73.6123H4.47424V96.1713H0.582397V73.6123Z" fill="#EA0029"/>
<path d="M15.9477 92.6357C16.9136 92.6399 17.8713 92.4562 18.7683 92.0945C19.5661 91.8253 20.2746 91.3384 20.8155 90.6877L22.0057 93.7299C21.4218 94.633 20.5964 95.3503 19.6252 95.7983C18.4378 96.3864 17.1269 96.6753 15.8048 96.6401C14.6699 96.6332 13.5453 96.4214 12.4843 96.0147C11.479 95.6297 10.5604 95.0449 9.78259 94.2952C9.01618 93.5518 8.41213 92.6548 8.00924 91.6617C7.17934 89.5004 7.14976 87.1092 7.92593 84.9277C8.29625 83.9445 8.84977 83.0424 9.55646 82.27C10.2693 81.4812 11.1366 80.8506 12.1034 80.4183C13.1607 79.9511 14.3058 79.7213 15.4596 79.7448C16.5579 79.7273 17.6454 79.966 18.6375 80.4423C19.548 80.8884 20.3581 81.5187 21.0178 82.2942C21.6896 83.0863 22.2138 83.9948 22.565 84.9757C22.9657 86.0028 23.1794 87.0945 23.1958 88.1984C23.1958 88.4269 23.1958 88.6794 23.1958 88.9319C23.1944 89.1543 23.1705 89.3759 23.1243 89.5933H11.3536C11.4154 90.0688 11.585 90.5236 11.8492 90.9219C12.1135 91.3203 12.4652 91.6517 12.877 91.8902C13.8172 92.409 14.8768 92.6664 15.9477 92.6357ZM19.173 86.3707C19.1275 85.9794 18.9973 85.6032 18.7916 85.2685C18.586 84.9339 18.3098 84.6492 17.9829 84.4347C17.2337 83.9774 16.3702 83.7479 15.4954 83.7732C14.5914 83.7559 13.6994 83.9844 12.9127 84.4347C12.5557 84.6348 12.2469 84.9121 12.0082 85.2467C11.7696 85.5814 11.607 85.9652 11.5321 86.3707H19.173Z" fill="#EA0029"/>
<path d="M25.8257 82.5951C26.1151 82.1339 26.4815 81.727 26.9087 81.3926C27.3556 81.0318 27.8478 80.7326 28.3727 80.5027C28.9173 80.2562 29.4883 80.0746 30.0745 79.9616C30.6743 79.8415 31.2841 79.7811 31.8955 79.7812C32.8607 79.769 33.8213 79.9152 34.7401 80.2141C35.5404 80.4674 36.2843 80.8757 36.93 81.4166C37.5555 81.9826 38.0441 82.6861 38.3582 83.4728C38.7037 84.3315 38.8738 85.2519 38.858 86.1785V96.1954H35.0971V94.7764C34.6551 95.4149 34.0204 95.8915 33.288 96.1352C31.7587 96.7166 30.0784 96.7506 28.5273 96.2315C27.8618 95.9965 27.2416 95.6465 26.6944 95.1972C26.1788 94.7469 25.7716 94.1833 25.5043 93.5498C25.2109 92.8588 25.0649 92.1131 25.0758 91.3614C25.0662 90.5812 25.2416 89.8101 25.5876 89.1126C25.9164 88.4705 26.3843 87.9115 26.9563 87.4772C27.5478 87.0207 28.2176 86.6783 28.932 86.4671C29.6807 86.2394 30.459 86.1259 31.2409 86.1304C32.0874 86.1061 32.932 86.224 33.7403 86.4791C34.2323 86.624 34.6817 86.8882 35.0495 87.2487V86.8039C35.0659 86.3891 34.9935 85.9757 34.8375 85.5917C34.6814 85.2079 34.4451 84.8625 34.145 84.5792C33.3959 83.9726 32.4487 83.6722 31.4908 83.7375C30.5542 83.7275 29.6272 83.9287 28.7773 84.3266C27.9931 84.6727 27.3031 85.2049 26.7659 85.8779L25.8257 82.5951ZM34.9662 90.4353C34.7001 90.072 34.324 89.806 33.8951 89.6779C33.2854 89.4524 32.6398 89.3422 31.9908 89.3531C31.1949 89.3025 30.4005 89.473 29.6937 89.8461C29.4632 89.975 29.2704 90.1627 29.1346 90.3907C28.9988 90.6187 28.9248 90.8789 28.9201 91.1449C28.9205 91.4117 28.9941 91.6732 29.1328 91.9005C29.2715 92.1276 29.4697 92.3115 29.7056 92.4315C30.3988 92.7936 31.176 92.9599 31.955 92.9125C32.6098 92.9236 33.2591 92.7924 33.8593 92.5277C34.3206 92.3411 34.7092 92.0076 34.9662 91.5777V90.4353Z" fill="#EA0029"/>
<path d="M42.2386 91.6138C41.5682 90.0332 41.3789 88.2867 41.6948 86.5969C42.0105 84.9073 42.8173 83.3508 44.0119 82.1261C44.7391 81.3898 45.5998 80.8019 46.547 80.3944C47.4996 79.9874 48.5237 79.7789 49.5582 79.7812C50.5862 79.7481 51.6083 79.9538 52.5454 80.3824C53.2555 80.6653 53.8393 81.1996 54.1879 81.8856V73.6123H58.0797V96.1713H54.3426V94.4998C53.9804 95.1841 53.3902 95.7166 52.6763 96.0029C51.724 96.4232 50.6923 96.6284 49.6533 96.6042C48.6087 96.6058 47.5737 96.4016 46.6065 96.0029C45.6485 95.6134 44.7782 95.0327 44.0476 94.2954C43.2755 93.5307 42.6607 92.6194 42.2386 91.6138ZM45.8091 86.4792C45.5825 87.0232 45.469 87.6084 45.4758 88.1987C45.4665 88.7853 45.5801 89.3672 45.8091 89.9063C46.026 90.4131 46.3463 90.8679 46.7493 91.2411C47.1659 91.6258 47.656 91.9204 48.1895 92.1068C48.7855 92.3196 49.4139 92.4253 50.0461 92.4194C50.9502 92.4344 51.8445 92.2281 52.6526 91.8182C53.3096 91.5079 53.8398 90.9766 54.1522 90.3151V86.0703C53.8431 85.4064 53.312 84.8741 52.6526 84.5672C51.9648 84.2227 51.2166 84.0189 50.4506 83.9673C49.6847 83.9157 48.9163 84.0174 48.1895 84.2666C47.656 84.4529 47.1659 84.7476 46.7493 85.1323C46.3718 85.5167 46.0761 85.9751 45.8805 86.4792H45.8091Z" fill="#EA0029"/>
<path d="M69.6123 92.6357C70.5783 92.6399 71.5359 92.4562 72.4331 92.0945C73.2264 91.8114 73.9266 91.312 74.4564 90.6515L75.6466 93.6939C75.0627 94.5969 74.2374 95.3142 73.2662 95.7622C72.0787 96.3504 70.7679 96.6392 69.4458 96.6039C68.301 96.6129 67.1641 96.4134 66.0895 96.0147C65.097 95.6254 64.1908 95.0409 63.4235 94.2952C62.657 93.5518 62.053 92.6548 61.6501 91.6617C60.8202 89.5004 60.7906 87.1092 61.5668 84.9277C61.9371 83.9445 62.4906 83.0424 63.1973 82.27C63.9102 81.4812 64.7776 80.8506 65.7443 80.4183C66.8017 79.9511 67.9468 79.7213 69.1006 79.7448C70.1989 79.7273 71.2862 79.966 72.2783 80.4423C73.1889 80.8884 73.9991 81.5187 74.6587 82.2942C75.3306 83.0863 75.8548 83.9948 76.2059 84.9758C76.5782 86.0082 76.7636 87.0997 76.7533 88.1984C76.7533 88.4269 76.7533 88.6794 76.7533 88.9319C76.746 89.1539 76.7222 89.375 76.682 89.5933H64.9946C65.0563 90.0688 65.2259 90.5236 65.4902 90.9219C65.7544 91.3203 66.1062 91.6517 66.5179 91.8902C67.4651 92.4133 68.5335 92.6707 69.6123 92.6357ZM72.8378 86.3707C72.7923 85.9794 72.6621 85.6032 72.4564 85.2685C72.2506 84.9339 71.9745 84.6492 71.6476 84.4347C70.8984 83.9774 70.035 83.7479 69.1601 83.7733C68.2561 83.7559 67.3641 83.9844 66.5774 84.4347C66.2205 84.6348 65.9116 84.9121 65.6729 85.2467C65.4343 85.5814 65.2717 85.9652 65.1968 86.3707H72.8378Z" fill="#EA0029"/>
<path d="M88.9404 84.6031C88.6702 84.4189 88.3783 84.2695 88.0716 84.1582C87.6892 84.0223 87.2868 83.9532 86.8815 83.9538C86.0731 83.9138 85.2806 84.1894 84.6678 84.7233C84.131 85.2099 83.7567 85.8528 83.5966 86.5632V96.1832H79.681V80.2139H83.4537V82.2703C83.6537 81.5512 84.0695 80.9125 84.6439 80.4424C85.2959 79.9529 86.0935 79.7027 86.9052 79.7329C87.4454 79.7189 87.9806 79.8385 88.4643 80.0817C88.8587 80.274 89.1955 80.5687 89.4403 80.9354L88.9404 84.6031Z" fill="#EA0029"/>
<path d="M94.7961 89.2566C93.702 88.7381 92.7255 87.9973 91.9278 87.08C91.3338 86.3166 91.0185 85.3695 91.0352 84.3985C91.0322 83.7816 91.1579 83.1711 91.4041 82.6068C91.6421 82.0426 92.0044 81.5409 92.4634 81.1398C92.9418 80.715 93.4894 80.3774 94.082 80.1416C94.7565 79.8924 95.4705 79.7701 96.1887 79.7809C97.2269 79.7499 98.2567 79.977 99.1878 80.4423C99.9117 80.7841 100.535 81.3104 100.997 81.9694L100.259 85.4807C99.6742 84.8872 98.9613 84.4386 98.1762 84.17C97.5521 83.9462 96.8979 83.8205 96.2362 83.7973C95.3674 83.7973 94.927 84.0617 94.927 84.5789C94.9235 84.6961 94.9489 84.8124 95.0008 84.9174C95.0528 85.0222 95.1296 85.1125 95.2245 85.1801C95.5269 85.3968 95.8452 85.5896 96.1766 85.7573L97.6525 86.5269C98.741 87.0566 99.725 87.7819 100.557 88.6674C101.251 89.4841 101.613 90.5374 101.568 91.6135C101.576 92.2954 101.442 92.9712 101.175 93.5976C100.899 94.2051 100.492 94.7431 99.9852 95.1729C99.4619 95.643 98.8509 96.0028 98.1881 96.2311C97.4402 96.484 96.6559 96.61 95.8672 96.6039C94.6773 96.6479 93.4987 96.3565 92.4634 95.7621C91.6538 95.3211 90.9757 94.6693 90.4996 93.8741L91.5945 90.399C91.8041 90.6774 92.0348 90.9388 92.2849 91.1806C92.5834 91.4561 92.9106 91.698 93.2607 91.9021C93.6341 92.128 94.034 92.3057 94.4509 92.4311C94.9386 92.5711 95.4436 92.64 95.9506 92.6356C96.3615 92.6484 96.7695 92.5618 97.1408 92.3831C97.2977 92.3125 97.4295 92.1953 97.5189 92.047C97.6082 91.8988 97.6506 91.7266 97.6406 91.5534C97.6576 91.3957 97.6396 91.2364 97.5883 91.0866C97.5368 90.9369 97.453 90.8006 97.3431 90.6875C96.9702 90.3988 96.5718 90.1451 96.1529 89.93L94.7961 89.2566Z" fill="#EA0029"/>
<path d="M111.851 82.5951C112.144 82.1366 112.51 81.7302 112.935 81.3926C113.381 81.0318 113.874 80.7326 114.398 80.5027C114.944 80.2579 115.515 80.0764 116.1 79.9616C116.7 79.842 117.31 79.7816 117.921 79.7812C118.886 79.769 119.847 79.9152 120.766 80.2141C121.566 80.4674 122.31 80.8757 122.956 81.4166C123.573 81.9851 124.053 82.6885 124.36 83.4728C124.706 84.3315 124.876 85.2519 124.86 86.1785V96.1954H121.087V94.7764C120.645 95.4149 120.01 95.8915 119.278 96.1352C117.749 96.7166 116.068 96.7506 114.517 96.2315C113.852 95.9965 113.232 95.6465 112.684 95.1972C112.172 94.7435 111.766 94.181 111.494 93.5498C111.201 92.8588 111.055 92.1131 111.066 91.3614C111.056 90.5812 111.232 89.8101 111.578 89.1126C111.906 88.4705 112.374 87.9115 112.946 87.4772C113.513 87.0297 114.154 86.6877 114.839 86.4671C115.611 86.2331 116.413 86.1196 117.219 86.1304C118.066 86.1061 118.91 86.224 119.718 86.4791C120.212 86.6207 120.662 86.8854 121.028 87.2487V86.8039C121.046 86.3889 120.975 85.9746 120.819 85.5903C120.663 85.2061 120.425 84.861 120.123 84.5792C119.374 83.9726 118.427 83.6722 117.469 83.7375C116.532 83.7275 115.605 83.9287 114.755 84.3266C113.993 84.681 113.324 85.2125 112.803 85.8779L111.851 82.5951ZM120.992 90.4353C120.726 90.072 120.35 89.806 119.921 89.6779C119.311 89.4524 118.666 89.3422 118.016 89.3531C117.221 89.3025 116.426 89.473 115.719 89.8461C115.489 89.975 115.296 90.1627 115.16 90.3907C115.025 90.6187 114.95 90.8789 114.946 91.1449C114.946 91.4117 115.02 91.6732 115.158 91.9005C115.297 92.1276 115.495 92.3115 115.731 92.4315C116.425 92.7936 117.202 92.9599 117.981 92.9125C118.635 92.9236 119.285 92.7924 119.885 92.5277C120.349 92.345 120.738 92.0105 120.992 91.5777V90.4353Z" fill="#EA0029"/>
<path d="M137.951 84.603C137.682 84.4187 137.39 84.2693 137.083 84.158C136.701 84.0221 136.297 83.953 135.893 83.9536C135.084 83.9111 134.291 84.187 133.678 84.7232C133.142 85.2098 132.768 85.8526 132.608 86.563V96.183H128.716V80.2138H132.488V82.2701C132.702 81.5122 133.162 80.8493 133.796 80.3888C134.428 79.9285 135.196 79.6972 135.976 79.7328C136.52 79.7172 137.059 79.837 137.547 80.0815C137.941 80.2738 138.278 80.5684 138.523 80.9353L137.951 84.603Z" fill="#EA0029"/>
<path d="M148.258 92.6355C149.225 92.6374 150.181 92.4538 151.079 92.0944C151.871 91.8084 152.57 91.3095 153.102 90.6514L154.292 93.6936C153.708 94.5968 152.883 95.314 151.912 95.762C150.725 96.3515 149.414 96.6404 148.091 96.6038C146.947 96.6099 145.811 96.4104 144.735 96.0145C143.75 95.6238 142.853 95.0393 142.093 94.2949C141.319 93.5556 140.71 92.6578 140.308 91.6614C139.477 89.4998 139.451 87.1065 140.236 84.9274C140.603 83.945 141.152 83.0428 141.855 82.2699C142.572 81.4863 143.438 80.8565 144.402 80.418C145.464 79.952 146.613 79.7224 147.771 79.7446C148.865 79.729 149.948 79.9676 150.936 80.4421C151.846 80.8894 152.657 81.5195 153.316 82.2939C153.989 83.086 154.512 83.9945 154.864 84.9755C155.232 85.9965 155.417 87.0755 155.412 88.1621C155.412 88.3906 155.412 88.6431 155.412 88.8956C155.404 89.1176 155.38 89.3388 155.34 89.557H143.616C143.681 90.0425 143.856 90.5061 144.129 90.9111C144.402 91.3161 144.765 91.6513 145.188 91.8899C146.127 92.4133 147.187 92.6709 148.258 92.6355ZM151.471 86.3704C151.432 85.9778 151.303 85.5995 151.096 85.2641C150.891 84.9289 150.611 84.6451 150.281 84.4344C149.536 83.9776 148.676 83.7479 147.806 83.773C146.902 83.7558 146.01 83.9841 145.224 84.4344C144.866 84.6345 144.558 84.9119 144.319 85.2465C144.08 85.5811 143.917 85.9649 143.843 86.3704H151.471Z" fill="#EA0029"/>
<path d="M183.927 79.7809C184.695 79.7837 185.455 79.9179 186.178 80.1776C186.92 80.4385 187.604 80.8474 188.188 81.3801C188.819 81.9609 189.315 82.6754 189.641 83.4725C190.039 84.3931 190.233 85.3902 190.212 86.3946V96.195H186.32V87.2484C186.342 86.8081 186.276 86.3677 186.125 85.9542C185.974 85.5408 185.74 85.1629 185.439 84.8434C185.155 84.5635 184.817 84.3437 184.447 84.1972C184.077 84.0506 183.682 83.98 183.285 83.9896C182.526 83.9809 181.783 84.2167 181.166 84.663C180.571 85.038 180.144 85.6336 179.976 86.3225V96.207H176.085V87.2122C176.112 86.7715 176.048 86.3297 175.897 85.9156C175.745 85.5014 175.508 85.1239 175.204 84.8072C174.612 84.2464 173.825 83.944 173.014 83.9655C172.26 83.9594 171.521 84.1951 170.907 84.639C170.311 85.014 169.884 85.6095 169.717 86.2984V96.183H165.814V80.2137H169.586V81.8251C169.853 81.1857 170.34 80.6649 170.956 80.358C171.791 79.944 172.715 79.7456 173.645 79.7809C174.567 79.778 175.479 79.9705 176.323 80.346C177.202 80.7391 177.974 81.3415 178.572 82.1016C179.145 81.2868 179.939 80.6565 180.857 80.2859C181.842 79.9286 182.882 79.7574 183.927 79.7809Z" fill="#EA0029"/>
<path d="M193.652 82.5951C193.941 82.1339 194.307 81.727 194.734 81.3926C195.18 81.0345 195.667 80.7355 196.187 80.5027C196.732 80.2596 197.304 80.0781 197.889 79.9616C198.493 79.8417 199.106 79.7814 199.721 79.7812C200.683 79.769 201.639 79.9152 202.554 80.2141C203.355 80.4647 204.1 80.8734 204.744 81.4166C205.369 81.9586 205.859 82.6427 206.172 83.4127C206.527 84.2687 206.701 85.1904 206.684 86.1184V96.1352H202.911V94.7764C202.469 95.4149 201.834 95.8915 201.102 96.1352C199.572 96.7119 197.893 96.7457 196.341 96.2315C195.681 95.9936 195.065 95.644 194.52 95.1972C194.004 94.7469 193.597 94.1833 193.33 93.5498C193.037 92.8588 192.891 92.1131 192.902 91.3612C192.888 90.5821 193.059 89.811 193.402 89.1126C193.737 88.4749 194.203 87.9172 194.77 87.4772C195.364 87.0232 196.033 86.6811 196.746 86.4671C197.499 86.2401 198.281 86.1267 199.067 86.1304C199.913 86.1061 200.758 86.224 201.566 86.4791C202.056 86.6201 202.502 86.885 202.864 87.2487V86.8039C202.882 86.3889 202.811 85.9746 202.655 85.5903C202.499 85.2061 202.261 84.861 201.959 84.5792C201.215 83.9724 200.271 83.6717 199.317 83.7375C198.376 83.7265 197.445 83.9277 196.591 84.3266C195.812 84.6799 195.123 85.2109 194.58 85.8779L193.652 82.5951ZM202.78 90.4353C202.52 90.0666 202.141 89.7992 201.709 89.6779C201.099 89.4501 200.454 89.34 199.804 89.3531C199.009 89.3037 198.214 89.4742 197.508 89.8461C197.279 89.9755 197.087 90.1637 196.954 90.3919C196.82 90.62 196.748 90.8797 196.746 91.1449C196.746 91.4117 196.82 91.6732 196.959 91.9005C197.097 92.1276 197.295 92.3114 197.531 92.4315C198.224 92.7965 199.001 92.9629 199.781 92.9125C200.435 92.9225 201.085 92.7912 201.685 92.5277C202.146 92.3451 202.532 92.0104 202.78 91.5777V90.4353Z" fill="#EA0029"/>
<path d="M210.052 91.6138C209.386 90.0332 209.198 88.2889 209.512 86.6007C209.825 84.9124 210.626 83.3556 211.813 82.1261C212.545 81.3896 213.409 80.8017 214.361 80.3944C215.313 79.9874 216.337 79.7789 217.371 79.7812C218.399 79.7494 219.421 79.9551 220.359 80.3824C221.064 80.6727 221.645 81.2049 222.002 81.8856V73.6123H225.893V96.1713H222.12V94.4998C221.758 95.1841 221.168 95.7166 220.454 96.0029C219.501 96.4232 218.47 96.6284 217.432 96.6042C216.382 96.6058 215.343 96.4017 214.372 96.0029C213.434 95.6021 212.582 95.0223 211.861 94.2954C211.089 93.5313 210.474 92.6198 210.052 91.6138ZM213.622 86.4792C213.396 87.0232 213.282 87.6084 213.289 88.1987C213.28 88.7853 213.393 89.3672 213.622 89.9063C213.84 90.4099 214.155 90.864 214.551 91.2411C214.972 91.6261 215.466 91.9207 216.003 92.1068C216.595 92.3186 217.219 92.4244 217.847 92.4194C218.752 92.4373 219.647 92.2308 220.454 91.8182C221.117 91.5118 221.652 90.9798 221.966 90.3151V86.0703C221.655 85.4032 221.12 84.8701 220.454 84.5672C219.769 84.2224 219.023 84.0184 218.258 83.9668C217.495 83.9152 216.728 84.0171 216.003 84.2666C215.466 84.4527 214.972 84.7473 214.551 85.1323C214.185 85.5213 213.898 85.9788 213.706 86.4792H213.622Z" fill="#EA0029"/>
<path d="M237.426 92.6355C238.392 92.6374 239.348 92.4538 240.246 92.0944C241.038 91.8084 241.738 91.3095 242.269 90.6514L243.459 93.6936C242.877 94.5968 242.05 95.314 241.079 95.762C239.893 96.3515 238.581 96.6404 237.259 96.6038C236.114 96.6099 234.978 96.4104 233.903 96.0145C232.914 95.6251 232.012 95.0406 231.248 94.2949C230.475 93.5556 229.866 92.6578 229.463 91.6614C228.632 89.4998 228.607 87.1065 229.393 84.9274C229.758 83.945 230.308 83.0428 231.011 82.2699C231.728 81.4863 232.594 80.8565 233.558 80.418C234.62 79.952 235.768 79.7224 236.926 79.7446C238.021 79.729 239.103 79.9676 240.092 80.4421C241.001 80.8894 241.811 81.5195 242.472 82.2939C243.144 83.086 243.668 83.9945 244.02 84.9755C244.387 85.9965 244.573 87.0755 244.567 88.1621C244.567 88.3906 244.567 88.6431 244.567 88.8956C244.559 89.1176 244.536 89.3388 244.495 89.557H232.773C232.837 90.0425 233.013 90.5061 233.285 90.9111C233.557 91.3161 233.919 91.6513 234.343 91.8899C235.285 92.4154 236.35 92.6731 237.426 92.6355ZM240.639 86.3704C240.599 85.9778 240.47 85.5995 240.265 85.2641C240.058 84.9289 239.78 84.6451 239.448 84.4344C238.704 83.9776 237.845 83.7479 236.974 83.773C236.07 83.7558 235.178 83.9841 234.391 84.4344C234.032 84.6325 233.721 84.9093 233.483 85.2443C233.244 85.5793 233.083 85.964 233.01 86.3704H240.639Z" fill="#EA0029"/>
<path d="M249.101 96.2549C248.644 96.1288 248.231 95.8745 247.911 95.5214C247.711 95.2924 247.561 95.0255 247.464 94.7365C247.368 94.4474 247.329 94.142 247.351 93.8379C247.346 93.4839 247.412 93.1324 247.542 92.8038C247.674 92.4873 247.869 92.201 248.114 91.962C248.636 91.4677 249.326 91.1963 250.041 91.2044C250.39 91.1929 250.738 91.2591 251.059 91.3984C251.38 91.5375 251.667 91.7464 251.898 92.0102C252.377 92.5324 252.638 93.222 252.624 93.9342C252.632 94.5065 252.527 95.0746 252.315 95.6055C252.105 96.12 251.858 96.6184 251.576 97.0967L249.589 100.5H247.137L249.101 96.2549Z" fill="#EA0029"/>
<path d="M278.666 96.1713H274.761V87.5494C274.804 87.0792 274.748 86.605 274.594 86.159C274.441 85.713 274.193 85.3055 273.872 84.9637C273.549 84.6219 273.158 84.3539 272.724 84.1777C272.291 84.0014 271.824 83.9209 271.358 83.9419C270.545 83.9355 269.749 84.1742 269.073 84.6273C268.771 84.8218 268.51 85.075 268.306 85.3723C268.101 85.6695 267.957 86.0049 267.882 86.3589V96.1593H263.99V80.2142H267.764V81.8254C268.038 81.1727 268.543 80.6459 269.179 80.3464C270.057 79.9334 271.021 79.7395 271.989 79.7812C272.799 79.7854 273.603 79.9235 274.369 80.19C275.161 80.471 275.888 80.9084 276.511 81.4767C277.176 82.0997 277.703 82.8578 278.058 83.7014C278.486 84.7109 278.693 85.802 278.666 86.9V96.1713Z" fill="#EA0029"/>
<path d="M297.946 88.1983C297.963 89.3558 297.736 90.5037 297.279 91.5653C296.847 92.5604 296.224 93.4594 295.447 94.2108C294.683 94.9593 293.787 95.555 292.804 95.9665C291.793 96.3885 290.71 96.605 289.615 96.6038C288.52 96.6087 287.436 96.3919 286.425 95.9665C285.437 95.5584 284.536 94.9624 283.772 94.2108C282.993 93.4594 282.371 92.5604 281.938 91.5653C281.499 90.5027 281.271 89.3623 281.271 88.2104C281.271 87.0584 281.499 85.918 281.938 84.8554C282.371 83.8494 282.993 82.9385 283.772 82.1738C284.539 81.4227 285.439 80.8232 286.425 80.4062C287.436 79.9845 288.521 79.7719 289.615 79.7808C290.708 79.7758 291.792 79.9882 292.804 80.4062C293.785 80.8263 294.681 81.4255 295.447 82.1738C296.225 82.9385 296.847 83.8494 297.279 84.8554C297.732 85.91 297.958 87.0492 297.946 88.1983ZM285.532 86.4788C285.302 87.0219 285.184 87.6073 285.187 88.1983C285.182 88.7857 285.299 89.3675 285.532 89.9059C285.75 90.4097 286.065 90.8637 286.461 91.2407C286.872 91.62 287.353 91.9142 287.878 92.1064C288.433 92.3163 289.022 92.4222 289.615 92.4192C290.2 92.4223 290.781 92.3163 291.328 92.1064C291.844 91.9112 292.317 91.6172 292.721 91.2407C293.125 90.8649 293.448 90.4109 293.673 89.9059C293.916 89.3704 294.038 88.7872 294.03 88.1983C294.035 87.6059 293.913 87.0194 293.673 86.4788C293.448 85.97 293.125 85.5122 292.721 85.1319C292.317 84.7554 291.844 84.4615 291.328 84.2662C290.781 84.0564 290.2 83.9504 289.615 83.9535C289.022 83.9504 288.433 84.0564 287.878 84.2662C287.353 84.4584 286.872 84.7525 286.461 85.1319C286.065 85.5133 285.75 85.9714 285.532 86.4788Z" fill="#EA0029"/>
<path d="M311.074 94.7402C310.674 95.3112 310.137 95.7703 309.515 96.0749C308.775 96.442 307.958 96.6234 307.134 96.604C306.418 96.6632 305.698 96.5659 305.023 96.319C304.347 96.072 303.731 95.6813 303.219 95.173C302.308 94.0397 301.853 92.6014 301.944 91.1447V84.3987H299.314V83.124L304.742 76.1855H305.932V80.2139H310.931V84.3987H305.86V90.2789C305.839 90.5749 305.882 90.872 305.985 91.15C306.088 91.428 306.247 91.6805 306.455 91.8903C306.844 92.2127 307.334 92.3834 307.836 92.3713C308.306 92.3884 308.774 92.285 309.193 92.0707C309.608 91.8422 309.973 91.5313 310.265 91.1567L311.074 94.7402Z" fill="#EA0029"/>
<path d="M337.531 84.7957C338.404 86.9828 338.404 89.4267 337.531 91.6138C337.124 92.6158 336.525 93.5271 335.769 94.2954C335.037 95.0361 334.167 95.6243 333.21 96.0269C332.239 96.4257 331.2 96.6299 330.152 96.6282C329.113 96.6524 328.081 96.4473 327.128 96.0269C326.415 95.7407 325.824 95.2081 325.462 94.5238V96.1953H321.69V73.6123H325.582V81.8856C325.937 81.2049 326.519 80.6727 327.224 80.3824C328.162 79.9551 329.183 79.7494 330.212 79.7812C331.246 79.7789 332.27 79.9874 333.223 80.3944C334.173 80.8017 335.038 81.3896 335.769 82.126C336.52 82.8935 337.119 83.7999 337.531 84.7957ZM333.96 89.9063C334.193 89.3679 334.31 88.7861 334.305 88.1987C334.308 87.6077 334.192 87.0223 333.96 86.4792C333.744 85.9717 333.428 85.5137 333.032 85.1323C332.61 84.7473 332.117 84.4527 331.58 84.2666C330.987 84.0548 330.364 83.9489 329.735 83.9539C328.826 83.9358 327.925 84.1466 327.117 84.5672C326.458 84.8741 325.926 85.4064 325.617 86.0703V90.3151C325.93 90.9766 326.459 91.5079 327.117 91.8182C327.929 92.2295 328.827 92.4358 329.735 92.4194C330.364 92.4244 330.987 92.3186 331.58 92.1068C332.117 91.9207 332.61 91.626 333.032 91.241C333.415 90.8607 333.718 90.4069 333.924 89.9063H333.96Z" fill="#EA0029"/>
<path d="M356.717 88.1983C356.73 89.3567 356.499 90.5046 356.038 91.5653C355.605 92.5574 354.987 93.4557 354.217 94.2108C353.447 94.9569 352.548 95.5523 351.563 95.9664C350.552 96.3899 349.468 96.6078 348.373 96.6078C347.278 96.6078 346.195 96.3899 345.184 95.9664C344.198 95.5553 343.297 94.9597 342.53 94.2108C341.752 93.4621 341.133 92.5622 340.709 91.5653C340.032 89.9983 339.844 88.2603 340.17 86.5827C340.495 84.9051 341.318 83.3672 342.53 82.1738C343.3 81.4253 344.199 80.8262 345.184 80.4062C347.23 79.5729 349.517 79.5729 351.563 80.4062C352.546 80.8291 353.445 81.4278 354.217 82.1738C354.987 82.9423 355.606 83.8524 356.038 84.8554C356.494 85.9092 356.726 87.0483 356.717 88.1983ZM344.291 86.4788C344.064 87.0228 343.95 87.6082 343.958 88.1983C343.948 88.7849 344.062 89.3668 344.291 89.9059C344.508 90.4128 344.829 90.8676 345.231 91.2407C345.638 91.6199 346.116 91.9142 346.635 92.1064C347.192 92.3153 347.781 92.4212 348.373 92.4191C348.959 92.4223 349.54 92.3163 350.087 92.1064C350.604 91.9139 351.077 91.6197 351.48 91.2407C351.882 90.8648 352.206 90.4109 352.431 89.9059C352.674 89.3704 352.796 88.7872 352.789 88.1983C352.794 87.6059 352.671 87.0194 352.431 86.4788C352.202 85.9671 351.873 85.5074 351.465 85.1272C351.056 84.7471 350.576 84.4542 350.051 84.2662C349.504 84.0563 348.923 83.9503 348.337 83.9536C347.745 83.9514 347.156 84.0574 346.601 84.2662C346.08 84.4584 345.602 84.7527 345.195 85.1319C344.805 85.5129 344.497 85.9716 344.291 86.4788Z" fill="#EA0029"/>
<path d="M368.856 84.6031C368.586 84.4189 368.294 84.2695 367.988 84.1582C367.605 84.0223 367.203 83.9532 366.797 83.9538C365.99 83.9138 365.197 84.1894 364.584 84.7233C364.047 85.2099 363.672 85.8528 363.513 86.5632V96.1832H359.621V80.2139H363.394V82.2703C363.593 81.5512 364.009 80.9125 364.584 80.4424C365.236 79.9529 366.033 79.7027 366.844 79.7329C367.385 79.7189 367.921 79.8385 368.405 80.0817C368.799 80.2774 369.139 80.5712 369.392 80.9354L368.856 84.6031Z" fill="#EA0029"/>
<path d="M386.34 96.1708H382.448V87.5489C382.487 87.0795 382.427 86.607 382.272 86.1629C382.117 85.7186 381.871 85.3126 381.55 84.9716C381.228 84.6308 380.838 84.3626 380.406 84.185C379.975 84.0074 379.509 83.9244 379.044 83.9413C378.231 83.9313 377.435 84.1703 376.759 84.6268C376.439 84.813 376.162 85.064 375.941 85.3641C375.722 85.6641 375.568 86.0068 375.486 86.3704V96.1708H371.594V80.2135H375.366V81.8249C375.643 81.1694 376.153 80.642 376.795 80.3459C377.672 79.932 378.636 79.7381 379.603 79.7806C380.414 79.7844 381.218 79.9225 381.984 80.1895C382.778 80.473 383.509 80.9101 384.138 81.4761C384.8 82.1024 385.327 82.8598 385.685 83.7009C386.104 84.7131 386.307 85.8029 386.281 86.8995L386.34 96.1708Z" fill="#EA0029"/>
<path d="M32.5384 24.8751C33.4548 27.0536 33.9204 29.3983 33.9071 31.7653C33.9339 34.1251 33.4844 36.4655 32.586 38.6437C31.7447 40.6483 30.5329 42.4726 29.0155 44.0188C27.5367 45.5041 25.7919 46.6916 23.874 47.5182C21.956 48.329 19.895 48.7381 17.8161 48.7207C15.7406 48.7855 13.6776 48.3743 11.7819 47.5182C10.3446 46.9503 9.15747 45.8791 8.43751 44.4998V61.1906H0.582397V15.688H8.18757V19.067C8.91319 17.6761 10.1145 16.5991 11.5676 16.0367C13.4851 15.1831 15.5669 14.7723 17.6613 14.8342C19.7708 14.8208 21.862 15.2295 23.8145 16.0367C25.7487 16.8292 27.5054 18.0071 28.9797 19.4998C30.4971 21.0461 31.709 22.8705 32.5502 24.8751H32.5384ZM25.2784 35.2166C25.7322 34.1245 25.9591 32.9497 25.9448 31.7653C25.9581 30.5838 25.7271 29.4125 25.2665 28.3262C24.8285 27.3083 24.1838 26.3947 23.3741 25.6447C22.5334 24.8673 21.5455 24.2701 20.4701 23.889C19.2711 23.458 18.0056 23.2462 16.733 23.2637C14.9086 23.2241 13.1023 23.637 11.4724 24.4662C10.1414 25.087 9.06756 26.1591 8.43751 27.4965V36.0703C9.06756 37.4077 10.1414 38.48 11.4724 39.1006C13.1023 39.9298 14.9086 40.3427 16.733 40.3031C18.0056 40.3207 19.2711 40.109 20.4701 39.6778C21.5427 39.2965 22.5298 38.7038 23.3741 37.9342C24.1901 37.1708 24.8353 36.2402 25.2665 35.2046" fill="white"/>
<path d="M58.5199 24.5503C57.9728 24.1757 57.381 23.8727 56.7584 23.6484C55.9723 23.364 55.1417 23.2254 54.3067 23.2397C52.6845 23.1564 51.0921 23.7028 49.8554 24.7668C48.7635 25.7484 48.0055 27.0528 47.6894 28.4945V47.8789H39.858V15.6879H47.4632V19.9328C47.8996 18.4714 48.7777 17.1847 49.9745 16.253C51.2817 15.2603 52.8865 14.7509 54.5208 14.81C55.6148 14.7868 56.6975 15.0345 57.6748 15.5315C58.473 15.917 59.1549 16.5107 59.6506 17.2512L58.5199 24.5503Z" fill="white"/>
<path d="M64.2804 9.56717C63.7861 9.07966 63.3951 8.49566 63.1311 7.85068C62.8672 7.20571 62.7358 6.51323 62.7451 5.81537C62.7358 5.1175 62.8672 4.42502 63.1311 3.78005C63.3951 3.13507 63.7861 2.55107 64.2804 2.06357C64.7663 1.56765 65.3445 1.17397 65.9819 0.9053C66.6193 0.636627 67.3031 0.498291 67.9937 0.498291C68.6843 0.498291 69.3681 0.636627 70.0055 0.9053C70.6429 1.17397 71.2211 1.56765 71.707 2.06357C72.2052 2.54876 72.5995 3.13206 72.8657 3.77738C73.1318 4.42271 73.2641 5.11633 73.2543 5.81537C73.2641 6.51441 73.1318 7.20803 72.8657 7.85336C72.5995 8.49868 72.2052 9.08198 71.707 9.56717C71.2211 10.0631 70.6429 10.4568 70.0055 10.7254C69.3681 10.9941 68.6843 11.1324 67.9937 11.1324C67.3031 11.1324 66.6193 10.9941 65.9819 10.7254C65.3445 10.4568 64.7663 10.0631 64.2804 9.56717ZM64.1019 15.6879H71.9926V47.8789H64.1375L64.1019 15.6879Z" fill="white"/>
<path d="M111.387 31.7653C111.435 34.1102 110.989 36.4385 110.078 38.5955C109.212 40.606 107.962 42.4243 106.4 43.9467C104.845 45.4449 103.029 46.6394 101.044 47.47C96.9238 49.185 92.2993 49.185 88.1786 47.47C86.1973 46.6392 84.3854 45.4445 82.8349 43.9467C81.2689 42.4227 80.0116 40.6052 79.1334 38.5955C78.1892 36.4458 77.7104 34.1172 77.729 31.7653C77.7309 29.4583 78.2092 27.177 79.1334 25.0674C80.8738 21.0282 84.0941 17.8264 88.1191 16.1328C92.2398 14.4177 96.8643 14.4177 100.985 16.1328C102.98 16.9817 104.798 18.2059 106.341 19.7403C107.914 21.2568 109.183 23.0655 110.078 25.0674C110.969 27.1842 111.415 29.4652 111.387 31.7653ZM86.3934 28.3022C85.903 29.3897 85.6474 30.5703 85.6437 31.7653C85.6284 32.9483 85.8637 34.1209 86.3339 35.2044C86.7673 36.2254 87.4079 37.143 88.2144 37.898C89.0333 38.6712 89.9906 39.2793 91.035 39.6898C92.1537 40.1128 93.3398 40.3248 94.5341 40.3152C95.717 40.3259 96.8916 40.1138 97.9975 39.6898C99.0346 39.2934 99.9878 38.7018 100.806 37.9462C101.62 37.1868 102.275 36.271 102.734 35.2525C103.224 34.157 103.471 32.9672 103.46 31.7653C103.472 30.5737 103.232 29.3933 102.758 28.3022C102.309 27.2712 101.652 26.3458 100.83 25.5844C100.015 24.821 99.0614 24.2248 98.0214 23.8288C96.9272 23.427 95.7696 23.2314 94.6055 23.2517C93.4112 23.2419 92.2252 23.4539 91.1065 23.8769C90.0544 24.2698 89.0882 24.8662 88.262 25.6325C87.4472 26.3897 86.8055 27.317 86.3815 28.3502" fill="white"/>
<path d="M136.035 24.5503C135.489 24.1733 134.898 23.87 134.273 23.6484C133.488 23.3629 132.657 23.2244 131.822 23.2397C130.2 23.1589 128.608 23.7049 127.371 24.7668C126.282 25.7515 125.525 27.0545 125.205 28.4945V47.8789H117.35V15.6879H124.955V19.9328C125.395 18.4735 126.272 17.188 127.466 16.253C128.773 15.2603 130.379 14.7509 132.013 14.81C133.107 14.7853 134.189 15.0332 135.166 15.5315C135.964 15.917 136.646 16.5107 137.142 17.2512L136.035 24.5503Z" fill="white"/>
<path d="M141.808 9.56666C141.309 9.08148 140.916 8.49817 140.648 7.85285C140.382 7.20752 140.25 6.51389 140.26 5.81485C140.25 5.11583 140.382 4.42219 140.648 3.77686C140.916 3.13154 141.309 2.54824 141.808 2.06305C142.293 1.5675 142.869 1.17407 143.506 0.905555C144.142 0.637041 144.825 0.498779 145.515 0.498779C146.205 0.498779 146.888 0.637041 147.523 0.905555C148.161 1.17407 148.737 1.5675 149.222 2.06305C149.722 2.54764 150.118 3.13056 150.386 3.77584C150.655 4.42111 150.79 5.11505 150.781 5.81485C150.79 6.51466 150.655 7.2086 150.386 7.85388C150.118 8.49915 149.722 9.08206 149.222 9.56666C148.737 10.0622 148.161 10.4556 147.523 10.7242C146.888 10.9927 146.205 11.1309 145.515 11.1309C144.825 11.1309 144.142 10.9927 143.506 10.7242C142.869 10.4556 142.293 10.0622 141.808 9.56666ZM141.617 15.6874H149.472V47.8784H141.617V15.6874Z" fill="white"/>
<path d="M177.917 44.9929C177.102 46.1411 176.013 47.0634 174.751 47.6745C173.274 48.4145 171.64 48.7816 169.991 48.7446C166.444 48.7446 163.818 47.7867 162.112 45.8707C160.27 43.5981 159.341 40.7101 159.506 37.7779V24.1295H154.114V21.5681L165.064 7.57104H167.445V15.6879H177.525V24.1054H167.384V35.9741C167.321 36.586 167.394 37.2045 167.6 37.7835C167.806 38.3624 168.14 38.8867 168.574 39.3171C169.357 39.9699 170.346 40.3157 171.36 40.2911C172.298 40.323 173.231 40.1206 174.073 39.7019C174.907 39.2325 175.643 38.6035 176.24 37.85L177.917 44.9929Z" fill="white"/>
<path d="M181.19 15.6875H189.664L198.019 35.6851L206.374 15.6875H215.098L196.043 61.1901H187.439L193.936 45.8822L181.19 15.6875Z" fill="white"/>
<path d="M228.249 22.2773C227.519 22.2697 226.794 22.3918 226.107 22.6381C225.478 22.8705 224.882 23.1858 224.334 23.576C223.797 23.968 223.309 24.4242 222.881 24.9348C222.453 25.4372 222.075 25.981 221.751 26.5582L218.942 21.6881C219.175 20.7472 219.578 19.8583 220.132 19.0666C220.719 18.2271 221.444 17.495 222.275 16.9021C223.165 16.2621 224.148 15.7671 225.191 15.4351C226.345 15.0648 227.55 14.8822 228.762 14.894C230.264 14.869 231.758 15.1301 233.165 15.6636C234.359 16.108 235.441 16.8108 236.338 17.7227C237.234 18.6346 237.922 19.7336 238.353 20.9425C238.812 22.1805 239.043 23.4928 239.033 24.8146C239.039 25.8982 238.903 26.9778 238.628 28.0252C238.34 29.022 237.94 29.9822 237.438 30.8872C236.871 31.8827 236.222 32.8281 235.498 33.7131C234.724 34.6751 233.832 35.7333 232.82 36.8636L229.618 40.4711H239.639V47.8786H219.169V42.1667L228.296 32.1258C228.951 31.4163 229.487 30.779 229.986 30.2378C230.424 29.7538 230.823 29.2351 231.177 28.6866C231.467 28.2336 231.706 27.7497 231.892 27.2436C232.065 26.7456 232.149 26.2203 232.142 25.6925C232.142 25.24 232.049 24.7922 231.869 24.3781C231.689 23.964 231.424 23.5925 231.094 23.2873C230.313 22.5981 229.296 22.2442 228.262 22.3013" fill="#EA0029"/>
<path d="M253.231 16.1324C257.378 14.465 261.998 14.465 266.144 16.1324C269.237 17.3815 271.888 19.5384 273.757 22.3249C275.625 25.1114 276.622 28.3995 276.622 31.7649C276.622 35.1302 275.625 38.4184 273.757 41.2049C271.888 43.9914 269.237 46.1484 266.144 47.3974C261.995 49.049 257.38 49.049 253.231 47.3974C251.236 46.6019 249.413 45.4215 247.864 43.9221C246.313 42.4071 245.075 40.5965 244.221 38.5951C243.31 36.4374 242.851 34.1112 242.877 31.7649C242.854 29.4227 243.312 27.1011 244.221 24.9467C245.069 22.9347 246.307 21.1151 247.864 19.5956C249.414 18.1006 251.236 16.9244 253.231 16.1324ZM259.682 41.2646C261.003 41.2751 262.314 41.0386 263.55 40.5672C264.708 40.1331 265.771 39.4755 266.68 38.6311C267.566 37.7889 268.275 36.7746 268.763 35.649C269.763 33.1831 269.763 30.4189 268.763 27.953C268.281 26.8166 267.572 25.7931 266.68 24.9467C265.789 24.1046 264.747 23.4432 263.609 22.9986C261.109 22.0684 258.362 22.0684 255.862 22.9986C254.713 23.4419 253.659 24.1031 252.755 24.9467C251.863 25.7931 251.155 26.8166 250.672 27.953C250.17 29.1722 249.911 30.4801 249.911 31.801C249.911 33.1219 250.17 34.4296 250.672 35.649C251.161 36.7746 251.87 37.7889 252.755 38.6311C253.659 39.4712 254.713 40.1284 255.862 40.5672C257.1 41.0426 258.417 41.2791 259.742 41.2646" fill="#EA0029"/>
<path d="M287.651 41.2888C288.885 41.3538 290.103 40.9888 291.103 40.2546C291.53 39.9321 291.873 39.5099 292.103 39.024C292.333 38.5381 292.443 38.0031 292.423 37.4647C292.438 36.9837 292.337 36.5064 292.13 36.0731C291.922 35.6399 291.615 35.2634 291.233 34.9756C290.309 34.3116 289.188 33.9851 288.056 34.0498C287.252 34.0354 286.449 34.1407 285.676 34.3624C285.145 34.5092 284.639 34.7362 284.176 35.0357L283.069 29.9972L288.543 23.0709H279.725V15.6875H297.577V20.9424L292.173 27.7005C293.001 27.9129 293.8 28.2237 294.554 28.6264C295.449 29.0769 296.256 29.6881 296.934 30.4301C297.702 31.2719 298.3 32.2561 298.696 33.3283C299.189 34.6823 299.423 36.1186 299.386 37.561C299.396 39.0405 299.116 40.5074 298.565 41.878C298.021 43.2099 297.211 44.4137 296.184 45.4134C295.119 46.4532 293.862 47.2705 292.483 47.8184C290.944 48.4242 289.303 48.7224 287.651 48.6961C286.446 48.7096 285.246 48.56 284.081 48.2513C283.092 47.9868 282.147 47.5819 281.271 47.0487C280.53 46.604 279.857 46.0531 279.272 45.4134C278.765 44.8767 278.36 44.2486 278.082 43.5615L279.689 37.6331C280.577 38.671 281.646 39.5351 282.842 40.1825C284.315 40.9379 285.954 41.302 287.603 41.2406" fill="#EA0029"/>
<path d="M312.895 16.1324C317.041 14.465 321.661 14.465 325.807 16.1324C327.803 16.928 329.626 18.1082 331.175 19.6076C332.732 21.1272 333.97 22.9469 334.818 24.9587C335.742 27.106 336.216 29.4234 336.209 31.7649C336.24 34.1145 335.786 36.4447 334.877 38.6071C334.023 40.6086 332.785 42.4191 331.235 43.9342C329.667 45.4357 327.823 46.6124 325.807 47.3974C321.658 49.049 317.043 49.049 312.895 47.3974C310.899 46.6019 309.076 45.4215 307.527 43.9221C305.976 42.4071 304.738 40.5965 303.884 38.5951C302.976 36.4365 302.522 34.1104 302.552 31.7649C302.525 29.4235 302.979 27.1021 303.884 24.9467C304.732 22.9347 305.97 21.1151 307.527 19.5956C309.077 18.1006 310.899 16.9244 312.895 16.1324ZM319.357 41.2526C320.674 41.2641 321.982 41.0276 323.213 40.5551C324.371 40.121 325.434 39.4635 326.343 38.6191C327.229 37.7769 327.938 36.7626 328.426 35.637C328.929 34.4176 329.187 33.1099 329.187 31.789C329.187 30.468 328.929 29.1602 328.426 27.941C327.944 26.8045 327.235 25.781 326.343 24.9347C325.435 24.086 324.372 23.4244 323.213 22.9866C320.712 22.0564 317.966 22.0564 315.464 22.9866C314.332 23.4389 313.294 24.104 312.406 24.9467C311.514 25.7931 310.805 26.8166 310.324 27.953C309.82 29.1722 309.562 30.4801 309.562 31.801C309.562 33.1219 309.82 34.4296 310.324 35.649C310.811 36.7746 311.52 37.7889 312.406 38.6311C313.309 39.4712 314.365 40.1284 315.513 40.5672C316.755 41.0437 318.075 41.2804 319.405 41.2646" fill="#EA0029"/>
<path d="M353.075 10.2163H346.696L339.339 23.0951H345.707L353.075 10.2163Z" fill="#EA0029"/>
<path d="M346.694 10.2163H353.075L360.441 23.0951H354.062L346.694 10.2163Z" fill="#EA0029"/>
</g>
<defs>
<clipPath id="clip0_135_9618">
<rect width="386" height="100" fill="white" transform="translate(0.582397 0.5)"/>
</clipPath>
</defs>
</svg>
