<svg width="48" height="48" viewBox="0 0 48 48" fill="none" xmlns="http://www.w3.org/2000/svg">
<path d="M2.20418 47.0443C1.26853 47.0443 0.503906 46.2796 0.503906 45.344C0.503906 44.4083 1.26853 43.6437 2.20418 43.6437H6.22849V16.1375C6.22849 13.8437 8.08974 11.9824 10.3836 11.9824H26.0281C28.322 11.9824 30.1832 13.8437 30.1832 16.1375V43.6437H45.7976C46.7332 43.6437 47.4978 44.4083 47.4978 45.344C47.4978 46.2796 46.7332 47.0443 45.7976 47.0443H2.20418ZM11.7418 15.393C10.5748 15.393 9.62904 16.3488 9.62904 17.5159V43.6437H26.7827V17.5159C26.7827 16.3488 25.8269 15.393 24.6599 15.393H11.7418Z" fill="#2CA1C7"/>
<path d="M26.0272 12.4856C28.0394 12.4856 29.6793 14.1255 29.6793 16.1376V43.1408V44.1469H30.6854H45.7967C46.4607 44.1469 46.9939 44.6801 46.9939 45.3441C46.9939 46.0081 46.4607 46.5413 45.7967 46.5413H2.20331C1.5393 46.5413 1.00608 46.0081 1.00608 45.3441C1.00608 44.6801 1.5393 44.1469 2.20331 44.1469H5.72459H6.73066V43.1408V16.1376C6.73066 14.1255 8.37057 12.4856 10.3827 12.4856H26.0272ZM9.12513 44.1469H10.1312H26.2788H27.2848V43.1408V17.516C27.2848 16.0672 26.1077 14.8901 24.659 14.8901H11.7409C10.3022 14.8901 9.12513 16.0672 9.12513 17.516V43.1408V44.1469ZM26.0272 11.4795H10.3827C7.80717 11.4795 5.72459 13.5621 5.72459 16.1376V43.1408H2.20331C0.985957 43.1408 0 44.1267 0 45.3441C0 46.5614 0.985957 47.5474 2.20331 47.5474H45.7967C47.014 47.5474 48 46.5614 48 45.3441C48 44.1267 47.014 43.1408 45.7967 43.1408H30.6854V16.1376C30.6854 13.5721 28.5927 11.4795 26.0272 11.4795ZM10.1312 43.1408V17.516C10.1312 16.6206 10.8556 15.8962 11.7409 15.8962H24.659C25.5544 15.8962 26.2788 16.6206 26.2788 17.516V43.1408H10.1312Z" fill="#F4F4F4"/>
<path d="M15.2432 24.1769C14.3076 24.1769 13.543 23.4123 13.543 22.4766C13.543 21.541 14.3076 20.7764 15.2432 20.7764H21.159C22.0946 20.7764 22.8593 21.541 22.8593 22.4766C22.8593 23.4123 22.0946 24.1769 21.159 24.1769H15.2432Z" fill="#2CA1C7"/>
<path d="M21.1581 21.2785C21.8221 21.2785 22.3553 21.8118 22.3553 22.4758C22.3553 23.1398 21.8221 23.673 21.1581 23.673H15.2424C14.5784 23.673 14.0451 23.1398 14.0451 22.4758C14.0451 21.8118 14.5784 21.2785 15.2424 21.2785H21.1581ZM21.1581 20.2725H15.2424C14.025 20.2725 13.0391 21.2584 13.0391 22.4758C13.0391 23.6931 14.025 24.6791 15.2424 24.6791H21.1581C22.3755 24.6791 23.3614 23.6931 23.3614 22.4758C23.3614 21.2584 22.3755 20.2725 21.1581 20.2725Z" fill="#F4F4F4"/>
<path d="M15.2432 30.5949C14.3076 30.5949 13.543 29.8303 13.543 28.8946C13.543 27.959 14.3076 27.1943 15.2432 27.1943H21.159C22.0946 27.1943 22.8593 27.959 22.8593 28.8946C22.8593 29.8303 22.0946 30.5949 21.159 30.5949H15.2432Z" fill="#2CA1C7"/>
<path d="M21.1581 27.6975C21.8221 27.6975 22.3553 28.2307 22.3553 28.8947C22.3553 29.5587 21.8221 30.092 21.1581 30.092H15.2424C14.5784 30.092 14.0451 29.5587 14.0451 28.8947C14.0451 28.2307 14.5784 27.6975 15.2424 27.6975H21.1581ZM21.1581 26.6914H15.2424C14.025 26.6914 13.0391 27.6774 13.0391 28.8947C13.0391 30.1121 14.025 31.098 15.2424 31.098H21.1581C22.3755 31.098 23.3614 30.1121 23.3614 28.8947C23.3614 27.6774 22.3755 26.6914 21.1581 26.6914Z" fill="#F4F4F4"/>
<path d="M15.2432 37.0236C14.3076 37.0236 13.543 36.259 13.543 35.3233C13.543 34.3877 14.3076 33.623 15.2432 33.623H21.159C22.0946 33.623 22.8593 34.3877 22.8593 35.3233C22.8593 36.259 22.0946 37.0236 21.159 37.0236H15.2432Z" fill="#2CA1C7"/>
<path d="M21.1581 34.1262C21.8221 34.1262 22.3553 34.6594 22.3553 35.3234C22.3553 35.9874 21.8221 36.5207 21.1581 36.5207H15.2424C14.5784 36.5207 14.0451 35.9874 14.0451 35.3234C14.0451 34.6594 14.5784 34.1262 15.2424 34.1262H21.1581ZM21.1581 33.1201H15.2424C14.025 33.1201 13.0391 34.1061 13.0391 35.3234C13.0391 36.5408 14.025 37.5267 15.2424 37.5267H21.1581C22.3755 37.5267 23.3614 36.5408 23.3614 35.3234C23.3614 34.1061 22.3755 33.1201 21.1581 33.1201Z" fill="#F4F4F4"/>
<path d="M35.0333 11.0567L33.9669 8.5918C33.2123 6.86135 33.333 4.85925 34.2989 3.21934C35.1943 1.6901 36.6933 0.704145 38.3936 0.533112C38.5948 0.51299 38.796 0.50293 39.0073 0.50293C39.2186 0.50293 39.4299 0.51299 39.6412 0.533112C41.3414 0.714206 42.8405 1.6901 43.7359 3.2294C44.6917 4.86931 44.8124 6.88147 44.0679 8.60186L39.0174 20.1818L35.0333 11.0567ZM39.0073 3.56141C37.3775 3.56141 36.0595 4.87937 36.0595 6.50922C36.0595 8.13907 37.3775 9.45703 39.0073 9.45703C40.6372 9.45703 41.9551 8.13907 41.9551 6.50922C41.9551 4.87937 40.6372 3.56141 39.0073 3.56141Z" fill="#2CA1C7"/>
<path d="M39.006 1.00608C39.2072 1.00608 39.3984 1.01614 39.5795 1.0262C41.1288 1.18717 42.4871 2.08258 43.302 3.47097C44.1773 4.97003 44.2879 6.81115 43.6038 8.39069L42.5374 10.8355L39.0161 18.9143L35.5049 10.8455L34.4384 8.38063C33.7543 6.80109 33.865 4.95997 34.7402 3.46091C35.5552 2.07252 36.9134 1.17711 38.4426 1.0262C38.6237 1.01614 38.8149 1.00608 39.006 1.00608ZM39.006 9.96018C40.9075 9.96018 42.4569 8.41082 42.4569 6.50933C42.4569 4.60784 40.9075 3.05848 39.006 3.05848C37.1045 3.05848 35.5552 4.60784 35.5552 6.50933C35.5552 8.41082 37.1045 9.96018 39.006 9.96018ZM39.006 0C38.7847 0 38.5633 0.0100608 38.342 0.0301824C34.2171 0.452735 31.8528 5.00021 33.5028 8.79312L34.5692 11.258L39.006 21.4395L43.4529 11.248L44.5193 8.80319C46.1693 5.00021 43.805 0.462796 39.6801 0.0301824C39.4588 0.0100608 39.2374 0 39.006 0ZM39.006 8.9541C37.6579 8.9541 36.5612 7.85747 36.5612 6.50933C36.5612 5.16118 37.6579 4.06456 39.006 4.06456C40.3542 4.06456 41.4508 5.16118 41.4508 6.50933C41.4508 7.85747 40.3542 8.9541 39.006 8.9541Z" fill="#F4F4F4"/>
</svg>
