<svg width="48" height="48" viewBox="0 0 48 48" fill="none" xmlns="http://www.w3.org/2000/svg">
<path d="M2.1747 45.7992C1.24237 45.7992 0.480469 45.0373 0.480469 44.105C0.480469 43.1726 1.24237 42.4107 2.1747 42.4107H9.63335V39.6438L9.30252 39.5235C6.8564 38.6614 5.2123 36.3456 5.2123 33.7491C5.2123 31.9245 6.0143 30.2203 7.40778 29.0473L7.77871 28.7366L7.48798 28.3556C6.84638 27.5135 6.50553 26.521 6.50553 25.4584C6.50553 22.7917 8.67094 20.6163 11.3376 20.6163C11.5682 20.6163 11.7887 20.6363 12.0293 20.6664C14.2248 20.9671 15.9692 22.7917 16.1597 24.9972C16.2699 26.2303 15.9391 27.3932 15.2073 28.3556L14.9166 28.7366L15.2775 29.0473C16.6709 30.2203 17.4629 31.9346 17.4629 33.7491C17.4629 36.3556 15.8188 38.6714 13.3627 39.5235L13.0218 39.6438V42.4208H26.4053V11.9747H23.6083V15.8644C23.6083 16.3957 23.1772 16.8268 22.6459 16.8268H15.5682C15.0369 16.8268 14.6058 16.3957 14.6058 15.8644V9.54859C14.6058 9.01727 15.0369 8.58619 15.5682 8.58619H26.3953V5.88945H24.0594C23.1271 5.88945 22.3652 5.12754 22.3652 4.19521C22.3652 3.26288 23.1271 2.50098 24.0594 2.50098H45.7737C46.706 2.50098 47.4679 3.26288 47.4679 4.19521C47.4679 5.12754 46.706 5.88945 45.7737 5.88945H43.9892V42.4107H45.5932C46.5256 42.4107 47.2875 43.1726 47.2875 44.105C47.2875 45.0373 46.5256 45.7992 45.5932 45.7992H2.1747ZM29.8038 42.4107H40.6208V5.88945H29.8038V42.4107ZM11.3376 30.3606C10.3551 30.3606 9.41279 30.7917 8.76116 31.5336C8.22984 32.1451 7.94914 32.927 7.94914 33.7491C7.94914 34.5611 8.23986 35.3531 8.76116 35.9646C9.41279 36.7165 10.3451 37.1376 11.3376 37.1376C12.3401 37.1376 13.2724 36.7065 13.9141 35.9546C14.4454 35.3531 14.7361 34.5711 14.7361 33.7491C14.7361 32.927 14.4454 32.1351 13.904 31.5336C13.2724 30.7917 12.3301 30.3606 11.3376 30.3606ZM11.3376 23.323C10.1546 23.323 9.19224 24.2854 9.19224 25.4684C9.19224 26.6514 10.1546 27.6138 11.3376 27.6138C12.5206 27.6138 13.483 26.6514 13.483 25.4684C13.483 24.2854 12.5206 23.323 11.3376 23.323ZM18.0043 13.4383H20.2198V11.9747H18.0043V13.4383Z" fill="#2CA1C7"/>
<path d="M45.7945 3.00251C46.4561 3.00251 46.9875 3.53383 46.9875 4.19549C46.9875 4.85714 46.4561 5.38847 45.7945 5.38847H44.5113H43.5088V6.39098V41.9098V42.9123H44.5113H45.614C46.2757 42.9123 46.807 43.4436 46.807 44.1053C46.807 44.7669 46.2757 45.2982 45.614 45.2982H2.18546C1.52381 45.2982 0.992479 44.7669 0.992479 44.1053C0.992479 43.4436 1.52381 42.9123 2.18546 42.9123H9.14286H10.1454V41.9098V39.995V39.2832L9.47369 39.0526C7.22807 38.2606 5.71429 36.1353 5.71429 33.7494C5.71429 32.0752 6.44611 30.5012 7.72932 29.4386L8.47118 28.8271L7.88973 28.0652C7.3183 27.3133 7.01754 26.421 7.01754 25.4787C7.01754 24.3158 7.46868 23.2331 8.29073 22.411C9.11279 21.589 10.1955 21.1378 11.3484 21.1378C11.5489 21.1378 11.7594 21.1479 11.9699 21.1779C13.9048 21.4486 15.4987 23.1128 15.6692 25.0576C15.7694 26.1704 15.4787 27.203 14.817 28.0652L14.2356 28.8271L14.9674 29.4386C16.2406 30.5113 16.9724 32.0852 16.9724 33.7494C16.9724 36.1454 15.4586 38.2707 13.203 39.0426L12.5313 39.2732V39.985V41.8997V42.9022H13.5338H25.9148H26.9173V41.8997V12.4762V11.4737H25.9148H24.1203H23.1178V12.4762V15.8647C23.1178 16.1153 22.9173 16.3258 22.6566 16.3258H15.5789C15.3283 16.3258 15.1178 16.1253 15.1178 15.8647V9.53885C15.1178 9.28822 15.3183 9.07769 15.5789 9.07769H25.9048H26.9073V8.07519V6.39098V5.38847H25.9048H24.0702C23.4085 5.38847 22.8772 4.85714 22.8772 4.19549C22.8772 3.53383 23.4085 3.00251 24.0702 3.00251H45.7945ZM29.3033 42.9123H30.3058H40.1203H41.1228V41.9098V6.39098V5.38847H40.1203H30.3058H29.3033V6.39098V41.9098V42.9123ZM17.5138 13.9398H18.5163H19.7293H20.7318V12.9373V12.4762V11.4737H19.7293H18.5163H17.5138V12.4762V12.9373V13.9398ZM11.3383 28.1153C12.802 28.1153 13.985 26.9323 13.985 25.4687C13.985 24.005 12.802 22.8221 11.3383 22.8221C9.87468 22.8221 8.69173 24.005 8.69173 25.4687C8.69173 26.9323 9.87468 28.1153 11.3383 28.1153ZM11.3383 37.6391C12.4812 37.6391 13.5639 37.1479 14.2857 36.2957C14.8972 35.594 15.2381 34.6917 15.2381 33.7494C15.2381 32.807 14.8972 31.9048 14.2957 31.213C13.5639 30.3509 12.4812 29.8596 11.3383 29.8596C10.2055 29.8596 9.13283 30.3509 8.38095 31.213C7.77945 31.9148 7.44862 32.817 7.44862 33.7494C7.44862 34.6817 7.77945 35.584 8.39098 36.2957C9.12281 37.1479 10.2055 37.6391 11.3383 37.6391ZM45.7945 2H24.0802C22.8672 2 21.8847 2.98246 21.8847 4.19549C21.8847 5.40852 22.8672 6.39098 24.0802 6.39098H25.9148V8.08521H15.589C14.787 8.08521 14.1253 8.73684 14.1253 9.54887V15.8747C14.1253 16.6767 14.7769 17.3383 15.589 17.3383H22.6667C23.4687 17.3383 24.1303 16.6867 24.1303 15.8747V12.4862H25.9248V41.9198H13.5338V40.005C16.1203 39.1128 17.9749 36.6466 17.9749 33.7594C17.9749 31.7243 17.0627 29.8997 15.609 28.6767C16.3809 27.6642 16.782 26.3709 16.6617 24.9674C16.4411 22.5414 14.5063 20.5163 12.1002 20.1855C11.8496 20.1554 11.589 20.1353 11.3484 20.1353C8.401 20.1353 6.01504 22.5313 6.01504 25.4787C6.01504 26.6817 6.41604 27.7845 7.09775 28.6767C5.64411 29.8897 4.7218 31.7243 4.7218 33.7594C4.7218 36.6466 6.57645 39.1028 9.15289 40.005V41.9198H2.19549C0.982458 41.9198 0 42.9022 0 44.1153C0 45.3283 0.982458 46.3108 2.19549 46.3108H45.6241C46.8371 46.3108 47.8195 45.3283 47.8195 44.1153C47.8195 42.9022 46.8371 41.9198 45.6241 41.9198H44.5213V6.39098H45.8045C47.0175 6.39098 48 5.40852 48 4.19549C47.99 2.98246 46.9975 2 45.7945 2ZM30.3058 41.9098V6.39098H40.1203V41.9098H30.3058ZM18.5163 12.9373V12.4762H19.7293V12.9373H18.5163ZM11.3383 27.1128C10.4361 27.1128 9.69423 26.3709 9.69423 25.4687C9.69423 24.5564 10.4361 23.8246 11.3383 23.8246C12.2506 23.8246 12.9825 24.5564 12.9825 25.4687C12.9825 26.3709 12.2506 27.1128 11.3383 27.1128ZM11.3383 36.6366C10.4662 36.6366 9.67419 36.2456 9.14286 35.6341C8.71178 35.1328 8.45113 34.4712 8.45113 33.7494C8.45113 33.0276 8.71178 32.3659 9.14286 31.8647C9.67419 31.2531 10.4662 30.8622 11.3383 30.8622C12.2205 30.8622 13.0125 31.2531 13.5338 31.8647C13.9749 32.3659 14.2356 33.0276 14.2356 33.7494C14.2356 34.4712 13.9749 35.1328 13.5338 35.6341C13.0125 36.2456 12.2205 36.6366 11.3383 36.6366Z" fill="#F4F4F4"/>
</svg>
