<svg width="48" height="33" viewBox="0 0 48 33" fill="none" xmlns="http://www.w3.org/2000/svg">
<path d="M23.4888 19.4509C22.3114 19.4509 21.3555 18.4949 21.3555 17.3175V8.83451C21.3555 7.65715 22.3114 6.70117 23.4888 6.70117H39.7102C40.8875 6.70117 41.8435 7.65715 41.8435 8.83451V17.3175C41.8435 18.4949 40.8875 19.4509 39.7102 19.4509H23.4888ZM34.4372 10.1024C33.8033 10.1024 33.3001 10.6156 33.3001 11.2395V14.9024C33.3001 15.5364 33.8133 16.0395 34.4372 16.0395H37.2951C37.9291 16.0395 38.4322 15.5263 38.4322 14.9024V11.2496C38.4322 10.6156 37.919 10.1125 37.2951 10.1125H34.4372V10.1024ZM25.8938 10.1024C25.2599 10.1024 24.7567 10.6156 24.7567 11.2395V14.9024C24.7567 15.5364 25.2699 16.0395 25.8938 16.0395H28.7517C29.3857 16.0395 29.8888 15.5263 29.8888 14.9024V11.2496C29.8888 10.6156 29.3756 10.1125 28.7517 10.1125H25.8938V10.1024Z" fill="#2CA1C7"/>
<path d="M39.7094 7.20453C40.605 7.20453 41.3396 7.93913 41.3396 8.83472V17.3177C41.3396 18.2133 40.605 18.9479 39.7094 18.9479H23.488C22.5924 18.9479 21.8579 18.2133 21.8579 17.3177V8.83472C21.8579 7.93913 22.5924 7.20453 23.488 7.20453H39.7094ZM34.4365 16.553H37.2943C38.2 16.553 38.9346 15.8184 38.9346 14.9127V11.2498C38.9346 10.3442 38.2 9.60956 37.2943 9.60956H34.4365C33.5308 9.60956 32.7962 10.3442 32.7962 11.2498V14.9127C32.7962 15.8184 33.5308 16.553 34.4365 16.553ZM25.8931 16.553H28.7509C29.6566 16.553 30.3912 15.8184 30.3912 14.9127V11.2498C30.3912 10.3442 29.6566 9.60956 28.7509 9.60956H25.8931C24.9874 9.60956 24.2528 10.3442 24.2528 11.2498V14.9127C24.2528 15.8184 24.9874 16.553 25.8931 16.553ZM39.7094 6.19824H23.488C22.0289 6.19824 20.8516 7.3756 20.8516 8.83472V17.3177C20.8516 18.7769 22.0289 19.9542 23.488 19.9542H39.7094C41.1685 19.9542 42.3459 18.7769 42.3459 17.3177V8.83472C42.3459 7.3756 41.1585 6.19824 39.7094 6.19824ZM34.4365 15.5467C34.0843 15.5467 33.8025 15.2649 33.8025 14.9127V11.2498C33.8025 10.8976 34.0843 10.6159 34.4365 10.6159H37.2943C37.6465 10.6159 37.9283 10.8976 37.9283 11.2498V14.9127C37.9283 15.2649 37.6465 15.5467 37.2943 15.5467H34.4365ZM25.8931 15.5467C25.5409 15.5467 25.2591 15.2649 25.2591 14.9127V11.2498C25.2591 10.8976 25.5409 10.6159 25.8931 10.6159H28.7509C29.1031 10.6159 29.3849 10.8976 29.3849 11.2498V14.9127C29.3849 15.2649 29.1031 15.5467 28.7509 15.5467H25.8931Z" fill="#F4F4F4"/>
<path d="M8.3638 19.4616C7.18644 19.4616 6.23047 18.5056 6.23047 17.3283V8.84524C6.23047 7.66788 7.18644 6.71191 8.3638 6.71191H16.8971C18.0745 6.71191 19.0305 7.66788 19.0305 8.84524V17.3283C19.0305 18.5056 18.0745 19.4616 16.8971 19.4616H8.3638ZM10.7688 10.1132C10.1349 10.1132 9.63173 10.6264 9.63173 11.2503V14.9132C9.63173 15.5471 10.1449 16.0503 10.7688 16.0503H14.482C15.116 16.0503 15.6191 15.5371 15.6191 14.9132V11.2503C15.6191 10.6163 15.1059 10.1132 14.482 10.1132H10.7688Z" fill="#2CA1C7"/>
<path d="M16.8964 7.21527C17.792 7.21527 18.5266 7.94986 18.5266 8.84546V17.3285C18.5266 18.2241 17.792 18.9587 16.8964 18.9587H8.36304C7.46744 18.9587 6.73285 18.2241 6.73285 17.3285V8.84546C6.73285 7.94986 7.46744 7.21527 8.36304 7.21527H16.8964ZM10.7681 16.5637H14.4813C15.3869 16.5637 16.1215 15.8291 16.1215 14.9234V11.2505C16.1215 10.3448 15.3869 9.61024 14.4813 9.61024H10.7681C9.86241 9.61024 9.12782 10.3448 9.12782 11.2505V14.9134C9.12782 15.819 9.86241 16.5637 10.7681 16.5637ZM16.8964 6.20898H8.36304C6.90392 6.20898 5.72656 7.38634 5.72656 8.84546V17.3285C5.72656 18.7876 6.90392 19.965 8.36304 19.965H16.8964C18.3555 19.965 19.5329 18.7876 19.5329 17.3285V8.84546C19.5329 7.38634 18.3454 6.20898 16.8964 6.20898ZM10.7681 15.5574C10.4159 15.5574 10.1341 15.2756 10.1341 14.9234V11.2505C10.1341 10.8983 10.4159 10.6165 10.7681 10.6165H14.4813C14.8335 10.6165 15.1152 10.8983 15.1152 11.2505V14.9134C15.1152 15.2656 14.8335 15.5473 14.4813 15.5473H10.7681V15.5574Z" fill="#F4F4F4"/>
<path d="M37.9475 25.66C37.545 25.2173 36.9614 24.9657 36.3576 24.9657C35.7538 24.9657 35.1802 25.2173 34.7777 25.66H31.7287C32.3526 23.6575 34.2041 22.2588 36.3576 22.2588C38.501 22.2588 40.3626 23.6575 40.9865 25.66H37.9475ZM15.8595 25.66C15.457 25.2173 14.8733 24.9657 14.2696 24.9657C13.6658 24.9657 13.0922 25.2173 12.6897 25.66H9.64062C10.2645 23.6575 12.1262 22.2588 14.2696 22.2588C16.413 22.2588 18.2746 23.6575 18.8985 25.66H15.8595Z" fill="#2CA1C7"/>
<path d="M36.3688 22.7621C38.0493 22.7621 39.5286 23.7181 40.2531 25.1571H38.16C37.677 24.7143 37.033 24.4628 36.3688 24.4628C35.6946 24.4628 35.0606 24.7143 34.5776 25.1571H32.4845C33.199 23.7181 34.6883 22.7621 36.3688 22.7621ZM14.2808 22.7621C15.9613 22.7621 17.4405 23.7181 18.165 25.1571H16.072C15.5889 24.7143 14.9449 24.4628 14.2808 24.4628C13.6066 24.4628 12.9726 24.7143 12.4896 25.1571H10.3864C11.111 23.7181 12.6003 22.7621 14.2808 22.7621ZM36.3688 21.7559C33.7424 21.7559 31.5487 23.6577 31.1059 26.1634H35.0305C35.3223 25.7408 35.8154 25.4691 36.3688 25.4691C36.9223 25.4691 37.4154 25.7408 37.7172 26.1634H41.6418C41.1889 23.6577 38.9952 21.7559 36.3688 21.7559ZM14.2808 21.7559C11.6544 21.7559 9.46064 23.6577 9.00781 26.1634H12.9424C13.2342 25.7408 13.7273 25.4691 14.2808 25.4691C14.8342 25.4691 15.3273 25.7408 15.6292 26.1634H19.5537C19.1009 23.6577 16.9072 21.7559 14.2808 21.7559Z" fill="#F4F4F4"/>
<path d="M43.7163 25.66C42.7804 25.66 42.0156 24.8953 42.0156 23.9594C42.0156 23.5167 42.1968 23.0839 42.5188 22.7519C42.8307 22.4399 43.2634 22.2588 43.7163 22.2588H47.4999V25.66H43.7163Z" fill="#2CA1C7"/>
<path d="M46.996 22.7621V25.1571H43.7155C43.0513 25.1571 42.518 24.6238 42.518 23.9596C42.518 23.5571 42.7092 23.2653 42.8702 23.1143C43.0916 22.893 43.3935 22.7621 43.7155 22.7621H46.996ZM48.0023 21.7559H43.7155C43.1117 21.7559 42.5583 21.9974 42.1557 22.3999C41.7633 22.8024 41.5117 23.3458 41.5117 23.9596C41.5117 25.1772 42.4979 26.1634 43.7155 26.1634H48.0023V21.7559Z" fill="#F4F4F4"/>
<path d="M14.2823 31.9695C11.6055 31.9695 9.42188 29.7959 9.42188 27.1192C9.42188 26.8273 9.45206 26.5456 9.50238 26.2538C9.92502 23.9292 11.9275 22.2588 14.2823 22.2588C16.637 22.2588 18.6395 23.9393 19.0621 26.2538C19.1225 26.5456 19.1426 26.8273 19.1426 27.1192C19.1426 29.7959 16.959 31.9695 14.2823 31.9695ZM14.2823 24.9657C13.5778 24.9657 12.9238 25.3078 12.5313 25.8814C12.2697 26.2336 12.1288 26.6663 12.1288 27.1192C12.1288 28.3066 13.0948 29.2726 14.2823 29.2726C15.4697 29.2726 16.4357 28.3066 16.4357 27.1192C16.4357 26.6663 16.2948 26.2336 16.0433 25.8714C15.6307 25.3078 14.9766 24.9657 14.2823 24.9657Z" fill="#2CA1C7"/>
<path d="M14.2815 22.7621C16.3846 22.7621 18.1859 24.2716 18.5683 26.3546C18.6186 26.6062 18.6387 26.8577 18.6387 27.1194C18.6387 29.5144 16.6865 31.4666 14.2815 31.4666C11.8765 31.4666 9.92426 29.5144 9.92426 27.1194C9.92426 26.8577 9.94438 26.6062 9.9947 26.3445C10.367 24.2716 12.1683 22.7621 14.2815 22.7621ZM14.2815 29.776C15.7507 29.776 16.9381 28.5886 16.9381 27.1194C16.9381 26.5659 16.767 26.0326 16.445 25.5798C15.9419 24.8854 15.1368 24.4628 14.2815 24.4628C13.4161 24.4628 12.601 24.8854 12.1381 25.5596C11.806 26.0125 11.6249 26.5458 11.6249 27.1194C11.6249 28.5886 12.8123 29.776 14.2815 29.776ZM14.2815 21.7559C11.6551 21.7559 9.46137 23.6577 9.00853 26.1634C8.94816 26.4754 8.91797 26.7873 8.91797 27.1194C8.91797 30.0779 11.323 32.4728 14.2815 32.4728C17.24 32.4728 19.645 30.0779 19.645 27.1194C19.645 26.7873 19.6148 26.4754 19.5544 26.1634C19.1016 23.6577 16.9079 21.7559 14.2815 21.7559ZM14.2815 28.7697C13.3658 28.7697 12.6312 28.025 12.6312 27.1194C12.6312 26.7571 12.7419 26.4351 12.9431 26.1634C13.235 25.7408 13.728 25.4691 14.2815 25.4691C14.8349 25.4691 15.328 25.7408 15.6299 26.1634C15.8211 26.4351 15.9318 26.7571 15.9318 27.1194C15.9318 28.025 15.1972 28.7697 14.2815 28.7697Z" fill="#F4F4F4"/>
<path d="M36.3659 31.9695C33.6892 31.9695 31.5156 29.7959 31.5156 27.1192C31.5156 26.8273 31.5458 26.5456 31.5961 26.2538C32.0087 23.9292 34.0112 22.2588 36.3659 22.2588C38.7207 22.2588 40.7232 23.9393 41.1458 26.2538C41.2062 26.5456 41.2263 26.8273 41.2263 27.1192C41.2263 29.7959 39.0427 31.9695 36.3659 31.9695ZM36.3659 24.9657C35.6615 24.9657 35.0075 25.3078 34.615 25.8814C34.3534 26.2336 34.2125 26.6663 34.2125 27.1192C34.2125 28.3066 35.1785 29.2726 36.3659 29.2726C37.5534 29.2726 38.5194 28.3066 38.5194 27.1192C38.5194 26.6663 38.3886 26.2437 38.1269 25.8714C37.7144 25.3078 37.0603 24.9657 36.3659 24.9657Z" fill="#2CA1C7"/>
<path d="M36.3652 22.7621C38.4683 22.7621 40.2696 24.2716 40.652 26.3546C40.7023 26.6062 40.7224 26.8577 40.7224 27.1194C40.7224 29.5144 38.7702 31.4666 36.3652 31.4666C33.9702 31.4666 32.018 29.5144 32.018 27.1194C32.018 26.8577 32.0381 26.6062 32.0884 26.3345C32.4608 24.2716 34.252 22.7621 36.3652 22.7621ZM36.3652 29.776C37.8344 29.776 39.0218 28.5886 39.0218 27.1194C39.0218 26.5659 38.8507 26.0326 38.5287 25.5798C38.0256 24.8854 37.2205 24.4628 36.3652 24.4628C35.4998 24.4628 34.6847 24.8854 34.2218 25.5596C33.8897 26.0125 33.7086 26.5458 33.7086 27.1194C33.7086 28.5886 34.896 29.776 36.3652 29.776ZM36.3652 21.7559C33.7388 21.7559 31.5451 23.6577 31.1023 26.1634C31.0419 26.4754 31.0117 26.7873 31.0117 27.1194C31.0117 30.0779 33.4067 32.4728 36.3652 32.4728C39.3237 32.4728 41.7287 30.0779 41.7287 27.1194C41.7287 26.7873 41.6985 26.4754 41.6381 26.1634C41.1853 23.6577 38.9916 21.7559 36.3652 21.7559ZM36.3652 28.7697C35.4595 28.7697 34.7149 28.025 34.7149 27.1194C34.7149 26.7571 34.8256 26.4351 35.0268 26.1634C35.3186 25.7408 35.8117 25.4691 36.3652 25.4691C36.9186 25.4691 37.4117 25.7408 37.7136 26.1634C37.9048 26.4351 38.0155 26.7571 38.0155 27.1194C38.0155 28.025 37.2809 28.7697 36.3652 28.7697Z" fill="#F4F4F4"/>
<path d="M21.7358 25.66C20.7999 25.66 20.0352 24.8953 20.0352 23.9594C20.0352 23.0236 20.7999 22.2588 21.7358 22.2588H28.81C29.7458 22.2588 30.5106 23.0236 30.5106 23.9594C30.5106 24.8953 29.7458 25.66 28.81 25.66H21.7358Z" fill="#2CA1C7"/>
<path d="M28.8092 22.7621C29.4734 22.7621 30.0067 23.2955 30.0067 23.9596C30.0067 24.6238 29.4734 25.1571 28.8092 25.1571H21.735C21.0709 25.1571 20.5375 24.6238 20.5375 23.9596C20.5375 23.2955 21.0709 22.7621 21.735 22.7621H28.8092ZM28.8092 21.7559H21.735C20.5174 21.7559 19.5312 22.742 19.5312 23.9596C19.5312 25.1772 20.5174 26.1634 21.735 26.1634H28.8092C30.0268 26.1634 31.013 25.1772 31.013 23.9596C31.013 22.742 30.0268 21.7559 28.8092 21.7559Z" fill="#F4F4F4"/>
<path d="M43.714 25.6602C42.7177 25.5998 42.0133 24.8652 42.0133 23.9595C42.0133 23.5168 42.1945 23.0841 42.5165 22.752C42.8083 22.4501 43.1907 22.2891 43.6133 22.269L44.0964 22.2488V6.02746C44.0964 4.86017 43.1404 3.91426 41.9731 3.91426H6.02843C4.86114 3.91426 3.90516 4.86017 3.90516 6.02746V22.2589H6.80328C7.73913 22.2589 8.50391 23.0237 8.50391 23.9595C8.50391 24.4023 8.32277 24.835 8.00076 25.1671C7.68881 25.479 7.25611 25.6602 6.80328 25.6602H0.503906V4.65891C0.503906 2.45514 2.23472 0.633749 4.4385 0.512995C4.519 0.502932 4.56931 0.50293 4.61963 0.50293C4.62969 0.50293 43.3819 0.50293 43.392 0.50293C43.4423 0.50293 43.4825 0.502932 43.5328 0.512995C45.7668 0.633749 47.4976 2.45514 47.4976 4.65891V25.6602H43.714Z" fill="#2CA1C7"/>
<path d="M4.58868 1.00629C4.6088 1.00629 4.62893 1.00629 4.65912 1.00629H43.3409C43.361 1.00629 43.3912 1.00629 43.4113 1.00629C43.4314 1.00629 43.4516 1.00629 43.4717 1.00629H43.5119H43.5522C45.4943 1.10692 47.0038 2.70692 47.0038 4.64906V25.1472H43.7635H43.7535L43.6528 25.1371C43.0189 25.1069 42.5258 24.5836 42.5258 23.9497C42.5258 23.5472 42.717 23.2553 42.888 23.0943C43.0893 22.8931 43.3509 22.7723 43.6428 22.7623L44.6088 22.7321V21.766V6.02768C44.6088 4.58868 43.4314 3.41133 41.9824 3.41133H6.02767C4.57862 3.41133 3.40126 4.58868 3.40126 6.02768V21.756V22.7623H4.40755H6.80252C7.46667 22.7623 8 23.2956 8 23.9598C8 24.3623 7.8088 24.6541 7.6478 24.805C7.42641 25.0264 7.12453 25.1572 6.80252 25.1572H1.00629V4.65912C1.00629 2.71699 2.52579 1.11698 4.45786 1.01635H4.49811H4.5283C4.54843 1.00629 4.56855 1.00629 4.58868 1.00629ZM43.3409 0H4.65912C4.56855 0 4.48805 2.14989e-06 4.40755 0.010065C1.94214 0.140883 0 2.17359 0 4.65912V26.1635H6.80252C7.40629 26.1635 7.95975 25.922 8.36226 25.5195C8.75472 25.117 9.00629 24.5736 9.00629 23.9598C9.00629 22.7421 8.02013 21.756 6.80252 21.756H4.40755V6.02768C4.40755 5.14214 5.13207 4.41762 6.02767 4.41762H41.9723C42.8679 4.41762 43.5924 5.14214 43.5924 6.02768V21.766C43.0289 21.7862 42.5258 22.0176 42.1535 22.4C41.761 22.8025 41.5094 23.3459 41.5094 23.9598C41.5094 25.1371 42.4252 26.0931 43.5924 26.1535C43.6327 26.1635 43.673 26.1635 43.7132 26.1635H48V4.65912C48 2.17359 46.0579 0.140883 43.5924 0.010065C43.5119 2.14989e-06 43.4314 0 43.3409 0Z" fill="#F4F4F4"/>
<path d="M43.7137 26.1633H43.5938V26.1533C43.6337 26.1633 43.6737 26.1633 43.7137 26.1633Z" fill="#2CA1C7"/>
<path d="M43.5938 26.1533V26.1633H43.7137C43.6737 26.1633 43.6337 26.1633 43.5938 26.1533Z" fill="#F4F4F4"/>
</svg>
