<svg width="48" height="44" viewBox="0 0 48 44" fill="none" xmlns="http://www.w3.org/2000/svg">
<path d="M6.08155 42.9772C3.00527 42.9772 0.503906 40.4758 0.503906 37.3995V27.8177C0.655199 25.7803 1.39149 23.7933 2.65225 22.1089C2.94475 21.7256 3.23725 21.3928 3.54992 21.07C5.25448 19.315 7.53395 18.1854 9.96472 17.8828H12.7082C15.0784 18.1753 17.3478 19.305 19.0523 21.06C19.3751 21.3827 19.6676 21.7256 19.9601 22.0988C21.3822 23.995 22.1387 26.2442 22.1387 28.6246V37.3995C22.1387 40.4758 19.6373 42.9772 16.5611 42.9772H6.08155ZM11.3263 21.2314C10.9632 21.2314 10.6405 21.2617 10.3379 21.3121C6.68672 21.7761 3.91302 24.933 3.91302 28.6346V36.633C3.91302 38.2468 5.22423 39.568 6.8481 39.568H15.7945C17.4083 39.568 18.7296 38.2568 18.7296 36.633V28.6346C18.7296 24.9229 15.966 21.7761 12.2946 21.302C12.0122 21.2617 11.6894 21.2314 11.3263 21.2314Z" fill="#2CA1C7"/>
<path d="M12.6379 18.3973C14.9275 18.6898 17.0759 19.769 18.6997 21.4332C19.0023 21.7358 19.2847 22.0586 19.5571 22.4116C20.9187 24.217 21.6348 26.3754 21.6348 28.6347V37.3996C21.6348 40.1935 19.3553 42.4729 16.5615 42.4729H6.08195C3.28808 42.4729 1.00862 40.1935 1.00862 37.3996V27.8581C1.15991 25.8913 1.86594 24.0153 3.04602 22.4217C3.32843 22.0586 3.61084 21.7358 3.91342 21.4231C5.51712 19.769 7.66547 18.6999 9.96512 18.3973H12.6379ZM6.8485 40.0724H15.7949C17.6911 40.0724 19.2343 38.5292 19.2343 36.633V28.6347C19.2343 24.6709 16.279 21.3122 12.406 20.8079C12.0731 20.7474 11.7201 20.7272 11.3267 20.7272C10.9334 20.7272 10.5804 20.7574 10.2879 20.8079C6.36436 21.3122 3.40912 24.6709 3.40912 28.6347V36.633C3.40912 38.5292 4.9523 40.0724 6.8485 40.0724ZM12.7086 17.3887H9.9046C7.29229 17.7114 4.94221 18.9218 3.19731 20.7171C2.85438 21.06 2.54171 21.4231 2.24921 21.8064C0.978353 23.511 0.161378 25.5685 0 27.8178V37.3996C0 40.7583 2.72326 43.4815 6.08195 43.4815H16.5615C19.9202 43.4815 22.6434 40.7583 22.6434 37.3996V28.6347C22.6434 26.0628 21.7962 23.7127 20.3639 21.8064C20.0714 21.4231 19.7588 21.06 19.4158 20.7171C17.6709 18.9218 15.331 17.7114 12.7086 17.3887ZM6.8485 39.0638C5.50704 39.0638 4.41773 37.9745 4.41773 36.633V28.6347C4.41773 25.1348 7.03004 22.2401 10.419 21.8064C10.7115 21.756 11.0141 21.7358 11.3267 21.7358C11.6394 21.7358 11.942 21.756 12.2345 21.8064C15.6134 22.2401 18.2257 25.1348 18.2257 28.6347V36.633C18.2257 37.9745 17.1364 39.0638 15.7949 39.0638H6.8485Z" fill="#F4F4F4"/>
<path d="M31.4409 42.9772C28.3646 42.9772 25.8633 40.4758 25.8633 37.3995V27.8177C26.0146 25.7803 26.7509 23.7933 28.0116 22.1089C28.3041 21.7256 28.5966 21.3928 28.9093 21.07C30.6139 19.315 32.8933 18.1854 35.3241 17.8828H38.0675C40.4378 18.1753 42.7172 19.305 44.4117 21.06C44.7345 21.3827 45.027 21.7256 45.3195 22.0988C46.7416 23.995 47.4981 26.2442 47.4981 28.6246V37.3995C47.4981 40.4758 44.9967 42.9772 41.9204 42.9772H31.4409ZM36.6857 21.2314C36.3226 21.2314 35.9999 21.2617 35.6872 21.3121C32.036 21.7761 29.2623 24.933 29.2623 28.6346V36.633C29.2623 38.2468 30.5735 39.568 32.1974 39.568H41.1438C42.7576 39.568 44.0789 38.2568 44.0789 36.633V28.6346C44.0789 24.9229 41.3153 21.7761 37.6439 21.302C37.3716 21.2617 37.0488 21.2314 36.6857 21.2314Z" fill="#2CA1C7"/>
<path d="M38.0074 18.3973C40.297 18.6898 42.4453 19.769 44.0692 21.4332C44.3718 21.7358 44.6542 22.0586 44.9265 22.4116C46.2881 24.217 47.0043 26.3754 47.0043 28.6347V37.3996C47.0043 40.1935 44.7248 42.4729 41.9309 42.4729H31.4514C28.6575 42.4729 26.3781 40.1935 26.3781 37.3996V27.8581C26.5294 25.8913 27.2354 24.0153 28.4155 22.4217C28.6979 22.0586 28.9803 21.7358 29.2829 21.4231C30.8866 19.769 33.0349 18.6999 35.3346 18.3973H38.0074ZM32.2079 40.0724H41.1543C43.0505 40.0724 44.5937 38.5292 44.5937 36.633V28.6347C44.5937 24.6709 41.6384 21.3122 37.7653 20.8079C37.4325 20.7474 37.0795 20.7272 36.6861 20.7272C36.2928 20.7272 35.9397 20.7574 35.6472 20.8079C31.7237 21.3122 28.7685 24.6709 28.7685 28.6347V36.633C28.7685 38.5292 30.3117 40.0724 32.2079 40.0724ZM38.0679 17.3887H35.264C32.6517 17.7114 30.3016 18.9218 28.5567 20.7171C28.2138 21.06 27.9011 21.4231 27.6086 21.8064C26.3377 23.511 25.5208 25.5685 25.3594 27.8178V37.3996C25.3594 40.7583 28.0826 43.4815 31.4413 43.4815H41.9208C45.2795 43.4815 48.0028 40.7583 48.0028 37.3996V28.6347C48.0028 26.0628 47.1555 23.7127 45.7233 21.8064C45.4308 21.4231 45.1182 21.06 44.7752 20.7171C43.0303 18.9218 40.6903 17.7114 38.0679 17.3887ZM32.2079 39.0638C30.8664 39.0638 29.7771 37.9745 29.7771 36.633V28.6347C29.7771 25.1348 32.3894 22.2401 35.7784 21.8064C36.0709 21.756 36.3735 21.7358 36.6861 21.7358C36.9988 21.7358 37.3014 21.756 37.5939 21.8064C40.9727 22.2401 43.5851 25.1348 43.5851 28.6347V36.633C43.5851 37.9745 42.4957 39.0638 41.1543 39.0638H32.2079Z" fill="#F4F4F4"/>
<path d="M11.3984 17.842C6.61754 17.842 2.73438 13.9588 2.73438 9.178C2.73438 4.39716 6.61754 0.503906 11.3984 0.503906C16.1792 0.503906 20.0725 4.39716 20.0725 9.178C20.0725 13.9588 16.1792 17.842 11.3984 17.842ZM11.3984 3.29778C8.16072 3.29778 5.52824 5.94034 5.52824 9.178C5.52824 12.4157 8.16072 15.0481 11.3984 15.0481C14.636 15.0481 17.2786 12.4157 17.2786 9.178C17.2786 5.94034 14.636 3.29778 11.3984 3.29778Z" fill="#2CA1C7"/>
<path d="M11.3988 1.00862C15.9073 1.00862 19.5686 4.66989 19.5686 9.1784C19.5686 13.6768 15.9073 17.3381 11.3988 17.3381C6.90035 17.3381 3.23908 13.6768 3.23908 9.1784C3.23908 4.67997 6.90035 1.00862 11.3988 1.00862ZM11.3988 15.5528C14.9188 15.5528 17.7833 12.6884 17.7833 9.1784C17.7833 5.65833 14.9188 2.79387 11.3988 2.79387C7.8888 2.79387 5.02433 5.65833 5.02433 9.1784C5.02433 12.6985 7.87871 15.5528 11.3988 15.5528ZM11.3988 0C6.33553 0 2.23047 4.10506 2.23047 9.1784C2.23047 14.2416 6.33553 18.3467 11.3988 18.3467C16.4721 18.3467 20.5772 14.2416 20.5772 9.1784C20.5772 4.10506 16.4721 0 11.3988 0ZM11.3988 14.5442C8.43345 14.5442 6.03295 12.1437 6.03295 9.1784C6.03295 6.20298 8.43345 3.80248 11.3988 3.80248C14.3742 3.80248 16.7747 6.20298 16.7747 9.1784C16.7747 12.1437 14.3742 14.5442 11.3988 14.5442Z" fill="#F4F4F4"/>
<path d="M36.7578 17.842C31.9769 17.842 28.0938 13.9588 28.0938 9.178C28.0938 4.39716 31.9769 0.503906 36.7578 0.503906C41.5386 0.503906 45.4319 4.39716 45.4319 9.178C45.4319 13.9588 41.5386 17.842 36.7578 17.842ZM36.7578 3.29778C33.5201 3.29778 30.8876 5.94034 30.8876 9.178C30.8876 12.4157 33.5201 15.0481 36.7578 15.0481C39.9954 15.0481 42.638 12.4157 42.638 9.178C42.638 5.94034 39.9954 3.29778 36.7578 3.29778Z" fill="#2CA1C7"/>
<path d="M36.7582 1.00862C41.2667 1.00862 44.9279 4.66989 44.9279 9.1784C44.9279 13.6768 41.2667 17.3381 36.7582 17.3381C32.2597 17.3381 28.5985 13.6768 28.5985 9.1784C28.5985 4.67997 32.2597 1.00862 36.7582 1.00862ZM36.7582 15.5528C40.2782 15.5528 43.1427 12.6884 43.1427 9.1784C43.1427 5.65833 40.2782 2.79387 36.7582 2.79387C33.2482 2.79387 30.3837 5.65833 30.3837 9.1784C30.3837 12.6985 33.2482 15.5528 36.7582 15.5528ZM36.7582 0C31.6949 0 27.5898 4.10506 27.5898 9.1784C27.5898 14.2416 31.6949 18.3467 36.7582 18.3467C41.8315 18.3467 45.9366 14.2416 45.9366 9.1784C45.9366 4.10506 41.8315 0 36.7582 0ZM36.7582 14.5442C33.7928 14.5442 31.3923 12.1437 31.3923 9.1784C31.3923 6.20298 33.7928 3.80248 36.7582 3.80248C39.7336 3.80248 42.1341 6.20298 42.1341 9.1784C42.1341 12.1437 39.7336 14.5442 36.7582 14.5442Z" fill="#F4F4F4"/>
</svg>
