<svg width="48" height="36" viewBox="0 0 48 36" fill="none" xmlns="http://www.w3.org/2000/svg">
<path d="M16.9961 35.0835C16.4641 35.0835 15.9529 34.8748 15.5773 34.4992L1.73377 20.6661C0.930485 19.8628 0.513196 18.8718 0.523628 17.8077C0.523628 16.754 0.940918 15.763 1.68161 15.0119L15.5773 1.10569C15.9529 0.730126 16.4641 0.521484 16.9961 0.521484H44.0365C45.9351 0.521484 47.4791 2.06546 47.4791 3.96412V31.6304C47.4791 33.5291 45.9351 35.073 44.0365 35.073H16.9961V35.0835ZM18.8844 4.04757C18.0811 4.04757 17.2987 4.37097 16.7249 4.94474L5.70845 15.9612C5.21813 16.4515 4.94689 17.1087 4.94689 17.8077C4.94689 18.5066 5.21813 19.1639 5.70845 19.6542L16.7144 30.6602C17.2882 31.234 18.0602 31.5574 18.8739 31.5574H42.336C43.2332 31.5574 43.9634 30.8271 43.9634 29.9299V5.67501C43.9634 4.77784 43.2332 4.04757 42.336 4.04757H18.8844Z" fill="#2CA1C7"/>
<path d="M44.0357 1.04322C45.6527 1.04322 46.9568 2.35769 46.9568 3.96425V31.6305C46.9568 33.2475 45.6423 34.5515 44.0357 34.5515H16.9954C16.599 34.5515 16.2234 34.3951 15.9418 34.1134L12.1131 30.2848L2.09819 20.2803L2.03559 20.2385C1.38879 19.5917 1.0341 18.7258 1.0341 17.8078C1.0341 16.8898 1.38879 16.0343 2.04602 15.3875L2.10862 15.3249L12.1131 5.31L15.9418 1.48137C16.2234 1.1997 16.599 1.04322 16.9954 1.04322H44.0357ZM18.8732 32.0791H42.3353C43.5246 32.0791 44.4843 31.1193 44.4843 29.9301V5.67514C44.4843 4.48586 43.5246 3.52608 42.3353 3.52608H18.8836C17.9343 3.52608 17.0371 3.90164 16.359 4.56931L5.33218 15.5858C4.73754 16.1804 4.41414 16.9628 4.41414 17.8078C4.41414 18.6424 4.73754 19.4352 5.33218 20.0299L16.3382 31.0359C17.0163 31.7035 17.9134 32.0791 18.8732 32.0791ZM44.0357 0H16.9954C16.3277 0 15.6809 0.271229 15.2115 0.740679L11.3829 4.56931L1.37836 14.5843L1.31577 14.6468C-0.436847 16.389 -0.436847 19.2266 1.30534 20.9792L1.36793 21.0314L11.3829 31.0359L15.2115 34.8645C15.6809 35.334 16.3277 35.6052 16.9954 35.6052H44.0357C46.2265 35.6052 48 33.8317 48 31.641V3.97468C48 1.77348 46.2265 0 44.0357 0ZM18.8732 31.0359C18.2055 31.0359 17.5588 30.7646 17.0893 30.2952L6.07286 19.2892C5.25915 18.4755 5.25915 17.1401 6.07286 16.3264L17.0893 5.31C17.5588 4.84055 18.2055 4.56931 18.8732 4.56931H42.3249C42.9299 4.56931 43.4307 5.05963 43.4307 5.67514V29.9301C43.4307 30.5351 42.9404 31.0359 42.3249 31.0359H18.8732Z" fill="#F4F4F4"/>
<path d="M26.3693 19.4351C26.0354 19.1013 25.8477 18.6631 25.8477 18.1937C25.8477 17.7242 26.0354 17.2756 26.3693 16.9522C26.7031 16.6184 27.1517 16.4306 27.6211 16.4306C28.0906 16.4306 28.5392 16.6184 28.8626 16.9418L30.5109 18.5901V11.0267C30.5109 10.0565 31.3037 9.26367 32.2739 9.26367C33.2441 9.26367 34.037 10.0565 34.037 11.0267V18.7674L35.8209 16.9835C36.1547 16.6497 36.5929 16.4619 37.0727 16.4619C37.5422 16.4619 37.9908 16.6497 38.3246 16.9835C38.6584 17.3174 38.8462 17.7659 38.8462 18.2354C38.8462 18.7048 38.6584 19.1534 38.3246 19.4768L32.3678 25.4336L26.3693 19.4351Z" fill="#2CA1C7"/>
<path d="M32.2747 9.78541C32.9632 9.78541 33.5161 10.3383 33.5161 11.0268V17.5053V20.0194L35.3 18.2355L36.1972 17.3384C36.4267 17.1088 36.7397 16.9732 37.0735 16.9732C37.4073 16.9732 37.7203 17.0984 37.9498 17.3384C38.1793 17.5679 38.3149 17.8808 38.3149 18.2147C38.3149 18.5485 38.1898 18.8615 37.9498 19.091L34.8514 22.1789L32.3581 24.6722L26.7456 19.0597C26.5161 18.8302 26.3805 18.5172 26.3805 18.1834C26.3805 17.8495 26.5057 17.5366 26.7456 17.3071C26.9751 17.0775 27.2881 16.9419 27.6219 16.9419C27.9557 16.9419 28.2687 17.0671 28.4982 17.3071L29.2493 18.0582L31.0332 19.8421V17.3279V11.0268C31.0332 10.3383 31.5966 9.78541 32.2747 9.78541ZM32.2747 8.74219C31.0124 8.74219 29.99 9.76455 29.99 11.0268V17.3279L29.2389 16.5768C28.7903 16.1282 28.2061 15.9091 27.6219 15.9091C27.0377 15.9091 26.4535 16.1282 26.0049 16.5768C25.1077 17.474 25.1077 18.9136 26.0049 19.8108L32.3581 26.164L35.5921 22.93L38.6905 19.8421C39.5877 18.9554 39.5877 17.5053 38.6905 16.6081C38.2419 16.1595 37.6577 15.9404 37.0735 15.9404C36.4893 15.9404 35.9051 16.1595 35.4565 16.6081L34.5593 17.5053V11.0268C34.5593 9.76455 33.537 8.74219 32.2747 8.74219Z" fill="#F4F4F4"/>
<path d="M12.707 23.8798C9.35824 23.8798 6.625 21.1466 6.625 17.7978C6.625 14.4491 9.35824 11.7158 12.707 11.7158C16.0557 11.7158 18.789 14.4491 18.789 17.7978C18.789 21.1466 16.0662 23.8798 12.707 23.8798ZM12.707 15.5966C11.4969 15.5966 10.5058 16.5877 10.5058 17.7978C10.5058 19.0184 11.4969 20.0094 12.707 20.0094C13.9276 20.0094 14.9186 19.0184 14.9186 17.7978C14.9186 16.5877 13.9276 15.5966 12.707 15.5966Z" fill="#2CA1C7"/>
<path d="M12.7091 12.2376C15.7761 12.2376 18.2694 14.7309 18.2694 17.7979C18.2694 20.8754 15.7761 23.3583 12.7091 23.3583C9.64199 23.3583 7.14869 20.8754 7.14869 17.7979C7.14869 14.7309 9.64199 12.2376 12.7091 12.2376ZM12.7091 20.5312C14.2217 20.5312 15.4423 19.3106 15.4423 17.7979C15.4423 16.2957 14.2217 15.0751 12.7091 15.0751C11.2068 15.0751 9.98626 16.2957 9.98626 17.7979C9.98626 19.3106 11.2068 20.5312 12.7091 20.5312ZM12.7091 11.1943C9.06822 11.1943 6.10547 14.1571 6.10547 17.7979C6.10547 21.4388 9.06822 24.4015 12.7091 24.4015C16.3499 24.4015 19.3127 21.4388 19.3127 17.7979C19.3127 14.1571 16.3499 11.1943 12.7091 11.1943ZM12.7091 19.488C11.7806 19.488 11.0295 18.7264 11.0295 17.7979C11.0295 16.8695 11.7806 16.1184 12.7091 16.1184C13.6375 16.1184 14.3991 16.8695 14.3991 17.7979C14.3991 18.7368 13.648 19.488 12.7091 19.488Z" fill="#F4F4F4"/>
</svg>
