<svg width="88" height="88" viewBox="0 0 88 88" fill="none" xmlns="http://www.w3.org/2000/svg">
<circle cx="44" cy="44" r="44" fill="#FF6515"/>
<path d="M37.8398 38.28V49.69H24.3398V38.28H37.8398ZM40.8398 35.28H21.3398V52.69H40.8398V35.28Z" fill="white"/>
<path d="M40.8398 53.19H21.3398C21.0598 53.19 20.8398 52.97 20.8398 52.69V35.28C20.8398 35 21.0598 34.78 21.3398 34.78H40.8398C41.1198 34.78 41.3398 35 41.3398 35.28V52.69C41.3398 52.97 41.1198 53.19 40.8398 53.19ZM21.8398 52.19H40.3398V35.78H21.8398V52.19ZM37.8398 50.19H24.3398C24.0598 50.19 23.8398 49.97 23.8398 49.69V38.28C23.8398 38 24.0598 37.78 24.3398 37.78H37.8398C38.1198 37.78 38.3398 38 38.3398 38.28V49.69C38.3398 49.97 38.1198 50.19 37.8398 50.19ZM24.8398 49.19H37.3398V38.78H24.8398V49.19Z" fill="#FF6515"/>
<path d="M33 38H29V47H33V38Z" fill="white"/>
<path d="M32.0431 40.3923V45.6077H29.9569V40.3923H32.0431ZM33 38H29V48H33V38Z" fill="#FF6515"/>
<path d="M54.3189 30.06L48.2489 24L45.1489 27.1L42.1489 30.1C41.2889 30.96 41.2889 32.34 42.1489 33.2C43.0089 34.06 44.3889 34.06 45.2489 33.2L45.9689 32.48V61.78C45.9689 62.99 46.9489 63.97 48.1589 63.97C49.3689 63.97 50.3489 62.99 50.3489 61.78V32.3L51.2189 33.17C52.0789 34.03 53.4589 34.03 54.3189 33.17C55.1689 32.31 55.1689 30.92 54.3189 30.06Z" fill="white"/>
<path d="M48.2489 25.41L53.6089 30.77C54.0689 31.23 54.0689 31.99 53.6089 32.45C53.3889 32.67 53.0889 32.8 52.7689 32.8C52.4489 32.8 52.1489 32.68 51.9289 32.45L51.0589 31.58L49.3489 29.87V32.3V61.78C49.3489 62.44 48.8189 62.97 48.1589 62.97C47.4989 62.97 46.9689 62.44 46.9689 61.78V32.47V30.06L45.2589 31.77L44.5389 32.49C44.3189 32.71 44.0189 32.84 43.6989 32.84C43.3789 32.84 43.0789 32.72 42.8589 32.49C42.3989 32.03 42.3989 31.27 42.8589 30.81L45.8589 27.81L48.2489 25.41ZM48.2489 24L45.1489 27.1L42.1489 30.1C41.2889 30.96 41.2889 32.34 42.1489 33.2C42.5789 33.63 43.1389 33.84 43.6989 33.84C44.2589 33.84 44.8189 33.63 45.2489 33.2L45.9689 32.48V61.78C45.9689 62.99 46.9489 63.97 48.1589 63.97C49.3689 63.97 50.3489 62.99 50.3489 61.78V32.3L51.2189 33.17C51.6489 33.6 52.2089 33.81 52.7689 33.81C53.3289 33.81 53.8889 33.6 54.3189 33.17C55.1789 32.31 55.1789 30.93 54.3189 30.07L48.2489 24Z" fill="#FF6515"/>
<path d="M67.0589 57.9L60.9989 63.97L57.8989 60.87L54.8989 57.87C54.0389 57.01 54.0389 55.63 54.8989 54.77C55.7589 53.91 57.1389 53.91 57.9989 54.77L58.7189 55.49V26.19C58.7189 24.98 59.6989 24 60.9089 24C62.1189 24 63.0989 24.98 63.0989 26.19V55.67L63.9689 54.8C64.8289 53.94 66.2089 53.94 67.0689 54.8C67.9189 55.66 67.9189 57.05 67.0589 57.9Z" fill="white"/>
<path d="M60.9089 25C61.5689 25 62.0989 25.53 62.0989 26.19V55.67V58.08L63.8089 56.37L64.6789 55.5C64.8989 55.28 65.1989 55.15 65.5189 55.15C65.8389 55.15 66.1389 55.27 66.3589 55.5C66.8189 55.96 66.8189 56.72 66.3589 57.18L60.9989 62.55L58.6089 60.16L55.6089 57.16C55.1489 56.7 55.1489 55.94 55.6089 55.48C55.8289 55.26 56.1289 55.13 56.4489 55.13C56.7689 55.13 57.0689 55.25 57.2889 55.48L58.0089 56.2L59.7189 57.91V55.5V26.19C59.7189 25.53 60.2489 25 60.9089 25ZM60.9089 24C59.6989 24 58.7189 24.98 58.7189 26.19V55.49L57.9989 54.77C57.5689 54.34 57.0089 54.13 56.4489 54.13C55.8889 54.13 55.3289 54.34 54.8989 54.77C54.0389 55.63 54.0389 57.01 54.8989 57.87L57.8989 60.87L60.9989 63.97L67.0589 57.91C67.9189 57.05 67.9189 55.67 67.0589 54.81C66.6289 54.38 66.0689 54.17 65.5089 54.17C64.9489 54.17 64.3889 54.38 63.9589 54.81L63.0889 55.68V26.19C63.0989 24.98 62.1189 24 60.9089 24Z" fill="#FF6515"/>
</svg>
