<svg width="88" height="88" viewBox="0 0 88 88" fill="none" xmlns="http://www.w3.org/2000/svg">
<circle cx="44" cy="44" r="44" fill="#FF6515"/>
<path d="M44.3108 50.72C45.0008 50.72 45.5708 51.28 45.5708 51.98C45.5708 52.68 45.0108 53.24 44.3108 53.24C43.6208 53.24 43.0508 52.68 43.0508 51.98C43.0508 51.28 43.6208 50.72 44.3108 50.72ZM44.3108 47.72C41.9608 47.72 40.0508 49.63 40.0508 51.98C40.0508 54.33 41.9608 56.24 44.3108 56.24C46.6608 56.24 48.5708 54.33 48.5708 51.98C48.5708 49.63 46.6608 47.72 44.3108 47.72Z" fill="white" stroke="#FF6515" stroke-linecap="round" stroke-linejoin="round"/>
<path d="M63.0605 25.48V52.68H54.0905C54.2205 50.85 53.8305 48.99 52.9205 47.31C51.2005 44.14 47.9005 42.17 44.3105 42.17C40.7205 42.17 37.4205 44.14 35.7005 47.31C34.7905 48.99 34.4005 50.85 34.5305 52.68H25.4805V25.48H63.0605ZM64.7805 22.48H23.7605C23.0505 22.48 22.4805 23.06 22.4805 23.76V54.4C22.4805 55.11 23.0505 55.68 23.7605 55.68H38.6005C35.6705 51.18 38.9205 45.17 44.3105 45.17C49.7005 45.17 52.9505 51.18 50.0205 55.68H64.7805C65.4905 55.68 66.0605 55.11 66.0605 54.4V23.76C66.0605 23.06 65.4905 22.48 64.7805 22.48Z" fill="white" stroke="#FF6515" stroke-linecap="round" stroke-linejoin="round"/>
<path d="M39.7537 30.35C38.8437 30.35 38.0938 29.61 38.0938 28.69C38.0938 27.78 38.8337 27.04 39.7537 27.04H48.9937C49.9037 27.04 50.6437 27.78 50.6437 28.69C50.6437 29.6 49.9037 30.35 48.9937 30.35H39.7537Z" fill="white"/>
<path d="M48.982 27.55C49.612 27.55 50.132 28.07 50.132 28.7C50.132 29.34 49.612 29.8601 48.982 29.8601H39.742C39.112 29.8601 38.582 29.34 38.582 28.7C38.582 28.07 39.102 27.55 39.742 27.55H48.982ZM48.982 26.55H39.742C38.552 26.55 37.582 27.51 37.582 28.7C37.582 29.89 38.552 30.8601 39.742 30.8601H48.982C50.162 30.8601 51.132 29.89 51.132 28.7C51.132 27.51 50.172 26.55 48.982 26.55Z" fill="#FF6515"/>
<path d="M32.8202 35.4499C31.9102 35.4499 31.1602 34.7099 31.1602 33.7899C31.1602 32.8799 31.9002 32.1399 32.8202 32.1399H55.9002C56.8102 32.1399 57.5502 32.8799 57.5502 33.7899C57.5502 34.6999 56.8102 35.4499 55.9002 35.4499H32.8202Z" fill="white"/>
<path d="M55.9002 32.6499C56.5302 32.6499 57.0502 33.1699 57.0502 33.7999C57.0502 34.4399 56.5302 34.9599 55.9002 34.9599H32.8202C32.1902 34.9599 31.6602 34.4399 31.6602 33.7999C31.6602 33.1699 32.1802 32.6499 32.8202 32.6499H55.9002ZM55.9002 31.6499H32.8202C31.6302 31.6499 30.6602 32.6099 30.6602 33.7999C30.6602 34.9899 31.6302 35.9599 32.8202 35.9599H55.9002C57.0802 35.9599 58.0502 34.9899 58.0502 33.7999C58.0502 32.6099 57.0902 31.6499 55.9002 31.6499Z" fill="#FF6515"/>
<path d="M32.8202 40.07C31.9102 40.07 31.1602 39.33 31.1602 38.41C31.1602 37.49 31.9002 36.75 32.8202 36.75H55.9002C56.8102 36.75 57.5502 37.49 57.5502 38.41C57.5502 39.33 56.8102 40.07 55.9002 40.07H32.8202Z" fill="white"/>
<path d="M55.9002 37.26C56.5302 37.26 57.0502 37.78 57.0502 38.42C57.0502 39.05 56.5302 39.58 55.9002 39.58H32.8202C32.1902 39.58 31.6602 39.06 31.6602 38.42C31.6602 37.78 32.1802 37.26 32.8202 37.26H55.9002ZM55.9002 36.26H32.8202C31.6302 36.26 30.6602 37.23 30.6602 38.42C30.6602 39.61 31.6302 40.58 32.8202 40.58H55.9002C57.0802 40.58 58.0502 39.61 58.0502 38.42C58.0502 37.22 57.0902 36.26 55.9002 36.26Z" fill="#FF6515"/>
<path d="M42.2305 61.5601L42.2405 61.5701" stroke="#FF6515" stroke-linecap="round" stroke-linejoin="round"/>
<path d="M44.3105 58.7899C42.4505 58.7899 40.5905 58.0299 39.2305 56.4999V64.7799C39.2305 65.5299 39.8405 66.0599 40.5105 66.0599C40.7505 66.0599 40.9905 65.9999 41.2105 65.8499L44.3605 63.7599L47.5005 65.8499C47.7205 65.9999 47.9705 66.0599 48.2005 66.0599C48.8605 66.0599 49.4905 65.5399 49.4905 64.7799V56.3999C48.1205 57.9899 46.2205 58.7899 44.3105 58.7899Z" fill="white" stroke="#FF6515" stroke-linecap="round" stroke-linejoin="round"/>
</svg>
