<svg width="88" height="88" viewBox="0 0 88 88" fill="none" xmlns="http://www.w3.org/2000/svg">
<circle cx="44" cy="44" r="44" fill="#FF6515"/>
<path d="M46.1389 65.9801C45.9989 65.9801 45.8589 65.9701 45.7189 65.9401C44.6689 65.7101 44.0089 64.6701 44.2389 63.6201L47.9289 46.8601H41.0189C39.9789 46.8601 39.1289 46.0101 39.1289 44.9601V42.3701C39.1289 42.1101 39.3289 41.9001 39.5789 41.8701C40.2989 41.8001 40.9489 41.4701 41.4089 40.9301L42.0389 40.2001C42.1389 40.0901 42.2789 40.0201 42.4189 40.0201C42.4789 40.0201 42.5389 40.0301 42.5889 40.0501C42.7889 40.1201 42.9189 40.3101 42.9189 40.5201V43.0701H62.3089V25.8501H42.9189V31.5701C42.9189 31.8101 42.7589 32.0101 42.5289 32.0601C41.9289 32.1901 41.4089 32.5001 41.0189 32.9501L40.0089 34.1301C39.9089 34.2401 39.7689 34.3001 39.6289 34.3001C39.5689 34.3001 39.5089 34.2901 39.4589 34.2701C39.2589 34.2001 39.1289 34.0101 39.1289 33.8001V23.9601C39.1289 22.9101 39.9789 22.0601 41.0189 22.0601H64.1989C65.2389 22.0601 66.0989 22.9101 66.0989 23.9601V44.9701C66.0989 46.0101 65.2489 46.8701 64.1989 46.8701H57.3789L61.0689 63.6301C61.1789 64.1401 61.0889 64.6601 60.8089 65.0901C60.5289 65.5201 60.0989 65.8301 59.5889 65.9401C59.4489 65.9701 59.3089 65.9801 59.1689 65.9801C58.2589 65.9801 57.4689 65.3401 57.2689 64.4601L53.3889 46.8701H51.8889L48.0089 64.4601C47.8489 65.3401 47.0489 65.9801 46.1389 65.9801Z" fill="white"/>
<path d="M64.2089 22.5601C64.9789 22.5601 65.5989 23.1901 65.6089 23.9601V44.9701C65.6089 45.7401 64.9889 46.3601 64.2189 46.3601H56.7789L60.5989 63.7201C60.7689 64.5001 60.2789 65.2701 59.4989 65.4401C59.3989 65.4601 59.2889 65.4701 59.1889 65.4701C58.5289 65.4701 57.9289 65.0101 57.7789 64.3401L53.8189 46.3501H51.5189L47.5589 64.3401C47.4089 65.0101 46.8089 65.4701 46.1489 65.4701C46.0489 65.4701 45.9389 65.4601 45.8389 65.4401C45.0589 65.2701 44.5689 64.5001 44.7389 63.7201L48.5589 46.3601H41.0289C40.2589 46.3601 39.6389 45.7401 39.6389 44.9701V42.3801C40.4789 42.3001 41.2489 41.9001 41.7989 41.2601L42.4289 40.5301V43.5801H62.8189V25.3601H42.4189V31.5801C41.7489 31.7201 41.1189 32.0701 40.6389 32.6301L39.6289 33.8101V23.9701C39.6289 23.2001 40.2489 22.5701 41.0189 22.5701H64.2089V22.5601ZM64.2089 21.5601H41.0289C39.7089 21.5601 38.6389 22.6301 38.6389 23.9601V33.8001C38.6389 34.2201 38.8989 34.5901 39.2889 34.7401C39.3989 34.7801 39.5189 34.8001 39.6389 34.8001C39.9289 34.8001 40.2089 34.6801 40.3989 34.4501L41.4089 33.2701C41.7189 32.9001 42.1489 32.6501 42.6389 32.5501C43.0989 32.4501 43.4289 32.0401 43.4289 31.5701V26.3501H61.8189V42.5701H43.4189V40.5201C43.4189 40.1001 43.1589 39.7301 42.7689 39.5801C42.6589 39.5401 42.5389 39.5201 42.4189 39.5201C42.1289 39.5201 41.8489 39.6401 41.6589 39.8701L41.0289 40.6001C40.6489 41.0401 40.1189 41.3201 39.5389 41.3701C39.0289 41.4201 38.6289 41.8501 38.6289 42.3701V44.9601C38.6289 46.2801 39.6989 47.3501 41.0189 47.3501H47.2989L43.7389 63.5001C43.4489 64.8201 44.2889 66.1201 45.5989 66.4101C45.7689 66.4501 45.9489 66.4701 46.1189 66.4701C47.2589 66.4701 48.2589 65.6601 48.5089 64.5501L52.2989 47.3501H52.9989L56.7889 64.5501C57.0289 65.6601 58.0389 66.4701 59.1689 66.4701C59.3489 66.4701 59.5289 66.4501 59.6989 66.4101C60.3389 66.2701 60.8789 65.8901 61.2389 65.3401C61.5889 64.7901 61.7089 64.1401 61.5589 63.5001L57.9989 47.3501H64.1889C65.5089 47.3501 66.5789 46.2801 66.5789 44.9601V23.9501C66.5989 22.6301 65.5289 21.5601 64.2089 21.5601Z" fill="#FF6515"/>
<path d="M38.2022 41.1301C37.8922 41.1301 37.5922 41.0201 37.3522 40.8201L36.2422 39.8701V36.4401L37.6822 37.6701C37.7722 37.7501 37.8922 37.7901 38.0122 37.7901C38.0222 37.7901 38.0422 37.7901 38.0522 37.7901C38.1822 37.7801 38.3122 37.7201 38.3922 37.6201L41.0022 34.5801C41.2522 34.2901 41.6122 34.1301 41.9922 34.1301C42.2822 34.1301 42.5622 34.2201 42.7922 34.4001C42.8822 34.4701 42.9922 34.5001 43.1022 34.5001C43.1622 34.5001 43.2122 34.4901 43.2722 34.4701L51.4922 31.5701L44.9522 35.4901L42.4522 36.9501C42.4022 36.9801 42.3622 37.0101 42.3222 37.0601L39.2222 40.6901C38.9422 40.9601 38.5822 41.1301 38.2022 41.1301Z" fill="white"/>
<path d="M33.2582 64.98C33.0282 64.98 32.8082 64.93 32.5982 64.84C32.7982 64.35 32.9082 63.84 32.9082 63.32V50.42C32.9082 50.14 32.6882 49.92 32.4082 49.92H30.9582C30.6782 49.92 30.4582 50.14 30.4582 50.42V63.32C30.4582 64.24 29.7082 64.98 28.7982 64.98C27.8882 64.98 27.1382 64.23 27.1382 63.32C27.1382 55.85 27.1282 48.79 27.1182 46.68C27.3082 46.71 27.5082 46.73 27.7082 46.73C28.6282 46.73 29.5082 46.39 30.1882 45.78C31.7282 44.4 31.8582 42.03 30.4782 40.49L28.5882 38.38L30.5582 35.7C30.7082 35.49 30.6782 35.21 30.4882 35.03C30.3982 34.94 30.2682 34.9 30.1482 34.9C30.0282 34.9 29.9082 34.94 29.8182 35.03L26.0182 38.43C25.9182 38.52 25.8582 38.64 25.8482 38.78C25.8382 38.91 25.8882 39.04 25.9782 39.14L28.6482 42.13C28.8782 42.39 28.9982 42.72 28.9782 43.07C28.9582 43.42 28.8082 43.74 28.5482 43.97C28.3082 44.18 27.9982 44.3 27.6782 44.3C27.3082 44.3 26.9482 44.14 26.7082 43.87L22.8282 39.54C22.5982 39.28 22.4782 38.94 22.4982 38.6C22.5182 38.25 22.6682 37.93 22.9282 37.7L27.6882 33.32C28.3482 32.46 29.2582 32 30.2382 32H31.7982C33.5282 32 34.9282 33.4 34.9282 35.13V63.34C34.9182 64.23 34.1782 64.98 33.2582 64.98Z" fill="white"/>
<path d="M31.0208 30.17C30.4408 30.17 29.8708 30.02 29.3208 29.74C28.0708 29.09 27.3008 27.84 27.3008 26.45C27.3008 24.4 28.9708 22.73 31.0208 22.73C33.0708 22.73 34.7408 24.4 34.7408 26.45C34.7408 27.83 33.9708 29.09 32.7208 29.74C32.1708 30.02 31.5908 30.17 31.0208 30.17Z" fill="white"/>
<path d="M31.0208 23.23C32.7908 23.23 34.2408 24.67 34.2408 26.45C34.2408 27.64 33.5708 28.73 32.4908 29.29C32.0108 29.54 31.5208 29.67 31.0208 29.67C30.5308 29.67 30.0308 29.54 29.5508 29.29C28.4708 28.73 27.8008 27.64 27.8008 26.45C27.8008 24.67 29.2408 23.23 31.0208 23.23ZM31.0208 22.23C28.6908 22.23 26.8008 24.12 26.8008 26.45C26.8008 28.08 27.7308 29.48 29.0908 30.18C29.6708 30.48 30.3208 30.67 31.0208 30.67C31.7208 30.67 32.3708 30.48 32.9508 30.18C34.3008 29.48 35.2408 28.08 35.2408 26.45C35.2408 24.12 33.3508 22.23 31.0208 22.23Z" fill="#FF6515"/>
</svg>
