<svg width="88" height="88" viewBox="0 0 88 88" fill="none" xmlns="http://www.w3.org/2000/svg">
<circle cx="44" cy="44" r="44" fill="#FF6515"/>
<path d="M57.4608 53.8101L63.5208 47.7501L60.4208 44.6501L57.4208 41.6501C56.5608 40.7901 55.1808 40.7901 54.3208 41.6501C53.4608 42.5101 53.4608 43.8901 54.3208 44.7501L55.0408 45.4701H25.7408C24.5308 45.4701 23.5508 46.4501 23.5508 47.6601C23.5508 48.8701 24.5308 49.8501 25.7408 49.8501H55.2208L54.3508 50.7201C53.4908 51.5801 53.4908 52.9601 54.3508 53.8201C55.2208 54.6701 56.6008 54.6701 57.4608 53.8101Z" fill="white"/>
<path d="M62.1108 47.7501L56.7508 53.1101C56.2908 53.5701 55.5308 53.5701 55.0708 53.1101C54.8508 52.8901 54.7208 52.5901 54.7208 52.2701C54.7208 51.9501 54.8408 51.6501 55.0708 51.4301L55.9408 50.5601L57.6508 48.8501H55.2408H25.7508C25.0908 48.8501 24.5608 48.3201 24.5608 47.6601C24.5608 47.0001 25.0908 46.4701 25.7508 46.4701H55.0508H57.4608L55.7508 44.7601L55.0308 44.0401C54.8108 43.8201 54.6808 43.5201 54.6808 43.2001C54.6808 42.8801 54.8008 42.5801 55.0308 42.3601C55.4908 41.9001 56.2508 41.9001 56.7108 42.3601L59.7108 45.3601L62.1108 47.7501ZM63.5208 47.7501L60.4208 44.6501L57.4208 41.6501C56.5608 40.7901 55.1808 40.7901 54.3208 41.6501C53.8908 42.0801 53.6808 42.6401 53.6808 43.2001C53.6808 43.7601 53.8908 44.3201 54.3208 44.7501L55.0408 45.4701H25.7408C24.5308 45.4701 23.5508 46.4501 23.5508 47.6601C23.5508 48.8701 24.5308 49.8501 25.7408 49.8501H55.2208L54.3508 50.7201C53.9208 51.1501 53.7108 51.7101 53.7108 52.2701C53.7108 52.8301 53.9208 53.3901 54.3508 53.8201C55.2108 54.6801 56.5908 54.6801 57.4508 53.8201L63.5208 47.7501Z" fill="#FF6515"/>
<path d="M29.6225 63.18L23.5625 57.12L26.6625 54.02L29.6625 51.02C30.5225 50.16 31.9025 50.16 32.7625 51.02C33.6225 51.88 33.6225 53.26 32.7625 54.12L32.0425 54.84H61.3425C62.5525 54.84 63.5325 55.82 63.5325 57.03C63.5325 58.24 62.5525 59.22 61.3425 59.22H31.8525L32.7225 60.09C33.5825 60.95 33.5825 62.33 32.7225 63.19C31.8625 64.04 30.4825 64.04 29.6225 63.18Z" fill="white"/>
<path d="M62.5208 57.03C62.5208 57.69 61.9908 58.22 61.3308 58.22H31.8508H29.4408L31.1508 59.93L32.0208 60.8C32.2408 61.02 32.3708 61.32 32.3708 61.64C32.3708 61.96 32.2508 62.26 32.0208 62.48C31.5608 62.94 30.8008 62.94 30.3408 62.48L24.9808 57.12L27.3708 54.73L30.3708 51.73C30.8308 51.27 31.5908 51.27 32.0508 51.73C32.2708 51.95 32.4008 52.25 32.4008 52.57C32.4008 52.89 32.2808 53.19 32.0508 53.41L31.3308 54.13L29.6208 55.84H32.0308H61.3308C61.9908 55.84 62.5208 56.38 62.5208 57.03ZM63.5208 57.03C63.5208 55.82 62.5408 54.84 61.3308 54.84H32.0308L32.7508 54.12C33.1808 53.69 33.3908 53.13 33.3908 52.57C33.3908 52.01 33.1808 51.45 32.7508 51.02C31.8908 50.16 30.5108 50.16 29.6508 51.02L26.6508 54.02L23.5508 57.12L29.6108 63.18C30.4708 64.04 31.8508 64.04 32.7108 63.18C33.1408 62.75 33.3508 62.19 33.3508 61.63C33.3508 61.07 33.1408 60.51 32.7108 60.08L31.8408 59.21H61.3208C62.5408 59.22 63.5208 58.24 63.5208 57.03Z" fill="#FF6515"/>
<path d="M50.5086 35.0502V36.8602C50.5086 36.8902 50.4986 36.9302 50.4986 36.9602C50.4786 37.0502 50.4486 37.1102 50.4486 37.1102L50.4186 37.1202L50.3886 37.1302C48.3186 38.1502 45.9486 38.6802 43.5286 38.6802C41.1186 38.6802 38.7386 38.1402 36.6386 37.1202C36.6186 37.1102 36.5886 37.0502 36.5686 36.9902C36.5586 36.9502 36.5586 36.9102 36.5586 36.8802V35.0302L42.6986 36.7802L43.5286 37.0202L44.3586 36.7802L50.5086 35.0502ZM34.6686 31.4202C34.0786 31.4202 33.5586 31.9002 33.5586 32.5302V36.9002C33.5586 37.0802 33.5786 37.2802 33.5986 37.4502C33.7586 38.4702 34.3986 39.4002 35.3286 39.8502C37.8386 41.0702 40.6686 41.7102 43.5386 41.7102C46.4086 41.7102 49.2386 41.0702 51.7186 39.8502C52.7186 39.3802 53.3186 38.4102 53.4686 37.4102C53.4886 37.2302 53.5086 37.0802 53.5086 36.9002V32.5302C53.5086 32.1802 53.3486 31.8602 53.0686 31.6402C52.8786 31.5002 52.6386 31.4202 52.3886 31.4202C52.2886 31.4202 52.1886 31.4302 52.0886 31.4602L43.5286 33.9002L34.9686 31.4602C34.8786 31.4302 34.7686 31.4202 34.6686 31.4202Z" fill="white" stroke="#FF6515" stroke-linecap="round" stroke-linejoin="round"/>
<path d="M43.5391 28.1601L52.1391 30.6201L43.5391 33.0801L34.9391 30.6201L43.5391 28.1601ZM43.5391 25.0701C43.4291 25.0701 43.3191 25.0701 43.2291 25.1101L27.7091 29.5501C26.6491 29.8601 26.6491 31.3701 27.7091 31.6801L43.2291 36.1201C43.3191 36.1601 43.4291 36.1601 43.5391 36.1601C43.6491 36.1601 43.7591 36.1601 43.8491 36.1201L59.3691 31.6801C60.4291 31.3701 60.4291 29.8601 59.3691 29.5501L43.8491 25.1101C43.7591 25.0701 43.6491 25.0701 43.5391 25.0701Z" fill="white" stroke="#FF6515" stroke-linecap="round" stroke-linejoin="round"/>
</svg>
