<svg width="88" height="88" viewBox="0 0 88 88" fill="none" xmlns="http://www.w3.org/2000/svg">
<circle cx="44" cy="44" r="44" fill="#FF6515"/>
<g clip-path="url(#clip0)">
<path d="M49.4714 55.4401L45.7714 47.7201C45.6914 47.5401 45.5114 47.4401 45.3214 47.4401C45.2814 47.4401 45.2514 47.4401 45.2114 47.4501C44.9814 47.5001 44.8214 47.7001 44.8214 47.9401V55.4401H41.4414V39.3401H45.5014L48.7314 46.0801C48.8114 46.2601 48.9914 46.3601 49.1814 46.3601C49.2214 46.3601 49.2514 46.3601 49.2914 46.3501C49.5214 46.3001 49.6814 46.1001 49.6814 45.8601V39.3401H53.0614V55.4401H49.4714Z" fill="white"/>
<path d="M52.5497 39.8401V54.9401H49.7797L46.2097 47.5101C46.0397 47.1601 45.6897 46.9401 45.3097 46.9401C45.2397 46.9401 45.1597 46.9501 45.0897 46.9701C44.6297 47.0701 44.3097 47.4801 44.3097 47.9501V54.9501H41.9297V39.8501H45.1697L48.2697 46.3001C48.4397 46.6501 48.7897 46.8701 49.1697 46.8701C49.2397 46.8701 49.3197 46.8601 49.3897 46.8401C49.8497 46.7401 50.1697 46.3301 50.1697 45.8601V39.8401H52.5497ZM53.5497 38.8401H49.1697V45.8601L45.7997 38.8401H40.9297V55.9401H45.3097V47.9401L49.1497 55.9401H53.5497V38.8401Z" fill="#FF6515"/>
<path d="M27.9609 55.4501V39.3201H37.3909V42.7001H31.8409C31.5609 42.7001 31.3409 42.9201 31.3409 43.2001V45.1901C31.3409 45.4701 31.5609 45.6901 31.8409 45.6901H37.3909V49.0701H31.8409C31.5609 49.0701 31.3409 49.2901 31.3409 49.5701V51.5601C31.3409 51.8401 31.5609 52.0601 31.8409 52.0601H37.3909V55.4401H27.9609V55.4501Z" fill="white"/>
<path d="M36.8909 39.8301V42.2101H31.8409C31.2909 42.2101 30.8409 42.6601 30.8409 43.2101V45.2001C30.8409 45.7501 31.2909 46.2001 31.8409 46.2001H36.8909V48.5801H31.8409C31.2909 48.5801 30.8409 49.0301 30.8409 49.5801V51.5701C30.8409 52.1201 31.2909 52.5701 31.8409 52.5701H36.8909V54.9501H31.8409H28.4609V51.5701V49.5801V45.2001V43.2101V39.8301H36.8909ZM37.8909 38.8301H27.4609V43.2101V45.2001V49.5801V51.5701V55.9501H31.8409H37.8909V51.5701H31.8409V49.5801H37.8909V45.2001H31.8409V43.2101H37.8909V38.8301Z" fill="#FF6515"/>
<path d="M55.0305 29.8601V64.9301H25.9805V29.8601H27.6105H55.0305ZM64.5405 20.3501H30.8705C30.0405 20.3501 28.8905 20.8301 28.3005 21.4101L23.5405 26.1701C22.9605 26.7601 22.4805 27.9101 22.4805 28.7401V66.9201C22.4805 67.7501 23.1605 68.4201 23.9805 68.4201H58.5305V26.3501H27.6105L30.6105 23.3501H61.5405V62.4101H64.5405V20.3501Z" fill="white" stroke="#FF6515" stroke-linecap="round" stroke-linejoin="round"/>
</g>
<defs>
<clipPath id="clip0">
<rect width="48" height="48" fill="white" transform="translate(20 20)"/>
</clipPath>
</defs>
</svg>
