<svg width="88" height="88" viewBox="0 0 88 88" fill="none" xmlns="http://www.w3.org/2000/svg">
<circle cx="44" cy="44" r="44" fill="#FF6515"/>
<g clip-path="url(#clip0)">
<path d="M55.6469 64.0399C55.0369 64.0399 54.5469 63.5499 54.5469 62.9399V54.4399H56.7469V62.9399C56.7469 63.5499 56.2569 64.0399 55.6469 64.0399Z" fill="white"/>
<path d="M56.2469 54.9399V62.9399C56.2469 63.2699 55.9769 63.5399 55.6469 63.5399C55.3169 63.5399 55.0469 63.2699 55.0469 62.9399V54.9399H56.2469ZM57.2469 53.9399H54.0469V62.9399C54.0469 63.8199 54.7669 64.5399 55.6469 64.5399C56.5269 64.5399 57.2469 63.8199 57.2469 62.9399V53.9399Z" fill="#FF6515"/>
<path d="M52.4494 61.7599C51.8494 61.7599 51.3594 61.2699 51.3594 60.6599V54.4399H53.5494V60.6599C53.5494 61.2699 53.0594 61.7599 52.4494 61.7599Z" fill="white"/>
<path d="M53.0494 54.94V60.66C53.0494 60.99 52.7794 61.26 52.4494 61.26C52.1194 61.26 51.8594 60.99 51.8594 60.66V54.94H53.0494ZM50.8694 53.77C50.8594 53.8 50.8594 53.84 50.8594 53.88V60.66C50.8594 61.54 51.5694 62.26 52.4494 62.26C53.3394 62.26 54.0494 61.54 54.0494 60.66V53.94H50.8694V53.77Z" fill="#FF6515"/>
<path d="M49.268 60.4399C48.658 60.4399 48.168 59.9499 48.168 59.3399V54.4399H50.368V59.3399C50.328 59.9999 49.848 60.4399 49.268 60.4399Z" fill="white"/>
<path d="M49.868 54.94V59.31C49.868 59.34 49.858 59.36 49.858 59.39C49.838 59.7 49.578 59.94 49.268 59.94C48.938 59.94 48.668 59.67 48.668 59.34V54.94H49.868ZM50.868 53.77C50.858 53.8 50.858 53.84 50.858 53.88V53.94H47.668V59.34C47.668 60.23 48.388 60.94 49.268 60.94C50.108 60.94 50.808 60.29 50.858 59.45C50.868 59.42 50.868 59.38 50.868 59.34V53.77Z" fill="#FF6515"/>
<path d="M56.298 43.54V43.64L56.458 44.15L56.558 44.48L57.288 46.85C57.588 47.81 58.088 48.7 58.728 49.46C58.578 49.57 58.428 49.7 58.288 49.83C58.088 50.02 57.918 50.22 57.758 50.44H57.248H54.368V43.54H56.298ZM59.798 40.04H49.278V43.47L48.038 48.63L47.668 50.19V53.94H50.858V53.88C50.858 53.84 50.858 53.8 50.868 53.77V53.94H57.248V61.53C57.248 62.4 57.948 63.1 58.808 63.1H58.878C59.738 63.1 60.438 62.4 60.438 61.53V52.99C60.438 52.47 60.858 52.11 61.318 52.11C61.478 52.11 61.648 52.16 61.798 52.26L62.848 52.96C63.218 53.22 63.668 53.35 64.128 53.35C64.718 53.35 65.308 53.14 65.718 52.72C66.448 51.99 66.358 50.89 65.518 50.29L62.148 47.89C61.428 47.38 60.898 46.64 60.628 45.79L59.908 43.45L59.798 43.1V40.04Z" fill="white" stroke="#FF6515" stroke-linecap="round" stroke-linejoin="round"/>
<path d="M50.8694 53.77C50.8594 53.8 50.8594 53.84 50.8594 53.88V53.94H50.8694V53.77Z" fill="white"/>
<path d="M50.8694 53.77C50.8594 53.8 50.8594 53.84 50.8594 53.88V53.94H50.8694V53.77Z" fill="#FF6515"/>
<path d="M55.4297 33.16V30.96H63.9297C64.5397 30.96 65.0297 31.45 65.0297 32.06C65.0297 32.67 64.5397 33.16 63.9297 33.16H55.4297Z" fill="white"/>
<path d="M63.9297 31.46C64.2597 31.46 64.5297 31.73 64.5297 32.06C64.5297 32.39 64.2597 32.66 63.9297 32.66H55.9297V31.46H63.9297ZM63.9297 30.46H54.9297V33.66H63.9297C64.8197 33.66 65.5297 32.94 65.5297 32.06C65.5297 31.18 64.8197 30.46 63.9297 30.46Z" fill="#FF6515"/>
<path d="M55.4297 36.3499V34.1599H61.6497C62.2597 34.1599 62.7497 34.6499 62.7497 35.2499C62.7497 35.8699 62.2697 36.3499 61.6497 36.3499H55.4297Z" fill="white"/>
<path d="M61.6478 34.6599C61.9878 34.6599 62.2478 34.9199 62.2478 35.2499C62.2478 35.5899 61.9878 35.8499 61.6478 35.8499H55.9278V34.6599H61.6478ZM61.6478 33.6599H54.9278V36.8399H54.7578C54.7878 36.8499 54.8278 36.8499 54.8678 36.8499H61.6478C62.5378 36.8499 63.2478 36.1399 63.2478 35.2499C63.2478 34.3699 62.5378 33.6599 61.6478 33.6599Z" fill="#FF6515"/>
<path d="M55.4297 39.5401V37.3401H60.3397C60.9897 37.3801 61.4297 37.8601 61.4297 38.4401C61.4297 39.0501 60.9397 39.5401 60.3397 39.5401H55.4297Z" fill="white"/>
<path d="M60.3078 37.8401C60.3378 37.8401 60.3578 37.8501 60.3878 37.8501C60.6878 37.8701 60.9278 38.1301 60.9278 38.4401C60.9278 38.7701 60.6678 39.0401 60.3378 39.0401H55.9278V37.8401H60.3078ZM60.3378 36.8401H54.7578C54.7878 36.8501 54.8278 36.8501 54.8678 36.8501H54.9278V40.0401H60.3378C61.2178 40.0401 61.9278 39.3201 61.9278 38.4401C61.9278 37.6001 61.2778 36.9001 60.4478 36.8501C60.4178 36.8401 60.3778 36.8401 60.3378 36.8401Z" fill="#FF6515"/>
<path d="M50.4591 28.98C50.7291 29.35 51.0591 29.68 51.4391 29.94V30.46V33.34H44.5491V31.39H44.5691L44.9891 31.29L45.0791 31.27L45.1691 31.24L47.8591 30.42C48.8191 30.11 49.6991 29.62 50.4591 28.98ZM52.5691 21.5C52.0891 21.5 51.6091 21.74 51.2791 22.19L48.8891 25.55C48.3691 26.28 47.6291 26.81 46.7791 27.08L44.1291 27.89L44.0891 27.9H41.0391V38.43H44.4591L46.3591 38.89L51.1791 40.04H54.9291V36.85H54.8691C54.8291 36.85 54.7891 36.85 54.7591 36.84H54.9291V30.46H62.5191C63.3891 30.46 64.0891 29.76 64.0891 28.9V28.83C64.0891 27.97 63.3891 27.26 62.5191 27.26H53.9791C53.2791 27.26 52.8691 26.49 53.2491 25.91L53.9491 24.86C54.5491 24.01 54.4491 22.72 53.7091 21.99C53.3791 21.66 52.9791 21.5 52.5691 21.5Z" fill="white" stroke="#FF6515" stroke-linecap="round" stroke-linejoin="round"/>
<path d="M54.9278 36.8401H54.7578C54.7878 36.8501 54.8278 36.8501 54.8678 36.8501L54.9278 36.8401Z" fill="white"/>
<path d="M54.9278 36.8401H54.7578C54.7878 36.8501 54.8278 36.8501 54.8678 36.8501L54.9278 36.8401Z" fill="#FF6515"/>
<path d="M31.957 33.0099V24.5099C31.957 23.8999 32.447 23.4099 33.057 23.4099C33.677 23.4099 34.157 23.8899 34.157 24.5099V33.0099H31.957Z" fill="white"/>
<path d="M33.057 23.9099C33.397 23.9099 33.657 24.1699 33.657 24.5099V32.5099H32.457V24.5099C32.457 24.1799 32.727 23.9099 33.057 23.9099ZM33.057 22.9099C32.177 22.9099 31.457 23.6199 31.457 24.5099V33.5099H34.657V24.5099C34.657 23.6199 33.947 22.9099 33.057 22.9099Z" fill="#FF6515"/>
<path d="M35.1602 33.0099V26.7899C35.1602 26.1799 35.6502 25.6899 36.2602 25.6899C36.8702 25.6899 37.3602 26.1799 37.3602 26.7899V33.0099H35.1602Z" fill="white"/>
<path d="M36.2602 26.1899C36.5902 26.1899 36.8602 26.4599 36.8602 26.7899V32.5099H35.6602V26.7899C35.6602 26.4599 35.9302 26.1899 36.2602 26.1899ZM36.2602 25.1899C35.3802 25.1899 34.6602 25.8999 34.6602 26.7899V33.5099H37.8502V33.6799C37.8602 33.6499 37.8602 33.6099 37.8602 33.5699V26.7899C37.8602 25.8999 37.1402 25.1899 36.2602 25.1899Z" fill="#FF6515"/>
<path d="M38.3477 33.01V28.11C38.3877 27.45 38.8577 27.01 39.4477 27.01C40.0477 27.01 40.5377 27.5 40.5377 28.11V33.01H38.3477Z" fill="white"/>
<path d="M39.4477 27.51C39.7777 27.51 40.0377 27.77 40.0377 28.11V32.51H38.8477V28.14C38.8477 28.11 38.8577 28.09 38.8577 28.06C38.8777 27.75 39.1277 27.51 39.4477 27.51ZM39.4477 26.51C38.5977 26.51 37.9077 27.16 37.8577 28C37.8477 28.03 37.8477 28.07 37.8477 28.11V33.68C37.8577 33.65 37.8577 33.61 37.8577 33.57V33.51H41.0377V28.11C41.0377 27.22 40.3277 26.51 39.4477 26.51Z" fill="#FF6515"/>
<path d="M34.8489 36.5099V44.0199H31.9089V43.8999L31.7789 43.4699L30.9489 40.7899C30.6189 39.7099 30.0189 38.7099 29.2089 37.8899C29.8089 37.5699 30.3189 37.0899 30.6789 36.5199H31.4589H34.8489V36.5099ZM29.8989 24.3499H29.8289C28.9689 24.3499 28.2689 25.0499 28.2689 25.9199V34.4599C28.2689 34.9799 27.8489 35.3399 27.3889 35.3399C27.2289 35.3399 27.0589 35.2899 26.9089 35.1899L25.8589 34.4899C25.4989 34.2299 25.0489 34.0999 24.5889 34.0999C23.9989 34.0999 23.4089 34.3099 22.9889 34.7299C22.2589 35.4599 22.3489 36.5499 23.1989 37.1599L26.5589 39.5499C27.2789 40.0699 27.8189 40.8099 28.0789 41.6599L28.9089 44.3499V47.0199H39.4389V43.9799L41.0389 37.2599V33.5099H37.8589V33.5699C37.8589 33.6099 37.8589 33.6499 37.8489 33.6799V33.5099H31.4589V25.9199C31.4589 25.0499 30.7589 24.3499 29.8989 24.3499Z" fill="white" stroke="#FF6515" stroke-linecap="round" stroke-linejoin="round"/>
<path d="M37.8577 33.51H37.8477V33.68C37.8577 33.65 37.8577 33.61 37.8577 33.57V33.51Z" fill="white"/>
<path d="M37.8577 33.51H37.8477V33.68C37.8577 33.65 37.8577 33.61 37.8577 33.57V33.51Z" fill="#FF6515"/>
<path d="M25.0275 56.0999C24.4275 56.0999 23.9375 55.6099 23.9375 55.0099C23.9375 54.3999 24.4275 53.9099 25.0275 53.9099H33.5375V56.0999H25.0275Z" fill="white"/>
<path d="M33.0375 54.4099V55.5999H25.0275C24.6975 55.5999 24.4375 55.3399 24.4375 55.0099C24.4375 54.6699 24.6975 54.4099 25.0275 54.4099H33.0375ZM34.0375 53.4099H25.0275C24.1475 53.4099 23.4375 54.1199 23.4375 55.0099C23.4375 55.8899 24.1475 56.5999 25.0275 56.5999H34.0375V53.4099Z" fill="#FF6515"/>
<path d="M27.3088 52.91C26.7088 52.91 26.2188 52.42 26.2188 51.81C26.2188 51.2 26.7088 50.71 27.3088 50.71H33.5388V52.91H27.3088Z" fill="white"/>
<path d="M33.0387 51.21V52.41H27.3087C26.9787 52.41 26.7187 52.14 26.7187 51.81C26.7187 51.48 26.9787 51.21 27.3087 51.21H33.0387ZM34.0988 50.21H27.3087C26.4287 50.21 25.7188 50.93 25.7188 51.81C25.7188 52.69 26.4287 53.41 27.3087 53.41H34.0387V50.22H34.2087C34.1788 50.21 34.1388 50.21 34.0988 50.21Z" fill="#FF6515"/>
<path d="M28.6291 49.72C27.9791 49.68 27.5391 49.2 27.5391 48.62C27.5391 48.01 28.0291 47.52 28.6291 47.52H33.5391V49.72H28.6291Z" fill="white"/>
<path d="M33.0391 48.02V49.22H28.6591C28.6291 49.22 28.6091 49.21 28.5791 49.21C28.2791 49.19 28.0391 48.93 28.0391 48.62C28.0391 48.29 28.2991 48.02 28.6291 48.02H33.0391ZM34.0391 47.02H28.6291C27.7491 47.02 27.0391 47.74 27.0391 48.62C27.0391 49.46 27.6891 50.16 28.5191 50.21C28.5491 50.22 28.5891 50.22 28.6291 50.22H34.2091C34.1791 50.21 34.1391 50.21 34.0991 50.21H34.0391V47.02Z" fill="#FF6515"/>
<path d="M44.1689 53.72V55.72L43.8489 55.82L41.1689 56.65C40.1989 56.95 39.2889 57.44 38.5189 58.09C38.2389 57.71 37.9089 57.39 37.5389 57.12V56.6V53.72H44.1689ZM37.7889 47.02H34.0389V50.21H34.0989C34.1389 50.21 34.1789 50.21 34.2089 50.22H34.0389V56.6H26.4389C25.5789 56.6 24.8789 57.3 24.8789 58.17V58.23C24.8789 59.1 25.5789 59.8 26.4389 59.8H34.9889C35.6889 59.8 36.0989 60.58 35.7189 61.16L35.0189 62.21C34.4189 63.05 34.5189 64.34 35.2589 65.07C35.5889 65.41 35.9989 65.57 36.3989 65.57C36.8789 65.57 37.3589 65.33 37.6789 64.87L40.0789 61.51C40.5989 60.78 41.3389 60.25 42.1889 59.99L44.8789 59.16H47.6689V50.19L48.0389 48.63H44.5089L37.7889 47.02Z" fill="white" stroke="#FF6515" stroke-linecap="round" stroke-linejoin="round"/>
<path d="M34.0991 50.21H34.0391V50.22H34.2091C34.1791 50.21 34.1391 50.21 34.0991 50.21Z" fill="white"/>
<path d="M34.0991 50.21H34.0391V50.22H34.2091C34.1791 50.21 34.1391 50.21 34.0991 50.21Z" fill="#FF6515"/>
</g>
<defs>
<clipPath id="clip0">
<rect width="44.72" height="45.07" fill="white" transform="translate(22 21)"/>
</clipPath>
</defs>
</svg>
