<svg width="88" height="88" viewBox="0 0 88 88" fill="none" xmlns="http://www.w3.org/2000/svg">
<circle cx="44" cy="44" r="44" fill="#FF6515"/>
<path d="M59.9584 38.02H54.8984V50.48H59.9584V38.02Z" fill="white"/>
<path d="M58.9584 39.02V49.48H55.8984V39.02H58.9584ZM59.9584 38.02H54.8984V50.48H59.9584V38.02Z" fill="#FF6515"/>
<path d="M61.6016 27.8401H53.2616C51.7916 27.8401 50.6016 29.0301 50.6016 30.5001C50.6016 31.4101 51.0516 32.2101 51.7416 32.6901H63.1216C63.8116 32.2101 64.2616 31.4101 64.2616 30.5001C64.2616 29.0301 63.0716 27.8401 61.6016 27.8401Z" fill="white"/>
<path d="M61.6016 28.8401C62.5216 28.8401 63.2616 29.5801 63.2616 30.5001C63.2616 30.9501 63.0816 31.3801 62.7616 31.6901H52.0916C51.7816 31.3801 51.5916 30.9501 51.5916 30.5001C51.5916 29.5801 52.3316 28.8401 53.2516 28.8401H61.6016ZM61.6016 27.8401H53.2616C51.7916 27.8401 50.6016 29.0301 50.6016 30.5001C50.6016 31.4101 51.0516 32.2101 51.7416 32.6901H63.1216C63.8116 32.2101 64.2616 31.4101 64.2616 30.5001C64.2616 29.0301 63.0716 27.8401 61.6016 27.8401Z" fill="#FF6515"/>
<path d="M64.2802 32.6902H50.5802C49.1102 32.6902 47.9102 33.8902 47.9102 35.3602C47.9102 36.8302 49.1102 38.0202 50.5802 38.0202H64.2802C65.7502 38.0202 66.9502 36.8302 66.9502 35.3602C66.9502 33.8902 65.7502 32.6902 64.2802 32.6902Z" fill="white"/>
<path d="M64.2802 33.6902C65.2002 33.6902 65.9502 34.4402 65.9502 35.3602C65.9502 36.2802 65.2002 37.0202 64.2802 37.0202H50.5802C49.6602 37.0202 48.9102 36.2802 48.9102 35.3602C48.9102 34.4402 49.6602 33.6902 50.5802 33.6902H64.2802ZM64.2802 32.6902H50.5802C49.1102 32.6902 47.9102 33.8902 47.9102 35.3602C47.9102 36.8302 49.1102 38.0202 50.5802 38.0202H64.2802C65.7502 38.0202 66.9502 36.8302 66.9502 35.3602C66.9502 33.8902 65.7502 32.6902 64.2802 32.6902Z" fill="#FF6515"/>
<path d="M63.1016 55.8H51.7616C51.0616 56.27 50.6016 57.0801 50.6016 57.9901C50.6016 59.4701 51.7916 60.6601 53.2616 60.6601H61.6016C63.0716 60.6601 64.2616 59.4701 64.2616 57.9901C64.2616 57.0801 63.8016 56.27 63.1016 55.8Z" fill="white"/>
<path d="M62.7516 56.8C63.0716 57.1 63.2616 57.5301 63.2616 57.9901C63.2616 58.9101 62.5216 59.6601 61.6016 59.6601H53.2616C52.3416 59.6601 51.6016 58.9101 51.6016 57.9901C51.6016 57.5301 51.7916 57.1 52.1116 56.8H62.7516ZM63.1016 55.8H51.7616C51.0616 56.27 50.6016 57.0801 50.6016 57.9901C50.6016 59.4701 51.7916 60.6601 53.2616 60.6601H61.6016C63.0716 60.6601 64.2616 59.4701 64.2616 57.9901C64.2616 57.0801 63.8016 56.27 63.1016 55.8Z" fill="#FF6515"/>
<path d="M64.2802 50.48H50.5802C49.1102 50.48 47.9102 51.67 47.9102 53.14C47.9102 54.61 49.1102 55.8 50.5802 55.8H64.2802C65.7502 55.8 66.9502 54.61 66.9502 53.14C66.9502 51.67 65.7502 50.48 64.2802 50.48Z" fill="white"/>
<path d="M64.2802 51.48C65.2002 51.48 65.9502 52.22 65.9502 53.14C65.9502 54.06 65.2002 54.8 64.2802 54.8H50.5802C49.6602 54.8 48.9102 54.06 48.9102 53.14C48.9102 52.22 49.6602 51.48 50.5802 51.48H64.2802ZM64.2802 50.48H50.5802C49.1102 50.48 47.9102 51.67 47.9102 53.14C47.9102 54.61 49.1102 55.8 50.5802 55.8H64.2802C65.7502 55.8 66.9502 54.61 66.9502 53.14C66.9502 51.67 65.7502 50.48 64.2802 50.48Z" fill="#FF6515"/>
<path d="M35.5402 33.3701C41.5502 33.3701 46.4202 37.7001 46.4202 43.0401C46.4202 46.3801 43.7102 49.0801 40.3802 49.0801H38.2502C37.2502 49.0801 36.4402 49.8901 36.4402 50.8901C36.4402 51.3601 36.6102 51.7701 36.8902 52.0901C37.1902 52.4101 37.3602 52.8301 37.3602 53.3001C37.3602 54.3001 36.5502 55.1101 35.5502 55.1101C29.5402 55.1101 24.6702 50.2401 24.6702 44.2301C24.6602 38.2501 29.5402 33.3701 35.5402 33.3701ZM38.5702 39.4201C39.5702 39.4201 40.3802 38.6101 40.3802 37.6101C40.3802 36.6101 39.5702 35.8001 38.5702 35.8001C37.5702 35.8001 36.7602 36.6101 36.7602 37.6101C36.7502 38.6101 37.5602 39.4201 38.5702 39.4201ZM32.5202 39.4201C33.5202 39.4201 34.3302 38.6101 34.3302 37.6101C34.3302 36.6101 33.5202 35.8001 32.5202 35.8001C31.5202 35.8001 30.7102 36.6101 30.7102 37.6101C30.7102 38.6101 31.5202 39.4201 32.5202 39.4201ZM42.1902 44.2501C43.1902 44.2501 44.0002 43.4401 44.0002 42.4401C44.0002 41.4401 43.1902 40.6301 42.1902 40.6301C41.1902 40.6301 40.3802 41.4401 40.3802 42.4401C40.3802 43.4401 41.1902 44.2501 42.1902 44.2501ZM28.9002 44.2501C29.9002 44.2501 30.7102 43.4401 30.7102 42.4401C30.7102 41.4401 29.9002 40.6301 28.9002 40.6301C27.9002 40.6301 27.0902 41.4401 27.0902 42.4401C27.0902 43.4401 27.8902 44.2501 28.9002 44.2501ZM35.5402 30.3701C27.8902 30.3701 21.6602 36.6001 21.6602 44.2501C21.6602 51.9001 27.8902 58.1301 35.5402 58.1301C38.1902 58.1301 40.3502 55.9701 40.3502 53.3201C40.3502 52.9001 40.3002 52.4901 40.1902 52.0901H40.3702C45.3602 52.0901 49.4102 48.0301 49.4102 43.0501C49.4302 36.0601 43.2002 30.3701 35.5402 30.3701Z" fill="white"/>
<path d="M35.5402 58.6301C27.6102 58.6301 21.1602 52.1801 21.1602 44.2501C21.1602 36.3201 27.6102 29.8701 35.5402 29.8701C43.4702 29.8701 49.9202 35.7801 49.9202 43.0401C49.9202 48.1601 45.8702 52.3501 40.8002 52.5801C40.8302 52.8201 40.8502 53.0701 40.8502 53.3201C40.8602 56.2501 38.4702 58.6301 35.5402 58.6301ZM35.5402 30.8701C28.1602 30.8701 22.1602 36.8701 22.1602 44.2501C22.1602 51.6301 28.1602 57.6301 35.5402 57.6301C37.9202 57.6301 39.8502 55.6901 39.8502 53.3201C39.8502 52.9401 39.8002 52.5701 39.7102 52.2201C39.6702 52.0701 39.7002 51.9101 39.8002 51.7901C39.9002 51.6701 40.0402 51.5901 40.2002 51.5901H40.3802C45.0902 51.5901 48.9202 47.7601 48.9202 43.0501C48.9302 36.3301 42.9202 30.8701 35.5402 30.8701ZM35.5402 55.6301C29.2702 55.6301 24.1602 50.5301 24.1602 44.2501C24.1602 37.9701 29.2702 32.8701 35.5402 32.8701C41.8202 32.8701 46.9202 37.4301 46.9202 43.0401C46.9202 46.6501 43.9802 49.5801 40.3802 49.5801H38.2502C37.5302 49.5801 36.9402 50.1701 36.9402 50.8901C36.9402 51.2201 37.0502 51.5201 37.2702 51.7601C37.6502 52.1701 37.8702 52.7301 37.8702 53.3101C37.8602 54.6001 36.8202 55.6301 35.5402 55.6301ZM35.5402 33.8701C29.8202 33.8701 25.1602 38.5301 25.1602 44.2501C25.1602 49.9701 29.8202 54.6301 35.5402 54.6301C36.2602 54.6301 36.8502 54.0401 36.8502 53.3201C36.8502 52.9901 36.7302 52.6801 36.5102 52.4401C36.1302 52.0101 35.9202 51.4701 35.9202 50.9001C35.9202 49.6201 36.9602 48.5901 38.2302 48.5901H40.3602C43.4202 48.5901 45.9002 46.1001 45.9002 43.0501C45.9302 37.9901 41.2702 33.8701 35.5402 33.8701ZM42.1902 44.7501C40.9102 44.7501 39.8802 43.7101 39.8802 42.4401C39.8802 41.1701 40.9202 40.1301 42.1902 40.1301C43.4602 40.1301 44.5002 41.1701 44.5002 42.4401C44.5002 43.7101 43.4702 44.7501 42.1902 44.7501ZM42.1902 41.1301C41.4702 41.1301 40.8802 41.7201 40.8802 42.4401C40.8802 43.1601 41.4702 43.7501 42.1902 43.7501C42.9102 43.7501 43.5002 43.1601 43.5002 42.4401C43.5002 41.7201 42.9202 41.1301 42.1902 41.1301ZM28.9002 44.7501C27.6202 44.7501 26.5902 43.7101 26.5902 42.4401C26.5902 41.1701 27.6302 40.1301 28.9002 40.1301C30.1702 40.1301 31.2102 41.1701 31.2102 42.4401C31.2102 43.7101 30.1702 44.7501 28.9002 44.7501ZM28.9002 41.1301C28.1802 41.1301 27.5902 41.7201 27.5902 42.4401C27.5902 43.1601 28.1802 43.7501 28.9002 43.7501C29.6202 43.7501 30.2102 43.1601 30.2102 42.4401C30.2102 41.7201 29.6202 41.1301 28.9002 41.1301ZM38.5702 39.9201C37.2902 39.9201 36.2602 38.8801 36.2602 37.6101C36.2602 36.3301 37.3002 35.3001 38.5702 35.3001C39.8402 35.3001 40.8802 36.3401 40.8802 37.6101C40.8802 38.8801 39.8402 39.9201 38.5702 39.9201ZM38.5702 36.2901C37.8502 36.2901 37.2602 36.8801 37.2602 37.6001C37.2602 38.3201 37.8502 38.9101 38.5702 38.9101C39.2902 38.9101 39.8802 38.3201 39.8802 37.6001C39.8802 36.8801 39.2902 36.2901 38.5702 36.2901ZM32.5202 39.9201C31.2402 39.9201 30.2102 38.8801 30.2102 37.6101C30.2102 36.3301 31.2502 35.3001 32.5202 35.3001C33.7902 35.3001 34.8302 36.3401 34.8302 37.6101C34.8402 38.8801 33.8002 39.9201 32.5202 39.9201ZM32.5202 36.2901C31.8002 36.2901 31.2102 36.8801 31.2102 37.6001C31.2102 38.3201 31.8002 38.9101 32.5202 38.9101C33.2402 38.9101 33.8302 38.3201 33.8302 37.6001C33.8302 36.8801 33.2502 36.2901 32.5202 36.2901Z" fill="#FF6515"/>
</svg>
