<svg width="88" height="88" viewBox="0 0 88 88" fill="none" xmlns="http://www.w3.org/2000/svg">
<circle cx="44" cy="44" r="44" fill="#FF6515"/>
<path d="M30.6709 25.0701C30.8609 25.0701 31.0209 25.1801 31.0909 25.3501L35.2109 35.6601C37.2509 40.7601 42.1209 44.0601 47.6109 44.0601H57.6509C56.6709 49.4501 50.8709 53.6001 43.8809 53.6001C36.2109 53.6001 29.9609 48.6001 29.9609 42.4501V25.08H30.6709V25.0701ZM30.6709 22.0701H28.6909C27.7409 22.0701 26.9609 22.84 26.9609 23.8C26.9609 23.8 26.9609 42.2701 26.9609 42.4401C26.9609 50.2601 34.5309 56.5901 43.8809 56.5901C53.2209 56.5901 60.8009 50.2501 60.8009 42.4401V42.4301C60.8009 41.6701 60.1709 41.0601 59.4209 41.0601H47.6209C43.3909 41.0601 39.5809 38.48 38.0009 34.55L33.8809 24.2401C33.3509 22.9301 32.0809 22.0701 30.6709 22.0701Z" fill="white"/>
<path d="M43.8809 57.1001C34.2809 57.1001 26.4609 50.5301 26.4609 42.4401V23.8C26.4609 22.57 27.4609 21.5701 28.6909 21.5701H30.6709C32.3009 21.5701 33.7409 22.54 34.3409 24.05L38.4609 34.36C39.9609 38.12 43.5609 40.5601 47.6109 40.5601H59.4109C60.4509 40.5601 61.2909 41.4001 61.2909 42.4301C61.3009 50.5201 53.4809 57.1001 43.8809 57.1001ZM28.6909 22.5701C28.0109 22.5701 27.4609 23.12 27.4609 23.8V42.4401C27.4609 49.9701 34.8209 56.1001 43.8809 56.1001C52.9309 56.1001 60.3009 49.9701 60.3009 42.4401C60.3009 41.9501 59.9009 41.5601 59.4209 41.5601H47.6209C43.1509 41.5601 39.2009 38.8801 37.5409 34.7301L33.4209 24.4201C32.9709 23.2901 31.8909 22.5601 30.6809 22.5601H28.6909V22.5701ZM43.8809 54.1001C35.9309 54.1001 29.4609 48.8701 29.4609 42.4401V24.5701H30.6609C31.0509 24.5701 31.4009 24.8101 31.5409 25.1701L35.6609 35.4801C37.6209 40.3901 42.3109 43.5601 47.6009 43.5601H58.2409L58.1309 44.1501C57.1109 49.8201 50.9809 54.1001 43.8809 54.1001ZM30.4609 25.5701V42.4401C30.4609 48.3201 36.4809 53.1001 43.8809 53.1001C50.2509 53.1001 55.7709 49.4701 57.0309 44.5601H47.6109C41.9109 44.5601 36.8609 41.1401 34.7409 35.8501L30.6309 25.5701H30.4609Z" fill="#FF6515"/>
<path d="M51.3004 37.1602C53.4504 37.1602 55.2004 38.9102 55.2004 41.0602C55.2004 42.2002 54.7004 43.2701 53.8404 44.0201L52.7404 44.9702H50.8704H39.0504H36.8904H35.0004L33.8904 43.9901C33.8004 43.9101 33.7104 43.8202 33.6204 43.7302L33.5504 43.6501C33.4204 43.5001 33.3204 43.3801 33.2704 43.3001L33.2004 43.1902V43.1801C33.1304 43.0801 33.0704 42.9502 32.9904 42.8102L32.9404 42.7002C32.8604 42.5202 32.7904 42.3601 32.7404 42.2101L32.7304 42.1902C32.6904 42.0702 32.6604 41.9102 32.6304 41.7302L32.6104 41.6002C32.5804 41.3802 32.5704 41.2102 32.5704 41.0602C32.5704 38.9102 34.3204 37.1602 36.4704 37.1602H39.0604H51.3004ZM51.3004 34.1602H39.0504H36.4604C32.6504 34.1602 29.5604 37.2502 29.5604 41.0602C29.5604 41.3802 29.5904 41.6902 29.6304 42.0002C29.6404 42.0802 29.6504 42.1502 29.6604 42.2302C29.7104 42.5302 29.7804 42.8301 29.8704 43.1201C29.8704 43.1301 29.8704 43.1302 29.8804 43.1402C29.9704 43.4302 30.0804 43.7002 30.2104 43.9702C30.2404 44.0302 30.2704 44.1002 30.3004 44.1602C30.4404 44.4302 30.5804 44.6902 30.7504 44.9402C30.7504 44.9502 30.7604 44.9501 30.7604 44.9601C30.9304 45.2001 31.1104 45.4301 31.3004 45.6501C31.3404 45.7001 31.3904 45.7501 31.4304 45.8001C31.5804 45.9601 31.7404 46.1102 31.9004 46.2502L29.6504 58.5702C29.2404 58.2902 28.8504 58.0002 28.4704 57.7002C28.3804 57.6302 28.2904 57.5601 28.2104 57.4901C27.8404 57.1801 27.4704 56.8701 27.1204 56.5501C26.9504 56.3901 26.7404 56.3202 26.5304 56.3202C26.3204 56.3202 26.1104 56.3902 25.9504 56.5402L25.3004 57.1302C24.9504 57.4502 24.9204 58.0002 25.2504 58.3502C29.7004 63.2002 36.4004 66.2802 43.8804 66.2802C51.3604 66.2802 58.0604 63.2002 62.5104 58.3502C62.8304 58.0002 62.8104 57.4502 62.4604 57.1302L61.8104 56.5402C61.6504 56.3902 61.4404 56.3202 61.2304 56.3202H61.2204C61.0104 56.3202 60.8004 56.4001 60.6404 56.5501C60.3004 56.8701 59.9404 57.1802 59.5704 57.4802C59.4804 57.5602 59.3904 57.6302 59.2904 57.7002C58.9204 57.9902 58.5404 58.2801 58.1504 58.5501L58.1404 58.5602L55.8104 46.3202C57.2804 45.0502 58.2104 43.1801 58.2104 41.0901C58.2104 37.2501 55.1204 34.1602 51.3004 34.1602ZM43.8804 62.8102C43.4104 62.8102 42.9404 62.7901 42.4704 62.7701C42.3204 62.7601 42.1804 62.7501 42.0404 62.7401C41.7204 62.7201 41.3904 62.6902 41.0704 62.6602C40.9104 62.6402 40.7504 62.6201 40.5904 62.6101C40.2704 62.5701 39.9604 62.5302 39.6504 62.4802C39.5104 62.4602 39.3704 62.4402 39.2204 62.4102C38.8304 62.3402 38.4404 62.2601 38.0504 62.1801C38.0004 62.1701 37.9504 62.1601 37.9004 62.1501C37.4604 62.0501 37.0204 61.9302 36.5904 61.8102C36.5004 61.7801 36.4104 61.7502 36.3104 61.7302C35.9804 61.6302 35.6504 61.5202 35.3204 61.4102C35.2004 61.3702 35.0804 61.3202 34.9604 61.2802C34.6604 61.1702 34.3604 61.0501 34.0604 60.9301C33.9504 60.8801 33.8404 60.8402 33.7304 60.7902C33.3904 60.6402 33.0504 60.4901 32.7104 60.3301C32.6704 60.3101 32.6304 60.2901 32.5904 60.2701L33.1304 58.7202L36.8804 47.9702H39.0404H50.8804L55.2604 60.2302C55.2404 60.2402 55.2104 60.2502 55.1904 60.2602C54.8304 60.4302 54.4704 60.6002 54.1004 60.7602C53.9804 60.8102 53.8604 60.8602 53.7304 60.9102C53.4504 61.0302 53.1604 61.1401 52.8704 61.2401C52.7304 61.2901 52.5904 61.3402 52.4604 61.3902C52.1604 61.4902 51.8604 61.5901 51.5604 61.6801C51.4404 61.7201 51.3204 61.7602 51.1904 61.7902C50.7604 61.9102 50.3304 62.0302 49.8904 62.1302C49.8804 62.1302 49.8704 62.1302 49.8604 62.1402C49.4304 62.2402 49.0004 62.3201 48.5604 62.4001C48.4204 62.4201 48.2804 62.4402 48.1404 62.4702C47.8204 62.5202 47.5104 62.5701 47.1904 62.6101C47.0304 62.6301 46.8704 62.6502 46.7104 62.6602C46.3904 62.6902 46.0604 62.7201 45.7404 62.7401C45.5904 62.7501 45.4504 62.7601 45.3004 62.7701C44.8304 62.7901 44.3604 62.8102 43.8804 62.8102Z" fill="white"/>
<path d="M43.8815 66.7602C36.5315 66.7602 29.6015 63.8102 24.8815 58.6702C24.6315 58.4002 24.5015 58.0502 24.5215 57.6902C24.5415 57.3202 24.6915 56.9901 24.9715 56.7401L25.6215 56.1501C26.1315 55.6901 26.9715 55.6902 27.4715 56.1702C27.8115 56.4902 28.1715 56.7901 28.5315 57.0901L28.7915 57.3001C28.9615 57.4301 29.1315 57.5702 29.3115 57.7002L31.3715 46.4301C31.2715 46.3401 31.1715 46.2402 31.0815 46.1402L30.9315 45.9802C30.7215 45.7502 30.5315 45.5002 30.3515 45.2502C30.1515 44.9602 30.0015 44.6801 29.8515 44.4001L29.7515 44.1902C29.6215 43.9002 29.5015 43.6101 29.4015 43.3001C29.3015 42.9701 29.2315 42.6502 29.1715 42.3202L29.1315 42.0801C29.0815 41.6901 29.0515 41.3702 29.0515 41.0702C29.0515 36.9902 32.3715 33.6602 36.4615 33.6602H51.3015C55.3815 33.6602 58.7115 36.9802 58.7115 41.0702C58.7115 43.1302 57.8515 45.0802 56.3515 46.4802L58.4815 57.6702C58.6515 57.5402 58.8115 57.4202 58.9815 57.2902L59.2515 57.0702C59.6115 56.7802 59.9615 56.4802 60.2915 56.1602C60.5415 55.9202 60.8715 55.7902 61.2115 55.7902C61.5615 55.7902 61.8915 55.9202 62.1415 56.1402L62.7915 56.7302C63.0615 56.9802 63.2215 57.3101 63.2315 57.6801C63.2515 58.0501 63.1215 58.4002 62.8715 58.6702C58.1615 63.8102 51.2315 66.7602 43.8815 66.7602ZM26.5315 56.7902C26.4415 56.7902 26.3515 56.8202 26.2915 56.8802L25.6415 57.4702C25.5715 57.5402 25.5315 57.6202 25.5215 57.7202C25.5215 57.8202 25.5515 57.9102 25.6215 57.9802C30.1615 62.9202 36.8115 65.7502 43.8815 65.7502C50.9515 65.7502 57.6115 62.9202 62.1415 57.9802C62.2115 57.9102 62.2415 57.8102 62.2415 57.7202C62.2415 57.6202 62.1915 57.5302 62.1215 57.4702L61.4715 56.8802C61.3515 56.7802 61.1815 56.7002 60.9815 56.8902C60.6315 57.2202 60.2615 57.5301 59.8915 57.8401L59.6115 58.0702C59.2315 58.3702 58.8415 58.6602 58.4415 58.9402L57.8115 59.3701L57.6515 58.6302L55.2615 46.1002L55.4815 45.9102C56.8915 44.6902 57.7115 42.9201 57.7115 41.0602C57.7115 37.5302 54.8415 34.6501 51.3015 34.6501H36.4615C32.9315 34.6501 30.0515 37.5202 30.0515 41.0602C30.0515 41.3602 30.0815 41.6502 30.1215 41.9402L30.1515 42.1501C30.2015 42.4301 30.2615 42.7102 30.3415 42.9802C30.4315 43.2602 30.5315 43.5202 30.6515 43.7602L30.7415 43.9402C30.8715 44.1902 31.0015 44.4302 31.1615 44.6602C31.3315 44.9002 31.5015 45.1102 31.6815 45.3102L31.8015 45.4502C31.9415 45.6002 32.0815 45.7401 32.2415 45.8701L32.4515 46.0602L29.9815 59.5901L29.3115 58.9202C28.9615 58.6902 28.5615 58.3901 28.1715 58.0801L27.9015 57.8601C27.5215 57.5501 27.1415 57.2302 26.7915 56.8902C26.7115 56.8302 26.6315 56.7902 26.5315 56.7902ZM43.8815 63.3102C43.4015 63.3102 42.9215 63.2901 42.4515 63.2701L42.0115 63.2401C41.6815 63.2201 41.3515 63.1902 41.0315 63.1602L40.5415 63.1002C40.2215 63.0602 39.9015 63.0202 39.5815 62.9702L39.1515 62.9001C38.7515 62.8301 38.3515 62.7502 37.9615 62.6602L37.8015 62.6302C37.3515 62.5302 36.9115 62.4102 36.4715 62.2802L36.2715 62.2202C35.8415 62.0902 35.5115 61.9801 35.1715 61.8701L34.8015 61.7401C34.4915 61.6301 34.1915 61.5102 33.8815 61.3902L33.5415 61.2502C33.1915 61.1002 32.8415 60.9402 32.5015 60.7802L32.1015 60.5901L32.1215 60.1101L36.5215 47.4702H51.2315L55.8815 60.4802L55.4715 60.6702C55.0415 60.8802 54.6715 61.0501 54.2915 61.2101L53.9215 61.3601C53.6315 61.4801 53.3415 61.5902 53.0415 61.7002L52.6215 61.8502C52.3215 61.9602 52.0115 62.0501 51.7015 62.1501L51.3215 62.2701C50.8815 62.4001 50.4415 62.5101 49.9915 62.6201C49.5315 62.7301 49.0815 62.8102 48.6415 62.8902L48.2115 62.9601C47.8915 63.0101 47.5615 63.0602 47.2415 63.1002L46.7515 63.1602C46.4215 63.2002 46.0915 63.2201 45.7615 63.2401L45.3115 63.2701C44.8415 63.3001 44.3715 63.3102 43.8815 63.3102ZM38.1715 61.6801C38.5515 61.7601 38.9315 61.8402 39.3215 61.9102L39.7415 61.9802C40.0415 62.0302 40.3515 62.0701 40.6615 62.1101L41.1315 62.1602C41.4415 62.1902 41.7615 62.2201 42.0815 62.2401L42.5115 62.2701C43.4215 62.3101 44.3615 62.3201 45.2815 62.2701L45.7115 62.2401C46.0315 62.2201 46.3515 62.1902 46.6615 62.1602L47.1315 62.1101C47.4415 62.0701 47.7615 62.0302 48.0615 61.9802L48.4715 61.9102C48.9015 61.8302 49.3215 61.7501 49.7415 61.6501C50.2015 61.5401 50.6215 61.4302 51.0515 61.3102L51.4115 61.2002C51.7115 61.1102 52.0115 61.0102 52.3015 60.9102L52.7115 60.7701C52.9915 60.6701 53.2715 60.5602 53.5515 60.4402L53.9115 60.2902C54.1615 60.1802 54.4015 60.0801 54.6415 59.9601L50.5315 48.4601H37.2415L33.2215 60.0002C33.4615 60.1102 33.6915 60.2202 33.9415 60.3202L34.2715 60.4502C34.5615 60.5702 34.8515 60.6802 35.1515 60.7902L35.5115 60.9202C35.8315 61.0302 36.1515 61.1302 36.4815 61.2302L36.7515 61.3102C37.1715 61.4302 37.6015 61.5402 38.0415 61.6402L38.0815 62.1602L38.1715 61.6801ZM32.7215 60.3102V60.3202V60.3102ZM52.9415 45.4702H34.8115L33.5615 44.3701C33.4615 44.2801 33.3615 44.1801 33.2615 44.0801L33.1815 43.9901C33.0315 43.8201 32.9115 43.6701 32.8515 43.5901L32.7715 43.4702C32.6915 43.3402 32.6115 43.2002 32.5315 43.0402L32.4715 42.9301C32.3715 42.7201 32.3015 42.5401 32.2515 42.3701C32.2015 42.2001 32.1615 42.0302 32.1215 41.8202L32.1015 41.6801C32.0615 41.4301 32.0515 41.2302 32.0515 41.0702C32.0515 38.6402 34.0315 36.6602 36.4615 36.6602H51.3015C53.7315 36.6602 55.7115 38.6402 55.7115 41.0702C55.7115 42.3502 55.1515 43.5702 54.1815 44.4102L52.9415 45.4702ZM35.1815 44.4702H52.5615L53.5215 43.6402C54.2715 42.9902 54.7015 42.0501 54.7015 41.0602C54.7015 39.1802 53.1715 37.6501 51.2915 37.6501H36.4615C34.5815 37.6501 33.0515 39.1802 33.0515 41.0602C33.0515 41.1902 33.0615 41.3402 33.0915 41.5302L33.1115 41.6501C33.1415 41.8001 33.1615 41.9401 33.2015 42.0501C33.2515 42.2001 33.3015 42.3301 33.3815 42.4901L33.4315 42.5901C33.4915 42.7201 33.5515 42.8202 33.6115 42.9102L33.6815 43.0201C33.7215 43.0801 33.8115 43.1902 33.9215 43.3102L33.9915 43.3902C34.0615 43.4602 34.1415 43.5401 34.2215 43.6101L35.1815 44.4702Z" fill="#FF6515"/>
</svg>
