<svg width="101" height="100" viewBox="0 0 101 100" fill="none" xmlns="http://www.w3.org/2000/svg">
<mask id="mask0_972_83" style="mask-type:alpha" maskUnits="userSpaceOnUse" x="0" y="0" width="101" height="100">
<rect x="0.5" width="100" height="100" fill="#D9D9D9"/>
</mask>
<g mask="url(#mask0_972_83)">
<path d="M49.0417 84.7917V51.9792C45.2917 51.9792 41.7153 51.2848 38.3125 49.8959C34.9097 48.507 31.8889 46.4931 29.25 43.8542C26.6111 41.2154 24.6146 38.1737 23.2604 34.7292C21.9063 31.2848 21.2292 27.6945 21.2292 23.9584V21.0417H24.1459C27.8049 21.0417 31.3476 21.7567 34.774 23.1865C38.2004 24.6164 41.2202 26.6445 43.8334 29.2709C46.0556 31.4931 47.8438 34.0452 49.1979 36.9272C50.5521 39.8091 51.4028 42.8473 51.75 46.0417C52.4445 44.6529 53.2257 43.3508 54.0938 42.1355C54.9618 40.9202 55.9514 39.757 57.0625 38.6459C59.6917 36.0195 62.7302 33.9914 66.1781 32.5615C69.6254 31.1317 73.2188 30.4167 76.9584 30.4167H79.875V33.3334C79.875 37.0751 79.159 40.6709 77.7271 44.1209C76.2952 47.5702 74.2639 50.6101 71.6334 53.2407C69.0028 55.872 66.0035 57.8647 62.6354 59.2188C59.2674 60.573 55.7084 61.2501 51.9584 61.2501V84.7917H49.0417ZM49.1459 48.9584C49.1459 45.6251 48.5035 42.448 47.2188 39.4272C45.934 36.4063 44.1111 33.7154 41.75 31.3542C39.3889 28.9931 36.6979 27.1702 33.6771 25.8855C30.6563 24.6008 27.4792 23.9584 24.1459 23.9584C24.1459 27.2917 24.7709 30.4862 26.0209 33.5417C27.2709 36.5973 29.0764 39.3056 31.4375 41.6667C33.7986 44.0279 36.507 45.8334 39.5625 47.0834C42.6181 48.3334 45.8125 48.9584 49.1459 48.9584ZM51.9584 58.3334C55.2917 58.3334 58.4688 57.7084 61.4896 56.4584C64.5104 55.2084 67.2014 53.4029 69.5625 51.0417C71.9236 48.6806 73.7465 45.9723 75.0313 42.9167C76.316 39.8612 76.9584 36.6667 76.9584 33.3334C73.625 33.3334 70.4306 33.9758 67.375 35.2605C64.3195 36.5452 61.6111 38.3681 59.25 40.7292C56.8889 43.0904 55.0834 45.7813 53.8334 48.8022C52.5834 51.823 51.9584 55.0001 51.9584 58.3334Z" fill="#2CA1C7"/>
</g>
</svg>
