<svg width="40" height="40" viewBox="0 0 40 40" fill="none" xmlns="http://www.w3.org/2000/svg">
<mask id="mask0_968_3124" style="mask-type:alpha" maskUnits="userSpaceOnUse" x="0" y="0" width="40" height="40">
<rect width="40" height="40" fill="#D9D9D9"/>
</mask>
<g mask="url(#mask0_968_3124)">
<path d="M34.3592 34.4018L29.2308 29.2734H13.3333C12.6283 29.2734 12.0247 29.0223 11.5225 28.5201C11.0203 28.0181 10.7692 27.4145 10.7692 26.7093V26.3247H28.7179C29.4582 26.3247 30.0921 26.0611 30.6196 25.5338C31.1468 25.0066 31.4104 24.3729 31.4104 23.6326V12.2222H31.795C32.5 12.2222 33.1036 12.4733 33.6058 12.9755C34.1081 13.4774 34.3592 14.0811 34.3592 14.7863V34.4018ZM7.30751 24.0843L10.0675 21.3247H25.3846C25.6838 21.3247 25.9295 21.2286 26.1217 21.0363C26.3142 20.8441 26.4104 20.5984 26.4104 20.2993V9.91467C26.4104 9.6155 26.3142 9.36967 26.1217 9.17717C25.9295 8.98495 25.6838 8.88883 25.3846 8.88883H8.33334C8.03417 8.88883 7.78848 8.98495 7.59626 9.17717C7.40376 9.36967 7.30751 9.6155 7.30751 9.91467V24.0843ZM5.64084 28.1197V9.91467C5.64084 9.17411 5.90459 8.54022 6.43209 8.013C6.95931 7.48578 7.59306 7.22217 8.33334 7.22217H25.3846C26.1249 7.22217 26.7588 7.48578 27.2863 8.013C27.8135 8.54022 28.0771 9.17411 28.0771 9.91467V20.2993C28.0771 21.0395 27.8135 21.6733 27.2863 22.2005C26.7588 22.7277 26.1249 22.9913 25.3846 22.9913H10.7692L5.64084 28.1197Z" fill="white"/>
</g>
</svg>
