<svg width="41" height="40" viewBox="0 0 41 40" fill="none" xmlns="http://www.w3.org/2000/svg">
<mask id="mask0_968_3151" style="mask-type:alpha" maskUnits="userSpaceOnUse" x="0" y="0" width="41" height="40">
<rect x="0.666626" width="40" height="40" fill="#D9D9D9"/>
</mask>
<g mask="url(#mask0_968_3151)">
<path d="M20.672 35C18.5979 35 16.6477 34.6064 14.8216 33.8192C12.9958 33.0319 11.4075 31.9636 10.0566 30.6142C8.70579 29.2647 7.63649 27.6778 6.84871 25.8533C6.06065 24.0292 5.66663 22.0799 5.66663 20.0054C5.66663 17.9312 6.06024 15.9811 6.84746 14.155C7.63468 12.3292 8.70301 10.7408 10.0525 9.39C11.4019 8.03917 12.9888 6.96986 14.8133 6.18208C16.6375 5.39403 18.5868 5 20.6612 5C22.7354 5 24.6855 5.39361 26.5116 6.18083C28.3375 6.96806 29.9258 8.03639 31.2766 9.38583C32.6275 10.7353 33.6968 12.3222 34.4845 14.1467C35.2726 15.9708 35.6666 17.9201 35.6666 19.9946C35.6666 22.0688 35.273 24.0189 34.4858 25.845C33.6986 27.6708 32.6302 29.2592 31.2808 30.61C29.9313 31.9608 28.3444 33.0301 26.52 33.8179C24.6958 34.606 22.7465 35 20.672 35ZM19 33.25V30C18.0833 30 17.2986 29.6736 16.6458 29.0208C15.993 28.3681 15.6666 27.5833 15.6666 26.6667V25L7.66663 17C7.58329 17.5 7.5069 18 7.43746 18.5C7.36801 19 7.33329 19.5 7.33329 20C7.33329 23.3611 8.43746 26.3056 10.6458 28.8333C12.8541 31.3611 15.6388 32.8333 19 33.25ZM30.5 29C31.6388 27.75 32.5069 26.3542 33.1041 24.8125C33.7013 23.2708 34 21.6626 34 19.9879C34 17.2526 33.2483 14.7546 31.745 12.4937C30.2419 10.2329 28.2158 8.6025 25.6666 7.6025V8.33333C25.6666 9.25 25.3402 10.0347 24.6875 10.6875C24.0347 11.3403 23.25 11.6667 22.3333 11.6667H19V15C19 15.4722 18.8402 15.8681 18.5208 16.1875C18.2013 16.5069 17.8055 16.6667 17.3333 16.6667H14V20H24C24.4722 20 24.868 20.1597 25.1875 20.4792C25.5069 20.7986 25.6666 21.1944 25.6666 21.6667V26.6667H27.3333C28.0555 26.6667 28.7083 26.8819 29.2916 27.3125C29.875 27.7431 30.2777 28.3056 30.5 29Z" fill="white"/>
</g>
</svg>
