<svg width="101" height="100" viewBox="0 0 101 100" fill="none" xmlns="http://www.w3.org/2000/svg">
<mask id="mask0_972_113" style="mask-type:alpha" maskUnits="userSpaceOnUse" x="0" y="0" width="101" height="100">
<rect x="0.5" width="100" height="100" fill="#D9D9D9"/>
</mask>
<g mask="url(#mask0_972_113)">
<path d="M76.9584 86.1459C76.5417 86.1459 76.1598 86.0765 75.8125 85.9376C75.4653 85.7987 75.1181 85.5556 74.7709 85.2084L54.1459 64.6876C53.7987 64.3404 53.5556 63.9931 53.4167 63.6459C53.2778 63.2987 53.2084 62.9167 53.2084 62.5001C53.2084 62.0834 53.2778 61.7015 53.4167 61.3542C53.5556 61.007 53.7987 60.6598 54.1459 60.3126L60.5 53.9584C60.8473 53.6112 61.1945 53.3681 61.5417 53.2292C61.8889 53.0904 62.2709 53.0209 62.6875 53.0209C63.1042 53.0209 63.4862 53.0904 63.8334 53.2292C64.1806 53.3681 64.5278 53.6112 64.875 53.9584L85.5 74.5834C85.8473 74.9306 86.0903 75.2779 86.2292 75.6251C86.3681 75.9723 86.4375 76.3542 86.4375 76.7709C86.4375 77.1876 86.3681 77.5695 86.2292 77.9167C86.0903 78.264 85.8473 78.6112 85.5 78.9584L79.1459 85.2084C78.7987 85.5556 78.4514 85.7987 78.1042 85.9376C77.757 86.0765 77.375 86.1459 76.9584 86.1459ZM76.9584 83.4376L83.625 76.7709L62.6875 55.8334L56.0209 62.5001L76.9584 83.4376ZM23.9375 86.1459C23.5209 86.1459 23.1389 86.0765 22.7917 85.9376C22.4445 85.7987 22.0973 85.5556 21.75 85.2084L15.3959 78.9584C15.0487 78.6112 14.8056 78.264 14.6667 77.9167C14.5278 77.5695 14.4584 77.1876 14.4584 76.7709C14.4584 76.3542 14.5278 75.9549 14.6667 75.573C14.8056 75.1911 15.0487 74.8265 15.3959 74.4792L36.6459 53.2292H45.2917L48.4167 50.1042L30.6042 32.2917H24.6667L14.7709 22.3959L22.7917 14.3751L32.6875 24.2709V30.2084L50.5 48.0209L63.2084 35.3126L54.5625 26.6667L58.9375 22.2917H50.1875L48.8334 21.0417L59.7709 10.1042L61.0209 11.3542V20.2084L65.3959 15.8334L82.4792 32.7084C83.4514 33.6112 84.1632 34.6529 84.6146 35.8334C85.066 37.014 85.2917 38.264 85.2917 39.5834C85.2917 40.4167 85.1875 41.2327 84.9792 42.0313C84.7709 42.8299 84.4584 43.6112 84.0417 44.3751L75.6042 35.9376L69.6667 41.8751L65.1875 37.3959L47.2709 55.3126V64.1667L26.125 85.2084C25.7778 85.5556 25.4306 85.7987 25.0834 85.9376C24.7362 86.0765 24.3542 86.1459 23.9375 86.1459ZM23.9375 83.3334L45.2917 61.9792V55.3126H38.625L17.2709 76.6667L23.9375 83.3334Z" fill="#2CA1C7"/>
</g>
</svg>
