<svg width="41" height="40" viewBox="0 0 41 40" fill="none" xmlns="http://www.w3.org/2000/svg">
<mask id="mask0_968_3145" style="mask-type:alpha" maskUnits="userSpaceOnUse" x="0" y="0" width="41" height="40">
<rect x="0.333374" width="40" height="40" fill="#D9D9D9"/>
</mask>
<g mask="url(#mask0_968_3145)">
<path d="M8.02587 33.3333C7.25865 33.3333 6.6181 33.0763 6.10421 32.5625C5.59032 32.0486 5.33337 31.408 5.33337 30.6408V13.3333H7.00004V30.6408C7.00004 30.8975 7.10685 31.1326 7.32046 31.3462C7.53407 31.5598 7.76921 31.6666 8.02587 31.6666H30.3334V33.3333H8.02587ZM14.6925 26.6666C13.9253 26.6666 13.2848 26.4097 12.7709 25.8958C12.257 25.3819 12 24.7413 12 23.9741V6.66663H37V23.9741C37 24.7413 36.7431 25.3819 36.2292 25.8958C35.7153 26.4097 35.0748 26.6666 34.3075 26.6666H14.6925ZM14.6925 25H34.3075C34.5642 25 34.7993 24.8932 35.013 24.6795C35.2266 24.4659 35.3334 24.2308 35.3334 23.9741V8.33329H13.6667V23.9741C13.6667 24.2308 13.7735 24.4659 13.9871 24.6795C14.2007 24.8932 14.4359 25 14.6925 25ZM17 20H23.6667V11.6666H17V20ZM25.3334 20H32V16.6666H25.3334V20ZM25.3334 15H32V11.6666H25.3334V15Z" fill="white"/>
</g>
</svg>
