<svg width="101" height="100" viewBox="0 0 101 100" fill="none" xmlns="http://www.w3.org/2000/svg">
<mask id="mask0_972_17" style="mask-type:alpha" maskUnits="userSpaceOnUse" x="0" y="0" width="101" height="100">
<rect x="0.5" width="100" height="100" fill="#D9D9D9"/>
</mask>
<g mask="url(#mask0_972_17)">
<path d="M38 58.3334H65.0833C67.2361 58.3334 69.059 57.5695 70.5521 56.0418C72.0451 54.514 72.7917 52.6737 72.7917 50.5209C72.7917 48.3681 72.0278 46.5452 70.5 45.0522C68.9722 43.5591 67.0972 42.8126 64.875 42.8126H63.4167V42.1876C63.4167 38.8542 62.1493 36.0591 59.6146 33.8022C57.0799 31.5452 54.0417 30.4167 50.5 30.4167C48.2083 30.4167 46.0903 31.0417 44.1458 32.2917C42.2014 33.5417 40.7431 35.2084 39.7708 37.2917L39.0417 38.7501L37.4792 38.8542C34.8403 38.9931 32.6354 39.9827 30.8646 41.823C29.0938 43.6633 28.2083 45.9029 28.2083 48.5417C28.2083 51.2501 29.1632 53.5591 31.0729 55.4688C32.9826 57.3786 35.2917 58.3334 38 58.3334ZM38 55.4168C36.125 55.4168 34.5104 54.7397 33.1563 53.3855C31.8021 52.0313 31.125 50.4168 31.125 48.5417C31.125 46.6667 31.8021 45.0522 33.1563 43.698C34.5104 42.3438 36.125 41.6668 38 41.6668H40.6042C41.0208 39.2362 42.1667 37.2397 44.0417 35.6772C45.9167 34.1147 48.0694 33.3334 50.5 33.3334C53.2778 33.3334 55.6389 34.3056 57.5833 36.2501C59.5278 38.1945 60.5 40.5556 60.5 43.3334V45.8334H65.0833C66.4028 45.8334 67.5313 46.3022 68.4688 47.2397C69.4063 48.1772 69.875 49.3056 69.875 50.6251C69.875 51.9445 69.4063 53.073 68.4688 54.0105C67.5313 54.948 66.4028 55.4168 65.0833 55.4168H38ZM39.25 82.0834V79.1668H47.5833V70.8334H20.5C18.6944 70.8334 17.2014 70.2431 16.0208 69.0626C14.8403 67.882 14.25 66.389 14.25 64.5834V24.1667C14.25 22.3612 14.8403 20.8681 16.0208 19.6876C17.2014 18.507 18.6944 17.9167 20.5 17.9167H80.5C82.3056 17.9167 83.7986 18.507 84.9792 19.6876C86.1597 20.8681 86.75 22.3612 86.75 24.1667V64.5834C86.75 66.389 86.1597 67.882 84.9792 69.0626C83.7986 70.2431 82.3056 70.8334 80.5 70.8334H53.4167V79.1668H61.75V82.0834H39.25ZM20.5 67.9168H80.5C81.3333 67.9168 82.0972 67.5695 82.7917 66.8751C83.4861 66.1806 83.8333 65.4168 83.8333 64.5834V24.1667C83.8333 23.3334 83.4861 22.5695 82.7917 21.8751C82.0972 21.1806 81.3333 20.8334 80.5 20.8334H20.5C19.6667 20.8334 18.9028 21.1806 18.2083 21.8751C17.5139 22.5695 17.1667 23.3334 17.1667 24.1667V64.5834C17.1667 65.4168 17.5139 66.1806 18.2083 66.8751C18.9028 67.5695 19.6667 67.9168 20.5 67.9168Z" fill="#2CA1C7"/>
</g>
</svg>
