<svg width="101" height="100" viewBox="0 0 101 100" fill="none" xmlns="http://www.w3.org/2000/svg">
<mask id="mask0_972_11" style="mask-type:alpha" maskUnits="userSpaceOnUse" x="0" y="0" width="101" height="100">
<rect x="0.5" width="100" height="100" fill="#D9D9D9"/>
</mask>
<g mask="url(#mask0_972_11)">
<path d="M50.2917 79.1667L60.5 45.2083H51.125V20.2083L40.9167 54.375H50.2917V79.1667ZM50.5177 86.25C45.5059 86.25 40.7931 85.299 36.3792 83.3969C31.9653 81.4948 28.126 78.9132 24.8615 75.6521C21.5962 72.391 19.0115 68.5566 17.1073 64.149C15.2024 59.7406 14.25 55.0302 14.25 50.0177C14.25 45.0059 15.201 40.2931 17.1031 35.8792C19.0052 31.4653 21.5868 27.626 24.8479 24.3615C28.109 21.0962 31.9434 18.5115 36.351 16.6073C40.7594 14.7024 45.4698 13.75 50.4823 13.75C55.4941 13.75 60.2069 14.701 64.6208 16.6031C69.0347 18.5052 72.874 21.0868 76.1385 24.3479C79.4038 27.609 81.9885 31.4434 83.8927 35.851C85.7976 40.2594 86.75 44.9698 86.75 49.9823C86.75 54.9941 85.799 59.7069 83.8969 64.1208C81.9948 68.5347 79.4132 72.374 76.1521 75.6385C72.891 78.9038 69.0566 81.4885 64.649 83.3927C60.2406 85.2976 55.5302 86.25 50.5177 86.25ZM50.5 83.3333C59.7361 83.3333 67.6007 80.0868 74.0938 73.5938C80.5868 67.1007 83.8333 59.2361 83.8333 50C83.8333 40.7639 80.5868 32.8993 74.0938 26.4063C67.6007 19.9132 59.7361 16.6667 50.5 16.6667C41.2639 16.6667 33.3993 19.9132 26.9063 26.4063C20.4132 32.8993 17.1667 40.7639 17.1667 50C17.1667 59.2361 20.4132 67.1007 26.9063 73.5938C33.3993 80.0868 41.2639 83.3333 50.5 83.3333Z" fill="#2CA1C7"/>
</g>
</svg>
