<svg width="9" height="6" viewBox="0 0 9 6" fill="none" xmlns="http://www.w3.org/2000/svg">
<path d="M0.00116062 0.851445C0.000867844 0.652853 0.0530643 0.460393 0.14869 0.307477C0.202538 0.221413 0.268671 0.150271 0.3433 0.0981246C0.41793 0.0459785 0.499588 0.0138536 0.583601 0.0035897C0.667614 -0.00667418 0.75233 0.00512483 0.832896 0.0383107C0.913463 0.0714965 0.988297 0.125416 1.05311 0.196984L4.4912 4.00476L7.93571 0.332976C8.00132 0.262375 8.07681 0.209651 8.15785 0.177836C8.23889 0.146021 8.32387 0.135741 8.40792 0.147589C8.49197 0.159437 8.57342 0.193177 8.64759 0.246871C8.72176 0.300566 8.7872 0.373156 8.84013 0.460468C8.89852 0.548409 8.94257 0.651394 8.9695 0.76296C8.99644 0.874526 9.00568 0.992266 8.99664 1.10879C8.98761 1.22531 8.96049 1.3381 8.917 1.44008C8.87351 1.54206 8.81458 1.63102 8.74392 1.70139L4.89531 5.80665C4.78053 5.93166 4.63657 6 4.488 6C4.33942 6 4.19546 5.93166 4.08068 5.80665L0.232078 1.5569C0.154452 1.47164 0.0930901 1.36333 0.0529699 1.24075C0.0128489 1.11818 -0.00490189 0.984807 0.00116062 0.851445Z" fill="#2C95BA"/>
</svg>
