<svg width="12" height="10" viewBox="0 0 12 10" fill="none" xmlns="http://www.w3.org/2000/svg">
<path fill-rule="evenodd" clip-rule="evenodd" d="M6.55843 9.7902C6.4927 9.72386 6.44055 9.64506 6.40497 9.5583C6.36939 9.47154 6.35107 9.37853 6.35107 9.28459C6.35107 9.19066 6.36939 9.09765 6.40497 9.01089C6.44055 8.92413 6.4927 8.84533 6.55843 8.77899L10.295 4.99981L6.55843 1.22064C6.49281 1.15424 6.44075 1.07542 6.40524 0.988664C6.36972 0.901912 6.35144 0.808932 6.35144 0.715033C6.35144 0.621133 6.36972 0.528153 6.40524 0.441401C6.44075 0.35465 6.49281 0.275825 6.55843 0.209428C6.62405 0.143031 6.70196 0.0903624 6.7877 0.0544286C6.87344 0.0184949 6.96534 -1.85098e-09 7.05814 0C7.15095 1.85098e-09 7.24284 0.0184949 7.32859 0.0544286C7.41433 0.0903624 7.49223 0.143031 7.55785 0.209428L11.7927 4.49421C11.8584 4.56055 11.9106 4.63935 11.9462 4.72611C11.9817 4.81287 12.0001 4.90588 12.0001 4.99981C12.0001 5.09375 11.9817 5.18676 11.9462 5.27352C11.9106 5.36028 11.8584 5.43908 11.7927 5.50542L7.55785 9.7902C7.49229 9.8567 7.4144 9.90947 7.32866 9.94547C7.24291 9.98147 7.15098 10 7.05814 10C6.9653 10 6.87338 9.98147 6.78763 9.94547C6.70188 9.90947 6.62399 9.8567 6.55843 9.7902Z" fill="#FF6515"/>
<path fill-rule="evenodd" clip-rule="evenodd" d="M0 4.99977C0 4.81038 0.0743618 4.62873 0.206726 4.49481C0.339091 4.36088 0.518616 4.28564 0.705808 4.28564L9.88131 4.28564C10.0685 4.28564 10.248 4.36088 10.3804 4.49481C10.5128 4.62873 10.5871 4.81038 10.5871 4.99977C10.5871 5.18917 10.5128 5.37082 10.3804 5.50474C10.248 5.63867 10.0685 5.7139 9.88131 5.7139H0.705808C0.518616 5.7139 0.339091 5.63867 0.206726 5.50474C0.0743618 5.37082 0 5.18917 0 4.99977Z" fill="#FF6515"/>
</svg>
