<svg width="100" height="62" viewBox="0 0 100 62" fill="none" xmlns="http://www.w3.org/2000/svg">
<path d="M99.1239 22.7474L50.6038 1.05192C50.2192 0.879502 49.7806 0.879502 49.396 1.05192L29.7246 9.84777C28.9792 10.1812 28.645 11.0555 28.9784 11.8016C29.3118 12.5478 30.1869 12.8819 30.9331 12.5485L49.9995 4.02278L67.4546 11.8276V22.7238C58.1911 19.3364 50.3917 19.0792 50.0407 19.0693C50.0132 19.0686 49.9858 19.0686 49.9583 19.0693C49.5822 19.0792 40.636 19.3745 30.5058 23.5119C26.4646 25.1613 22.7728 27.2152 19.5333 29.6153C19.2907 29.7954 19.1137 30.0426 19.0176 30.3203L5.10325 24.0978L24.6099 15.3752C25.356 15.0418 25.6902 14.1675 25.356 13.4213C25.0226 12.6752 24.1476 12.341 23.4022 12.6744L0.875083 22.7474C0.342556 22.9855 0 23.5149 0 24.0978C0 24.6815 0.342556 25.2102 0.875083 25.4482L18.9344 33.5246V40.6084C18.9344 41.4255 19.5974 42.0877 20.4138 42.0877C21.2309 42.0877 21.8931 41.4255 21.8931 40.6084V32.5969C21.8931 32.5961 21.8931 32.5946 21.8931 32.5938V31.557C24.7892 29.4895 28.0591 27.7057 31.6243 26.2508C40.8954 22.4644 49.3403 22.0547 50.0003 22.028C50.6465 22.0532 58.5337 22.43 67.4546 25.8846V40.5848C65.2917 41.2241 63.7079 43.2291 63.7079 45.5972C63.7079 47.7731 65.0445 49.6423 66.9404 50.4274L65.9059 53.1503C59.1555 54.3122 53.8104 55.9113 49.9995 57.9148C41.222 53.3036 26.5233 52.0005 21.8939 51.6946V47.545C21.8939 46.7279 21.2309 46.0657 20.4145 46.0657C19.5974 46.0657 18.9352 46.7279 18.9352 47.545V53.0923C18.9352 53.8834 19.5585 54.535 20.3497 54.5701C20.5427 54.5785 39.7686 55.4764 49.2679 60.8864C49.4944 61.0153 49.747 61.0802 50.0003 61.0802C50.2528 61.0802 50.5053 61.0153 50.7327 60.8856C53.9263 59.0653 58.7152 57.5211 64.6791 56.3782L63.8048 58.6808C63.6316 59.1355 63.6934 59.6459 63.9696 60.0464C64.2457 60.4462 64.7012 60.6857 65.1872 60.6857H72.6822C73.169 60.6857 73.6237 60.4462 73.8999 60.0464C74.1761 59.6459 74.2379 59.1355 74.0654 58.6808L72.728 55.1614C76.7533 54.7005 79.6173 54.5708 79.6501 54.5693C80.4413 54.535 81.0653 53.8834 81.0653 53.0915V47.5442C81.0653 46.7279 80.4024 46.0649 79.586 46.0649C78.7689 46.0649 78.1067 46.7279 78.1067 47.5442V51.6961C76.7258 51.7892 74.4309 51.9731 71.6439 52.3095L70.929 50.4274C72.8242 49.6423 74.1616 47.7731 74.1616 45.5972C74.1616 43.2283 72.5777 41.2241 70.414 40.5848V27.1381C73.1926 28.413 75.7729 29.8908 78.1067 31.557V32.5938V32.5969V40.6084C78.1067 41.4255 78.7689 42.0877 79.586 42.0877C80.4031 42.0877 81.0653 41.4255 81.0653 40.6084V33.5246L99.1247 25.4482C99.6572 25.2102 99.9998 24.6815 99.9998 24.0978C99.9998 23.5149 99.6565 22.9855 99.1239 22.7474ZM67.331 57.7271L68.934 53.5088L70.5369 57.7271H67.331ZM71.2022 45.5972C71.2022 46.8477 70.1852 47.8647 68.934 47.8647C67.6835 47.8647 66.6665 46.8477 66.6665 45.5972C66.6665 44.346 67.6835 43.329 68.934 43.329C70.1852 43.329 71.2022 44.346 71.2022 45.5972ZM80.9814 30.3203C80.8853 30.0426 80.7083 29.7954 80.4657 29.6153C77.475 27.399 74.0944 25.4825 70.4133 23.9025V13.1505L94.8958 24.0978L80.9814 30.3203Z" fill="white"/>
</svg>
