<svg width="20" height="20" viewBox="0 0 20 20" fill="none" xmlns="http://www.w3.org/2000/svg">
<g clip-path="url(#clip0)">
<path d="M7.95621 1.05359L7.40534 2.03744L8.33954 2.56056C6.86478 2.9293 5.5168 3.70341 4.43711 4.82069C2.9499 6.35973 2.13086 8.38623 2.13086 10.527C2.13086 10.7538 2.14042 10.9797 2.1588 11.2044C2.47443 10.8856 2.84688 10.6231 3.25957 10.4337C3.28293 8.62135 3.98666 6.90951 5.24797 5.60421C6.20077 4.61819 7.39559 3.94188 8.70183 3.63291L7.834 4.67796L8.70149 5.39834L10.9277 2.71746L7.95621 1.05359Z" fill="white"/>
<path d="M18.5346 9.90137H17.4037C17.4197 10.0964 17.428 10.2925 17.428 10.4894C17.428 12.1921 16.8152 13.8379 15.7025 15.1235C14.9041 16.046 13.8872 16.7414 12.7583 17.1513L13.5015 15.9885L12.5515 15.3812L10.6748 18.3175L13.8297 19.6L14.2544 18.5555L13.2806 18.1596C14.5342 17.6788 15.6627 16.8926 16.5551 15.8615C17.8452 14.3709 18.5557 12.4631 18.5557 10.4894C18.5556 10.2927 18.5485 10.0966 18.5346 9.90137Z" fill="white"/>
<path d="M6.78338 15.5454C7.18275 15.0866 7.42545 14.488 7.42545 13.8334C7.42545 12.3937 6.25418 11.2224 4.81444 11.2224C3.37474 11.2224 2.20346 12.3937 2.20346 13.8334C2.20346 14.4893 2.4471 15.089 2.8479 15.5481C1.43344 16.0737 0.422852 17.4372 0.422852 19.0324V19.5962H9.21559V19.0324C9.21566 17.4344 8.2017 16.069 6.78338 15.5454Z" fill="white"/>
<path d="M17.1427 4.72299C17.5421 4.26425 17.7848 3.6656 17.7848 3.01104C17.7848 1.5713 16.6135 0.400024 15.1738 0.400024C13.734 0.400024 12.5628 1.5713 12.5628 3.011C12.5628 3.66691 12.8064 4.26661 13.2072 4.72572C11.7928 5.25132 10.7822 6.61479 10.7822 8.21004V8.77381H19.575V8.21004C19.575 6.61209 18.561 5.2466 17.1427 4.72299Z" fill="white"/>
</g>
<defs>
<clipPath id="clip0">
<rect width="19.2" height="19.2" fill="white" transform="translate(0.398438 0.400024)"/>
</clipPath>
</defs>
</svg>
