<svg width="25" height="24" viewBox="0 0 25 24" fill="none" xmlns="http://www.w3.org/2000/svg">
<path d="M15.2503 8L12.6603 10.59L10.0703 8L8.66028 9.41L11.2503 12L8.66028 14.59L10.0703 16L12.6603 13.41L15.2503 16L16.6603 14.59L14.0703 12L16.6603 9.41L15.2503 8ZM12.6603 2C7.13028 2 2.66028 6.47 2.66028 12C2.66028 17.53 7.13028 22 12.6603 22C18.1903 22 22.6603 17.53 22.6603 12C22.6603 6.47 18.1903 2 12.6603 2ZM12.6603 20C8.25028 20 4.66028 16.41 4.66028 12C4.66028 7.59 8.25028 4 12.6603 4C17.0703 4 20.6603 7.59 20.6603 12C20.6603 16.41 17.0703 20 12.6603 20Z" fill="black"/>
</svg>
