<svg width="111" height="34" viewBox="0 0 111 34" fill="none" xmlns="http://www.w3.org/2000/svg">
<rect opacity="0.6" x="0.5" y="0.5" width="110" height="33" rx="1.5" stroke="black" stroke-opacity="0.85"/>
<path d="M16.97 22.14C16.4193 22.14 15.8967 22.0467 15.402 21.86C14.9073 21.664 14.4687 21.3653 14.086 20.964C13.7033 20.5533 13.4 20.0353 13.176 19.41C12.952 18.7847 12.84 18.038 12.84 17.17V16.89C12.84 16.05 12.952 15.3267 13.176 14.72C13.4 14.1133 13.7033 13.614 14.086 13.222C14.4687 12.83 14.9073 12.5407 15.402 12.354C15.8967 12.158 16.4193 12.06 16.97 12.06C17.502 12.06 17.9873 12.13 18.426 12.27C18.874 12.41 19.266 12.6107 19.602 12.872C19.938 13.1333 20.2087 13.4553 20.414 13.838C20.6287 14.2207 20.764 14.6547 20.82 15.14H19.42C19.2893 14.5053 19.014 14.0293 18.594 13.712C18.174 13.3947 17.6327 13.236 16.97 13.236C16.6247 13.236 16.2887 13.3013 15.962 13.432C15.6353 13.5627 15.3413 13.7727 15.08 14.062C14.828 14.342 14.6227 14.7153 14.464 15.182C14.3147 15.6487 14.24 16.218 14.24 16.89V17.17C14.24 17.8793 14.324 18.4767 14.492 18.962C14.66 19.438 14.8747 19.8253 15.136 20.124C15.3973 20.4227 15.6913 20.6373 16.018 20.768C16.3447 20.8987 16.662 20.964 16.97 20.964C17.698 20.964 18.2673 20.7867 18.678 20.432C19.0887 20.0773 19.336 19.62 19.42 19.06H20.82C20.7453 19.6013 20.596 20.068 20.372 20.46C20.148 20.8427 19.8633 21.16 19.518 21.412C19.182 21.664 18.7947 21.8507 18.356 21.972C17.9267 22.084 17.4647 22.14 16.97 22.14ZM22.6356 12.2H23.8676V15.91C23.961 15.714 24.0823 15.5273 24.2316 15.35C24.381 15.1727 24.5583 15.0187 24.7636 14.888C24.969 14.748 25.2023 14.6407 25.4636 14.566C25.725 14.482 26.0096 14.44 26.3176 14.44C27.251 14.44 27.9416 14.692 28.3896 15.196C28.847 15.6907 29.0756 16.4187 29.0756 17.38V22H27.8436V17.66C27.8436 16.9693 27.699 16.4467 27.4096 16.092C27.1203 15.7373 26.635 15.56 25.9536 15.56C25.5896 15.56 25.2723 15.6207 25.0016 15.742C24.7403 15.8633 24.5256 16.022 24.3576 16.218C24.1896 16.414 24.0636 16.638 23.9796 16.89C23.905 17.142 23.8676 17.3987 23.8676 17.66V22H22.6356V12.2ZM34.3289 22.14C33.8529 22.14 33.4002 22.0653 32.9709 21.916C32.5416 21.7573 32.1636 21.524 31.8369 21.216C31.5102 20.8987 31.2489 20.502 31.0529 20.026C30.8569 19.55 30.7589 18.9947 30.7589 18.36V18.08C30.7589 17.4827 30.8569 16.9553 31.0529 16.498C31.2489 16.0407 31.5102 15.6627 31.8369 15.364C32.1636 15.056 32.5416 14.8273 32.9709 14.678C33.4002 14.5193 33.8529 14.44 34.3289 14.44C34.8049 14.44 35.2576 14.5193 35.6869 14.678C36.1162 14.8273 36.4942 15.056 36.8209 15.364C37.1476 15.6627 37.4089 16.0407 37.6049 16.498C37.8009 16.9553 37.8989 17.4827 37.8989 18.08V18.36C37.8989 18.9947 37.8009 19.55 37.6049 20.026C37.4089 20.502 37.1476 20.8987 36.8209 21.216C36.4942 21.524 36.1162 21.7573 35.6869 21.916C35.2576 22.0653 34.8049 22.14 34.3289 22.14ZM34.3289 21.02C34.6089 21.02 34.8889 20.9733 35.1689 20.88C35.4489 20.7773 35.6962 20.6233 35.9109 20.418C36.1256 20.2033 36.2982 19.928 36.4289 19.592C36.5689 19.256 36.6389 18.8453 36.6389 18.36V18.08C36.6389 17.632 36.5689 17.2493 36.4289 16.932C36.2982 16.6147 36.1256 16.3533 35.9109 16.148C35.6962 15.9427 35.4489 15.7933 35.1689 15.7C34.8889 15.6067 34.6089 15.56 34.3289 15.56C34.0489 15.56 33.7689 15.6067 33.4889 15.7C33.2089 15.7933 32.9616 15.9427 32.7469 16.148C32.5322 16.3533 32.3549 16.6147 32.2149 16.932C32.0842 17.2493 32.0189 17.632 32.0189 18.08V18.36C32.0189 18.8453 32.0842 19.256 32.2149 19.592C32.3549 19.928 32.5322 20.2033 32.7469 20.418C32.9616 20.6233 33.2089 20.7773 33.4889 20.88C33.7689 20.9733 34.0489 21.02 34.3289 21.02ZM42.7234 22.14C42.2474 22.14 41.7948 22.0653 41.3654 21.916C40.9361 21.7573 40.5581 21.524 40.2314 21.216C39.9048 20.8987 39.6434 20.502 39.4474 20.026C39.2514 19.55 39.1534 18.9947 39.1534 18.36V18.08C39.1534 17.4827 39.2514 16.9553 39.4474 16.498C39.6434 16.0407 39.9048 15.6627 40.2314 15.364C40.5581 15.056 40.9361 14.8273 41.3654 14.678C41.7948 14.5193 42.2474 14.44 42.7234 14.44C43.1994 14.44 43.6521 14.5193 44.0814 14.678C44.5108 14.8273 44.8888 15.056 45.2154 15.364C45.5421 15.6627 45.8034 16.0407 45.9994 16.498C46.1954 16.9553 46.2934 17.4827 46.2934 18.08V18.36C46.2934 18.9947 46.1954 19.55 45.9994 20.026C45.8034 20.502 45.5421 20.8987 45.2154 21.216C44.8888 21.524 44.5108 21.7573 44.0814 21.916C43.6521 22.0653 43.1994 22.14 42.7234 22.14ZM42.7234 21.02C43.0034 21.02 43.2834 20.9733 43.5634 20.88C43.8434 20.7773 44.0908 20.6233 44.3054 20.418C44.5201 20.2033 44.6928 19.928 44.8234 19.592C44.9634 19.256 45.0334 18.8453 45.0334 18.36V18.08C45.0334 17.632 44.9634 17.2493 44.8234 16.932C44.6928 16.6147 44.5201 16.3533 44.3054 16.148C44.0908 15.9427 43.8434 15.7933 43.5634 15.7C43.2834 15.6067 43.0034 15.56 42.7234 15.56C42.4434 15.56 42.1634 15.6067 41.8834 15.7C41.6034 15.7933 41.3561 15.9427 41.1414 16.148C40.9268 16.3533 40.7494 16.6147 40.6094 16.932C40.4788 17.2493 40.4134 17.632 40.4134 18.08V18.36C40.4134 18.8453 40.4788 19.256 40.6094 19.592C40.7494 19.928 40.9268 20.2033 41.1414 20.418C41.3561 20.6233 41.6034 20.7773 41.8834 20.88C42.1634 20.9733 42.4434 21.02 42.7234 21.02ZM50.628 22.14C50.1333 22.14 49.704 22.084 49.34 21.972C48.9853 21.8507 48.682 21.692 48.43 21.496C48.178 21.3 47.982 21.0713 47.842 20.81C47.702 20.5487 47.604 20.2687 47.548 19.97H48.78C48.8453 20.2687 49.018 20.53 49.298 20.754C49.5873 20.9687 50.0306 21.076 50.628 21.076C50.9733 21.076 51.2626 21.048 51.496 20.992C51.7293 20.9267 51.916 20.8473 52.056 20.754C52.2053 20.6513 52.3126 20.5347 52.378 20.404C52.4433 20.264 52.476 20.1193 52.476 19.97C52.476 19.8113 52.4433 19.6713 52.378 19.55C52.322 19.4287 52.2146 19.3213 52.056 19.228C51.9066 19.1253 51.6966 19.0367 51.426 18.962C51.1646 18.878 50.8333 18.808 50.432 18.752C50.0213 18.696 49.648 18.6167 49.312 18.514C48.9853 18.402 48.7053 18.2573 48.472 18.08C48.248 17.9027 48.0706 17.6927 47.94 17.45C47.8186 17.198 47.758 16.8947 47.758 16.54C47.758 16.26 47.8186 15.994 47.94 15.742C48.0613 15.49 48.2433 15.266 48.486 15.07C48.7286 14.874 49.0273 14.72 49.382 14.608C49.7366 14.496 50.152 14.44 50.628 14.44C51.0666 14.44 51.4493 14.5007 51.776 14.622C52.1026 14.734 52.378 14.888 52.602 15.084C52.8353 15.28 53.0173 15.5087 53.148 15.77C53.2786 16.0313 53.372 16.3113 53.428 16.61H52.196C52.1213 16.2833 51.9626 16.0173 51.72 15.812C51.4773 15.6067 51.1133 15.504 50.628 15.504C50.0213 15.504 49.5966 15.6067 49.354 15.812C49.1113 16.008 48.99 16.2507 48.99 16.54C48.99 16.708 49.018 16.8527 49.074 16.974C49.1393 17.0953 49.242 17.2027 49.382 17.296C49.5313 17.3893 49.7226 17.4687 49.956 17.534C50.1986 17.59 50.4973 17.6413 50.852 17.688C51.3093 17.744 51.7153 17.828 52.07 17.94C52.4246 18.0427 52.7233 18.1873 52.966 18.374C53.2086 18.5513 53.3906 18.7707 53.512 19.032C53.6426 19.2933 53.708 19.606 53.708 19.97C53.708 20.2687 53.6426 20.5487 53.512 20.81C53.3906 21.0713 53.204 21.3 52.952 21.496C52.7 21.692 52.378 21.8507 51.986 21.972C51.6033 22.084 51.1506 22.14 50.628 22.14ZM58.5418 22.14C58.0658 22.14 57.6131 22.0653 57.1838 21.916C56.7545 21.7667 56.3765 21.538 56.0498 21.23C55.7231 20.9127 55.4618 20.516 55.2658 20.04C55.0698 19.564 54.9718 19.004 54.9718 18.36V18.08C54.9718 17.464 55.0651 16.932 55.2518 16.484C55.4385 16.0267 55.6858 15.6487 55.9938 15.35C56.3111 15.042 56.6751 14.8133 57.0858 14.664C57.5058 14.5147 57.9445 14.44 58.4018 14.44C59.4938 14.44 60.3385 14.7387 60.9358 15.336C61.5331 15.9333 61.8318 16.778 61.8318 17.87V18.654H56.2038C56.2038 19.0927 56.2738 19.4613 56.4138 19.76C56.5538 20.0587 56.7358 20.3013 56.9598 20.488C57.1838 20.6747 57.4311 20.81 57.7018 20.894C57.9818 20.978 58.2618 21.02 58.5418 21.02C59.1018 21.02 59.5311 20.9267 59.8298 20.74C60.1378 20.5533 60.3571 20.2967 60.4878 19.97H61.6918C61.6171 20.3247 61.4818 20.6373 61.2858 20.908C61.0991 21.1787 60.8658 21.4073 60.5858 21.594C60.3151 21.7713 60.0025 21.9067 59.6478 22C59.3025 22.0933 58.9338 22.14 58.5418 22.14ZM58.4718 15.56C58.1825 15.56 57.9025 15.602 57.6318 15.686C57.3611 15.7607 57.1185 15.8867 56.9038 16.064C56.6985 16.232 56.5305 16.4467 56.3998 16.708C56.2691 16.9693 56.2038 17.282 56.2038 17.646H60.6698C60.6605 17.2633 60.5951 16.9413 60.4738 16.68C60.3618 16.4093 60.2078 16.1947 60.0118 16.036C59.8158 15.868 59.5825 15.7467 59.3118 15.672C59.0505 15.5973 58.7705 15.56 58.4718 15.56ZM69.1969 22.14C68.7862 22.14 68.4222 22.084 68.1049 21.972C67.7969 21.8507 67.5356 21.6873 67.3209 21.482C67.1062 21.2767 66.9429 21.034 66.8309 20.754C66.7189 20.474 66.6629 20.166 66.6629 19.83C66.6629 19.0927 66.8776 18.5607 67.3069 18.234C67.7456 17.9073 68.3709 17.744 69.1829 17.744H71.5909V17.24C71.5909 16.6053 71.4462 16.1667 71.1569 15.924C70.8769 15.6813 70.4522 15.56 69.8829 15.56C69.3509 15.56 68.9636 15.6627 68.7209 15.868C68.4782 16.064 68.3429 16.288 68.3149 16.54H67.0829C67.1016 16.2413 67.1809 15.966 67.3209 15.714C67.4702 15.4527 67.6662 15.2287 67.9089 15.042C68.1609 14.8553 68.4596 14.7107 68.8049 14.608C69.1502 14.496 69.5329 14.44 69.9529 14.44C70.8302 14.44 71.5256 14.65 72.0389 15.07C72.5616 15.4807 72.8229 16.1573 72.8229 17.1V20.11C72.8229 20.502 72.8229 20.8473 72.8229 21.146C72.8322 21.4353 72.8556 21.72 72.8929 22H71.8149C71.7869 21.7853 71.7682 21.5847 71.7589 21.398C71.7496 21.202 71.7449 20.9827 71.7449 20.74C71.5489 21.132 71.2316 21.4633 70.7929 21.734C70.3542 22.0047 69.8222 22.14 69.1969 22.14ZM69.4629 21.02C69.7522 21.02 70.0229 20.9827 70.2749 20.908C70.5362 20.824 70.7649 20.7073 70.9609 20.558C71.1569 20.3993 71.3109 20.208 71.4229 19.984C71.5349 19.76 71.5909 19.4987 71.5909 19.2V18.696H69.3929C68.9356 18.696 68.5762 18.7893 68.3149 18.976C68.0536 19.1533 67.9229 19.438 67.9229 19.83C67.9229 20.1753 68.0442 20.46 68.2869 20.684C68.5389 20.908 68.9309 21.02 69.4629 21.02ZM78.9189 15.672H77.8689V14.58H78.9189V14.44C78.9189 13.6653 79.0962 13.0867 79.4509 12.704C79.8149 12.3213 80.3842 12.13 81.1589 12.13C81.4389 12.13 81.7889 12.144 82.2089 12.172V13.292C82.0689 13.2733 81.9149 13.264 81.7469 13.264C81.5882 13.2547 81.4389 13.25 81.2989 13.25C80.8696 13.25 80.5709 13.3387 80.4029 13.516C80.2349 13.684 80.1509 13.992 80.1509 14.44V14.58H82.0689V15.672H80.1509V22H78.9189V15.672ZM83.7522 14.58H84.9842V22H83.7522V14.58ZM84.3682 13.6C84.1255 13.6 83.9249 13.5207 83.7662 13.362C83.6075 13.2033 83.5282 13.0027 83.5282 12.76C83.5282 12.5173 83.6075 12.3167 83.7662 12.158C83.9249 11.9993 84.1255 11.92 84.3682 11.92C84.6109 11.92 84.8115 11.9993 84.9702 12.158C85.1289 12.3167 85.2082 12.5173 85.2082 12.76C85.2082 13.0027 85.1289 13.2033 84.9702 13.362C84.8115 13.5207 84.6109 13.6 84.3682 13.6ZM89.5983 22.07C88.8236 22.07 88.2683 21.8833 87.9323 21.51C87.5963 21.1367 87.4283 20.53 87.4283 19.69V12.2H88.6603V19.69C88.6603 20.1753 88.7396 20.5067 88.8983 20.684C89.0569 20.8613 89.3369 20.95 89.7383 20.95C89.8409 20.95 89.9296 20.95 90.0043 20.95C90.0789 20.9407 90.1536 20.9313 90.2283 20.922V22.014C90.1536 22.0327 90.0463 22.0467 89.9063 22.056C89.7756 22.0653 89.6729 22.07 89.5983 22.07ZM94.7859 22.14C94.3099 22.14 93.8573 22.0653 93.4279 21.916C92.9986 21.7667 92.6206 21.538 92.2939 21.23C91.9673 20.9127 91.7059 20.516 91.5099 20.04C91.3139 19.564 91.2159 19.004 91.2159 18.36V18.08C91.2159 17.464 91.3093 16.932 91.4959 16.484C91.6826 16.0267 91.9299 15.6487 92.2379 15.35C92.5553 15.042 92.9193 14.8133 93.3299 14.664C93.7499 14.5147 94.1886 14.44 94.6459 14.44C95.7379 14.44 96.5826 14.7387 97.1799 15.336C97.7773 15.9333 98.0759 16.778 98.0759 17.87V18.654H92.4479C92.4479 19.0927 92.5179 19.4613 92.6579 19.76C92.7979 20.0587 92.9799 20.3013 93.2039 20.488C93.4279 20.6747 93.6753 20.81 93.9459 20.894C94.2259 20.978 94.5059 21.02 94.7859 21.02C95.3459 21.02 95.7753 20.9267 96.0739 20.74C96.3819 20.5533 96.6013 20.2967 96.7319 19.97H97.9359C97.8613 20.3247 97.7259 20.6373 97.5299 20.908C97.3433 21.1787 97.1099 21.4073 96.8299 21.594C96.5593 21.7713 96.2466 21.9067 95.8919 22C95.5466 22.0933 95.1779 22.14 94.7859 22.14ZM94.7159 15.56C94.4266 15.56 94.1466 15.602 93.8759 15.686C93.6053 15.7607 93.3626 15.8867 93.1479 16.064C92.9426 16.232 92.7746 16.4467 92.6439 16.708C92.5133 16.9693 92.4479 17.282 92.4479 17.646H96.9139C96.9046 17.2633 96.8393 16.9413 96.7179 16.68C96.6059 16.4093 96.4519 16.1947 96.2559 16.036C96.0599 15.868 95.8266 15.7467 95.5559 15.672C95.2946 15.5973 95.0146 15.56 94.7159 15.56Z" fill="black" fill-opacity="0.85"/>
</svg>
