<svg width="37" height="47" viewBox="0 0 37 47" fill="none" xmlns="http://www.w3.org/2000/svg">
<path d="M35.8047 46.8873H1.71526C1.16666 46.8873 0.724731 46.441 0.724731 45.8964V1.88579C0.724731 1.34115 1.16666 0.894836 1.71526 0.894836H22.6688C23.2174 0.894836 23.6593 1.34115 23.6593 1.88579C23.6593 2.43044 23.2174 2.87675 22.6688 2.87675H2.70579V44.9054H34.8065V14.9195C34.8065 14.3749 35.2485 13.9286 35.7971 13.9286C36.3457 13.9286 36.7876 14.3749 36.7876 14.9195V45.8964C36.7952 46.4486 36.3533 46.8873 35.8047 46.8873Z" fill="black"/>
<path d="M35.355 16.3638H22.6762C21.8761 16.3638 21.2285 15.7132 21.2285 14.919V2.33155C21.2285 1.53727 21.8761 0.886719 22.6762 0.886719C22.9352 0.886719 23.1867 0.992622 23.3772 1.17417L36.5055 14.2079C36.696 14.397 36.795 14.6466 36.795 14.9114C36.795 15.7132 36.1474 16.3638 35.355 16.3638ZM23.2095 14.3743H33.8463L23.2095 3.8142V14.3743Z" fill="black"/>
<path d="M28.912 31.63H9.20266C8.65467 31.63 8.20884 31.1867 8.20884 30.6327C8.20884 30.0878 8.65467 29.6353 9.20266 29.6353H28.912C29.4599 29.6353 29.9058 30.0786 29.9058 30.6327C29.9058 31.1775 29.4599 31.63 28.912 31.63Z" fill="black"/>
<path d="M28.912 24.3813H9.20266C8.65467 24.3813 8.20884 23.9381 8.20884 23.384C8.20884 22.8392 8.65467 22.3867 9.20266 22.3867H28.912C29.4599 22.3867 29.9058 22.8299 29.9058 23.384C29.9058 23.9381 29.4599 24.3813 28.912 24.3813Z" fill="black"/>
<path d="M28.912 38.8705H9.20266C8.65467 38.8705 8.20884 38.4273 8.20884 37.8732C8.20884 37.3191 8.65467 36.8759 9.20266 36.8759H28.912C29.4599 36.8759 29.9058 37.3191 29.9058 37.8732C29.9058 38.4273 29.4599 38.8705 28.912 38.8705Z" fill="black"/>
</svg>
