<svg width="160" height="42" viewBox="0 0 160 42" fill="none" xmlns="http://www.w3.org/2000/svg">
<path d="M0.639282 30.1001H2.2415V39.3873H0.639282V30.1001Z" fill="#EA0029"/>
<path d="M6.96495 37.9317C7.36258 37.9334 7.75685 37.8578 8.12617 37.7089C8.45458 37.5981 8.74628 37.3976 8.96896 37.1297L9.45893 38.3822C9.21858 38.754 8.87875 39.0493 8.47893 39.2337C7.99008 39.4758 7.45039 39.5947 6.90612 39.5802C6.43891 39.5774 5.97593 39.4902 5.5391 39.3228C5.12527 39.1643 4.74708 38.9235 4.42686 38.6149C4.11134 38.3088 3.86266 37.9396 3.6968 37.5307C3.35514 36.6409 3.34296 35.6565 3.6625 34.7584C3.81496 34.3537 4.04283 33.9823 4.33377 33.6643C4.62722 33.3395 4.98429 33.0799 5.38231 32.902C5.81758 32.7096 6.28902 32.615 6.76402 32.6247C7.21615 32.6175 7.66385 32.7158 8.07228 32.9118C8.44715 33.0955 8.78066 33.355 9.05223 33.6742C9.3288 34.0003 9.5446 34.3744 9.6892 34.7782C9.85417 35.201 9.94213 35.6505 9.9489 36.1049C9.9489 36.199 9.9489 36.303 9.9489 36.4069C9.94829 36.4985 9.93846 36.5897 9.91946 36.6792H5.07363C5.09906 36.8749 5.16889 37.0622 5.27768 37.2262C5.38646 37.3902 5.53126 37.5266 5.7008 37.6248C6.08783 37.8384 6.52407 37.9443 6.96495 37.9317ZM8.29277 35.3525C8.27403 35.1914 8.22045 35.0365 8.13574 34.8987C8.05109 34.761 7.93741 34.6438 7.8028 34.5554C7.4944 34.3672 7.13889 34.2727 6.77874 34.2831C6.40657 34.276 6.03935 34.3701 5.71549 34.5554C5.56853 34.6378 5.44138 34.752 5.34313 34.8897C5.24488 35.0276 5.17795 35.1855 5.14712 35.3525H8.29277Z" fill="#EA0029"/>
<path d="M11.0316 33.7981C11.1507 33.6082 11.3016 33.4407 11.4775 33.3031C11.6614 33.1546 11.8641 33.0314 12.0801 32.9367C12.3044 32.8352 12.5395 32.7605 12.7808 32.714C13.0277 32.6645 13.2788 32.6396 13.5305 32.6397C13.9278 32.6347 14.3233 32.6949 14.7015 32.8179C15.031 32.9222 15.3373 33.0903 15.6031 33.313C15.8606 33.546 16.0617 33.8356 16.191 34.1595C16.3333 34.513 16.4033 34.8919 16.3968 35.2734V39.3972H14.8485V38.813C14.6665 39.0758 14.4052 39.2721 14.1037 39.3724C13.4741 39.6117 12.7824 39.6257 12.1438 39.412C11.8698 39.3153 11.6145 39.1712 11.3892 38.9862C11.177 38.8008 11.0093 38.5688 10.8993 38.308C10.7785 38.0236 10.7184 37.7166 10.7229 37.4071C10.7189 37.0859 10.7911 36.7684 10.9336 36.4813C11.0689 36.2169 11.2616 35.9868 11.4971 35.808C11.7406 35.6201 12.0163 35.4791 12.3104 35.3922C12.6187 35.2984 12.9391 35.2517 13.261 35.2535C13.6095 35.2436 13.9572 35.2921 14.2899 35.3971C14.4925 35.4568 14.6775 35.5655 14.8289 35.714V35.5308C14.8357 35.3601 14.8059 35.1899 14.7416 35.0318C14.6774 34.8738 14.5801 34.7316 14.4565 34.615C14.1481 34.3652 13.7582 34.2416 13.3639 34.2684C12.9782 34.2643 12.5966 34.3472 12.2468 34.511C11.9239 34.6535 11.6398 34.8725 11.4187 35.1496L11.0316 33.7981ZM14.7946 37.0258C14.6851 36.8762 14.5302 36.7667 14.3536 36.714C14.1026 36.6212 13.8369 36.5758 13.5697 36.5803C13.242 36.5595 12.915 36.6296 12.624 36.7833C12.5291 36.8363 12.4497 36.9136 12.3938 37.0075C12.3379 37.1013 12.3075 37.2084 12.3055 37.3179C12.3057 37.4278 12.336 37.5355 12.3931 37.629C12.4502 37.7225 12.5318 37.7982 12.6289 37.8476C12.9143 37.9967 13.2342 38.0651 13.555 38.0456C13.8245 38.0502 14.0918 37.9962 14.3389 37.8872C14.5288 37.8104 14.6888 37.6731 14.7946 37.4961V37.0258Z" fill="#EA0029"/>
<path d="M17.7885 37.5111C17.5125 36.8603 17.4346 36.1413 17.5646 35.4457C17.6946 34.7501 18.0268 34.1093 18.5186 33.6051C18.8179 33.302 19.1723 33.06 19.5622 32.8922C19.9544 32.7246 20.376 32.6388 20.8019 32.6397C21.2251 32.6261 21.6459 32.7108 22.0317 32.8873C22.324 33.0037 22.5644 33.2237 22.7079 33.5061V30.1001H24.3101V39.3873H22.7716V38.6992C22.6225 38.9809 22.3795 39.2001 22.0856 39.318C21.6935 39.491 21.2688 39.5755 20.8411 39.5655C20.411 39.5662 19.9849 39.4821 19.5867 39.318C19.1924 39.1576 18.834 38.9186 18.5333 38.615C18.2154 38.3002 17.9623 37.9251 17.7885 37.5111ZM19.2585 35.3972C19.1652 35.6212 19.1185 35.8621 19.1213 36.1051C19.1174 36.3466 19.1642 36.5862 19.2585 36.8081C19.3478 37.0167 19.4796 37.204 19.6455 37.3576C19.817 37.516 20.0188 37.6373 20.2384 37.714C20.4838 37.8016 20.7425 37.8451 21.0028 37.8427C21.375 37.8489 21.7431 37.7639 22.0758 37.5952C22.3463 37.4675 22.5646 37.2487 22.6932 36.9764V35.2289C22.5659 34.9556 22.3473 34.7364 22.0758 34.6101C21.7927 34.4682 21.4846 34.3844 21.1693 34.3631C20.854 34.3418 20.5376 34.3837 20.2384 34.4863C20.0188 34.563 19.817 34.6843 19.6455 34.8427C19.4901 35.001 19.3684 35.1897 19.2879 35.3972H19.2585Z" fill="#EA0029"/>
<path d="M29.0579 37.9317C29.4556 37.9334 29.8498 37.8578 30.2192 37.7089C30.5458 37.5923 30.8341 37.3868 31.0522 37.1148L31.5421 38.3673C31.3018 38.7391 30.962 39.0344 30.5622 39.2188C30.0733 39.461 29.5336 39.5799 28.9894 39.5654C28.5181 39.5691 28.05 39.4869 27.6076 39.3228C27.199 39.1625 26.8259 38.9219 26.5101 38.6149C26.1945 38.3088 25.9459 37.9396 25.78 37.5307C25.4383 36.6409 25.4262 35.6565 25.7457 34.7584C25.8981 34.3537 26.126 33.9823 26.417 33.6643C26.7104 33.3395 27.0675 33.0799 27.4655 32.902C27.9008 32.7096 28.3723 32.615 28.8473 32.6247C29.2994 32.6175 29.747 32.7158 30.1555 32.9118C30.5303 33.0955 30.8639 33.355 31.1354 33.6742C31.412 34.0003 31.6278 34.3744 31.7724 34.7782C31.9257 35.2032 32.002 35.6526 31.9978 36.1049C31.9978 36.199 31.9978 36.303 31.9978 36.4069C31.9948 36.4983 31.9849 36.5893 31.9684 36.6792H27.1569C27.1823 36.8749 27.2521 37.0622 27.3609 37.2262C27.4697 37.3902 27.6145 37.5266 27.784 37.6248C28.1739 37.8401 28.6138 37.9461 29.0579 37.9317ZM30.3858 35.3525C30.3671 35.1914 30.3135 35.0365 30.2288 34.8987C30.1441 34.761 30.0304 34.6438 29.8958 34.5554C29.5874 34.3672 29.2319 34.2727 28.8718 34.2832C28.4996 34.276 28.1324 34.3701 27.8085 34.5554C27.6615 34.6378 27.5344 34.752 27.4361 34.8897C27.3379 35.0276 27.2709 35.1855 27.2401 35.3525H30.3858Z" fill="#EA0029"/>
<path d="M37.015 34.6246C36.9037 34.5488 36.7836 34.4873 36.6573 34.4415C36.4999 34.3855 36.3342 34.3571 36.1673 34.3573C35.8346 34.3409 35.5083 34.4543 35.256 34.6741C35.035 34.8745 34.8809 35.1391 34.815 35.4316V39.392H33.203V32.8177H34.7562V33.6643C34.8385 33.3682 35.0097 33.1053 35.2462 32.9118C35.5146 32.7102 35.843 32.6072 36.1771 32.6197C36.3995 32.6139 36.6198 32.6631 36.819 32.7632C36.9814 32.8424 37.12 32.9637 37.2208 33.1147L37.015 34.6246Z" fill="#EA0029"/>
<path d="M39.4257 36.5406C38.9753 36.3272 38.5733 36.0221 38.2449 35.6445C38.0004 35.3303 37.8705 34.9403 37.8774 34.5406C37.8762 34.2866 37.9279 34.0353 38.0293 33.803C38.1273 33.5707 38.2764 33.3641 38.4654 33.199C38.6623 33.0241 38.8878 32.8851 39.1317 32.7881C39.4094 32.6855 39.7034 32.6352 39.999 32.6396C40.4265 32.6268 40.8504 32.7203 41.2337 32.9119C41.5317 33.0526 41.7884 33.2693 41.9785 33.5406L41.6747 34.9861C41.4339 34.7418 41.1405 34.5571 40.8173 34.4465C40.5604 34.3544 40.291 34.3026 40.0186 34.2931C39.6609 34.2931 39.4796 34.402 39.4796 34.6148C39.4782 34.6631 39.4886 34.711 39.51 34.7542C39.5314 34.7974 39.563 34.8345 39.6021 34.8624C39.7266 34.9516 39.8576 35.031 39.9941 35.1L40.6017 35.4168C41.0498 35.6349 41.4549 35.9335 41.7972 36.298C42.0833 36.6343 42.2322 37.0679 42.2137 37.5109C42.217 37.7916 42.1619 38.0699 42.052 38.3277C41.9381 38.5778 41.7708 38.7993 41.562 38.9762C41.3465 39.1698 41.095 39.3179 40.8221 39.4119C40.5143 39.516 40.1914 39.5679 39.8667 39.5654C39.3768 39.5835 38.8916 39.4635 38.4654 39.2188C38.1321 39.0373 37.8529 38.7689 37.6569 38.4416L38.1077 37.0109C38.194 37.1255 38.2889 37.2331 38.3919 37.3327C38.5148 37.4461 38.6495 37.5457 38.7936 37.6297C38.9474 37.7227 39.112 37.7959 39.2836 37.8475C39.4844 37.9051 39.6923 37.9335 39.901 37.9317C40.0702 37.9369 40.2382 37.9013 40.391 37.8277C40.4556 37.7987 40.5099 37.7504 40.5466 37.6894C40.5834 37.6283 40.6009 37.5575 40.5968 37.4861C40.6037 37.4213 40.5964 37.3556 40.5752 37.294C40.554 37.2323 40.5196 37.1763 40.4743 37.1297C40.3208 37.0108 40.1568 36.9064 39.9843 36.8178L39.4257 36.5406Z" fill="#EA0029"/>
<path d="M46.4471 33.7981C46.5676 33.6094 46.7183 33.4421 46.893 33.3031C47.0769 33.1546 47.2796 33.0314 47.4956 32.9367C47.7201 32.8359 47.9552 32.7612 48.1963 32.714C48.4432 32.6647 48.6943 32.6399 48.946 32.6397C49.3433 32.6347 49.7388 32.6949 50.117 32.8179C50.4465 32.9222 50.7527 33.0903 51.0186 33.313C51.2725 33.547 51.4703 33.8366 51.5966 34.1595C51.7392 34.513 51.809 34.8919 51.8024 35.2734V39.3972H50.2493V38.813C50.0673 39.0758 49.8061 39.2721 49.5045 39.3724C48.875 39.6117 48.1832 39.6257 47.5446 39.412C47.2706 39.3153 47.0153 39.1712 46.7901 38.9862C46.5793 38.7994 46.4119 38.5679 46.3001 38.308C46.1793 38.0236 46.1192 37.7166 46.1237 37.4071C46.1197 37.0859 46.192 36.7684 46.3344 36.4813C46.4697 36.2169 46.6624 35.9868 46.8979 35.808C47.1311 35.6238 47.3949 35.483 47.677 35.3922C47.9947 35.2958 48.3251 35.2491 48.6569 35.2535C49.0054 35.2436 49.3531 35.2921 49.6859 35.3971C49.8889 35.4554 50.0743 35.5644 50.2248 35.714V35.5308C50.2326 35.36 50.2032 35.1894 50.1389 35.0312C50.0746 34.873 49.9768 34.731 49.8524 34.615C49.544 34.3652 49.1541 34.2416 48.7598 34.2684C48.3742 34.2643 47.9925 34.3472 47.6426 34.511C47.3287 34.6569 47.0533 34.8757 46.8391 35.1496L46.4471 33.7981ZM50.2101 37.0258C50.1005 36.8762 49.9458 36.7667 49.7691 36.714C49.5181 36.6212 49.2524 36.5758 48.9852 36.5803C48.6575 36.5595 48.3305 36.6296 48.0395 36.7833C47.9447 36.8363 47.8653 36.9136 47.8093 37.0075C47.7535 37.1013 47.7229 37.2084 47.721 37.3179C47.7212 37.4278 47.7515 37.5355 47.8086 37.629C47.8657 37.7225 47.9473 37.7982 48.0444 37.8476C48.3298 37.9967 48.6498 38.0651 48.9704 38.0456C49.24 38.0502 49.5073 37.9962 49.7544 37.8872C49.9453 37.812 50.1057 37.6743 50.2101 37.4961V37.0258Z" fill="#EA0029"/>
<path d="M57.1921 34.6246C57.0811 34.5487 56.9609 34.4872 56.8345 34.4414C56.6772 34.3855 56.5111 34.357 56.3446 34.3573C56.0115 34.3398 55.685 34.4533 55.4329 34.6741C55.2123 34.8744 55.058 35.1391 54.9923 35.4315V39.3919H53.39V32.8177H54.9429V33.6642C55.031 33.3522 55.2205 33.0793 55.4813 32.8897C55.7415 32.7002 56.0578 32.605 56.3787 32.6196C56.6028 32.6132 56.8249 32.6625 57.0255 32.7632C57.188 32.8424 57.3266 32.9637 57.4274 33.1147L57.1921 34.6246Z" fill="#EA0029"/>
<path d="M61.4353 37.9316C61.8331 37.9324 62.2268 37.8568 62.5966 37.7088C62.9225 37.5911 63.2103 37.3857 63.4293 37.1148L63.9193 38.3672C63.6789 38.739 63.3392 39.0343 62.9393 39.2188C62.4509 39.4614 61.911 39.5804 61.3665 39.5653C60.8954 39.5678 60.4278 39.4857 59.9847 39.3227C59.5793 39.1618 59.21 38.9212 58.8973 38.6148C58.5785 38.3104 58.3279 37.9408 58.1623 37.5306C57.8201 36.6407 57.8094 35.6554 58.1328 34.7583C58.2836 34.3539 58.5097 33.9824 58.799 33.6642C59.0944 33.3416 59.4509 33.0824 59.8477 32.9018C60.2847 32.71 60.7579 32.6155 61.2346 32.6246C61.6849 32.6182 62.131 32.7164 62.5375 32.9118C62.9123 33.0959 63.246 33.3553 63.5174 33.6741C63.7945 34.0002 64.0099 34.3742 64.1546 34.7781C64.3064 35.1984 64.3823 35.6426 64.3802 36.09C64.3802 36.1841 64.3802 36.288 64.3802 36.392C64.3772 36.4834 64.367 36.5744 64.3507 36.6642H59.5243C59.5508 36.8641 59.6231 37.055 59.7351 37.2217C59.8477 37.3885 59.9969 37.5264 60.1711 37.6247C60.5577 37.8401 60.9942 37.9462 61.4353 37.9316ZM62.758 35.3524C62.7417 35.1907 62.6887 35.035 62.6037 34.8969C62.5191 34.7589 62.404 34.6421 62.268 34.5553C61.9614 34.3673 61.6074 34.2727 61.2489 34.2831C60.8771 34.276 60.5098 34.37 60.1859 34.5553C60.0387 34.6377 59.9119 34.7519 59.8136 34.8897C59.7153 35.0274 59.648 35.1854 59.6175 35.3524H62.758Z" fill="#EA0029"/>
<path d="M76.1198 32.6396C76.4356 32.6408 76.7488 32.696 77.0463 32.8029C77.3519 32.9103 77.6335 33.0786 77.8739 33.298C78.1337 33.5371 78.3379 33.8312 78.4719 34.1594C78.6359 34.5384 78.7159 34.9489 78.7072 35.3624V39.397H77.1049V35.7138C77.114 35.5326 77.0865 35.3513 77.0244 35.1811C76.9622 35.0109 76.866 34.8553 76.7422 34.7237C76.6251 34.6085 76.486 34.5181 76.3337 34.4577C76.1814 34.3974 76.019 34.3683 75.8555 34.3723C75.5427 34.3687 75.2371 34.4658 74.983 34.6495C74.738 34.8039 74.5623 35.0491 74.493 35.3327V39.402H72.8912V35.699C72.9024 35.5175 72.8759 35.3357 72.8138 35.1652C72.7511 34.9946 72.6538 34.8392 72.5285 34.7089C72.2846 34.478 71.9606 34.3535 71.627 34.3623C71.3163 34.3598 71.0123 34.4569 70.7596 34.6396C70.5141 34.794 70.3384 35.0391 70.2697 35.3227V39.3921H68.6627V32.8178H70.2157V33.4812C70.3257 33.218 70.5258 33.0035 70.7795 32.8772C71.1233 32.7067 71.5038 32.6251 71.8868 32.6396C72.2662 32.6384 72.6416 32.7177 72.989 32.8722C73.3511 33.0341 73.6689 33.2821 73.9149 33.595C74.1507 33.2596 74.4777 33.0001 74.8557 32.8475C75.2611 32.7004 75.6894 32.6299 76.1198 32.6396Z" fill="#EA0029"/>
<path d="M80.1231 33.7981C80.2423 33.6082 80.3931 33.4407 80.5688 33.3031C80.7521 33.1556 80.9528 33.0325 81.1667 32.9367C81.3913 32.8366 81.6267 32.7619 81.8676 32.714C82.1161 32.6646 82.3687 32.6397 82.6219 32.6397C83.0176 32.6347 83.4113 32.6949 83.7882 32.8179C84.1178 32.9211 84.4244 33.0893 84.6898 33.313C84.947 33.5361 85.1487 33.8177 85.2775 34.1347C85.4237 34.4871 85.4955 34.8666 85.4884 35.2486V39.3724H83.9349V38.813C83.7531 39.0758 83.4918 39.2721 83.1903 39.3724C82.5603 39.6098 81.8691 39.6237 81.2304 39.412C80.9584 39.3141 80.7048 39.1702 80.4807 38.9862C80.2683 38.8008 80.1007 38.5688 79.9907 38.308C79.87 38.0236 79.8099 37.7166 79.8145 37.407C79.8089 37.0863 79.8791 36.7688 80.0202 36.4813C80.1583 36.2187 80.3503 35.9892 80.5835 35.808C80.828 35.6211 81.1036 35.4803 81.3969 35.3922C81.7071 35.2987 82.029 35.252 82.3524 35.2535C82.7008 35.2436 83.0487 35.2921 83.3813 35.3971C83.583 35.4552 83.7669 35.5642 83.9156 35.714V35.5308C83.9232 35.36 83.8937 35.1894 83.8295 35.0312C83.7653 34.873 83.6675 34.731 83.5433 34.615C83.2366 34.3651 82.848 34.2414 82.4553 34.2684C82.0682 34.2639 81.6847 34.3468 81.3333 34.511C81.0124 34.6564 80.7287 34.875 80.5051 35.1496L80.1231 33.7981ZM83.8809 37.0258C83.774 36.874 83.6181 36.764 83.4404 36.714C83.1893 36.6202 82.9234 36.5749 82.656 36.5803C82.3285 36.56 82.0015 36.6302 81.7107 36.7833C81.6165 36.8365 81.5375 36.914 81.4825 37.0079C81.4275 37.1019 81.398 37.2088 81.3969 37.3179C81.3969 37.4278 81.4275 37.5355 81.4846 37.629C81.5416 37.7225 81.6231 37.7982 81.7204 37.8476C82.0056 37.9979 82.3254 38.0664 82.6463 38.0456C82.9158 38.0498 83.1832 37.9957 83.4302 37.8872C83.6202 37.8121 83.7791 37.6742 83.8809 37.4961V37.0258Z" fill="#EA0029"/>
<path d="M86.8748 37.5111C86.6007 36.8603 86.5233 36.1423 86.6527 35.4472C86.7816 34.7522 87.1111 34.1113 87.6 33.6051C87.9011 33.3019 88.2571 33.0599 88.6487 32.8922C89.0409 32.7246 89.4621 32.6388 89.8879 32.6397C90.3112 32.6267 90.7319 32.7113 91.118 32.8873C91.4083 33.0068 91.6477 33.2259 91.7944 33.5061V30.1001H93.3962V39.3873H91.8433V38.6992C91.694 38.9809 91.4511 39.2001 91.1572 39.318C90.765 39.491 90.3402 39.5755 89.9129 39.5655C89.481 39.5662 89.0532 39.4822 88.6533 39.318C88.2673 39.153 87.9163 38.9143 87.6194 38.615C87.3016 38.3005 87.0484 37.9252 86.8748 37.5111ZM88.3447 35.3972C88.2515 35.6212 88.2046 35.8621 88.2077 36.1051C88.2036 36.3466 88.2505 36.5862 88.3447 36.8081C88.4343 37.0154 88.5642 37.2024 88.7272 37.3576C88.9004 37.5161 89.1036 37.6374 89.3246 37.714C89.5686 37.8012 89.8253 37.8448 90.084 37.8427C90.4564 37.8501 90.8251 37.7651 91.1572 37.5952C91.4302 37.4691 91.6502 37.25 91.7796 36.9764V35.2289C91.6518 34.9542 91.4312 34.7348 91.1572 34.6101C90.875 34.4681 90.5679 34.3841 90.2531 34.3629C89.9389 34.3416 89.6231 34.3836 89.3246 34.4863C89.1036 34.5629 88.9004 34.6842 88.7272 34.8427C88.5764 35.0029 88.4583 35.1912 88.3793 35.3972H88.3447Z" fill="#EA0029"/>
<path d="M98.1442 37.9316C98.542 37.9324 98.9357 37.8568 99.3055 37.7088C99.6314 37.5911 99.9197 37.3857 100.138 37.1148L100.628 38.3672C100.388 38.739 100.048 39.0343 99.6482 39.2188C99.1598 39.4614 98.6199 39.5804 98.0754 39.5653C97.6043 39.5678 97.1367 39.4857 96.6941 39.3227C96.2867 39.1624 95.9154 38.9218 95.6011 38.6148C95.2828 38.3104 95.0322 37.9408 94.8661 37.5306C94.5239 36.6407 94.5137 35.6554 94.8371 34.7583C94.9874 34.3539 95.214 33.9824 95.5033 33.6642C95.7987 33.3416 96.1553 33.0824 96.552 32.9018C96.989 32.71 97.4617 32.6155 97.9384 32.6246C98.3892 32.6182 98.8348 32.7164 99.2418 32.9118C99.6161 33.0959 99.9498 33.3553 100.222 33.6741C100.498 34.0002 100.714 34.3742 100.859 34.7781C101.01 35.1984 101.087 35.6426 101.084 36.09C101.084 36.1841 101.084 36.288 101.084 36.392C101.081 36.4834 101.071 36.5744 101.054 36.6642H96.2286C96.2551 36.8641 96.3274 37.055 96.4395 37.2217C96.5515 37.3885 96.7007 37.5264 96.8749 37.6247C97.263 37.841 97.7016 37.9471 98.1442 37.9316ZM99.4669 35.3524C99.4506 35.1907 99.3976 35.035 99.3131 34.8969C99.228 34.7589 99.1134 34.6421 98.9769 34.5553C98.6703 34.3673 98.3168 34.2727 97.9583 34.2831C97.586 34.276 97.2187 34.37 96.8948 34.5553C96.7471 34.6369 96.6193 34.7508 96.521 34.8887C96.4227 35.0267 96.3564 35.1851 96.3264 35.3524H99.4669Z" fill="#EA0029"/>
<path d="M102.951 39.4215C102.763 39.3696 102.593 39.2649 102.461 39.1196C102.379 39.0253 102.317 38.9154 102.277 38.7964C102.237 38.6774 102.221 38.5517 102.231 38.4265C102.228 38.2808 102.255 38.1361 102.309 38.0008C102.363 37.8705 102.443 37.7526 102.544 37.6542C102.759 37.4507 103.043 37.339 103.338 37.3423C103.481 37.3376 103.625 37.3649 103.757 37.4222C103.889 37.4795 104.007 37.5655 104.102 37.674C104.299 37.889 104.407 38.1729 104.401 38.4661C104.404 38.7018 104.361 38.9356 104.274 39.1542C104.187 39.366 104.086 39.5712 103.97 39.7681L103.152 41.1691H102.142L102.951 39.4215Z" fill="#EA0029"/>
<path d="M115.122 39.3871H113.515V35.8376C113.533 35.644 113.509 35.4488 113.446 35.2652C113.383 35.0815 113.281 34.9138 113.149 34.773C113.016 34.6323 112.855 34.522 112.676 34.4495C112.498 34.3769 112.306 34.3438 112.114 34.3524C111.779 34.3498 111.451 34.448 111.173 34.6346C111.049 34.7146 110.941 34.8189 110.857 34.9413C110.773 35.0636 110.713 35.2017 110.683 35.3474V39.3821H109.081V32.8177H110.634V33.4811C110.747 33.2123 110.955 32.9955 111.217 32.8722C111.578 32.7022 111.975 32.6223 112.373 32.6395C112.707 32.6412 113.038 32.6981 113.353 32.8078C113.679 32.9235 113.979 33.1036 114.235 33.3375C114.509 33.594 114.726 33.9061 114.872 34.2534C115.048 34.669 115.133 35.1182 115.122 35.5702V39.3871Z" fill="#EA0029"/>
<path d="M123.06 36.1049C123.067 36.5814 122.973 37.054 122.785 37.491C122.607 37.9007 122.351 38.2708 122.031 38.5801C121.716 38.8883 121.347 39.1335 120.943 39.303C120.527 39.4767 120.08 39.5658 119.63 39.5653C119.179 39.5673 118.733 39.4781 118.317 39.303C117.91 39.1349 117.539 38.8896 117.224 38.5801C116.904 38.2708 116.648 37.9007 116.469 37.491C116.289 37.0536 116.195 36.5841 116.195 36.1099C116.195 35.6356 116.289 35.1661 116.469 34.7287C116.648 34.3145 116.904 33.9395 117.224 33.6247C117.54 33.3154 117.911 33.0686 118.317 32.897C118.733 32.7234 119.179 32.6359 119.63 32.6395C120.08 32.6375 120.526 32.7249 120.943 32.897C121.347 33.0699 121.715 33.3166 122.031 33.6247C122.351 33.9395 122.607 34.3145 122.785 34.7287C122.971 35.1628 123.065 35.6318 123.06 36.1049ZM117.949 35.397C117.854 35.6206 117.806 35.8616 117.807 36.1049C117.805 36.3467 117.853 36.5862 117.949 36.8079C118.039 37.0153 118.168 37.2022 118.331 37.3574C118.501 37.5136 118.699 37.6347 118.915 37.7138C119.143 37.8002 119.386 37.8438 119.63 37.8426C119.871 37.8438 120.11 37.8002 120.335 37.7138C120.548 37.6334 120.742 37.5124 120.909 37.3574C121.075 37.2027 121.208 37.0158 121.3 36.8079C121.401 36.5874 121.451 36.3473 121.447 36.1049C121.45 35.861 121.399 35.6196 121.3 35.397C121.208 35.1875 121.075 34.999 120.909 34.8425C120.742 34.6875 120.548 34.5665 120.335 34.4861C120.11 34.3997 119.871 34.3561 119.63 34.3574C119.386 34.3561 119.143 34.3997 118.915 34.4861C118.699 34.5652 118.501 34.6863 118.331 34.8425C118.168 34.9995 118.039 35.1881 117.949 35.397Z" fill="#EA0029"/>
<path d="M128.464 38.7981C128.299 39.0332 128.078 39.2222 127.822 39.3476C127.518 39.4987 127.182 39.5734 126.842 39.5654C126.547 39.5898 126.251 39.5497 125.973 39.4481C125.695 39.3464 125.441 39.1855 125.23 38.9763C124.855 38.5097 124.668 37.9176 124.706 37.3179V34.5406H123.623V34.0159L125.857 31.1594H126.347V32.8178H128.405V34.5406H126.318V36.9615C126.309 37.0833 126.327 37.2056 126.369 37.3201C126.411 37.4345 126.477 37.5385 126.563 37.6248C126.723 37.7576 126.924 37.8279 127.131 37.8229C127.325 37.8299 127.517 37.7874 127.69 37.6991C127.86 37.605 128.011 37.477 128.131 37.3228L128.464 38.7981Z" fill="#EA0029"/>
<path d="M139.356 34.7041C139.716 35.6045 139.716 36.6106 139.356 37.5111C139.188 37.9236 138.942 38.2987 138.631 38.615C138.329 38.9199 137.971 39.1621 137.577 39.3279C137.178 39.492 136.75 39.5761 136.318 39.5754C135.891 39.5854 135.466 39.5009 135.074 39.3279C134.78 39.21 134.537 38.9908 134.387 38.7091V39.3972H132.835V30.1001H134.437V33.5061C134.583 33.2259 134.822 33.0068 135.113 32.8873C135.499 32.7113 135.92 32.6267 136.343 32.6397C136.769 32.6388 137.19 32.7246 137.582 32.8922C137.974 33.0599 138.33 33.3019 138.631 33.6051C138.94 33.9211 139.186 34.2942 139.356 34.7041ZM137.886 36.8081C137.982 36.5865 138.03 36.3469 138.028 36.1051C138.029 35.8618 137.981 35.6208 137.886 35.3972C137.797 35.1883 137.667 34.9997 137.504 34.8427C137.33 34.6842 137.127 34.5629 136.906 34.4863C136.662 34.3991 136.405 34.3555 136.147 34.3576C135.772 34.3501 135.402 34.4369 135.069 34.6101C134.797 34.7364 134.578 34.9556 134.451 35.2289V36.9764C134.58 37.2487 134.798 37.4675 135.069 37.5952C135.403 37.7645 135.773 37.8495 136.147 37.8427C136.405 37.8448 136.662 37.8012 136.906 37.714C137.127 37.6374 137.33 37.5161 137.504 37.3576C137.661 37.201 137.786 37.0142 137.871 36.8081H137.886Z" fill="#EA0029"/>
<path d="M147.255 36.1048C147.26 36.5817 147.165 37.0543 146.975 37.491C146.797 37.8994 146.543 38.2692 146.225 38.5801C145.909 38.8873 145.538 39.1324 145.133 39.3029C144.717 39.4772 144.271 39.5669 143.82 39.5669C143.369 39.5669 142.923 39.4772 142.507 39.3029C142.101 39.1336 141.73 38.8884 141.414 38.5801C141.094 38.2718 140.839 37.9014 140.664 37.491C140.386 36.8459 140.308 36.1304 140.442 35.4397C140.576 34.749 140.915 34.1159 141.414 33.6246C141.731 33.3165 142.101 33.0698 142.507 32.8969C143.349 32.5539 144.29 32.5539 145.133 32.8969C145.538 33.071 145.908 33.3175 146.225 33.6246C146.543 33.941 146.797 34.3157 146.975 34.7286C147.163 35.1624 147.258 35.6314 147.255 36.1048ZM142.139 35.3969C142.046 35.6209 141.999 35.8619 142.002 36.1048C141.998 36.3463 142.045 36.5859 142.139 36.8078C142.229 37.0165 142.361 37.2037 142.526 37.3573C142.694 37.5135 142.89 37.6346 143.104 37.7138C143.333 37.7997 143.576 37.8433 143.82 37.8425C144.061 37.8438 144.3 37.8002 144.525 37.7138C144.738 37.6345 144.933 37.5134 145.099 37.3573C145.264 37.2026 145.398 37.0157 145.49 36.8078C145.59 36.5874 145.641 36.3473 145.638 36.1048C145.64 35.861 145.589 35.6195 145.49 35.3969C145.396 35.1863 145.261 34.997 145.093 34.8405C144.924 34.684 144.726 34.5634 144.51 34.486C144.285 34.3996 144.046 34.356 143.805 34.3573C143.561 34.3565 143.319 34.4001 143.09 34.486C142.875 34.5652 142.679 34.6863 142.511 34.8424C142.351 34.9993 142.224 35.1881 142.139 35.3969Z" fill="#EA0029"/>
<path d="M152.252 34.6246C152.141 34.5488 152.021 34.4873 151.895 34.4415C151.737 34.3855 151.572 34.3571 151.405 34.3573C151.072 34.3409 150.746 34.4543 150.493 34.6741C150.272 34.8745 150.118 35.1391 150.052 35.4316V39.392H148.45V32.8177H150.004V33.6643C150.086 33.3682 150.257 33.1053 150.493 32.9118C150.762 32.7102 151.09 32.6072 151.424 32.6197C151.647 32.6139 151.867 32.6631 152.066 32.7632C152.229 32.8438 152.369 32.9648 152.473 33.1147L152.252 34.6246Z" fill="#EA0029"/>
<path d="M159.45 39.3869H157.848V35.8374C157.864 35.6442 157.839 35.4496 157.775 35.2668C157.712 35.0839 157.61 34.9168 157.478 34.7764C157.345 34.6361 157.185 34.5257 157.007 34.4525C156.83 34.3794 156.638 34.3452 156.447 34.3522C156.112 34.3481 155.784 34.4465 155.506 34.6344C155.374 34.7111 155.26 34.8144 155.169 34.938C155.079 35.0615 155.015 35.2025 154.982 35.3522V39.3869H153.379V32.8175H154.932V33.4809C155.046 33.2111 155.256 32.9939 155.521 32.872C155.882 32.7016 156.278 32.6218 156.677 32.6393C157.01 32.6409 157.341 32.6977 157.657 32.8077C157.984 32.9244 158.285 33.1043 158.543 33.3373C158.816 33.5952 159.033 33.907 159.181 34.2532C159.353 34.67 159.436 35.1186 159.426 35.5701L159.45 39.3869Z" fill="#EA0029"/>
<path d="M13.7951 10.0356C14.1724 10.9325 14.3641 11.8978 14.3586 12.8722C14.3696 13.8437 14.1846 14.8072 13.8147 15.7039C13.4684 16.5292 12.9695 17.2802 12.3448 17.9168C11.736 18.5283 11.0177 19.0171 10.2281 19.3574C9.4385 19.6912 8.59001 19.8597 7.73413 19.8525C6.87968 19.8792 6.03037 19.7099 5.24995 19.3574C4.65823 19.1237 4.16952 18.6826 3.87312 18.1148V24.9862H0.639282V6.25339H3.77022V7.64448C4.06895 7.07188 4.5635 6.62849 5.16175 6.39697C5.95112 6.04555 6.80817 5.87645 7.67041 5.90192C8.53887 5.89641 9.39979 6.06464 10.2036 6.39697C10.9999 6.72323 11.7231 7.20814 12.3301 7.82269C12.9548 8.45926 13.4536 9.21033 13.8 10.0356H13.7951ZM10.8062 14.293C10.9931 13.8434 11.0865 13.3598 11.0806 12.8722C11.0861 12.3858 10.991 11.9036 10.8014 11.4564C10.6211 11.0373 10.3556 10.6612 10.0223 10.3524C9.6762 10.0324 9.2695 9.78653 8.82674 9.62963C8.33315 9.45219 7.81216 9.36502 7.28826 9.37222C6.53716 9.35591 5.79354 9.52588 5.12255 9.86727C4.57458 10.1228 4.1325 10.5642 3.87312 11.1148V14.6445C4.1325 15.1951 4.57458 15.6365 5.12255 15.892C5.79354 16.2334 6.53716 16.4034 7.28826 16.3871C7.81216 16.3943 8.33315 16.3072 8.82674 16.1297C9.26833 15.9727 9.67472 15.7287 10.0223 15.4119C10.3582 15.0976 10.6239 14.7145 10.8014 14.2881" fill="white"/>
<path d="M24.4913 9.90196C24.2661 9.74773 24.0224 9.62299 23.7661 9.53067C23.4425 9.4136 23.1005 9.35653 22.7568 9.36239C22.0889 9.32812 21.4334 9.55306 20.9243 9.99109C20.4747 10.3952 20.1627 10.9322 20.0325 11.5257V19.506H16.8085V6.25345H19.9394V8.001C20.1191 7.39938 20.4806 6.86964 20.9733 6.4861C21.5114 6.0774 22.1721 5.8677 22.8449 5.89204C23.2953 5.88247 23.7411 5.98446 24.1434 6.18907C24.472 6.34778 24.7527 6.59216 24.9568 6.89702L24.4913 9.90196Z" fill="white"/>
<path d="M26.8629 3.73353C26.6593 3.53282 26.4984 3.2924 26.3897 3.02687C26.2811 2.76135 26.227 2.47626 26.2308 2.18897C26.227 1.90166 26.2811 1.61658 26.3897 1.35105C26.4984 1.08552 26.6593 0.8451 26.8629 0.644403C27.0629 0.44024 27.3009 0.278169 27.5633 0.16756C27.8257 0.0569509 28.1072 0 28.3916 0C28.6759 0 28.9574 0.0569509 29.2198 0.16756C29.4822 0.278169 29.7202 0.44024 29.9203 0.644403C30.1254 0.844148 30.2877 1.08428 30.3973 1.34996C30.5068 1.61563 30.5613 1.90118 30.5573 2.18897C30.5613 2.47675 30.5068 2.7623 30.3973 3.02797C30.2877 3.29365 30.1254 3.53378 29.9203 3.73353C29.7202 3.93769 29.4822 4.09976 29.2198 4.21037C28.9574 4.32098 28.6759 4.37793 28.3916 4.37793C28.1072 4.37793 27.8257 4.32098 27.5633 4.21037C27.3009 4.09976 27.0629 3.93769 26.8629 3.73353ZM26.7894 6.25333H30.0379V19.5059H26.804L26.7894 6.25333Z" fill="white"/>
<path d="M46.2559 12.8722C46.2758 13.8376 46.0921 14.7961 45.717 15.6841C45.3604 16.5118 44.8459 17.2604 44.2029 17.8871C43.5628 18.5039 42.8153 18.9957 41.9981 19.3376C40.3016 20.0437 38.3978 20.0437 36.7014 19.3376C35.8857 18.9956 35.1398 18.5038 34.5014 17.8871C33.8567 17.2597 33.3392 16.5115 32.9776 15.6841C32.5889 14.7991 32.3918 13.8405 32.3994 12.8722C32.4002 11.9225 32.5971 10.9833 32.9776 10.1148C33.6941 8.45191 35.0198 7.13379 36.6769 6.43655C38.3733 5.73046 40.2771 5.73046 41.9736 6.43655C42.795 6.78602 43.5432 7.29003 44.1784 7.92171C44.826 8.54603 45.3484 9.29066 45.717 10.1148C46.0838 10.9862 46.2674 11.9253 46.2559 12.8722ZM35.9664 11.4465C35.7645 11.8942 35.6593 12.3803 35.6578 12.8722C35.6515 13.3592 35.7484 13.842 35.9419 14.2881C36.1204 14.7084 36.3841 15.0862 36.7161 15.397C37.0532 15.7153 37.4474 15.9656 37.8773 16.1346C38.3379 16.3088 38.8262 16.396 39.3179 16.3921C39.8048 16.3965 40.2884 16.3092 40.7437 16.1346C41.1707 15.9714 41.563 15.7279 41.9001 15.4168C42.2349 15.1042 42.5048 14.7272 42.6938 14.3079C42.8952 13.8569 42.9972 13.367 42.9927 12.8722C42.9973 12.3817 42.8988 11.8957 42.7036 11.4465C42.5185 11.0221 42.2482 10.6411 41.9098 10.3276C41.5743 10.0134 41.1817 9.76791 40.7535 9.60488C40.3031 9.43949 39.8265 9.35895 39.3473 9.36729C38.8555 9.36328 38.3673 9.45055 37.9068 9.6247C37.4736 9.78644 37.0758 10.032 36.7357 10.3475C36.4003 10.6592 36.1361 11.0409 35.9615 11.4663" fill="white"/>
<path d="M56.4031 9.90196C56.1785 9.74675 55.9351 9.62191 55.6778 9.53067C55.3544 9.41313 55.0127 9.35612 54.6689 9.36239C54.0011 9.32915 53.3456 9.55393 52.8363 9.99109C52.3881 10.3965 52.0764 10.9329 51.9445 11.5257V19.506H48.7106V6.25345H51.8416V8.001C52.0229 7.40025 52.384 6.87103 52.8755 6.4861C53.4134 6.0774 54.0745 5.8677 54.7473 5.89204C55.1975 5.88185 55.6432 5.9839 56.0456 6.18907C56.3741 6.34778 56.6547 6.59216 56.859 6.89702L56.4031 9.90196Z" fill="white"/>
<path d="M58.7797 3.73336C58.5744 3.53362 58.4124 3.29348 58.3024 3.02781C58.1929 2.76214 58.1384 2.47658 58.1425 2.18879C58.1384 1.90101 58.1929 1.61545 58.3024 1.34978C58.4124 1.08411 58.5744 0.843976 58.7797 0.644232C58.9793 0.44022 59.2167 0.278251 59.479 0.167708C59.7408 0.0571646 60.0219 0.000244141 60.3061 0.000244141C60.5898 0.00024414 60.871 0.0571646 61.1328 0.167708C61.3951 0.278251 61.6324 0.44022 61.8321 0.644232C62.0378 0.843729 62.2008 1.08371 62.3113 1.34936C62.4219 1.61501 62.4774 1.9007 62.4738 2.18879C62.4774 2.4769 62.4219 2.76258 62.3113 3.02823C62.2008 3.29388 62.0378 3.53386 61.8321 3.73336C61.6324 3.93737 61.3951 4.09934 61.1328 4.20988C60.871 4.32043 60.5898 4.37734 60.3061 4.37734C60.0219 4.37734 59.7408 4.32043 59.479 4.20988C59.2167 4.09934 58.9793 3.93737 58.7797 3.73336ZM58.7012 6.25317H61.9349V19.5057H58.7012V6.25317Z" fill="white"/>
<path d="M73.6454 18.3179C73.3098 18.7906 72.8616 19.1703 72.3421 19.4219C71.7339 19.7265 71.0611 19.8777 70.3822 19.8624C68.9219 19.8624 67.8411 19.4681 67.1388 18.6793C66.3804 17.7437 65.9979 16.5547 66.0656 15.3476V9.72874H63.8459V8.67426L68.354 2.91187H69.334V6.25344H73.484V9.71881H69.309V14.605C69.283 14.8569 69.3131 15.1115 69.3981 15.3499C69.4827 15.5882 69.6202 15.8041 69.799 15.9813C70.1214 16.25 70.5283 16.3924 70.946 16.3822C71.3321 16.3954 71.7161 16.3121 72.063 16.1397C72.4062 15.9464 72.7093 15.6875 72.9548 15.3773L73.6454 18.3179Z" fill="white"/>
<path d="M74.9926 6.25317H78.4815L81.921 14.4859L85.3605 6.25317H88.9523L81.1076 24.9859H77.5652L80.2402 18.6839L74.9926 6.25317Z" fill="white"/>
<path d="M94.3665 8.96608C94.066 8.96294 93.7675 9.01322 93.4843 9.1146C93.2256 9.21027 92.9801 9.3401 92.7544 9.50071C92.5334 9.66209 92.3327 9.84992 92.1565 10.0601C91.9803 10.267 91.8244 10.4908 91.691 10.7285L90.5348 8.7235C90.6305 8.33615 90.7966 7.97022 91.0248 7.64427C91.2662 7.29866 91.5647 6.99725 91.9069 6.75317C92.2731 6.48969 92.678 6.28591 93.1074 6.14923C93.5826 5.9968 94.0787 5.92162 94.5773 5.92646C95.1957 5.91616 95.8109 6.02367 96.39 6.2433C96.8815 6.42624 97.3272 6.71561 97.6965 7.09101C98.0652 7.46642 98.3484 7.91886 98.5262 8.41654C98.7151 8.9262 98.8099 9.46649 98.8058 10.0106C98.8083 10.4567 98.7523 10.9012 98.6392 11.3324C98.5206 11.7427 98.356 12.1381 98.1493 12.5106C97.916 12.9205 97.6486 13.3097 97.3506 13.674C97.0318 14.0701 96.6646 14.5057 96.2479 14.971L94.9298 16.4562H99.0554V19.5057H90.628V17.1543L94.3858 13.0206C94.6553 12.7285 94.8758 12.4661 95.0816 12.2433C95.2619 12.0441 95.4259 11.8305 95.5715 11.6047C95.6912 11.4182 95.7895 11.219 95.8659 11.0106C95.9372 10.8056 95.9719 10.5894 95.9688 10.372C95.9688 10.1858 95.9306 10.0014 95.8568 9.83093C95.7824 9.66044 95.6734 9.5075 95.5374 9.38189C95.216 9.09813 94.7974 8.95245 94.3716 8.97597" fill="#EA0029"/>
<path d="M104.651 6.43621C106.358 5.74978 108.26 5.74978 109.967 6.43621C111.241 6.95046 112.332 7.83841 113.101 8.98557C113.87 10.1327 114.281 11.4864 114.281 12.8719C114.281 14.2574 113.87 15.611 113.101 16.7582C112.332 17.9054 111.241 18.7934 109.967 19.3076C108.259 19.9875 106.359 19.9875 104.651 19.3076C103.83 18.9801 103.079 18.4941 102.441 17.8768C101.803 17.2531 101.293 16.5077 100.942 15.6838C100.567 14.7955 100.378 13.8379 100.388 12.8719C100.379 11.9077 100.568 10.9519 100.942 10.065C101.291 9.23665 101.801 8.48754 102.441 7.86198C103.08 7.24651 103.83 6.76227 104.651 6.43621ZM107.307 16.7828C107.85 16.7871 108.39 16.6898 108.899 16.4957C109.376 16.317 109.813 16.0462 110.188 15.6986C110.552 15.3519 110.844 14.9343 111.045 14.4709C111.457 13.4558 111.457 12.3178 111.045 11.3026C110.847 10.8348 110.555 10.4134 110.188 10.065C109.821 9.71827 109.392 9.44599 108.924 9.26295C107.894 8.87998 106.764 8.87998 105.734 9.26295C105.261 9.44543 104.827 9.71765 104.455 10.065C104.088 10.4134 103.796 10.8348 103.598 11.3026C103.391 11.8045 103.284 12.343 103.284 12.8868C103.284 13.4305 103.391 13.9689 103.598 14.4709C103.799 14.9343 104.091 15.3519 104.455 15.6986C104.827 16.0445 105.261 16.315 105.734 16.4957C106.244 16.6914 106.786 16.7888 107.331 16.7828" fill="#EA0029"/>
<path d="M118.821 16.7928C119.329 16.8196 119.831 16.6693 120.242 16.3671C120.418 16.2343 120.559 16.0605 120.654 15.8605C120.749 15.6604 120.794 15.4402 120.786 15.2186C120.792 15.0205 120.75 14.824 120.665 14.6456C120.58 14.4673 120.453 14.3123 120.296 14.1938C119.915 13.9205 119.454 13.786 118.988 13.8126C118.657 13.8067 118.326 13.8501 118.008 13.9413C117.79 14.0018 117.581 14.0953 117.391 14.2186L116.935 12.1443L119.189 9.2928H115.558V6.25317H122.908V8.41653L120.683 11.1988C121.024 11.2862 121.353 11.4142 121.663 11.5799C122.032 11.7654 122.364 12.017 122.643 12.3225C122.959 12.669 123.205 13.0742 123.368 13.5156C123.571 14.073 123.668 14.6644 123.652 15.2582C123.656 15.8673 123.541 16.4712 123.314 17.0354C123.091 17.5837 122.757 18.0794 122.334 18.4909C121.896 18.919 121.378 19.2554 120.81 19.481C120.177 19.7304 119.501 19.8532 118.821 19.8423C118.325 19.8479 117.831 19.7863 117.351 19.6592C116.945 19.5503 116.555 19.3836 116.195 19.1641C115.89 18.981 115.613 18.7543 115.372 18.4909C115.163 18.27 114.996 18.0114 114.882 17.7285L115.543 15.2879C115.909 15.7151 116.349 16.0709 116.842 16.3374C117.448 16.6484 118.123 16.7983 118.802 16.773" fill="#EA0029"/>
<path d="M129.214 6.43621C130.921 5.74978 132.823 5.74978 134.53 6.43621C135.351 6.76376 136.102 7.24965 136.74 7.86692C137.38 8.49253 137.89 9.24164 138.239 10.0699C138.62 10.9539 138.815 11.9079 138.812 12.8719C138.825 13.8392 138.638 14.7985 138.264 15.6887C137.912 16.5127 137.402 17.2581 136.764 17.8818C136.119 18.5 135.359 18.9844 134.53 19.3076C132.821 19.9875 130.922 19.9875 129.214 19.3076C128.392 18.9801 127.641 18.4941 127.004 17.8768C126.366 17.2531 125.856 16.5077 125.504 15.6838C125.13 14.7951 124.944 13.8375 124.956 12.8719C124.945 11.908 125.131 10.9523 125.504 10.065C125.853 9.23665 126.363 8.48754 127.004 7.86198C127.642 7.24651 128.392 6.76227 129.214 6.43621ZM131.874 16.7779C132.416 16.7826 132.955 16.6852 133.462 16.4907C133.938 16.312 134.376 16.0413 134.75 15.6937C135.115 15.3469 135.407 14.9294 135.608 14.466C135.815 13.964 135.921 13.4256 135.921 12.8818C135.921 12.338 135.815 11.7996 135.608 11.2977C135.409 10.8298 135.117 10.4084 134.75 10.06C134.376 9.7106 133.939 9.43822 133.462 9.25801C132.432 8.87504 131.301 8.87504 130.272 9.25801C129.806 9.44419 129.378 9.71801 129.013 10.065C128.645 10.4134 128.353 10.8348 128.155 11.3026C127.948 11.8045 127.842 12.343 127.842 12.8868C127.842 13.4305 127.948 13.9689 128.155 14.4709C128.356 14.9343 128.648 15.3519 129.013 15.6986C129.384 16.0445 129.819 16.315 130.291 16.4957C130.803 16.6919 131.346 16.7893 131.894 16.7828" fill="#EA0029"/>
<path d="M145.755 4.00073H143.129L140.101 9.30275H142.722L145.755 4.00073Z" fill="#EA0029"/>
<path d="M143.129 4.00073H145.755L148.788 9.30275H146.162L143.129 4.00073Z" fill="#EA0029"/>
</svg>
