<svg width="25" height="24" viewBox="0 0 25 24" fill="none" xmlns="http://www.w3.org/2000/svg">
<path d="M1.25 21L12.25 2L23.25 21H1.25ZM11.6 15.3H13.1V9.7H11.6V15.3ZM12.35 18.075C12.5667 18.075 12.7458 18.0042 12.8875 17.8625C13.0292 17.7208 13.1 17.5417 13.1 17.325C13.1 17.1083 13.0292 16.9292 12.8875 16.7875C12.7458 16.6458 12.5667 16.575 12.35 16.575C12.1333 16.575 11.9542 16.6458 11.8125 16.7875C11.6708 16.9292 11.6 17.1083 11.6 17.325C11.6 17.5417 11.6708 17.7208 11.8125 17.8625C11.9542 18.0042 12.1333 18.075 12.35 18.075ZM3.85 19.5H20.65L12.25 5L3.85 19.5Z" fill="#FF0000"/>
</svg>
