<svg width="33" height="28" viewBox="0 0 33 28" fill="none" xmlns="http://www.w3.org/2000/svg">
<path d="M0.526489 27.8759L16.5598 0.181885L32.5932 27.8759H0.526489ZM15.6124 19.5677H17.7988V11.4052H15.6124V19.5677ZM16.7056 23.6124C17.0214 23.6124 17.2826 23.5092 17.4891 23.3027C17.6955 23.0962 17.7988 22.8351 17.7988 22.5193C17.7988 22.2035 17.6955 21.9423 17.4891 21.7358C17.2826 21.5293 17.0214 21.4261 16.7056 21.4261C16.3898 21.4261 16.1286 21.5293 15.9222 21.7358C15.7157 21.9423 15.6124 22.2035 15.6124 22.5193C15.6124 22.8351 15.7157 23.0962 15.9222 23.3027C16.1286 23.5092 16.3898 23.6124 16.7056 23.6124ZM4.31619 25.6895H28.8035L16.5598 4.55462L4.31619 25.6895Z" fill="#FF0000"/>
</svg>
