<svg width="20" height="12" viewBox="0 0 20 12" fill="none" xmlns="http://www.w3.org/2000/svg">
<path d="M19.5984 8.67925C19.5984 8.3928 19.4298 8.15349 19.1899 8.03504V3.59144C19.2443 3.57089 19.2782 3.51952 19.2776 3.46211C19.2776 3.4047 19.2401 3.35394 19.1875 3.33521L10.0193 0.101464C9.90206 0.0597658 9.77394 0.0597658 9.6561 0.101464L0.489094 3.33581C0.435309 3.35454 0.39905 3.40531 0.398445 3.46272C0.397841 3.52013 0.432288 3.5715 0.485468 3.59204L9.63978 7.15514C9.76729 7.20409 9.9081 7.20409 10.0356 7.15514L18.5578 3.83619V8.03444C18.3185 8.15228 18.1499 8.3934 18.1499 8.67804C18.1499 8.97537 18.3312 9.23342 18.5904 9.34401C18.3312 9.85587 18.1499 10.9062 18.1499 11.2059C18.1499 11.6054 18.4744 11.9293 18.8739 11.9293C19.2727 11.9293 19.5972 11.6054 19.5972 11.2059C19.5972 10.9062 19.4153 9.85587 19.1567 9.34401C19.4165 9.23462 19.5984 8.97658 19.5984 8.67925Z" fill="white"/>
<path d="M3.35254 5.38623C3.35314 6.41116 3.35375 7.6174 3.35375 7.80897C3.35375 9.71742 6.2261 11.2711 9.83815 11.3684C13.4496 11.2711 16.322 9.71924 16.322 7.80897C16.322 7.61861 16.322 6.41177 16.3232 5.38623L10.0346 7.83435C9.90704 7.8839 9.76624 7.8839 9.63872 7.83435L3.35254 5.38623Z" fill="white"/>
</svg>
