<svg width="13" height="10" viewBox="0 0 13 10" fill="none" xmlns="http://www.w3.org/2000/svg">
    <path d="M11.647 0.5H1.01065C0.902156 0.5 0.798102 0.543101 0.721382 0.61982C0.644663 0.696539 0.601563 0.800593 0.601562 0.909091V9.09091C0.601563 9.19941 0.644663 9.30346 0.721382 9.38018C0.798102 9.4569 0.902156 9.5 1.01065 9.5H11.647C11.7555 9.5 11.8596 9.4569 11.9363 9.38018C12.013 9.30346 12.0561 9.19941 12.0561 9.09091V0.909091C12.0561 0.800593 12.013 0.696539 11.9363 0.61982C11.8596 0.543101 11.7555 0.5 11.647 0.5ZM6.57992 5.73202C6.50812 5.78783 6.41977 5.81813 6.32884 5.81813C6.2379 5.81813 6.14955 5.78783 6.07776 5.73202L2.07301 2.6173L2.57517 1.97145L6.32884 4.89082L10.0825 1.97145L10.5847 2.6173L6.57992 5.73202Z"
          fill="#999" />
</svg>
