<svg width="13" height="10" viewBox="0 0 13 10" fill="none" xmlns="http://www.w3.org/2000/svg">
<path d="M11.6451 0.5H1.0087C0.900203 0.5 0.796149 0.543101 0.719429 0.61982C0.64271 0.696539 0.599609 0.800593 0.599609 0.909091V9.09091C0.599609 9.19941 0.64271 9.30346 0.719429 9.38018C0.796149 9.4569 0.900203 9.5 1.0087 9.5H11.6451C11.7536 9.5 11.8576 9.4569 11.9343 9.38018C12.0111 9.30346 12.0542 9.19941 12.0542 9.09091V0.909091C12.0542 0.800593 12.0111 0.696539 11.9343 0.61982C11.8576 0.543101 11.7536 0.5 11.6451 0.5ZM6.57796 5.73202C6.50617 5.78783 6.41782 5.81813 6.32688 5.81813C6.23594 5.81813 6.1476 5.78783 6.0758 5.73202L2.07106 2.6173L2.57322 1.97145L6.32688 4.89082L10.0805 1.97145L10.5827 2.6173L6.57796 5.73202Z" fill="#FF6515"/>
</svg>
