<svg width="10" height="14" viewBox="0 0 10 14" fill="none" xmlns="http://www.w3.org/2000/svg">
<path d="M4.99999 13.7061C4.09778 12.9327 3.26156 12.0849 2.49999 11.1715C1.35714 9.79971 6.32821e-07 7.75681 6.32821e-07 5.81008C-0.00101365 3.77691 1.21732 1.9435 3.08647 1.16539C4.95563 0.38728 7.1072 0.817854 8.53712 2.25618C9.47748 3.19696 10.0042 4.47666 9.99998 5.81008C9.99998 7.75681 8.64284 9.79971 7.49998 11.1715C6.73841 12.0849 5.9022 12.9327 4.99999 13.7061ZM4.99999 3.65664C4.23442 3.65664 3.52701 4.06709 3.14423 4.73336C2.76144 5.39964 2.76144 6.22054 3.14423 6.88681C3.52701 7.55309 4.23442 7.96354 4.99999 7.96354C6.18349 7.96354 7.14284 6.99937 7.14284 5.81008C7.14284 4.62077 6.18349 3.65664 4.99999 3.65664Z" fill="#FF6515"/>
</svg>
