<svg width="12" height="12" viewBox="0 0 12 12" fill="none" xmlns="http://www.w3.org/2000/svg">
    <path d="M11.5042 8.88163L10.306 7.68346C10.0892 7.46673 9.81757 7.31291 9.52017 7.23843C9.22277 7.16394 8.91073 7.17157 8.61733 7.26051C8.32393 7.34944 8.06017 7.51635 7.85417 7.74342C7.64818 7.97049 7.50769 8.24922 7.44767 8.54987C5.47185 8.18041 3.55017 6.26662 3.43056 4.55607C3.76646 4.49428 4.07559 4.3317 4.31685 4.08996C4.63451 3.77226 4.81297 3.34139 4.81297 2.89212C4.81297 2.44286 4.63451 2.01199 4.31685 1.69429L3.11902 0.496113C2.80132 0.178455 2.37045 0 1.92119 0C1.47192 0 1.04105 0.178455 0.723353 0.496113C-2.87049 4.08996 7.91035 14.8708 11.5042 11.277C11.8217 10.9592 12 10.5285 12 10.0793C12 9.63014 11.8217 9.19936 11.5042 8.88163Z"
          fill="#999"/>
</svg>
