<svg width="46" height="47" viewBox="0 0 46 47" fill="none" xmlns="http://www.w3.org/2000/svg">
<rect x="11" y="9.64551" width="32" height="33" fill="#2CA1C7"/>
<path d="M30.11 2.00434L30.1101 2.00428C30.4931 1.61862 31.0119 1.40249 31.5522 1.40234C31.5523 1.40234 31.5523 1.40234 31.5524 1.40234H40.6667C41.8812 1.40234 43.0466 1.88794 43.9064 2.75338C44.7663 3.61894 45.25 4.79357 45.25 6.01904V41.8359C45.25 43.0614 44.7663 44.236 43.9064 45.1016C43.0466 45.967 41.8812 46.4526 40.6667 46.4526H5.08333C3.86882 46.4526 2.70338 45.967 1.84358 45.1016C0.983675 44.236 0.5 43.0614 0.5 41.8359V6.01904C0.5 4.79357 0.983675 3.61894 1.84358 2.75339C2.70338 1.88794 3.86882 1.40234 5.08333 1.40234H14.1976C14.1977 1.40234 14.1977 1.40234 14.1978 1.40234C14.7381 1.40249 15.2569 1.61862 15.6399 2.00428L15.64 2.00434L22.5203 8.92979L22.875 9.28682L23.2297 8.92979L30.11 2.00434ZM35.1933 20.9719L35.1934 20.972L35.1994 20.9657C35.7531 20.3887 36.0589 19.6165 36.052 18.8157C36.0451 18.0148 35.726 17.2481 35.1624 16.6808C34.5987 16.1134 33.8354 15.791 33.0369 15.784C32.2383 15.777 31.4696 16.086 30.8962 16.6435L30.8961 16.6435L30.89 16.6496L20.3333 27.2756L17.4017 24.3247L17.4017 24.3246L17.3955 24.3186C16.822 23.7611 16.0533 23.4521 15.2548 23.459C14.4562 23.466 13.693 23.7885 13.1293 24.3559C12.5657 24.9231 12.2466 25.6899 12.2397 26.4907C12.2328 27.2916 12.5386 28.0637 13.0923 28.6408L13.0922 28.6408L13.0983 28.647L18.1817 33.7637L18.1817 33.7637C18.7519 34.3375 19.5257 34.6603 20.3333 34.6603C21.1409 34.6603 21.9148 34.3375 22.4849 33.7637L22.485 33.7637L35.1933 20.9719Z" fill="#E0ECF0" stroke="#E0ECF0"/>
</svg>
