<svg width="18" height="18" viewBox="0 0 18 18" fill="none" xmlns="http://www.w3.org/2000/svg">
<path d="M17.8758 16.6476L12.079 10.8508C12.9785 9.68781 13.4651 8.26594 13.4651 6.7704C13.4651 4.98022 12.7665 3.30165 11.5031 2.03603C10.2397 0.770403 8.55664 0.0739746 6.76869 0.0739746C4.98075 0.0739746 3.29771 0.772635 2.03432 2.03603C0.768694 3.29942 0.0722656 4.98022 0.0722656 6.7704C0.0722656 8.55835 0.770926 10.2414 2.03432 11.5048C3.29771 12.7704 4.97852 13.4668 6.76869 13.4668C8.26423 13.4668 9.68387 12.9802 10.8468 12.0829L16.6437 17.8775C16.6607 17.8946 16.6809 17.908 16.7031 17.9173C16.7253 17.9265 16.7491 17.9312 16.7732 17.9312C16.7972 17.9312 16.821 17.9265 16.8432 17.9173C16.8654 17.908 16.8856 17.8946 16.9026 17.8775L17.8758 16.9066C17.8928 16.8896 17.9063 16.8694 17.9155 16.8472C17.9247 16.825 17.9295 16.8011 17.9295 16.7771C17.9295 16.7531 17.9247 16.7292 17.9155 16.707C17.9063 16.6848 17.8928 16.6646 17.8758 16.6476ZM10.3044 10.3061C9.35798 11.2503 8.10352 11.7704 6.76869 11.7704C5.43387 11.7704 4.17941 11.2503 3.23298 10.3061C2.28878 9.35969 1.76869 8.10522 1.76869 6.7704C1.76869 5.43558 2.28878 4.17889 3.23298 3.23469C4.17941 2.29049 5.43387 1.7704 6.76869 1.7704C8.10352 1.7704 9.36021 2.28826 10.3044 3.23469C11.2486 4.18112 11.7687 5.43558 11.7687 6.7704C11.7687 8.10522 11.2486 9.36192 10.3044 10.3061Z" fill="white"/>
</svg>
