<svg width="16" height="16" viewBox="0 0 16 16" fill="none" xmlns="http://www.w3.org/2000/svg">
    <path d="M15.1003 14.1181L10.4628 9.48056C11.1824 8.5502 11.5717 7.4127 11.5717 6.21627C11.5717 4.78413 11.0128 3.44127 10.0021 2.42877C8.99135 1.41627 7.64492 0.859131 6.21457 0.859131C4.78421 0.859131 3.43778 1.41806 2.42706 2.42877C1.41456 3.43949 0.857422 4.78413 0.857422 6.21627C0.857422 7.64663 1.41635 8.99306 2.42706 10.0038C3.43778 11.0163 4.78242 11.5734 6.21457 11.5734C7.41099 11.5734 8.54671 11.1841 9.47707 10.4663L14.1146 15.102C14.1282 15.1156 14.1443 15.1264 14.1621 15.1338C14.1799 15.1411 14.1989 15.1449 14.2181 15.1449C14.2374 15.1449 14.2564 15.1411 14.2742 15.1338C14.292 15.1264 14.3081 15.1156 14.3217 15.102L15.1003 14.3252C15.1139 14.3116 15.1247 14.2955 15.132 14.2777C15.1394 14.2599 15.1432 14.2409 15.1432 14.2216C15.1432 14.2024 15.1394 14.1833 15.132 14.1656C15.1247 14.1478 15.1139 14.1317 15.1003 14.1181ZM9.04314 9.04485C8.286 9.8002 7.28242 10.2163 6.21457 10.2163C5.14671 10.2163 4.14314 9.8002 3.38599 9.04485C2.63064 8.2877 2.21456 7.28413 2.21456 6.21627C2.21456 5.14842 2.63064 4.14306 3.38599 3.3877C4.14314 2.63235 5.14671 2.21627 6.21457 2.21627C7.28242 2.21627 8.28778 2.63056 9.04314 3.3877C9.7985 4.14485 10.2146 5.14842 10.2146 6.21627C10.2146 7.28413 9.7985 8.28949 9.04314 9.04485Z"
          fill="#2984DF"/>
</svg>
