<svg version="1.1" xmlns="http://www.w3.org/2000/svg" xmlns:xlink="http://www.w3.org/1999/xlink">

    <symbol viewBox="0 0 24 24" id="up-link">
        <path d="M18 15L12 9L6 15" stroke-width="2" stroke-linecap="round" stroke-linejoin="round" />
    </symbol>

    <symbol viewBox="0 0 10 9" id="header-new-nav">
        <path d="M1 4L5 8L9 4" stroke-width="1.6" stroke-linecap="round" stroke-linejoin="round" />
    </symbol>

    <symbol viewBox="0 0 24 16" id="header-new-nav-add-open">
        <path d="M0 0H24V2H0V0Z" />
        <path d="M0 14H24V16H0V14Z" />
        <path d="M0 7H24V9H0V7Z" />
    </symbol>

    <symbol viewBox="0 0 30 30" id="header-new-nav-add-close">
        <path d="M8 23.3125L6.6875 22L13.6875 15L6.6875 8L8 6.6875L15 13.6875L22 6.6875L23.3125 8L16.3125 15L23.3125 22L22 23.3125L15 16.3125L8 23.3125Z" />
    </symbol>

    <symbol viewBox="0 0 18 18" id="header-new-search">
        <path d="M11.625 10.5H11.0325L10.8225 10.2975C11.5575 9.4425 12 8.3325 12 7.125C12 4.4325 9.8175 2.25 7.125 2.25C4.4325 2.25 2.25 4.4325 2.25 7.125C2.25 9.8175 4.4325 12 7.125 12C8.3325 12 9.4425 11.5575 10.2975 10.8225L10.5 11.0325V11.625L14.25 15.3675L15.3675 14.25L11.625 10.5ZM7.125 10.5C5.2575 10.5 3.75 8.9925 3.75 7.125C3.75 5.2575 5.2575 3.75 7.125 3.75C8.9925 3.75 10.5 5.2575 10.5 7.125C10.5 8.9925 8.9925 10.5 7.125 10.5Z" />
    </symbol>

    <symbol viewBox="0 0 20 20" id="header-new-search-form">
        <path d="M14.0625 12.5369H13.1738L12.8588 12.2331C13.9613 10.9506 14.625 9.28562 14.625 7.47437C14.625 3.43562 11.3512 0.161865 7.3125 0.161865C3.27375 0.161865 0 3.43562 0 7.47437C0 11.5131 3.27375 14.7869 7.3125 14.7869C9.12375 14.7869 10.7888 14.1231 12.0713 13.0206L12.375 13.3356V14.2244L18 19.8381L19.6763 18.1619L14.0625 12.5369ZM7.3125 12.5369C4.51125 12.5369 2.25 10.2756 2.25 7.47437C2.25 4.67312 4.51125 2.41186 7.3125 2.41186C10.1138 2.41186 12.375 4.67312 12.375 7.47437C12.375 10.2756 10.1138 12.5369 7.3125 12.5369Z" />
    </symbol>

    <symbol viewBox="0 0 24 24" id="header-new-user">
        <path d="M12 11.7C11.0333 11.7 10.2083 11.354 9.525 10.662C8.84167 9.97062 8.5 9.14995 8.5 8.19995C8.5 7.23328 8.84167 6.40828 9.525 5.72495C10.2083 5.04162 11.0333 4.69995 12 4.69995C12.9667 4.69995 13.7917 5.04162 14.475 5.72495C15.1583 6.40828 15.5 7.23328 15.5 8.19995C15.5 9.14995 15.1583 9.97062 14.475 10.662C13.7917 11.354 12.9667 11.7 12 11.7ZM4.5 19.3V17.075C4.5 16.5916 4.63333 16.1416 4.9 15.725C5.16667 15.3083 5.525 14.9833 5.975 14.75C6.95833 14.2666 7.95433 13.904 8.963 13.662C9.971 13.4206 10.9833 13.3 12 13.3C13.0167 13.3 14.0293 13.4206 15.038 13.662C16.046 13.904 17.0417 14.2666 18.025 14.75C18.475 14.9833 18.8333 15.3083 19.1 15.725C19.3667 16.1416 19.5 16.5916 19.5 17.075V19.3H4.5ZM6 17.8H18V17.075C18 16.875 17.9417 16.6916 17.825 16.525C17.7083 16.3583 17.55 16.2166 17.35 16.1C16.4833 15.6833 15.6043 15.3623 14.713 15.137C13.821 14.9123 12.9167 14.8 12 14.8C11.0833 14.8 10.179 14.9123 9.287 15.137C8.39567 15.3623 7.51667 15.6833 6.65 16.1C6.45 16.2166 6.29167 16.3583 6.175 16.525C6.05833 16.6916 6 16.875 6 17.075V17.8ZM12 10.2C12.55 10.2 13.021 10.004 13.413 9.61195C13.8043 9.22062 14 8.74995 14 8.19995C14 7.64995 13.8043 7.17895 13.413 6.78695C13.021 6.39562 12.55 6.19995 12 6.19995C11.45 6.19995 10.9793 6.39562 10.588 6.78695C10.196 7.17895 10 7.64995 10 8.19995C10 8.74995 10.196 9.22062 10.588 9.61195C10.9793 10.004 11.45 10.2 12 10.2Z" />
    </symbol>

    <symbol viewBox="0 0 17 17" id="header-new-add-contacts-social-1">
        <path d="M1.7522 14.7754L2.65641 11.4634C2.0606 10.4453 1.74758 9.28734 1.74952 8.10868C1.74952 4.42668 4.74373 1.44202 8.4375 1.44202C12.1313 1.44202 15.1255 4.42668 15.1255 8.10868C15.1255 11.7907 12.1313 14.7754 8.4375 14.7754C7.25558 14.7773 6.09447 14.4655 5.07344 13.872L1.7522 14.7754ZM6.02381 4.98068C5.93744 4.98603 5.85305 5.0087 5.77568 5.04735C5.70313 5.0883 5.6369 5.1395 5.57906 5.19935C5.4988 5.27468 5.45332 5.34002 5.4045 5.40335C5.15732 5.72401 5.02436 6.11763 5.02663 6.52202C5.02797 6.84868 5.11357 7.16668 5.24733 7.46402C5.52087 8.06535 5.97097 8.70202 6.56553 9.29202C6.70866 9.43402 6.84843 9.57668 6.99891 9.70935C7.73686 10.357 8.61624 10.824 9.5671 11.0734L9.94764 11.1314C10.0714 11.138 10.1951 11.1287 10.3195 11.1227C10.5143 11.1127 10.7045 11.0601 10.8766 10.9687C10.9642 10.9237 11.0497 10.8748 11.1328 10.822C11.1328 10.822 11.1615 10.8033 11.2164 10.762C11.3066 10.6953 11.3622 10.648 11.4371 10.57C11.4926 10.5127 11.5407 10.4454 11.5775 10.3687C11.6297 10.26 11.6818 10.0527 11.7032 9.88002C11.7193 9.74802 11.7146 9.67602 11.7126 9.63135C11.7099 9.56002 11.6504 9.48602 11.5855 9.45468L11.1963 9.28068C11.1963 9.28068 10.6144 9.02802 10.2593 8.86668C10.2219 8.85041 10.1817 8.84115 10.1409 8.83935C10.0952 8.83467 10.0489 8.8398 10.0053 8.8544C9.96172 8.86901 9.92176 8.89274 9.88812 8.92402V8.92268C9.88478 8.92268 9.83997 8.96068 9.35643 9.54468C9.32867 9.58186 9.29044 9.60995 9.24661 9.62539C9.20278 9.64082 9.15533 9.6429 9.11031 9.63135C9.06673 9.61973 9.02404 9.60503 8.98257 9.58735C8.89964 9.55268 8.87088 9.53935 8.81403 9.51468L8.81069 9.51335C8.42807 9.34683 8.07382 9.12191 7.76067 8.84668C7.67641 8.77335 7.59816 8.69335 7.5179 8.61602C7.25478 8.36484 7.02547 8.08069 6.83573 7.77068L6.79627 7.70735C6.76793 7.66479 6.74501 7.61888 6.72805 7.57068C6.70264 7.47268 6.76885 7.39402 6.76885 7.39402C6.76885 7.39402 6.93137 7.21668 7.00694 7.12068C7.06987 7.0409 7.12858 6.9579 7.18283 6.87202C7.26175 6.74535 7.2865 6.61535 7.24503 6.51468C7.05777 6.05868 6.86382 5.60468 6.66451 5.15402C6.62506 5.06468 6.50802 5.00068 6.40168 4.98802C6.36556 4.98402 6.32945 4.98002 6.29333 4.97735C6.20352 4.9729 6.11352 4.97379 6.02381 4.98002V4.98068Z" />
    </symbol>

    <symbol viewBox="0 0 17 17" id="header-new-add-contacts-social-2">
        <path d="M9.47398 14.1066V8.64263H11.3232L11.5981 6.5033H9.47398V5.14063C9.47398 4.5233 9.64653 4.10063 10.5354 4.10063H11.6616V2.1933C11.1136 2.13476 10.5628 2.1065 10.0117 2.10863C8.37715 2.10863 7.25491 3.1033 7.25491 4.9293V6.4993H5.41772V8.63863H7.25892V14.1066H9.47398Z" />
    </symbol>

    <symbol viewBox="0 0 17 17" id="header-new-add-contacts-social-3">
        <path d="M15.0579 4.91069C14.9818 4.62896 14.8329 4.37202 14.6261 4.16547C14.4194 3.95891 14.162 3.80993 13.8795 3.73335C12.8322 3.44669 8.64217 3.44202 8.64217 3.44202C8.64217 3.44202 4.45282 3.43735 3.40481 3.71135C3.12253 3.79145 2.86564 3.94254 2.65881 4.15011C2.45198 4.35768 2.30215 4.61477 2.22371 4.89669C1.9475 5.94069 1.94483 8.10602 1.94483 8.10602C1.94483 8.10602 1.94215 10.282 2.21636 11.3154C2.37018 11.8867 2.82162 12.338 3.39545 12.492C4.45349 12.7787 8.63213 12.7834 8.63213 12.7834C8.63213 12.7834 12.8222 12.788 13.8695 12.5147C14.1521 12.4382 14.4097 12.2896 14.617 12.0835C14.8242 11.8773 14.9739 11.6208 15.0513 11.3394C15.3281 10.296 15.3301 8.13136 15.3301 8.13136C15.3301 8.13136 15.3435 5.95469 15.0579 4.91069ZM7.3019 10.112L7.30524 6.11202L10.7877 8.11536L7.3019 10.112Z" />
    </symbol>

    <symbol viewBox="0 0 17 17" id="header-new-add-contacts-social-4">
        <path d="M8.74437 1.44202C10.5615 1.44202 10.7882 1.44868 11.5012 1.48202C12.2134 1.51535 12.6983 1.62668 13.125 1.79202C13.5664 1.96135 13.9383 2.19068 14.3101 2.56068C14.6502 2.89395 14.9133 3.29708 15.0812 3.74202C15.2464 4.16668 15.3588 4.65068 15.3922 5.36068C15.4237 6.07135 15.4324 6.29735 15.4324 8.10868C15.4324 9.92002 15.4257 10.146 15.3922 10.8567C15.3588 11.5667 15.2464 12.05 15.0812 12.4753C14.9138 12.9205 14.6506 13.3238 14.3101 13.6567C13.9757 13.9956 13.5713 14.2579 13.125 14.4254C12.699 14.59 12.2134 14.702 11.5012 14.7354C10.7882 14.7667 10.5615 14.7754 8.74437 14.7754C6.92725 14.7754 6.70053 14.7687 5.98759 14.7354C5.27532 14.702 4.79044 14.59 4.36375 14.4254C3.91721 14.2583 3.51272 13.996 3.17864 13.6567C2.83849 13.3235 2.57534 12.9203 2.40752 12.4753C2.24165 12.0507 2.12996 11.5667 2.09652 10.8567C2.06509 10.146 2.0564 9.92002 2.0564 8.10868C2.0564 6.29735 2.06308 6.07135 2.09652 5.36068C2.12996 4.65002 2.24165 4.16735 2.40752 3.74202C2.57487 3.2968 2.83809 2.89356 3.17864 2.56068C3.51282 2.2215 3.91728 1.95917 4.36375 1.79202C4.79044 1.62668 5.27465 1.51535 5.98759 1.48202C6.70053 1.45068 6.92725 1.44202 8.74437 1.44202ZM8.74437 4.77535C7.85749 4.77535 7.00694 5.12654 6.37982 5.75166C5.7527 6.37678 5.40038 7.22463 5.40038 8.10868C5.40038 8.99274 5.7527 9.84058 6.37982 10.4657C7.00694 11.0908 7.85749 11.442 8.74437 11.442C9.63125 11.442 10.4818 11.0908 11.1089 10.4657C11.736 9.84058 12.0884 8.99274 12.0884 8.10868C12.0884 7.22463 11.736 6.37678 11.1089 5.75166C10.4818 5.12654 9.63125 4.77535 8.74437 4.77535ZM13.0916 4.60868C13.0916 4.38767 13.0035 4.17571 12.8467 4.01943C12.6899 3.86315 12.4773 3.77535 12.2556 3.77535C12.0338 3.77535 11.8212 3.86315 11.6644 4.01943C11.5076 4.17571 11.4196 4.38767 11.4196 4.60868C11.4196 4.8297 11.5076 5.04166 11.6644 5.19794C11.8212 5.35422 12.0338 5.44202 12.2556 5.44202C12.4773 5.44202 12.6899 5.35422 12.8467 5.19794C13.0035 5.04166 13.0916 4.8297 13.0916 4.60868ZM8.74437 6.10868C9.2765 6.10868 9.78684 6.3194 10.1631 6.69447C10.5394 7.06954 10.7508 7.57825 10.7508 8.10868C10.7508 8.63912 10.5394 9.14782 10.1631 9.5229C9.78684 9.89797 9.2765 10.1087 8.74437 10.1087C8.21224 10.1087 7.70191 9.89797 7.32564 9.5229C6.94937 9.14782 6.73798 8.63912 6.73798 8.10868C6.73798 7.57825 6.94937 7.06954 7.32564 6.69447C7.70191 6.3194 8.21224 6.10868 8.74437 6.10868Z" />
    </symbol>

    <symbol viewBox="0 0 17 17" id="header-new-add-contacts-social-5">
        <path d="M15.2531 4.67857C15.3467 4.36857 15.2531 4.14124 14.8103 4.14124H13.3437C12.9705 4.14124 12.7999 4.3379 12.7063 4.5539C12.7063 4.5539 11.9606 6.36657 10.9039 7.5419C10.5628 7.8839 10.407 7.9919 10.221 7.9919C10.1281 7.9919 9.99299 7.8839 9.99299 7.5739V4.67857C9.99299 4.30657 9.88531 4.14124 9.57432 4.14124H7.26964C7.0369 4.14124 6.89645 4.31324 6.89645 4.47724C6.89645 4.82924 7.4248 4.91057 7.47898 5.90257V8.05457C7.47898 8.5259 7.39404 8.6119 7.20678 8.6119C6.70986 8.6119 5.50067 6.79257 4.78305 4.7099C4.64327 4.30524 4.50216 4.1419 4.12763 4.1419H2.66163C2.24229 4.1419 2.15869 4.33857 2.15869 4.55457C2.15869 4.94257 2.65561 6.86257 4.4734 9.4019C5.68526 11.1359 7.39136 12.0759 8.94565 12.0759C9.87729 12.0759 9.99232 11.8672 9.99232 11.5072V10.1966C9.99232 9.77924 10.0813 9.69524 10.3762 9.69524C10.5929 9.69524 10.9661 9.80457 11.8362 10.6399C12.83 11.6306 12.9946 12.0752 13.553 12.0752H15.019C15.4377 12.0752 15.647 11.8666 15.5266 11.4546C15.3949 11.0446 14.92 10.4479 14.29 9.7419C13.9476 9.33924 13.436 8.9059 13.2801 8.68924C13.0628 8.4099 13.1256 8.28657 13.2801 8.03857C13.2808 8.03924 15.0672 5.53124 15.2531 4.67857Z" />
    </symbol>

    <symbol viewBox="0 0 17 17" id="header-new-add-contacts-social-6">
        <path d="M14.0539 5.43996C14.0626 5.55663 14.0626 5.67263 14.0626 5.78863C14.0626 9.33863 11.352 13.4293 6.39817 13.4293C4.87197 13.4293 3.45412 12.9886 2.26099 12.2233C2.47768 12.248 2.68634 12.2566 2.91173 12.2566C4.12425 12.2596 5.30244 11.8554 6.25638 11.1093C5.69421 11.0992 5.14924 10.9143 4.69758 10.5805C4.24591 10.2466 3.9101 9.78056 3.73702 9.2473C3.90355 9.27197 4.07075 9.28863 4.24598 9.28863C4.48741 9.28863 4.73019 9.2553 4.95557 9.1973C4.34547 9.07451 3.79686 8.74486 3.40304 8.26442C3.00921 7.78398 2.79448 7.1824 2.79536 6.56196V6.52863C3.1545 6.72796 3.57116 6.85263 4.01257 6.8693C3.64278 6.62435 3.33957 6.29198 3.12998 5.90182C2.92039 5.51167 2.81095 5.07587 2.81141 4.6333C2.81141 4.13463 2.9445 3.6773 3.17791 3.27863C3.85482 4.10864 4.69909 4.78767 5.65603 5.27174C6.61297 5.7558 7.66123 6.03411 8.73294 6.08863C8.69148 5.88863 8.66606 5.6813 8.66606 5.4733C8.66588 5.12061 8.73545 4.77134 8.87077 4.44546C9.00608 4.11958 9.20451 3.82348 9.4547 3.57409C9.70489 3.3247 10.0019 3.1269 10.3289 2.99202C10.6558 2.85713 11.0062 2.78779 11.36 2.78796C12.1358 2.78796 12.836 3.11196 13.3282 3.63596C13.9314 3.51971 14.5097 3.30025 15.0377 2.9873C14.8367 3.60784 14.4156 4.13403 13.8533 4.4673C14.3882 4.40648 14.9109 4.26627 15.4042 4.0513C15.0358 4.5867 14.5792 5.05619 14.0539 5.43996Z" />
    </symbol>

    <symbol viewBox="0 0 24 24" id="programs-new-group-title-open">
        <path d="M4 11.5H20V13H4V11.5Z" />
        <path d="M11.5 20V4H13V20H11.5Z" />
    </symbol>

    <symbol viewBox="0 0 24 24" id="programs-new-group-title-close">
        <path d="M4 11.5H20V13H4V11.5Z" />
    </symbol>

    <symbol viewBox="0 0 24 24" id="programs-new-list-item-period">
        <path d="M15.475 16.525L16.525 15.475L12.75 11.7V7H11.25V12.3L15.475 16.525ZM12 21.5C10.6833 21.5 9.446 21.25 8.288 20.75C7.12933 20.25 6.125 19.575 5.275 18.725C4.425 17.875 3.75 16.8707 3.25 15.712C2.75 14.554 2.5 13.3167 2.5 12C2.5 10.6833 2.75 9.44567 3.25 8.287C3.75 7.129 4.425 6.125 5.275 5.275C6.125 4.425 7.12933 3.75 8.288 3.25C9.446 2.75 10.6833 2.5 12 2.5C13.3167 2.5 14.5543 2.75 15.713 3.25C16.871 3.75 17.875 4.425 18.725 5.275C19.575 6.125 20.25 7.129 20.75 8.287C21.25 9.44567 21.5 10.6833 21.5 12C21.5 13.3167 21.25 14.554 20.75 15.712C20.25 16.8707 19.575 17.875 18.725 18.725C17.875 19.575 16.871 20.25 15.713 20.75C14.5543 21.25 13.3167 21.5 12 21.5ZM12 20C14.2167 20 16.1043 19.221 17.663 17.663C19.221 16.1043 20 14.2167 20 12C20 9.78333 19.221 7.89567 17.663 6.337C16.1043 4.779 14.2167 4 12 4C9.78333 4 7.896 4.779 6.338 6.337C4.77933 7.89567 4 9.78333 4 12C4 14.2167 4.77933 16.1043 6.338 17.663C7.896 19.221 9.78333 20 12 20Z" />
    </symbol>

    <symbol viewBox="0 0 28 28" id="programs-new-list-more">
        <path d="M9.7575 10.818L8.69684 11.8787L14.0001 17.182L19.3034 11.8787L18.2428 10.818L14.0001 15.0606L9.7575 10.818Z" />
    </symbol>

    <symbol viewBox="0 0 21 20" id="educational-program-logo-new-text-title">
        <path d="M20.0905 9.5122L18.7927 9.26829L20.0122 8.29268C20.2476 8.09957 20.5087 7.80947 20.4992 7.46744C20.49 7.12516 20.3354 6.81266 20.0905 6.63908L10.9238 0.139158C10.6626 -0.0463862 10.3371 -0.0463862 10.0758 0.139158L0.909163 6.63908C0.663802 6.81315 0.509587 7.12565 0.500431 7.46744C0.491276 7.80947 0.628402 8.13296 0.863793 8.32607L3.83335 10.756V17C3.83335 18.6543 4.95457 20 6.33335 20H14.6667C16.0455 20 17.0854 18.6496 17.0854 16.9954V10.9196L18.061 10L19.5244 10.2439V16.5C19.5244 17.052 19.5522 17.561 20.0122 17.561C20.4722 17.561 20.5 17.052 20.5 16.5V10.9196C20.5 10.4685 20.5 9.73336 20.0905 9.5122ZM10.5 0.97561L19.5244 7.46744L17.8171 9.02439L10.9878 7.56098C10.5429 7.41645 10.3177 7.53283 10.2561 7.80488C10.1355 8.33734 10.5441 8.39108 10.9878 8.53659L16.8415 9.73336L10.5 14.878L1.47561 7.46744L10.5 0.97561ZM14.7514 19.0244H6.25015C5.53875 18.7805 4.89024 17.9501 4.89024 17.4622V11.7073L10.0304 15.826C10.1721 15.9419 10.3358 16 10.5 16C10.6642 16 10.828 15.9419 10.9696 15.826L16.1098 11.764V17.5109C16.1098 18.0621 15.211 19.0244 14.7514 19.0244Z" />
    </symbol>

    <symbol viewBox="0 0 13 13" id="header-new-add-menu-parent">
        <path d="M4 11.7842L9 6.78418L4 1.78418" stroke-width="1.6" stroke-linecap="round" stroke-linejoin="round" />
    </symbol>

</svg>