<svg width="24" height="25" viewBox="0 0 24 25" fill="none" xmlns="http://www.w3.org/2000/svg">
<circle cx="12" cy="12.167" r="12" fill="#2787F5"/>
<path d="M17.7474 9.60294C17.8314 9.35143 17.7474 9.16699 17.3502 9.16699H16.0344C15.6996 9.16699 15.5466 9.32655 15.4626 9.5018C15.4626 9.5018 14.7936 10.9724 13.8456 11.926C13.5396 12.2035 13.3998 12.2911 13.233 12.2911C13.1496 12.2911 13.0284 12.2035 13.0284 11.952V9.60294C13.0284 9.30113 12.9318 9.16699 12.6528 9.16699H10.5852C10.3764 9.16699 10.2504 9.30654 10.2504 9.4396C10.2504 9.72518 10.7244 9.79117 10.773 10.596V12.342C10.773 12.7244 10.6968 12.7941 10.5288 12.7941C10.083 12.7941 8.9982 11.3181 8.3544 9.62836C8.229 9.30005 8.1024 9.16753 7.7664 9.16753H6.4512C6.075 9.16753 6 9.32709 6 9.50234C6 9.81713 6.4458 11.3749 8.0766 13.4351C9.1638 14.8419 10.6944 15.6045 12.0888 15.6045C12.9246 15.6045 13.0278 15.4352 13.0278 15.1432V14.0798C13.0278 13.7412 13.1076 13.6731 13.3722 13.6731C13.5666 13.6731 13.9014 13.7618 14.682 14.4395C15.5736 15.2432 15.7212 15.604 16.2222 15.604H17.5374C17.913 15.604 18.1008 15.4347 17.9928 15.1004C17.8746 14.7678 17.4486 14.2837 16.8834 13.7109C16.5762 13.3842 16.1172 13.0327 15.9774 12.8569C15.7824 12.6302 15.8388 12.5302 15.9774 12.329C15.978 12.3295 17.5806 10.2947 17.7474 9.60294Z" fill="white"/>
</svg>
