<svg width="24" height="25" viewBox="0 0 24 25" fill="none" xmlns="http://www.w3.org/2000/svg">
<g clip-path="url(#clip0_52_9325)">
<path d="M12 24.167C18.6274 24.167 24 18.7944 24 12.167C24 5.53958 18.6274 0.166992 12 0.166992C5.37258 0.166992 0 5.53958 0 12.167C0 18.7944 5.37258 24.167 12 24.167Z" fill="#269EDA"/>
<path d="M10.0105 14.0548L9.73721 16.9594C9.73721 16.9594 9.62281 17.8494 10.5126 16.9594C11.4024 16.0694 12.2541 15.3831 12.2541 15.3831" fill="white"/>
<path d="M8.1492 13.1848L5.2206 12.2306C5.2206 12.2306 4.8706 12.0886 4.9833 11.7666C5.0065 11.7002 5.0533 11.6437 5.1933 11.5466C5.8422 11.0943 17.2039 7.01058 17.2039 7.01058C17.2039 7.01058 17.5247 6.90248 17.7139 6.97438C17.7607 6.98887 17.8028 7.01553 17.8359 7.05164C17.8691 7.08775 17.892 7.132 17.9024 7.17988C17.9228 7.26445 17.9314 7.35146 17.9278 7.43838C17.9269 7.51358 17.9178 7.58328 17.9109 7.69258C17.8417 8.80908 15.7709 17.1419 15.7709 17.1419C15.7709 17.1419 15.647 17.6295 15.2031 17.6462C15.094 17.6497 14.9853 17.6312 14.8835 17.5919C14.7817 17.5525 14.6889 17.493 14.6106 17.417C13.7395 16.6677 10.7287 14.6443 10.0634 14.1993C10.0484 14.1891 10.0358 14.1757 10.0263 14.1602C10.0169 14.1447 10.0109 14.1273 10.0088 14.1093C9.9995 14.0624 10.0505 14.0043 10.0505 14.0043C10.0505 14.0043 15.2931 9.34428 15.4326 8.85508C15.4434 8.81718 15.4026 8.79848 15.3478 8.81508C14.9996 8.94318 8.9634 12.7551 8.2972 13.1758C8.24924 13.1903 8.19856 13.1934 8.1492 13.1848Z" fill="white"/>
</g>
<defs>
<clipPath id="clip0_52_9325">
<rect width="24" height="24" fill="white" transform="translate(0 0.166992)"/>
</clipPath>
</defs>
</svg>
