<svg width="40" height="40" viewBox="0 0 40 40" fill="none" xmlns="http://www.w3.org/2000/svg">
<circle cx="20" cy="20" r="20" fill="#2CA1C7" fill-opacity="0.15"/>
<path d="M19.665 11C22.0193 11 22.313 11.0087 23.2367 11.052C24.1595 11.0953 24.7877 11.24 25.3406 11.4549C25.9125 11.675 26.3942 11.9731 26.876 12.454C27.3166 12.8871 27.6576 13.4111 27.8751 13.9894C28.0891 14.5414 28.2347 15.1705 28.278 16.0933C28.3187 17.017 28.33 17.3107 28.33 19.665C28.33 22.0193 28.3213 22.313 28.278 23.2367C28.2347 24.1595 28.0891 24.7877 27.8751 25.3406C27.6582 25.9192 27.3172 26.4433 26.876 26.876C26.4427 27.3165 25.9188 27.6574 25.3406 27.8751C24.7886 28.0891 24.1595 28.2347 23.2367 28.278C22.313 28.3187 22.0193 28.33 19.665 28.33C17.3107 28.33 17.017 28.3213 16.0933 28.278C15.1705 28.2347 14.5423 28.0891 13.9894 27.8751C13.4109 27.658 12.8868 27.317 12.454 26.876C12.0133 26.4429 11.6723 25.9189 11.4549 25.3406C11.24 24.7886 11.0953 24.1595 11.052 23.2367C11.0113 22.313 11 22.0193 11 19.665C11 17.3107 11.0087 17.017 11.052 16.0933C11.0953 15.1696 11.24 14.5423 11.4549 13.9894C11.6717 13.4108 12.0128 12.8866 12.454 12.454C12.887 12.0131 13.411 11.6722 13.9894 11.4549C14.5423 11.24 15.1696 11.0953 16.0933 11.052C17.017 11.0113 17.3107 11 19.665 11ZM19.665 15.3325C18.5159 15.3325 17.414 15.789 16.6015 16.6015C15.789 17.414 15.3325 18.5159 15.3325 19.665C15.3325 20.8141 15.789 21.916 16.6015 22.7285C17.414 23.541 18.5159 23.9975 19.665 23.9975C20.8141 23.9975 21.916 23.541 22.7285 22.7285C23.541 21.916 23.9975 20.8141 23.9975 19.665C23.9975 18.5159 23.541 17.414 22.7285 16.6015C21.916 15.789 20.8141 15.3325 19.665 15.3325ZM25.2973 15.1159C25.2973 14.8286 25.1831 14.5531 24.98 14.35C24.7769 14.1469 24.5014 14.0328 24.2141 14.0328C23.9269 14.0328 23.6514 14.1469 23.4482 14.35C23.2451 14.5531 23.131 14.8286 23.131 15.1159C23.131 15.4031 23.2451 15.6786 23.4482 15.8818C23.6514 16.0849 23.9269 16.199 24.2141 16.199C24.5014 16.199 24.7769 16.0849 24.98 15.8818C25.1831 15.6786 25.2973 15.4031 25.2973 15.1159ZM19.665 17.0655C20.3544 17.0655 21.0156 17.3394 21.5031 17.8269C21.9906 18.3144 22.2645 18.9756 22.2645 19.665C22.2645 20.3544 21.9906 21.0156 21.5031 21.5031C21.0156 21.9906 20.3544 22.2645 19.665 22.2645C18.9756 22.2645 18.3144 21.9906 17.8269 21.5031C17.3394 21.0156 17.0655 20.3544 17.0655 19.665C17.0655 18.9756 17.3394 18.3144 17.8269 17.8269C18.3144 17.3394 18.9756 17.0655 19.665 17.0655Z" fill="#2CA1C7"/>
</svg>
