<svg width="14" height="12" viewBox="0 0 14 12" fill="none" xmlns="http://www.w3.org/2000/svg">
<path d="M12.0886 3.3312C12.0973 3.44787 12.0973 3.56387 12.0973 3.67987C12.0973 7.22987 9.39525 11.3205 4.45725 11.3205C2.93592 11.3205 1.52259 10.8799 0.333252 10.1145C0.549252 10.1392 0.757252 10.1479 0.981919 10.1479C2.19058 10.1508 3.36502 9.74663 4.31592 9.00053C3.75553 8.99039 3.2123 8.80551 2.76208 8.47169C2.31185 8.13788 1.97711 7.6718 1.80459 7.13853C1.97059 7.1632 2.13725 7.17987 2.31192 7.17987C2.55259 7.17987 2.79459 7.14653 3.01925 7.08853C2.41109 6.96574 1.86423 6.6361 1.47166 6.15566C1.07909 5.67521 0.865047 5.07363 0.865919 4.4532V4.41987C1.22392 4.6192 1.63925 4.74387 2.07925 4.76053C1.71064 4.51559 1.4084 4.18322 1.19948 3.79306C0.990558 3.40291 0.881461 2.9671 0.881919 2.52453C0.881919 2.02587 1.01459 1.56853 1.24725 1.16987C1.92201 1.99988 2.76359 2.67891 3.71748 3.16297C4.67136 3.64704 5.71629 3.92534 6.78459 3.97987C6.74325 3.77987 6.71792 3.57253 6.71792 3.36453C6.71774 3.01184 6.78708 2.66257 6.92197 2.33669C7.05686 2.01081 7.25465 1.71472 7.50404 1.46532C7.75344 1.21593 8.04953 1.01814 8.37541 0.883252C8.70129 0.748363 9.05056 0.679024 9.40325 0.6792C10.1766 0.6792 10.8746 1.0032 11.3653 1.5272C11.9664 1.41094 12.5429 1.19148 13.0693 0.878533C12.8689 1.49908 12.4491 2.02527 11.8886 2.35853C12.4218 2.29772 12.9429 2.1575 13.4346 1.94253C13.0673 2.47793 12.6123 2.94743 12.0886 3.3312Z" fill="white"/>
</svg>
