<svg width="40" height="40" viewBox="0 0 40 40" fill="none" xmlns="http://www.w3.org/2000/svg">
<circle cx="20" cy="20" r="20" fill="#2CA1C7" fill-opacity="0.15"/>
<path d="M10.003 30L11.355 25.032C10.4642 23.5049 9.99613 21.768 9.99904 20C9.99904 14.477 14.476 10 19.999 10C25.522 10 29.999 14.477 29.999 20C29.999 25.523 25.522 30 19.999 30C18.2318 30.0029 16.4957 29.5352 14.969 28.645L10.003 30ZM16.39 15.308C16.2609 15.316 16.1347 15.35 16.019 15.408C15.9106 15.4694 15.8115 15.5462 15.725 15.636C15.605 15.749 15.537 15.847 15.464 15.942C15.0944 16.423 14.8956 17.0134 14.899 17.62C14.901 18.11 15.029 18.587 15.229 19.033C15.638 19.935 16.311 20.89 17.2 21.775C17.414 21.988 17.623 22.202 17.848 22.401C18.9514 23.3725 20.2663 24.073 21.688 24.447L22.257 24.534C22.442 24.544 22.627 24.53 22.813 24.521C23.1043 24.506 23.3887 24.4271 23.646 24.29C23.777 24.2225 23.9048 24.1491 24.029 24.07C24.029 24.07 24.072 24.042 24.154 23.98C24.289 23.88 24.372 23.809 24.484 23.692C24.567 23.606 24.639 23.505 24.694 23.39C24.772 23.227 24.85 22.916 24.882 22.657C24.906 22.459 24.899 22.351 24.896 22.284C24.892 22.177 24.803 22.066 24.706 22.019L24.124 21.758C24.124 21.758 23.254 21.379 22.723 21.137C22.6671 21.1126 22.6071 21.0987 22.546 21.096C22.4776 21.089 22.4085 21.0967 22.3433 21.1186C22.2781 21.1405 22.2183 21.1761 22.168 21.223V21.221C22.163 21.221 22.096 21.278 21.373 22.154C21.3315 22.2098 21.2744 22.2519 21.2088 22.2751C21.1433 22.2982 21.0724 22.3013 21.005 22.284C20.9399 22.2666 20.876 22.2445 20.814 22.218C20.69 22.166 20.647 22.146 20.562 22.109L20.557 22.107C19.9849 21.8572 19.4553 21.5198 18.987 21.107C18.861 20.997 18.744 20.877 18.624 20.761C18.2306 20.3842 17.8878 19.958 17.604 19.493L17.545 19.398C17.5027 19.3342 17.4684 19.2653 17.443 19.193C17.405 19.046 17.504 18.928 17.504 18.928C17.504 18.928 17.747 18.662 17.86 18.518C17.9541 18.3983 18.0419 18.2738 18.123 18.145C18.241 17.955 18.278 17.76 18.216 17.609C17.936 16.925 17.646 16.244 17.348 15.568C17.289 15.434 17.114 15.338 16.955 15.319C16.901 15.313 16.847 15.307 16.793 15.303C16.6587 15.2963 16.5242 15.2977 16.39 15.307V15.308Z" fill="#2CA1C7"/>
</svg>
