<svg width="14" height="14" viewBox="0 0 14 14" fill="none" xmlns="http://www.w3.org/2000/svg">
<path d="M0.335928 13.6666L1.23726 10.3546C0.643353 9.33649 0.331325 8.17858 0.333261 6.99992C0.333261 3.31792 3.31793 0.333252 6.99993 0.333252C10.6819 0.333252 13.6666 3.31792 13.6666 6.99992C13.6666 10.6819 10.6819 13.6666 6.99993 13.6666C5.82178 13.6685 4.66437 13.3567 3.64659 12.7633L0.335928 13.6666ZM4.59393 3.87192C4.50784 3.87726 4.42371 3.89994 4.34659 3.93859C4.27428 3.97954 4.20826 4.03074 4.15059 4.09059C4.07059 4.16592 4.02526 4.23125 3.97659 4.29459C3.7302 4.61525 3.59767 5.00886 3.59993 5.41325C3.60126 5.73992 3.68659 6.05792 3.81993 6.35525C4.09259 6.95659 4.54126 7.59325 5.13393 8.18325C5.27659 8.32525 5.41593 8.46792 5.56593 8.60059C6.30152 9.24823 7.1781 9.71528 8.12593 9.96459L8.50526 10.0226C8.62859 10.0293 8.75193 10.0199 8.87593 10.0139C9.07009 10.0039 9.25967 9.95132 9.43126 9.85992C9.51856 9.81495 9.60376 9.76601 9.68659 9.71325C9.68659 9.71325 9.71526 9.69458 9.76993 9.65325C9.85993 9.58659 9.91526 9.53925 9.98993 9.46125C10.0453 9.40392 10.0933 9.33659 10.1299 9.25992C10.1819 9.15125 10.2339 8.94392 10.2553 8.77125C10.2713 8.63925 10.2666 8.56725 10.2646 8.52259C10.2619 8.45125 10.2026 8.37725 10.1379 8.34592L9.74993 8.17192C9.74993 8.17192 9.16993 7.91925 8.81593 7.75792C8.7786 7.74165 8.7386 7.73238 8.69793 7.73059C8.65231 7.7259 8.60623 7.73103 8.56276 7.74564C8.5193 7.76024 8.47946 7.78398 8.44593 7.81525V7.81392C8.44259 7.81392 8.39793 7.85192 7.91593 8.43592C7.88826 8.47309 7.85016 8.50119 7.80646 8.51662C7.76277 8.53206 7.71547 8.53413 7.67059 8.52259C7.62716 8.51097 7.5846 8.49627 7.54326 8.47859C7.46059 8.44392 7.43193 8.43059 7.37526 8.40592L7.37193 8.40459C6.99053 8.23807 6.63741 8.01315 6.32526 7.73792C6.24126 7.66459 6.16326 7.58459 6.08326 7.50725C5.82098 7.25608 5.5924 6.97193 5.40326 6.66192L5.36393 6.59859C5.33568 6.55603 5.31283 6.51012 5.29593 6.46192C5.27059 6.36392 5.33659 6.28525 5.33659 6.28525C5.33659 6.28525 5.49859 6.10792 5.57393 6.01192C5.63665 5.93213 5.69518 5.84913 5.74926 5.76325C5.82793 5.63659 5.85259 5.50659 5.81126 5.40592C5.62459 4.94992 5.43126 4.49592 5.23259 4.04525C5.19326 3.95592 5.07659 3.89192 4.97059 3.87925C4.93459 3.87525 4.89859 3.87125 4.86259 3.86859C4.77307 3.86414 4.68335 3.86503 4.59393 3.87125V3.87192Z" fill="white"/>
</svg>
