<svg width="14" height="10" viewBox="0 0 14 10" fill="none" xmlns="http://www.w3.org/2000/svg">
<path d="M13.3953 1.80192C13.3194 1.52019 13.171 1.26326 12.9649 1.0567C12.7588 0.850144 12.5022 0.701164 12.2206 0.62459C11.1766 0.337924 6.99998 0.333257 6.99998 0.333257C6.99998 0.333257 2.82398 0.32859 1.77931 0.60259C1.49793 0.682688 1.24186 0.833775 1.03569 1.04135C0.829515 1.24892 0.680166 1.506 0.601976 1.78792C0.326642 2.83192 0.323976 4.99726 0.323976 4.99726C0.323976 4.99726 0.321309 7.17326 0.594642 8.20659C0.747976 8.77792 1.19798 9.22926 1.76998 9.38326C2.82464 9.66992 6.98998 9.67459 6.98998 9.67459C6.98998 9.67459 11.1666 9.67926 12.2106 9.40592C12.4923 9.32948 12.7491 9.18085 12.9557 8.97471C13.1623 8.76857 13.3116 8.51208 13.3886 8.23059C13.6646 7.18726 13.6666 5.02259 13.6666 5.02259C13.6666 5.02259 13.68 2.84592 13.3953 1.80192ZM5.66398 7.00326L5.66731 3.00326L9.13864 5.00659L5.66398 7.00326Z" fill="white"/>
</svg>
